M48
; DRILL file {KiCad 6.0.6} date Sun 21 Aug 2022 10:39:15 AM EDT
; FORMAT={-:-/ absolute / metric / decimal}
; #@! TF.CreationDate,2022-08-21T10:39:15-04:00
; #@! TF.GenerationSoftware,Kicad,Pcbnew,6.0.6
; #@! TF.FileFunction,NonPlated,1,2,NPTH
FMAT,2
METRIC
; #@! TA.AperFunction,NonPlated,NPTH,ComponentDrill
T1C1.750
; #@! TA.AperFunction,NonPlated,NPTH,ComponentDrill
T2C3.048
; #@! TA.AperFunction,NonPlated,NPTH,ComponentDrill
T3C3.988
%
G90
G05
T1
X30.639Y-33.337
X30.639Y-61.912
X33.02Y-138.112
X35.401Y-80.962
X37.782Y-100.012
X40.799Y-33.337
X40.799Y-61.912
X42.545Y-119.062
X43.18Y-138.112
X45.561Y-80.962
X47.942Y-100.012
X49.689Y-61.912
X52.705Y-119.062
X56.832Y-138.112
X59.214Y-80.962
X59.849Y-61.912
X63.976Y-100.012
X66.992Y-138.112
X68.739Y-33.337
X68.739Y-61.912
X69.374Y-80.962
X73.501Y-119.062
X74.136Y-100.012
X78.264Y-80.962
X78.899Y-33.337
X78.899Y-61.912
X80.645Y-138.112
X83.026Y-100.012
X83.661Y-119.062
X87.789Y-33.337
X87.789Y-61.912
X88.424Y-80.962
X90.805Y-138.112
X92.551Y-119.062
X93.186Y-100.012
X97.314Y-80.962
X97.949Y-33.337
X97.949Y-61.912
X102.076Y-100.012
X102.711Y-119.062
X106.839Y-33.337
X106.839Y-61.912
X107.474Y-80.962
X111.601Y-119.062
X112.236Y-100.012
X116.364Y-80.962
X116.999Y-33.337
X116.999Y-61.912
X121.126Y-100.012
X121.761Y-119.062
X125.889Y-33.337
X125.889Y-61.912
X126.524Y-80.962
X130.651Y-119.062
X131.286Y-100.012
X135.414Y-80.962
X136.049Y-33.337
X136.049Y-61.912
X140.176Y-100.012
X140.811Y-119.062
X144.939Y-61.912
X145.574Y-80.962
X149.701Y-119.062
X150.336Y-100.012
X152.082Y-138.112
X154.464Y-33.337
X154.464Y-80.962
X155.099Y-61.912
X159.226Y-100.012
X159.861Y-119.062
X162.243Y-138.112
X163.989Y-61.912
X164.624Y-33.337
X164.624Y-80.962
X168.751Y-119.062
X169.386Y-100.012
X173.514Y-33.337
X173.514Y-80.962
X174.149Y-61.912
X178.276Y-100.012
X178.911Y-119.062
X183.039Y-61.912
X183.674Y-33.337
X183.674Y-80.962
X187.801Y-119.062
X188.436Y-100.012
X192.564Y-33.337
X192.564Y-80.962
X193.199Y-61.912
X197.326Y-100.012
X197.961Y-119.062
X202.089Y-61.912
X202.724Y-33.337
X202.724Y-80.962
X206.851Y-119.062
X207.486Y-100.012
X211.614Y-33.337
X211.614Y-80.962
X212.249Y-61.912
X216.376Y-100.012
X217.011Y-119.062
X221.139Y-61.912
X221.139Y-138.112
X221.774Y-33.337
X221.774Y-80.962
X225.901Y-119.062
X226.536Y-100.012
X230.664Y-80.962
X231.299Y-61.912
X231.299Y-138.112
X235.426Y-100.012
X236.061Y-119.062
X240.189Y-33.337
X240.189Y-61.912
X240.189Y-138.112
X240.824Y-80.962
X244.951Y-119.062
X245.586Y-100.012
X249.714Y-80.962
X250.349Y-33.337
X250.349Y-61.912
X250.349Y-138.112
X254.476Y-100.012
X255.111Y-119.062
X259.239Y-33.337
X259.239Y-61.912
X259.239Y-138.112
X259.874Y-80.962
X264.636Y-100.012
X268.764Y-80.962
X269.399Y-33.337
X269.399Y-61.912
X269.399Y-138.112
X271.145Y-119.062
X278.289Y-33.337
X278.924Y-80.962
X281.305Y-119.062
X283.051Y-142.875
X285.433Y-100.012
X287.814Y-61.912
X288.449Y-33.337
X292.576Y-80.962
X293.211Y-142.875
X295.592Y-100.012
X297.339Y-33.337
X297.974Y-61.912
X302.101Y-123.825
X302.101Y-142.875
X302.736Y-80.962
X307.499Y-33.337
X312.261Y-123.825
X312.261Y-142.875
X321.151Y-142.875
X325.914Y-33.337
X325.914Y-61.912
X325.914Y-80.962
X325.914Y-100.012
X325.914Y-119.062
X331.311Y-142.875
X336.074Y-33.337
X336.074Y-61.912
X336.074Y-80.962
X336.074Y-100.012
X336.074Y-119.062
X354.489Y-61.912
X354.489Y-80.962
X354.489Y-100.012
X354.489Y-119.062
X364.014Y-138.112
X364.649Y-61.912
X364.649Y-80.962
X364.649Y-100.012
X364.649Y-119.062
X373.539Y-61.912
X373.539Y-80.962
X373.539Y-100.012
X373.539Y-119.062
X374.174Y-138.112
X383.699Y-61.912
X383.699Y-80.962
X383.699Y-100.012
X383.699Y-119.062
X392.589Y-61.912
X392.589Y-80.962
X392.589Y-100.012
X392.589Y-119.062
X392.589Y-138.112
X402.749Y-61.912
X402.749Y-80.962
X402.749Y-100.012
X402.749Y-119.062
X402.749Y-138.112
X411.639Y-61.912
X411.639Y-90.487
X411.639Y-128.588
X421.799Y-61.912
X421.799Y-90.487
X421.799Y-128.588
T2
X35.719Y-112.078
X59.531Y-112.078
X107.163Y-131.127
X207.162Y-131.127
X278.606Y-93.027
X280.988Y-54.927
X302.419Y-93.027
X304.8Y-54.927
X357.188Y-131.127
X381.0Y-131.127
X409.734Y-78.549
X409.734Y-102.425
X409.734Y-116.649
X409.734Y-140.525
T3
X35.719Y-33.337
X35.719Y-61.912
X35.719Y-127.317
X38.1Y-138.112
X40.481Y-80.962
X42.862Y-100.012
X47.625Y-119.062
X54.769Y-61.912
X59.531Y-127.317
X61.912Y-138.112
X64.294Y-80.962
X69.056Y-100.012
X73.819Y-33.337
X73.819Y-61.912
X78.581Y-119.062
X83.344Y-80.962
X85.725Y-138.112
X88.106Y-100.012
X92.869Y-33.337
X92.869Y-61.912
X97.631Y-119.062
X102.394Y-80.962
X107.156Y-100.012
X107.163Y-146.368
X111.919Y-33.337
X111.919Y-61.912
X116.681Y-119.062
X121.444Y-80.962
X126.206Y-100.012
X130.969Y-33.337
X130.969Y-61.912
X135.731Y-119.062
X140.494Y-80.962
X145.256Y-100.012
X150.019Y-61.912
X154.781Y-119.062
X157.162Y-138.112
X159.544Y-33.337
X159.544Y-80.962
X164.306Y-100.012
X169.069Y-61.912
X173.831Y-119.062
X178.594Y-33.337
X178.594Y-80.962
X183.356Y-100.012
X188.119Y-61.912
X192.881Y-119.062
X197.644Y-33.337
X197.644Y-80.962
X202.406Y-100.012
X207.162Y-146.368
X207.169Y-61.912
X211.931Y-119.062
X216.694Y-33.337
X216.694Y-80.962
X221.456Y-100.012
X226.219Y-61.912
X226.219Y-138.112
X230.981Y-119.062
X235.744Y-80.962
X240.506Y-100.012
X245.269Y-33.337
X245.269Y-61.912
X245.269Y-138.112
X250.031Y-119.062
X254.794Y-80.962
X259.556Y-100.012
X264.319Y-33.337
X264.319Y-61.912
X264.319Y-138.112
X273.844Y-80.962
X276.225Y-119.062
X278.606Y-108.267
X280.988Y-70.167
X283.369Y-33.337
X288.131Y-142.875
X290.512Y-100.012
X292.894Y-61.912
X297.656Y-80.962
X302.419Y-33.337
X302.419Y-108.267
X304.8Y-70.167
X307.181Y-123.825
X307.181Y-142.875
X326.231Y-142.875
X330.994Y-33.337
X330.994Y-61.912
X330.994Y-80.962
X330.994Y-100.012
X330.994Y-119.062
X357.188Y-146.368
X359.569Y-61.912
X359.569Y-80.962
X359.569Y-100.012
X359.569Y-119.062
X369.094Y-138.112
X378.619Y-61.912
X378.619Y-80.962
X378.619Y-100.012
X378.619Y-119.062
X381.0Y-146.368
X397.669Y-61.912
X397.669Y-80.962
X397.669Y-100.012
X397.669Y-119.062
X397.669Y-138.112
X416.719Y-61.912
X416.719Y-90.487
X416.719Y-128.588
X424.974Y-78.549
X424.974Y-102.425
X424.974Y-116.649
X424.974Y-140.525
T0
M30
