%TF.GenerationSoftware,KiCad,Pcbnew,6.0.6*%
%TF.CreationDate,2022-08-21T10:35:57-04:00*%
%TF.ProjectId,Workeeb,576f726b-6565-4622-9e6b-696361645f70,rev?*%
%TF.SameCoordinates,Original*%
%TF.FileFunction,Soldermask,Top*%
%TF.FilePolarity,Negative*%
%FSLAX46Y46*%
G04 Gerber Fmt 4.6, Leading zero omitted, Abs format (unit mm)*
G04 Created by KiCad (PCBNEW 6.0.6) date 2022-08-21 10:35:57*
%MOMM*%
%LPD*%
G01*
G04 APERTURE LIST*
G04 Aperture macros list*
%AMRoundRect*
0 Rectangle with rounded corners*
0 $1 Rounding radius*
0 $2 $3 $4 $5 $6 $7 $8 $9 X,Y pos of 4 corners*
0 Add a 4 corners polygon primitive as box body*
4,1,4,$2,$3,$4,$5,$6,$7,$8,$9,$2,$3,0*
0 Add four circle primitives for the rounded corners*
1,1,$1+$1,$2,$3*
1,1,$1+$1,$4,$5*
1,1,$1+$1,$6,$7*
1,1,$1+$1,$8,$9*
0 Add four rect primitives between the rounded corners*
20,1,$1+$1,$2,$3,$4,$5,0*
20,1,$1+$1,$4,$5,$6,$7,0*
20,1,$1+$1,$6,$7,$8,$9,0*
20,1,$1+$1,$8,$9,$2,$3,0*%
G04 Aperture macros list end*
%ADD10C,1.750000*%
%ADD11C,3.987800*%
%ADD12C,3.048000*%
%ADD13R,2.000000X2.000000*%
%ADD14C,2.000000*%
%ADD15R,2.500000X3.000000*%
%ADD16R,1.500000X1.000000*%
%ADD17RoundRect,0.250000X0.450000X-0.262500X0.450000X0.262500X-0.450000X0.262500X-0.450000X-0.262500X0*%
%ADD18RoundRect,0.140000X0.170000X-0.140000X0.170000X0.140000X-0.170000X0.140000X-0.170000X-0.140000X0*%
%ADD19RoundRect,0.250001X-0.462499X-0.624999X0.462499X-0.624999X0.462499X0.624999X-0.462499X0.624999X0*%
%ADD20RoundRect,0.250001X0.462499X0.624999X-0.462499X0.624999X-0.462499X-0.624999X0.462499X-0.624999X0*%
%ADD21RoundRect,0.140000X0.140000X0.170000X-0.140000X0.170000X-0.140000X-0.170000X0.140000X-0.170000X0*%
%ADD22RoundRect,0.250000X-0.262500X-0.450000X0.262500X-0.450000X0.262500X0.450000X-0.262500X0.450000X0*%
%ADD23C,0.700000*%
%ADD24O,0.900000X2.400000*%
%ADD25O,0.900000X1.700000*%
%ADD26C,1.800000*%
G04 APERTURE END LIST*
D10*
%TO.C,MX2*%
X40798750Y-61912500D03*
X30638750Y-61912500D03*
D11*
X35718750Y-61912500D03*
%TD*%
%TO.C,MX3*%
X40481250Y-80962500D03*
D10*
X35401250Y-80962500D03*
X45561250Y-80962500D03*
%TD*%
%TO.C,MX4*%
X37782500Y-100012500D03*
D11*
X42862500Y-100012500D03*
D10*
X47942500Y-100012500D03*
%TD*%
%TO.C,MX5*%
X33020000Y-138112500D03*
X43180000Y-138112500D03*
D11*
X38100000Y-138112500D03*
%TD*%
D10*
%TO.C,MX7*%
X52705000Y-119062500D03*
D12*
X59531250Y-112077500D03*
D11*
X35718750Y-127317500D03*
X59531250Y-127317500D03*
D10*
X42545000Y-119062500D03*
D11*
X47625000Y-119062500D03*
D12*
X35718750Y-112077500D03*
%TD*%
D10*
%TO.C,MX8*%
X56832500Y-138112500D03*
X66992500Y-138112500D03*
D11*
X61912500Y-138112500D03*
%TD*%
D10*
%TO.C,MX9*%
X78898750Y-33337500D03*
X68738750Y-33337500D03*
D11*
X73818750Y-33337500D03*
%TD*%
D10*
%TO.C,MX10*%
X68738750Y-61912500D03*
X78898750Y-61912500D03*
D11*
X73818750Y-61912500D03*
%TD*%
D10*
%TO.C,MX11*%
X59213750Y-80962500D03*
D11*
X64293750Y-80962500D03*
D10*
X69373750Y-80962500D03*
%TD*%
D11*
%TO.C,MX12*%
X69056250Y-100012500D03*
D10*
X63976250Y-100012500D03*
X74136250Y-100012500D03*
%TD*%
%TO.C,MX13*%
X73501250Y-119062500D03*
D11*
X78581250Y-119062500D03*
D10*
X83661250Y-119062500D03*
%TD*%
D11*
%TO.C,MX14*%
X92868750Y-33337500D03*
D10*
X87788750Y-33337500D03*
X97948750Y-33337500D03*
%TD*%
%TO.C,MX15*%
X87788750Y-61912500D03*
D11*
X92868750Y-61912500D03*
D10*
X97948750Y-61912500D03*
%TD*%
D11*
%TO.C,MX16*%
X83343750Y-80962500D03*
D10*
X88423750Y-80962500D03*
X78263750Y-80962500D03*
%TD*%
%TO.C,MX17*%
X83026250Y-100012500D03*
X93186250Y-100012500D03*
D11*
X88106250Y-100012500D03*
%TD*%
D10*
%TO.C,MX18*%
X92551250Y-119062500D03*
X102711250Y-119062500D03*
D11*
X97631250Y-119062500D03*
%TD*%
%TO.C,MX19*%
X85725000Y-138112500D03*
D10*
X90805000Y-138112500D03*
X80645000Y-138112500D03*
%TD*%
D11*
%TO.C,MX20*%
X111918750Y-33337500D03*
D10*
X116998750Y-33337500D03*
X106838750Y-33337500D03*
%TD*%
D11*
%TO.C,MX21*%
X111918750Y-61912500D03*
D10*
X116998750Y-61912500D03*
X106838750Y-61912500D03*
%TD*%
D11*
%TO.C,MX22*%
X102393750Y-80962500D03*
D10*
X97313750Y-80962500D03*
X107473750Y-80962500D03*
%TD*%
D11*
%TO.C,MX23*%
X107156250Y-100012500D03*
D10*
X102076250Y-100012500D03*
X112236250Y-100012500D03*
%TD*%
D11*
%TO.C,MX24*%
X116681250Y-119062500D03*
D10*
X111601250Y-119062500D03*
X121761250Y-119062500D03*
%TD*%
%TO.C,MX25*%
X136048750Y-33337500D03*
D11*
X130968750Y-33337500D03*
D10*
X125888750Y-33337500D03*
%TD*%
%TO.C,MX26*%
X125888750Y-61912500D03*
D11*
X130968750Y-61912500D03*
D10*
X136048750Y-61912500D03*
%TD*%
%TO.C,MX27*%
X126523750Y-80962500D03*
D11*
X121443750Y-80962500D03*
D10*
X116363750Y-80962500D03*
%TD*%
%TO.C,MX28*%
X121126250Y-100012500D03*
X131286250Y-100012500D03*
D11*
X126206250Y-100012500D03*
%TD*%
%TO.C,MX29*%
X135731250Y-119062500D03*
D10*
X140811250Y-119062500D03*
X130651250Y-119062500D03*
%TD*%
%TO.C,MX30*%
X144938750Y-61912500D03*
D11*
X150018750Y-61912500D03*
D10*
X155098750Y-61912500D03*
%TD*%
%TO.C,MX31*%
X135413750Y-80962500D03*
D11*
X140493750Y-80962500D03*
D10*
X145573750Y-80962500D03*
%TD*%
%TO.C,MX32*%
X150336250Y-100012500D03*
D11*
X145256250Y-100012500D03*
D10*
X140176250Y-100012500D03*
%TD*%
D11*
%TO.C,MX33*%
X154781250Y-119062500D03*
D10*
X159861250Y-119062500D03*
X149701250Y-119062500D03*
%TD*%
D11*
%TO.C,MX34*%
X107162600Y-146367500D03*
D10*
X162242500Y-138112500D03*
X152082500Y-138112500D03*
D12*
X107162600Y-131127500D03*
D11*
X207162400Y-146367500D03*
X157162500Y-138112500D03*
D12*
X207162400Y-131127500D03*
%TD*%
D10*
%TO.C,MX35*%
X154463750Y-33337500D03*
X164623750Y-33337500D03*
D11*
X159543750Y-33337500D03*
%TD*%
D10*
%TO.C,MX36*%
X163988750Y-61912500D03*
X174148750Y-61912500D03*
D11*
X169068750Y-61912500D03*
%TD*%
D10*
%TO.C,MX37*%
X154463750Y-80962500D03*
D11*
X159543750Y-80962500D03*
D10*
X164623750Y-80962500D03*
%TD*%
%TO.C,MX38*%
X169386250Y-100012500D03*
X159226250Y-100012500D03*
D11*
X164306250Y-100012500D03*
%TD*%
%TO.C,MX39*%
X173831250Y-119062500D03*
D10*
X178911250Y-119062500D03*
X168751250Y-119062500D03*
%TD*%
D11*
%TO.C,MX40*%
X178593750Y-33337500D03*
D10*
X183673750Y-33337500D03*
X173513750Y-33337500D03*
%TD*%
D11*
%TO.C,MX41*%
X188118750Y-61912500D03*
D10*
X183038750Y-61912500D03*
X193198750Y-61912500D03*
%TD*%
%TO.C,MX42*%
X183673750Y-80962500D03*
D11*
X178593750Y-80962500D03*
D10*
X173513750Y-80962500D03*
%TD*%
%TO.C,MX43*%
X178276250Y-100012500D03*
X188436250Y-100012500D03*
D11*
X183356250Y-100012500D03*
%TD*%
D10*
%TO.C,MX44*%
X197961250Y-119062500D03*
D11*
X192881250Y-119062500D03*
D10*
X187801250Y-119062500D03*
%TD*%
%TO.C,MX45*%
X192563750Y-33337500D03*
X202723750Y-33337500D03*
D11*
X197643750Y-33337500D03*
%TD*%
D10*
%TO.C,MX46*%
X202088750Y-61912500D03*
X212248750Y-61912500D03*
D11*
X207168750Y-61912500D03*
%TD*%
D10*
%TO.C,MX47*%
X192563750Y-80962500D03*
D11*
X197643750Y-80962500D03*
D10*
X202723750Y-80962500D03*
%TD*%
%TO.C,MX48*%
X197326250Y-100012500D03*
D11*
X202406250Y-100012500D03*
D10*
X207486250Y-100012500D03*
%TD*%
%TO.C,MX49*%
X206851250Y-119062500D03*
D11*
X211931250Y-119062500D03*
D10*
X217011250Y-119062500D03*
%TD*%
D11*
%TO.C,MX50*%
X216693750Y-33337500D03*
D10*
X211613750Y-33337500D03*
X221773750Y-33337500D03*
%TD*%
%TO.C,MX51*%
X231298750Y-61912500D03*
D11*
X226218750Y-61912500D03*
D10*
X221138750Y-61912500D03*
%TD*%
%TO.C,MX52*%
X221773750Y-80962500D03*
X211613750Y-80962500D03*
D11*
X216693750Y-80962500D03*
%TD*%
D10*
%TO.C,MX53*%
X226536250Y-100012500D03*
D11*
X221456250Y-100012500D03*
D10*
X216376250Y-100012500D03*
%TD*%
D11*
%TO.C,MX54*%
X230981250Y-119062500D03*
D10*
X236061250Y-119062500D03*
X225901250Y-119062500D03*
%TD*%
%TO.C,MX55*%
X231298750Y-138112500D03*
D11*
X226218750Y-138112500D03*
D10*
X221138750Y-138112500D03*
%TD*%
%TO.C,MX56*%
X240188750Y-33337500D03*
X250348750Y-33337500D03*
D11*
X245268750Y-33337500D03*
%TD*%
D10*
%TO.C,MX57*%
X250348750Y-61912500D03*
X240188750Y-61912500D03*
D11*
X245268750Y-61912500D03*
%TD*%
D10*
%TO.C,MX58*%
X240823750Y-80962500D03*
D11*
X235743750Y-80962500D03*
D10*
X230663750Y-80962500D03*
%TD*%
%TO.C,MX59*%
X245586250Y-100012500D03*
D11*
X240506250Y-100012500D03*
D10*
X235426250Y-100012500D03*
%TD*%
%TO.C,MX60*%
X244951250Y-119062500D03*
X255111250Y-119062500D03*
D11*
X250031250Y-119062500D03*
%TD*%
D10*
%TO.C,MX61*%
X240188750Y-138112500D03*
X250348750Y-138112500D03*
D11*
X245268750Y-138112500D03*
%TD*%
D10*
%TO.C,MX62*%
X269398750Y-33337500D03*
X259238750Y-33337500D03*
D11*
X264318750Y-33337500D03*
%TD*%
D10*
%TO.C,MX63*%
X269398750Y-61912500D03*
X259238750Y-61912500D03*
D11*
X264318750Y-61912500D03*
%TD*%
D10*
%TO.C,MX64*%
X249713750Y-80962500D03*
D11*
X254793750Y-80962500D03*
D10*
X259873750Y-80962500D03*
%TD*%
D11*
%TO.C,MX65*%
X259556250Y-100012500D03*
D10*
X264636250Y-100012500D03*
X254476250Y-100012500D03*
%TD*%
%TO.C,MX66*%
X259238750Y-138112500D03*
X269398750Y-138112500D03*
D11*
X264318750Y-138112500D03*
%TD*%
%TO.C,MX67*%
X283368750Y-33337500D03*
D10*
X288448750Y-33337500D03*
X278288750Y-33337500D03*
%TD*%
%TO.C,MX68*%
X268763750Y-80962500D03*
X278923750Y-80962500D03*
D11*
X273843750Y-80962500D03*
%TD*%
D10*
%TO.C,MX69*%
X295592500Y-100012500D03*
D12*
X302418750Y-93027500D03*
D11*
X290512500Y-100012500D03*
X278606250Y-108267500D03*
D12*
X278606250Y-93027500D03*
D10*
X285432500Y-100012500D03*
D11*
X302418750Y-108267500D03*
%TD*%
D10*
%TO.C,MX70*%
X271145000Y-119062500D03*
D11*
X276225000Y-119062500D03*
D10*
X281305000Y-119062500D03*
%TD*%
%TO.C,MX71*%
X293211250Y-142875000D03*
D11*
X288131250Y-142875000D03*
D10*
X283051250Y-142875000D03*
%TD*%
D12*
%TO.C,MX73*%
X280987500Y-54927500D03*
X304800000Y-54927500D03*
D11*
X292893750Y-61912500D03*
D10*
X297973750Y-61912500D03*
D11*
X304800000Y-70167500D03*
D10*
X287813750Y-61912500D03*
D11*
X280987500Y-70167500D03*
%TD*%
D10*
%TO.C,MX74*%
X302736250Y-80962500D03*
X292576250Y-80962500D03*
D11*
X297656250Y-80962500D03*
%TD*%
D10*
%TO.C,MX75*%
X312261250Y-123825000D03*
X302101250Y-123825000D03*
D11*
X307181250Y-123825000D03*
%TD*%
D10*
%TO.C,MX76*%
X302101250Y-142875000D03*
X312261250Y-142875000D03*
D11*
X307181250Y-142875000D03*
%TD*%
%TO.C,MX77*%
X330993750Y-33337500D03*
D10*
X336073750Y-33337500D03*
X325913750Y-33337500D03*
%TD*%
%TO.C,MX78*%
X336073750Y-61912500D03*
D11*
X330993750Y-61912500D03*
D10*
X325913750Y-61912500D03*
%TD*%
%TO.C,MX79*%
X325913750Y-80962500D03*
X336073750Y-80962500D03*
D11*
X330993750Y-80962500D03*
%TD*%
D10*
%TO.C,MX80*%
X325913750Y-100012500D03*
D11*
X330993750Y-100012500D03*
D10*
X336073750Y-100012500D03*
%TD*%
D11*
%TO.C,MX81*%
X330993750Y-119062500D03*
D10*
X336073750Y-119062500D03*
X325913750Y-119062500D03*
%TD*%
D11*
%TO.C,MX82*%
X326231250Y-142875000D03*
D10*
X321151250Y-142875000D03*
X331311250Y-142875000D03*
%TD*%
%TO.C,MX83*%
X364648750Y-61912500D03*
X354488750Y-61912500D03*
D11*
X359568750Y-61912500D03*
%TD*%
D10*
%TO.C,MX84*%
X364648750Y-80962500D03*
X354488750Y-80962500D03*
D11*
X359568750Y-80962500D03*
%TD*%
%TO.C,MX85*%
X359568750Y-100012500D03*
D10*
X354488750Y-100012500D03*
X364648750Y-100012500D03*
%TD*%
D11*
%TO.C,MX86*%
X359568750Y-119062500D03*
D10*
X354488750Y-119062500D03*
X364648750Y-119062500D03*
%TD*%
D13*
%TO.C,MX87*%
X362068750Y-26087500D03*
D14*
X357068750Y-26087500D03*
X359568750Y-26087500D03*
D15*
X365168750Y-33587500D03*
X353968750Y-33587500D03*
D14*
X362068750Y-40587500D03*
X357068750Y-40587500D03*
%TD*%
D10*
%TO.C,MX89*%
X383698750Y-80962500D03*
X373538750Y-80962500D03*
D11*
X378618750Y-80962500D03*
%TD*%
D10*
%TO.C,MX90*%
X373538750Y-100012500D03*
X383698750Y-100012500D03*
D11*
X378618750Y-100012500D03*
%TD*%
D10*
%TO.C,MX91*%
X373538750Y-119062500D03*
X383698750Y-119062500D03*
D11*
X378618750Y-119062500D03*
%TD*%
%TO.C,MX92*%
X369093750Y-138112500D03*
X381000000Y-146367500D03*
X357187500Y-146367500D03*
D10*
X364013750Y-138112500D03*
D12*
X357187500Y-131127500D03*
D10*
X374173750Y-138112500D03*
D12*
X381000000Y-131127500D03*
%TD*%
D10*
%TO.C,MX93*%
X402748750Y-61912500D03*
D11*
X397668750Y-61912500D03*
D10*
X392588750Y-61912500D03*
%TD*%
%TO.C,MX95*%
X402748750Y-100012500D03*
D11*
X397668750Y-100012500D03*
D10*
X392588750Y-100012500D03*
%TD*%
%TO.C,MX96*%
X392588750Y-119062500D03*
X402748750Y-119062500D03*
D11*
X397668750Y-119062500D03*
%TD*%
%TO.C,MX97*%
X397668750Y-138112500D03*
D10*
X392588750Y-138112500D03*
X402748750Y-138112500D03*
%TD*%
D11*
%TO.C,MX98*%
X416718750Y-61912500D03*
D10*
X411638750Y-61912500D03*
X421798750Y-61912500D03*
%TD*%
D12*
%TO.C,MX99*%
X409733750Y-140525500D03*
X409733750Y-116649500D03*
D11*
X424973750Y-140525500D03*
X424973750Y-116649500D03*
D10*
X421798750Y-128587500D03*
D11*
X416718750Y-128587500D03*
D10*
X411638750Y-128587500D03*
%TD*%
%TO.C,MX1*%
X40798750Y-33337500D03*
D11*
X35718750Y-33337500D03*
D10*
X30638750Y-33337500D03*
%TD*%
%TO.C,MX6*%
X49688750Y-61912500D03*
X59848750Y-61912500D03*
D11*
X54768750Y-61912500D03*
%TD*%
D10*
%TO.C,MX72*%
X307498750Y-33337500D03*
X297338750Y-33337500D03*
D11*
X302418750Y-33337500D03*
%TD*%
D16*
%TO.C,D101*%
X419168750Y-34937500D03*
X419168750Y-31737500D03*
X414268750Y-31737500D03*
X414268750Y-34937500D03*
%TD*%
D17*
%TO.C,R_CAPS1*%
X396240000Y-37488500D03*
X396240000Y-35663500D03*
%TD*%
D10*
%TO.C,MX94*%
X392588750Y-80962500D03*
X402748750Y-80962500D03*
D11*
X397668750Y-80962500D03*
%TD*%
D18*
%TO.C,C_RESET1*%
X392430000Y-43914000D03*
X392430000Y-42954000D03*
%TD*%
D11*
%TO.C,MX100*%
X424973750Y-78549500D03*
X424973750Y-102425500D03*
D12*
X409733750Y-102425500D03*
X409733750Y-78549500D03*
D11*
X416718750Y-90487500D03*
D10*
X411638750Y-90487500D03*
X421798750Y-90487500D03*
%TD*%
D11*
%TO.C,MX88*%
X378618750Y-61912500D03*
D10*
X383698750Y-61912500D03*
X373538750Y-61912500D03*
%TD*%
D19*
%TO.C,D102*%
X377131250Y-33337500D03*
X380106250Y-33337500D03*
%TD*%
D17*
%TO.C,R_NUMLK1*%
X380238000Y-37488500D03*
X380238000Y-35663500D03*
%TD*%
D20*
%TO.C,D103*%
X399156250Y-33337500D03*
X396181250Y-33337500D03*
%TD*%
D21*
%TO.C,C_IOVDD0*%
X385798000Y-36830000D03*
X384838000Y-36830000D03*
%TD*%
%TO.C,C_IOVDD_0*%
X385798000Y-38100000D03*
X384838000Y-38100000D03*
%TD*%
D22*
%TO.C,R_BADGE1*%
X411329500Y-39116000D03*
X413154500Y-39116000D03*
%TD*%
D23*
%TO.C,J1*%
X51793750Y-28631250D03*
X52643750Y-28631250D03*
X53493750Y-28631250D03*
X54343750Y-28631250D03*
X55193750Y-28631250D03*
X56043750Y-28631250D03*
X56893750Y-28631250D03*
X57743750Y-28631250D03*
X57743750Y-27281250D03*
X56893750Y-27281250D03*
X56043750Y-27281250D03*
X55193750Y-27281250D03*
X54343750Y-27281250D03*
X53493750Y-27281250D03*
X52643750Y-27281250D03*
X51793750Y-27281250D03*
D24*
X59093750Y-27651250D03*
D25*
X50443750Y-24271250D03*
D24*
X50443750Y-27651250D03*
D25*
X59093750Y-24271250D03*
%TD*%
D26*
%TO.C,SW_RESET1*%
X403943750Y-42993750D03*
X410443750Y-47493750D03*
X403943750Y-47493750D03*
X410443750Y-42993750D03*
%TD*%
M02*
