M48
; DRILL file {KiCad 6.0.6} date Sun 21 Aug 2022 10:39:15 AM EDT
; FORMAT={-:-/ absolute / metric / decimal}
; #@! TF.CreationDate,2022-08-21T10:39:15-04:00
; #@! TF.GenerationSoftware,Kicad,Pcbnew,6.0.6
; #@! TF.FileFunction,Plated,1,2,PTH
FMAT,2
METRIC
; #@! TA.AperFunction,Plated,PTH,ViaDrill
T1C0.400
; #@! TA.AperFunction,Plated,PTH,ComponentDrill
T2C0.400
; #@! TA.AperFunction,Plated,PTH,ComponentDrill
T3C0.600
; #@! TA.AperFunction,Plated,PTH,ComponentDrill
T4C1.000
; #@! TA.AperFunction,Plated,PTH,ComponentDrill
T5C1.470
; #@! TA.AperFunction,Plated,PTH,ComponentDrill
T6C2.000
%
G90
G05
T1
X61.595Y-39.243
X62.865Y-36.592
X62.865Y-37.592
X63.5Y-35.179
X65.151Y-38.354
X67.437Y-39.243
X280.664Y-51.917
X344.424Y-36.83
X345.186Y-37.592
X345.948Y-38.354
X346.71Y-39.116
X370.586Y-41.529
X376.936Y-46.228
X379.222Y-44.958
X381.351Y-49.941
X382.24Y-50.83
X382.778Y-40.132
X384.048Y-53.086
X384.774Y-51.308
X385.354Y-39.116
X388.112Y-51.308
X389.114Y-52.18
X390.398Y-53.086
X391.414Y-51.562
X392.43Y-48.006
X393.446Y-45.502
X393.446Y-47.026
X393.7Y-43.767
X404.622Y-53.34
X404.655Y-143.731
X405.381Y-124.681
X405.384Y-51.308
X406.146Y-50.546
X406.908Y-49.784
X407.67Y-49.022
X407.67Y-105.664
X408.432Y-86.614
X408.465Y-67.531
T2
X51.794Y-27.281
X51.794Y-28.631
X52.644Y-27.281
X52.644Y-28.631
X53.494Y-27.281
X53.494Y-28.631
X54.344Y-27.281
X54.344Y-28.631
X55.194Y-27.281
X55.194Y-28.631
X56.044Y-27.281
X56.044Y-28.631
X56.894Y-27.281
X56.894Y-28.631
X57.744Y-27.281
X57.744Y-28.631
T4
X357.069Y-26.087
X357.069Y-40.587
X359.569Y-26.087
X362.069Y-26.087
X362.069Y-40.587
X403.944Y-42.994
X403.944Y-47.494
X410.444Y-42.994
X410.444Y-47.494
T5
X31.909Y-30.797
X31.909Y-59.372
X34.29Y-135.572
X36.671Y-78.422
X38.259Y-28.258
X38.259Y-56.832
X39.052Y-97.472
X40.64Y-133.032
X43.021Y-75.882
X43.815Y-116.522
X45.402Y-94.932
X50.165Y-113.983
X50.959Y-59.372
X57.309Y-56.832
X58.102Y-135.572
X60.484Y-78.422
X64.453Y-133.032
X65.246Y-97.472
X66.834Y-75.882
X70.009Y-30.797
X70.009Y-59.372
X71.596Y-94.932
X74.771Y-116.522
X76.359Y-28.258
X76.359Y-56.832
X79.534Y-78.422
X81.121Y-113.983
X81.915Y-135.572
X84.296Y-97.472
X85.884Y-75.882
X88.265Y-133.032
X89.059Y-30.797
X89.059Y-59.372
X90.646Y-94.932
X93.821Y-116.522
X95.409Y-28.258
X95.409Y-56.832
X98.584Y-78.422
X100.171Y-113.983
X103.346Y-97.472
X104.934Y-75.882
X108.109Y-30.797
X108.109Y-59.372
X109.696Y-94.932
X112.871Y-116.522
X114.459Y-28.258
X114.459Y-56.832
X117.634Y-78.422
X119.221Y-113.983
X122.396Y-97.472
X123.984Y-75.882
X127.159Y-30.797
X127.159Y-59.372
X128.746Y-94.932
X131.921Y-116.522
X133.509Y-28.258
X133.509Y-56.832
X136.684Y-78.422
X138.271Y-113.983
X141.446Y-97.472
X143.034Y-75.882
X146.209Y-59.372
X147.796Y-94.932
X150.971Y-116.522
X152.559Y-56.832
X153.352Y-135.572
X155.734Y-30.797
X155.734Y-78.422
X157.321Y-113.983
X159.702Y-133.032
X160.496Y-97.472
X162.084Y-28.258
X162.084Y-75.882
X165.259Y-59.372
X166.846Y-94.932
X170.021Y-116.522
X171.609Y-56.832
X174.784Y-30.797
X174.784Y-78.422
X176.371Y-113.983
X179.546Y-97.472
X181.134Y-28.258
X181.134Y-75.882
X184.309Y-59.372
X185.896Y-94.932
X189.071Y-116.522
X190.659Y-56.832
X193.834Y-30.797
X193.834Y-78.422
X195.421Y-113.983
X198.596Y-97.472
X200.184Y-28.258
X200.184Y-75.882
X203.359Y-59.372
X204.946Y-94.932
X208.121Y-116.522
X209.709Y-56.832
X212.884Y-30.797
X212.884Y-78.422
X214.471Y-113.983
X217.646Y-97.472
X219.234Y-28.258
X219.234Y-75.882
X222.409Y-59.372
X222.409Y-135.572
X223.996Y-94.932
X227.171Y-116.522
X228.759Y-56.832
X228.759Y-133.032
X231.934Y-78.422
X233.521Y-113.983
X236.696Y-97.472
X238.284Y-75.882
X241.459Y-30.797
X241.459Y-59.372
X241.459Y-135.572
X243.046Y-94.932
X246.221Y-116.522
X247.809Y-28.258
X247.809Y-56.832
X247.809Y-133.032
X250.984Y-78.422
X252.571Y-113.983
X255.746Y-97.472
X257.334Y-75.882
X260.509Y-30.797
X260.509Y-59.372
X260.509Y-135.572
X262.096Y-94.932
X266.859Y-28.258
X266.859Y-56.832
X266.859Y-133.032
X270.034Y-78.422
X272.415Y-116.522
X276.384Y-75.882
X278.765Y-113.983
X279.559Y-30.797
X284.321Y-140.335
X285.909Y-28.258
X286.702Y-97.472
X289.084Y-59.372
X290.671Y-137.795
X293.053Y-94.932
X293.846Y-78.422
X295.434Y-56.832
X298.609Y-30.797
X300.196Y-75.882
X303.371Y-121.285
X303.371Y-140.335
X304.959Y-28.258
X309.721Y-118.745
X309.721Y-137.795
X322.421Y-140.335
X327.184Y-30.797
X327.184Y-59.372
X327.184Y-78.422
X327.184Y-97.472
X327.184Y-116.522
X328.771Y-137.795
X333.534Y-28.258
X333.534Y-56.832
X333.534Y-75.882
X333.534Y-94.932
X333.534Y-113.983
X355.759Y-59.372
X355.759Y-78.422
X355.759Y-97.472
X355.759Y-116.522
X362.109Y-56.832
X362.109Y-75.882
X362.109Y-94.932
X362.109Y-113.983
X365.284Y-135.572
X371.634Y-133.032
X374.809Y-59.372
X374.809Y-78.422
X374.809Y-97.472
X374.809Y-116.522
X381.159Y-56.832
X381.159Y-75.882
X381.159Y-94.932
X381.159Y-113.983
X393.859Y-59.372
X393.859Y-78.422
X393.859Y-97.472
X393.859Y-116.522
X393.859Y-135.572
X400.209Y-56.832
X400.209Y-75.882
X400.209Y-94.932
X400.209Y-113.983
X400.209Y-133.032
X412.909Y-59.372
X412.909Y-87.947
X412.909Y-126.047
X419.259Y-56.832
X419.259Y-85.407
X419.259Y-123.507
T3
X50.444Y-23.871G85X50.444Y-24.671
G05
X50.444Y-26.901G85X50.444Y-28.401
G05
X59.094Y-23.871G85X59.094Y-24.671
G05
X59.094Y-26.901G85X59.094Y-28.401
G05
T6
X353.969Y-33.337G85X353.969Y-33.837
G05
X365.169Y-33.337G85X365.169Y-33.837
G05
T0
M30
