%FSLAX45Y45*%
G04 Gerber Fmt 4.5, Leading zero omitted, Abs format (unit mm)*
G04 Created by KiCad (PCBNEW 6.0.6) date 2022-08-21 10:39:27*
%MOMM*%
%LPD*%
G01*
G04 APERTURE LIST*
%TA.AperFunction,Profile*%
%ADD10C,0.050000*%
%TD*%
%ADD11C,0.200000*%
%ADD12C,0.040000*%
%ADD13C,0.060000*%
%ADD14C,0.100000*%
%ADD15C,0.147000*%
G04 APERTURE END LIST*
D10*
X42951400Y-15392400D02*
X42951400Y-2260600D01*
X42951400Y-2260600D02*
X5257800Y-2260600D01*
X5257800Y-2260600D02*
X2413000Y-2260600D01*
X2413000Y-15392400D02*
X42951400Y-15392400D01*
X2413000Y-2260600D02*
X2413000Y-15392400D01*
D11*
D12*
X6139500Y-3904300D02*
X6179500Y-3944300D01*
X6179500Y-3904300D02*
X6139500Y-3944300D01*
X6266500Y-3639250D02*
X6306500Y-3679250D01*
X6306500Y-3639250D02*
X6266500Y-3679250D01*
X6266500Y-3739200D02*
X6306500Y-3779200D01*
X6306500Y-3739200D02*
X6266500Y-3779200D01*
X6330000Y-3497900D02*
X6370000Y-3537900D01*
X6370000Y-3497900D02*
X6330000Y-3537900D01*
X6495100Y-3815400D02*
X6535100Y-3855400D01*
X6535100Y-3815400D02*
X6495100Y-3855400D01*
X6723700Y-3904300D02*
X6763700Y-3944300D01*
X6763700Y-3904300D02*
X6723700Y-3944300D01*
X28046450Y-5171675D02*
X28086450Y-5211675D01*
X28086450Y-5171675D02*
X28046450Y-5211675D01*
X34422400Y-3663000D02*
X34462400Y-3703000D01*
X34462400Y-3663000D02*
X34422400Y-3703000D01*
X34498600Y-3739200D02*
X34538600Y-3779200D01*
X34538600Y-3739200D02*
X34498600Y-3779200D01*
X34574800Y-3815400D02*
X34614800Y-3855400D01*
X34614800Y-3815400D02*
X34574800Y-3855400D01*
X34651000Y-3891600D02*
X34691000Y-3931600D01*
X34691000Y-3891600D02*
X34651000Y-3931600D01*
X37038600Y-4132900D02*
X37078600Y-4172900D01*
X37078600Y-4132900D02*
X37038600Y-4172900D01*
X37673600Y-4602800D02*
X37713600Y-4642800D01*
X37713600Y-4602800D02*
X37673600Y-4642800D01*
X37902200Y-4475800D02*
X37942200Y-4515800D01*
X37942200Y-4475800D02*
X37902200Y-4515800D01*
X38115134Y-4974066D02*
X38155134Y-5014066D01*
X38155134Y-4974066D02*
X38115134Y-5014066D01*
X38204034Y-5062966D02*
X38244034Y-5102966D01*
X38244034Y-5062966D02*
X38204034Y-5102966D01*
X38257800Y-3993200D02*
X38297800Y-4033200D01*
X38297800Y-3993200D02*
X38257800Y-4033200D01*
X38384800Y-5288600D02*
X38424800Y-5328600D01*
X38424800Y-5288600D02*
X38384800Y-5328600D01*
X38457425Y-5110800D02*
X38497425Y-5150800D01*
X38497425Y-5110800D02*
X38457425Y-5150800D01*
X38515375Y-3891600D02*
X38555375Y-3931600D01*
X38555375Y-3891600D02*
X38515375Y-3931600D01*
X38791200Y-5110800D02*
X38831200Y-5150800D01*
X38831200Y-5110800D02*
X38791200Y-5150800D01*
X38891389Y-5198002D02*
X38931389Y-5238002D01*
X38931389Y-5198002D02*
X38891389Y-5238002D01*
X39019800Y-5288600D02*
X39059800Y-5328600D01*
X39059800Y-5288600D02*
X39019800Y-5328600D01*
X39121400Y-5136200D02*
X39161400Y-5176200D01*
X39161400Y-5136200D02*
X39121400Y-5176200D01*
X39223000Y-4780600D02*
X39263000Y-4820600D01*
X39263000Y-4780600D02*
X39223000Y-4820600D01*
X39324600Y-4530175D02*
X39364600Y-4570175D01*
X39364600Y-4530175D02*
X39324600Y-4570175D01*
X39324600Y-4682575D02*
X39364600Y-4722575D01*
X39364600Y-4682575D02*
X39324600Y-4722575D01*
X39350000Y-4356725D02*
X39390000Y-4396725D01*
X39390000Y-4356725D02*
X39350000Y-4396725D01*
X40442200Y-5314000D02*
X40482200Y-5354000D01*
X40482200Y-5314000D02*
X40442200Y-5354000D01*
X40445475Y-14353125D02*
X40485475Y-14393125D01*
X40485475Y-14353125D02*
X40445475Y-14393125D01*
X40518125Y-12448125D02*
X40558125Y-12488125D01*
X40558125Y-12448125D02*
X40518125Y-12488125D01*
X40518400Y-5110800D02*
X40558400Y-5150800D01*
X40558400Y-5110800D02*
X40518400Y-5150800D01*
X40594600Y-5034600D02*
X40634600Y-5074600D01*
X40634600Y-5034600D02*
X40594600Y-5074600D01*
X40670800Y-4958400D02*
X40710800Y-4998400D01*
X40710800Y-4958400D02*
X40670800Y-4998400D01*
X40747000Y-4882200D02*
X40787000Y-4922200D01*
X40787000Y-4882200D02*
X40747000Y-4922200D01*
X40747000Y-10546400D02*
X40787000Y-10586400D01*
X40787000Y-10546400D02*
X40747000Y-10586400D01*
X40823200Y-8641400D02*
X40863200Y-8681400D01*
X40863200Y-8641400D02*
X40823200Y-8681400D01*
X40826475Y-6733125D02*
X40866475Y-6773125D01*
X40866475Y-6733125D02*
X40826475Y-6773125D01*
X5199375Y-2728125D02*
G75*
G03*
X5199375Y-2728125I-20000J0D01*
G01*
X5199375Y-2863125D02*
G75*
G03*
X5199375Y-2863125I-20000J0D01*
G01*
X5284375Y-2728125D02*
G75*
G03*
X5284375Y-2728125I-20000J0D01*
G01*
X5284375Y-2863125D02*
G75*
G03*
X5284375Y-2863125I-20000J0D01*
G01*
X5369375Y-2728125D02*
G75*
G03*
X5369375Y-2728125I-20000J0D01*
G01*
X5369375Y-2863125D02*
G75*
G03*
X5369375Y-2863125I-20000J0D01*
G01*
X5454375Y-2728125D02*
G75*
G03*
X5454375Y-2728125I-20000J0D01*
G01*
X5454375Y-2863125D02*
G75*
G03*
X5454375Y-2863125I-20000J0D01*
G01*
X5539375Y-2728125D02*
G75*
G03*
X5539375Y-2728125I-20000J0D01*
G01*
X5539375Y-2863125D02*
G75*
G03*
X5539375Y-2863125I-20000J0D01*
G01*
X5624375Y-2728125D02*
G75*
G03*
X5624375Y-2728125I-20000J0D01*
G01*
X5624375Y-2863125D02*
G75*
G03*
X5624375Y-2863125I-20000J0D01*
G01*
X5709375Y-2728125D02*
G75*
G03*
X5709375Y-2728125I-20000J0D01*
G01*
X5709375Y-2863125D02*
G75*
G03*
X5709375Y-2863125I-20000J0D01*
G01*
X5794375Y-2728125D02*
G75*
G03*
X5794375Y-2728125I-20000J0D01*
G01*
X5794375Y-2863125D02*
G75*
G03*
X5794375Y-2863125I-20000J0D01*
G01*
D13*
X5044375Y-2397125D02*
X5044375Y-2457125D01*
X5014375Y-2427125D02*
X5074375Y-2427125D01*
D11*
X5014375Y-2387125D02*
X5014375Y-2467125D01*
X5074375Y-2387125D02*
X5074375Y-2467125D01*
X5014375Y-2467125D02*
G75*
G03*
X5074375Y-2467125I30000J0D01*
G01*
X5074375Y-2387125D02*
G75*
G03*
X5014375Y-2387125I-30000J0D01*
G01*
D13*
X5044375Y-2735125D02*
X5044375Y-2795125D01*
X5014375Y-2765125D02*
X5074375Y-2765125D01*
D11*
X5014375Y-2690125D02*
X5014375Y-2840125D01*
X5074375Y-2690125D02*
X5074375Y-2840125D01*
X5014375Y-2840125D02*
G75*
G03*
X5074375Y-2840125I30000J0D01*
G01*
X5074375Y-2690125D02*
G75*
G03*
X5014375Y-2690125I-30000J0D01*
G01*
D13*
X5909375Y-2397125D02*
X5909375Y-2457125D01*
X5879375Y-2427125D02*
X5939375Y-2427125D01*
D11*
X5879375Y-2387125D02*
X5879375Y-2467125D01*
X5939375Y-2387125D02*
X5939375Y-2467125D01*
X5879375Y-2467125D02*
G75*
G03*
X5939375Y-2467125I30000J0D01*
G01*
X5939375Y-2387125D02*
G75*
G03*
X5879375Y-2387125I-30000J0D01*
G01*
D13*
X5909375Y-2735125D02*
X5909375Y-2795125D01*
X5879375Y-2765125D02*
X5939375Y-2765125D01*
D11*
X5879375Y-2690125D02*
X5879375Y-2840125D01*
X5939375Y-2690125D02*
X5939375Y-2840125D01*
X5879375Y-2840125D02*
G75*
G03*
X5939375Y-2840125I30000J0D01*
G01*
X5939375Y-2690125D02*
G75*
G03*
X5879375Y-2690125I-30000J0D01*
G01*
D14*
X35742231Y-2644106D02*
X35742231Y-2573394D01*
X35671519Y-2573394D01*
X35671519Y-2644106D01*
X35742231Y-2644106D01*
X35742231Y-4094106D02*
X35742231Y-4023394D01*
X35671519Y-4023394D01*
X35671519Y-4094106D01*
X35742231Y-4094106D01*
X35992231Y-2644106D02*
X35992231Y-2573394D01*
X35921519Y-2573394D01*
X35921519Y-2644106D01*
X35992231Y-2644106D01*
X36242231Y-2644106D02*
X36242231Y-2573394D01*
X36171519Y-2573394D01*
X36171519Y-2644106D01*
X36242231Y-2644106D01*
X36242231Y-4094106D02*
X36242231Y-4023394D01*
X36171519Y-4023394D01*
X36171519Y-4094106D01*
X36242231Y-4094106D01*
X40429731Y-4334731D02*
X40429731Y-4264019D01*
X40359019Y-4264019D01*
X40359019Y-4334731D01*
X40429731Y-4334731D01*
X40429731Y-4784731D02*
X40429731Y-4714019D01*
X40359019Y-4714019D01*
X40359019Y-4784731D01*
X40429731Y-4784731D01*
X41079731Y-4334731D02*
X41079731Y-4264019D01*
X41009019Y-4264019D01*
X41009019Y-4334731D01*
X41079731Y-4334731D01*
X41079731Y-4784731D02*
X41079731Y-4714019D01*
X41009019Y-4714019D01*
X41009019Y-4784731D01*
X41079731Y-4784731D01*
D15*
X3190875Y-3153250D02*
X3264375Y-3079750D01*
X3190875Y-3006250D01*
X3117375Y-3079750D01*
X3190875Y-3153250D01*
X3190875Y-6010750D02*
X3264375Y-5937250D01*
X3190875Y-5863750D01*
X3117375Y-5937250D01*
X3190875Y-6010750D01*
X3429000Y-13630750D02*
X3502500Y-13557250D01*
X3429000Y-13483750D01*
X3355500Y-13557250D01*
X3429000Y-13630750D01*
X3667125Y-7915750D02*
X3740625Y-7842250D01*
X3667125Y-7768750D01*
X3593625Y-7842250D01*
X3667125Y-7915750D01*
X3825875Y-2899250D02*
X3899375Y-2825750D01*
X3825875Y-2752250D01*
X3752375Y-2825750D01*
X3825875Y-2899250D01*
X3825875Y-5756750D02*
X3899375Y-5683250D01*
X3825875Y-5609750D01*
X3752375Y-5683250D01*
X3825875Y-5756750D01*
X3905250Y-9820750D02*
X3978750Y-9747250D01*
X3905250Y-9673750D01*
X3831750Y-9747250D01*
X3905250Y-9820750D01*
X4064000Y-13376750D02*
X4137500Y-13303250D01*
X4064000Y-13229750D01*
X3990500Y-13303250D01*
X4064000Y-13376750D01*
X4302125Y-7661750D02*
X4375625Y-7588250D01*
X4302125Y-7514750D01*
X4228625Y-7588250D01*
X4302125Y-7661750D01*
X4381500Y-11725750D02*
X4455000Y-11652250D01*
X4381500Y-11578750D01*
X4308000Y-11652250D01*
X4381500Y-11725750D01*
X4540250Y-9566750D02*
X4613750Y-9493250D01*
X4540250Y-9419750D01*
X4466750Y-9493250D01*
X4540250Y-9566750D01*
X5016500Y-11471750D02*
X5090000Y-11398250D01*
X5016500Y-11324750D01*
X4943000Y-11398250D01*
X5016500Y-11471750D01*
X5095875Y-6010750D02*
X5169375Y-5937250D01*
X5095875Y-5863750D01*
X5022375Y-5937250D01*
X5095875Y-6010750D01*
X5730875Y-5756750D02*
X5804375Y-5683250D01*
X5730875Y-5609750D01*
X5657375Y-5683250D01*
X5730875Y-5756750D01*
X5810250Y-13630750D02*
X5883750Y-13557250D01*
X5810250Y-13483750D01*
X5736750Y-13557250D01*
X5810250Y-13630750D01*
X6048375Y-7915750D02*
X6121875Y-7842250D01*
X6048375Y-7768750D01*
X5974875Y-7842250D01*
X6048375Y-7915750D01*
X6445250Y-13376750D02*
X6518750Y-13303250D01*
X6445250Y-13229750D01*
X6371750Y-13303250D01*
X6445250Y-13376750D01*
X6524625Y-9820750D02*
X6598125Y-9747250D01*
X6524625Y-9673750D01*
X6451125Y-9747250D01*
X6524625Y-9820750D01*
X6683375Y-7661750D02*
X6756875Y-7588250D01*
X6683375Y-7514750D01*
X6609875Y-7588250D01*
X6683375Y-7661750D01*
X7000875Y-3153250D02*
X7074375Y-3079750D01*
X7000875Y-3006250D01*
X6927375Y-3079750D01*
X7000875Y-3153250D01*
X7000875Y-6010750D02*
X7074375Y-5937250D01*
X7000875Y-5863750D01*
X6927375Y-5937250D01*
X7000875Y-6010750D01*
X7159625Y-9566750D02*
X7233125Y-9493250D01*
X7159625Y-9419750D01*
X7086125Y-9493250D01*
X7159625Y-9566750D01*
X7477125Y-11725750D02*
X7550625Y-11652250D01*
X7477125Y-11578750D01*
X7403625Y-11652250D01*
X7477125Y-11725750D01*
X7635875Y-2899250D02*
X7709375Y-2825750D01*
X7635875Y-2752250D01*
X7562375Y-2825750D01*
X7635875Y-2899250D01*
X7635875Y-5756750D02*
X7709375Y-5683250D01*
X7635875Y-5609750D01*
X7562375Y-5683250D01*
X7635875Y-5756750D01*
X7953375Y-7915750D02*
X8026875Y-7842250D01*
X7953375Y-7768750D01*
X7879875Y-7842250D01*
X7953375Y-7915750D01*
X8112125Y-11471750D02*
X8185625Y-11398250D01*
X8112125Y-11324750D01*
X8038625Y-11398250D01*
X8112125Y-11471750D01*
X8191500Y-13630750D02*
X8265000Y-13557250D01*
X8191500Y-13483750D01*
X8118000Y-13557250D01*
X8191500Y-13630750D01*
X8429625Y-9820750D02*
X8503125Y-9747250D01*
X8429625Y-9673750D01*
X8356125Y-9747250D01*
X8429625Y-9820750D01*
X8588375Y-7661750D02*
X8661875Y-7588250D01*
X8588375Y-7514750D01*
X8514875Y-7588250D01*
X8588375Y-7661750D01*
X8826500Y-13376750D02*
X8900000Y-13303250D01*
X8826500Y-13229750D01*
X8753000Y-13303250D01*
X8826500Y-13376750D01*
X8905875Y-3153250D02*
X8979375Y-3079750D01*
X8905875Y-3006250D01*
X8832375Y-3079750D01*
X8905875Y-3153250D01*
X8905875Y-6010750D02*
X8979375Y-5937250D01*
X8905875Y-5863750D01*
X8832375Y-5937250D01*
X8905875Y-6010750D01*
X9064625Y-9566750D02*
X9138125Y-9493250D01*
X9064625Y-9419750D01*
X8991125Y-9493250D01*
X9064625Y-9566750D01*
X9382125Y-11725750D02*
X9455625Y-11652250D01*
X9382125Y-11578750D01*
X9308625Y-11652250D01*
X9382125Y-11725750D01*
X9540875Y-2899250D02*
X9614375Y-2825750D01*
X9540875Y-2752250D01*
X9467375Y-2825750D01*
X9540875Y-2899250D01*
X9540875Y-5756750D02*
X9614375Y-5683250D01*
X9540875Y-5609750D01*
X9467375Y-5683250D01*
X9540875Y-5756750D01*
X9858375Y-7915750D02*
X9931875Y-7842250D01*
X9858375Y-7768750D01*
X9784875Y-7842250D01*
X9858375Y-7915750D01*
X10017125Y-11471750D02*
X10090625Y-11398250D01*
X10017125Y-11324750D01*
X9943625Y-11398250D01*
X10017125Y-11471750D01*
X10334625Y-9820750D02*
X10408125Y-9747250D01*
X10334625Y-9673750D01*
X10261125Y-9747250D01*
X10334625Y-9820750D01*
X10493375Y-7661750D02*
X10566875Y-7588250D01*
X10493375Y-7514750D01*
X10419875Y-7588250D01*
X10493375Y-7661750D01*
X10810875Y-3153250D02*
X10884375Y-3079750D01*
X10810875Y-3006250D01*
X10737375Y-3079750D01*
X10810875Y-3153250D01*
X10810875Y-6010750D02*
X10884375Y-5937250D01*
X10810875Y-5863750D01*
X10737375Y-5937250D01*
X10810875Y-6010750D01*
X10969625Y-9566750D02*
X11043125Y-9493250D01*
X10969625Y-9419750D01*
X10896125Y-9493250D01*
X10969625Y-9566750D01*
X11287125Y-11725750D02*
X11360625Y-11652250D01*
X11287125Y-11578750D01*
X11213625Y-11652250D01*
X11287125Y-11725750D01*
X11445875Y-2899250D02*
X11519375Y-2825750D01*
X11445875Y-2752250D01*
X11372375Y-2825750D01*
X11445875Y-2899250D01*
X11445875Y-5756750D02*
X11519375Y-5683250D01*
X11445875Y-5609750D01*
X11372375Y-5683250D01*
X11445875Y-5756750D01*
X11763375Y-7915750D02*
X11836875Y-7842250D01*
X11763375Y-7768750D01*
X11689875Y-7842250D01*
X11763375Y-7915750D01*
X11922125Y-11471750D02*
X11995625Y-11398250D01*
X11922125Y-11324750D01*
X11848625Y-11398250D01*
X11922125Y-11471750D01*
X12239625Y-9820750D02*
X12313125Y-9747250D01*
X12239625Y-9673750D01*
X12166125Y-9747250D01*
X12239625Y-9820750D01*
X12398375Y-7661750D02*
X12471875Y-7588250D01*
X12398375Y-7514750D01*
X12324875Y-7588250D01*
X12398375Y-7661750D01*
X12715875Y-3153250D02*
X12789375Y-3079750D01*
X12715875Y-3006250D01*
X12642375Y-3079750D01*
X12715875Y-3153250D01*
X12715875Y-6010750D02*
X12789375Y-5937250D01*
X12715875Y-5863750D01*
X12642375Y-5937250D01*
X12715875Y-6010750D01*
X12874625Y-9566750D02*
X12948125Y-9493250D01*
X12874625Y-9419750D01*
X12801125Y-9493250D01*
X12874625Y-9566750D01*
X13192125Y-11725750D02*
X13265625Y-11652250D01*
X13192125Y-11578750D01*
X13118625Y-11652250D01*
X13192125Y-11725750D01*
X13350875Y-2899250D02*
X13424375Y-2825750D01*
X13350875Y-2752250D01*
X13277375Y-2825750D01*
X13350875Y-2899250D01*
X13350875Y-5756750D02*
X13424375Y-5683250D01*
X13350875Y-5609750D01*
X13277375Y-5683250D01*
X13350875Y-5756750D01*
X13668375Y-7915750D02*
X13741875Y-7842250D01*
X13668375Y-7768750D01*
X13594875Y-7842250D01*
X13668375Y-7915750D01*
X13827125Y-11471750D02*
X13900625Y-11398250D01*
X13827125Y-11324750D01*
X13753625Y-11398250D01*
X13827125Y-11471750D01*
X14144625Y-9820750D02*
X14218125Y-9747250D01*
X14144625Y-9673750D01*
X14071125Y-9747250D01*
X14144625Y-9820750D01*
X14303375Y-7661750D02*
X14376875Y-7588250D01*
X14303375Y-7514750D01*
X14229875Y-7588250D01*
X14303375Y-7661750D01*
X14620875Y-6010750D02*
X14694375Y-5937250D01*
X14620875Y-5863750D01*
X14547375Y-5937250D01*
X14620875Y-6010750D01*
X14779625Y-9566750D02*
X14853125Y-9493250D01*
X14779625Y-9419750D01*
X14706125Y-9493250D01*
X14779625Y-9566750D01*
X15097125Y-11725750D02*
X15170625Y-11652250D01*
X15097125Y-11578750D01*
X15023625Y-11652250D01*
X15097125Y-11725750D01*
X15255875Y-5756750D02*
X15329375Y-5683250D01*
X15255875Y-5609750D01*
X15182375Y-5683250D01*
X15255875Y-5756750D01*
X15335250Y-13630750D02*
X15408750Y-13557250D01*
X15335250Y-13483750D01*
X15261750Y-13557250D01*
X15335250Y-13630750D01*
X15573375Y-3153250D02*
X15646875Y-3079750D01*
X15573375Y-3006250D01*
X15499875Y-3079750D01*
X15573375Y-3153250D01*
X15573375Y-7915750D02*
X15646875Y-7842250D01*
X15573375Y-7768750D01*
X15499875Y-7842250D01*
X15573375Y-7915750D01*
X15732125Y-11471750D02*
X15805625Y-11398250D01*
X15732125Y-11324750D01*
X15658625Y-11398250D01*
X15732125Y-11471750D01*
X15970250Y-13376750D02*
X16043750Y-13303250D01*
X15970250Y-13229750D01*
X15896750Y-13303250D01*
X15970250Y-13376750D01*
X16049625Y-9820750D02*
X16123125Y-9747250D01*
X16049625Y-9673750D01*
X15976125Y-9747250D01*
X16049625Y-9820750D01*
X16208375Y-2899250D02*
X16281875Y-2825750D01*
X16208375Y-2752250D01*
X16134875Y-2825750D01*
X16208375Y-2899250D01*
X16208375Y-7661750D02*
X16281875Y-7588250D01*
X16208375Y-7514750D01*
X16134875Y-7588250D01*
X16208375Y-7661750D01*
X16525875Y-6010750D02*
X16599375Y-5937250D01*
X16525875Y-5863750D01*
X16452375Y-5937250D01*
X16525875Y-6010750D01*
X16684625Y-9566750D02*
X16758125Y-9493250D01*
X16684625Y-9419750D01*
X16611125Y-9493250D01*
X16684625Y-9566750D01*
X17002125Y-11725750D02*
X17075625Y-11652250D01*
X17002125Y-11578750D01*
X16928625Y-11652250D01*
X17002125Y-11725750D01*
X17160875Y-5756750D02*
X17234375Y-5683250D01*
X17160875Y-5609750D01*
X17087375Y-5683250D01*
X17160875Y-5756750D01*
X17478375Y-3153250D02*
X17551875Y-3079750D01*
X17478375Y-3006250D01*
X17404875Y-3079750D01*
X17478375Y-3153250D01*
X17478375Y-7915750D02*
X17551875Y-7842250D01*
X17478375Y-7768750D01*
X17404875Y-7842250D01*
X17478375Y-7915750D01*
X17637125Y-11471750D02*
X17710625Y-11398250D01*
X17637125Y-11324750D01*
X17563625Y-11398250D01*
X17637125Y-11471750D01*
X17954625Y-9820750D02*
X18028125Y-9747250D01*
X17954625Y-9673750D01*
X17881125Y-9747250D01*
X17954625Y-9820750D01*
X18113375Y-2899250D02*
X18186875Y-2825750D01*
X18113375Y-2752250D01*
X18039875Y-2825750D01*
X18113375Y-2899250D01*
X18113375Y-7661750D02*
X18186875Y-7588250D01*
X18113375Y-7514750D01*
X18039875Y-7588250D01*
X18113375Y-7661750D01*
X18430875Y-6010750D02*
X18504375Y-5937250D01*
X18430875Y-5863750D01*
X18357375Y-5937250D01*
X18430875Y-6010750D01*
X18589625Y-9566750D02*
X18663125Y-9493250D01*
X18589625Y-9419750D01*
X18516125Y-9493250D01*
X18589625Y-9566750D01*
X18907125Y-11725750D02*
X18980625Y-11652250D01*
X18907125Y-11578750D01*
X18833625Y-11652250D01*
X18907125Y-11725750D01*
X19065875Y-5756750D02*
X19139375Y-5683250D01*
X19065875Y-5609750D01*
X18992375Y-5683250D01*
X19065875Y-5756750D01*
X19383375Y-3153250D02*
X19456875Y-3079750D01*
X19383375Y-3006250D01*
X19309875Y-3079750D01*
X19383375Y-3153250D01*
X19383375Y-7915750D02*
X19456875Y-7842250D01*
X19383375Y-7768750D01*
X19309875Y-7842250D01*
X19383375Y-7915750D01*
X19542125Y-11471750D02*
X19615625Y-11398250D01*
X19542125Y-11324750D01*
X19468625Y-11398250D01*
X19542125Y-11471750D01*
X19859625Y-9820750D02*
X19933125Y-9747250D01*
X19859625Y-9673750D01*
X19786125Y-9747250D01*
X19859625Y-9820750D01*
X20018375Y-2899250D02*
X20091875Y-2825750D01*
X20018375Y-2752250D01*
X19944875Y-2825750D01*
X20018375Y-2899250D01*
X20018375Y-7661750D02*
X20091875Y-7588250D01*
X20018375Y-7514750D01*
X19944875Y-7588250D01*
X20018375Y-7661750D01*
X20335875Y-6010750D02*
X20409375Y-5937250D01*
X20335875Y-5863750D01*
X20262375Y-5937250D01*
X20335875Y-6010750D01*
X20494625Y-9566750D02*
X20568125Y-9493250D01*
X20494625Y-9419750D01*
X20421125Y-9493250D01*
X20494625Y-9566750D01*
X20812125Y-11725750D02*
X20885625Y-11652250D01*
X20812125Y-11578750D01*
X20738625Y-11652250D01*
X20812125Y-11725750D01*
X20970875Y-5756750D02*
X21044375Y-5683250D01*
X20970875Y-5609750D01*
X20897375Y-5683250D01*
X20970875Y-5756750D01*
X21288375Y-3153250D02*
X21361875Y-3079750D01*
X21288375Y-3006250D01*
X21214875Y-3079750D01*
X21288375Y-3153250D01*
X21288375Y-7915750D02*
X21361875Y-7842250D01*
X21288375Y-7768750D01*
X21214875Y-7842250D01*
X21288375Y-7915750D01*
X21447125Y-11471750D02*
X21520625Y-11398250D01*
X21447125Y-11324750D01*
X21373625Y-11398250D01*
X21447125Y-11471750D01*
X21764625Y-9820750D02*
X21838125Y-9747250D01*
X21764625Y-9673750D01*
X21691125Y-9747250D01*
X21764625Y-9820750D01*
X21923375Y-2899250D02*
X21996875Y-2825750D01*
X21923375Y-2752250D01*
X21849875Y-2825750D01*
X21923375Y-2899250D01*
X21923375Y-7661750D02*
X21996875Y-7588250D01*
X21923375Y-7514750D01*
X21849875Y-7588250D01*
X21923375Y-7661750D01*
X22240875Y-6010750D02*
X22314375Y-5937250D01*
X22240875Y-5863750D01*
X22167375Y-5937250D01*
X22240875Y-6010750D01*
X22240875Y-13630750D02*
X22314375Y-13557250D01*
X22240875Y-13483750D01*
X22167375Y-13557250D01*
X22240875Y-13630750D01*
X22399625Y-9566750D02*
X22473125Y-9493250D01*
X22399625Y-9419750D01*
X22326125Y-9493250D01*
X22399625Y-9566750D01*
X22717125Y-11725750D02*
X22790625Y-11652250D01*
X22717125Y-11578750D01*
X22643625Y-11652250D01*
X22717125Y-11725750D01*
X22875875Y-5756750D02*
X22949375Y-5683250D01*
X22875875Y-5609750D01*
X22802375Y-5683250D01*
X22875875Y-5756750D01*
X22875875Y-13376750D02*
X22949375Y-13303250D01*
X22875875Y-13229750D01*
X22802375Y-13303250D01*
X22875875Y-13376750D01*
X23193375Y-7915750D02*
X23266875Y-7842250D01*
X23193375Y-7768750D01*
X23119875Y-7842250D01*
X23193375Y-7915750D01*
X23352125Y-11471750D02*
X23425625Y-11398250D01*
X23352125Y-11324750D01*
X23278625Y-11398250D01*
X23352125Y-11471750D01*
X23669625Y-9820750D02*
X23743125Y-9747250D01*
X23669625Y-9673750D01*
X23596125Y-9747250D01*
X23669625Y-9820750D01*
X23828375Y-7661750D02*
X23901875Y-7588250D01*
X23828375Y-7514750D01*
X23754875Y-7588250D01*
X23828375Y-7661750D01*
X24145875Y-3153250D02*
X24219375Y-3079750D01*
X24145875Y-3006250D01*
X24072375Y-3079750D01*
X24145875Y-3153250D01*
X24145875Y-6010750D02*
X24219375Y-5937250D01*
X24145875Y-5863750D01*
X24072375Y-5937250D01*
X24145875Y-6010750D01*
X24145875Y-13630750D02*
X24219375Y-13557250D01*
X24145875Y-13483750D01*
X24072375Y-13557250D01*
X24145875Y-13630750D01*
X24304625Y-9566750D02*
X24378125Y-9493250D01*
X24304625Y-9419750D01*
X24231125Y-9493250D01*
X24304625Y-9566750D01*
X24622125Y-11725750D02*
X24695625Y-11652250D01*
X24622125Y-11578750D01*
X24548625Y-11652250D01*
X24622125Y-11725750D01*
X24780875Y-2899250D02*
X24854375Y-2825750D01*
X24780875Y-2752250D01*
X24707375Y-2825750D01*
X24780875Y-2899250D01*
X24780875Y-5756750D02*
X24854375Y-5683250D01*
X24780875Y-5609750D01*
X24707375Y-5683250D01*
X24780875Y-5756750D01*
X24780875Y-13376750D02*
X24854375Y-13303250D01*
X24780875Y-13229750D01*
X24707375Y-13303250D01*
X24780875Y-13376750D01*
X25098375Y-7915750D02*
X25171875Y-7842250D01*
X25098375Y-7768750D01*
X25024875Y-7842250D01*
X25098375Y-7915750D01*
X25257125Y-11471750D02*
X25330625Y-11398250D01*
X25257125Y-11324750D01*
X25183625Y-11398250D01*
X25257125Y-11471750D01*
X25574625Y-9820750D02*
X25648125Y-9747250D01*
X25574625Y-9673750D01*
X25501125Y-9747250D01*
X25574625Y-9820750D01*
X25733375Y-7661750D02*
X25806875Y-7588250D01*
X25733375Y-7514750D01*
X25659875Y-7588250D01*
X25733375Y-7661750D01*
X26050875Y-3153250D02*
X26124375Y-3079750D01*
X26050875Y-3006250D01*
X25977375Y-3079750D01*
X26050875Y-3153250D01*
X26050875Y-6010750D02*
X26124375Y-5937250D01*
X26050875Y-5863750D01*
X25977375Y-5937250D01*
X26050875Y-6010750D01*
X26050875Y-13630750D02*
X26124375Y-13557250D01*
X26050875Y-13483750D01*
X25977375Y-13557250D01*
X26050875Y-13630750D01*
X26209625Y-9566750D02*
X26283125Y-9493250D01*
X26209625Y-9419750D01*
X26136125Y-9493250D01*
X26209625Y-9566750D01*
X26685875Y-2899250D02*
X26759375Y-2825750D01*
X26685875Y-2752250D01*
X26612375Y-2825750D01*
X26685875Y-2899250D01*
X26685875Y-5756750D02*
X26759375Y-5683250D01*
X26685875Y-5609750D01*
X26612375Y-5683250D01*
X26685875Y-5756750D01*
X26685875Y-13376750D02*
X26759375Y-13303250D01*
X26685875Y-13229750D01*
X26612375Y-13303250D01*
X26685875Y-13376750D01*
X27003375Y-7915750D02*
X27076875Y-7842250D01*
X27003375Y-7768750D01*
X26929875Y-7842250D01*
X27003375Y-7915750D01*
X27241500Y-11725750D02*
X27315000Y-11652250D01*
X27241500Y-11578750D01*
X27168000Y-11652250D01*
X27241500Y-11725750D01*
X27638375Y-7661750D02*
X27711875Y-7588250D01*
X27638375Y-7514750D01*
X27564875Y-7588250D01*
X27638375Y-7661750D01*
X27876500Y-11471750D02*
X27950000Y-11398250D01*
X27876500Y-11324750D01*
X27803000Y-11398250D01*
X27876500Y-11471750D01*
X27955875Y-3153250D02*
X28029375Y-3079750D01*
X27955875Y-3006250D01*
X27882375Y-3079750D01*
X27955875Y-3153250D01*
X28432125Y-14107000D02*
X28505625Y-14033500D01*
X28432125Y-13960000D01*
X28358625Y-14033500D01*
X28432125Y-14107000D01*
X28590875Y-2899250D02*
X28664375Y-2825750D01*
X28590875Y-2752250D01*
X28517375Y-2825750D01*
X28590875Y-2899250D01*
X28670250Y-9820750D02*
X28743750Y-9747250D01*
X28670250Y-9673750D01*
X28596750Y-9747250D01*
X28670250Y-9820750D01*
X28908375Y-6010750D02*
X28981875Y-5937250D01*
X28908375Y-5863750D01*
X28834875Y-5937250D01*
X28908375Y-6010750D01*
X29067125Y-13853000D02*
X29140625Y-13779500D01*
X29067125Y-13706000D01*
X28993625Y-13779500D01*
X29067125Y-13853000D01*
X29305250Y-9566750D02*
X29378750Y-9493250D01*
X29305250Y-9419750D01*
X29231750Y-9493250D01*
X29305250Y-9566750D01*
X29384625Y-7915750D02*
X29458125Y-7842250D01*
X29384625Y-7768750D01*
X29311125Y-7842250D01*
X29384625Y-7915750D01*
X29543375Y-5756750D02*
X29616875Y-5683250D01*
X29543375Y-5609750D01*
X29469875Y-5683250D01*
X29543375Y-5756750D01*
X29860875Y-3153250D02*
X29934375Y-3079750D01*
X29860875Y-3006250D01*
X29787375Y-3079750D01*
X29860875Y-3153250D01*
X30019625Y-7661750D02*
X30093125Y-7588250D01*
X30019625Y-7514750D01*
X29946125Y-7588250D01*
X30019625Y-7661750D01*
X30337125Y-12202000D02*
X30410625Y-12128500D01*
X30337125Y-12055000D01*
X30263625Y-12128500D01*
X30337125Y-12202000D01*
X30337125Y-14107000D02*
X30410625Y-14033500D01*
X30337125Y-13960000D01*
X30263625Y-14033500D01*
X30337125Y-14107000D01*
X30495875Y-2899250D02*
X30569375Y-2825750D01*
X30495875Y-2752250D01*
X30422375Y-2825750D01*
X30495875Y-2899250D01*
X30972125Y-11948000D02*
X31045625Y-11874500D01*
X30972125Y-11801000D01*
X30898625Y-11874500D01*
X30972125Y-11948000D01*
X30972125Y-13853000D02*
X31045625Y-13779500D01*
X30972125Y-13706000D01*
X30898625Y-13779500D01*
X30972125Y-13853000D01*
X32242125Y-14107000D02*
X32315625Y-14033500D01*
X32242125Y-13960000D01*
X32168625Y-14033500D01*
X32242125Y-14107000D01*
X32718375Y-3153250D02*
X32791875Y-3079750D01*
X32718375Y-3006250D01*
X32644875Y-3079750D01*
X32718375Y-3153250D01*
X32718375Y-6010750D02*
X32791875Y-5937250D01*
X32718375Y-5863750D01*
X32644875Y-5937250D01*
X32718375Y-6010750D01*
X32718375Y-7915750D02*
X32791875Y-7842250D01*
X32718375Y-7768750D01*
X32644875Y-7842250D01*
X32718375Y-7915750D01*
X32718375Y-9820750D02*
X32791875Y-9747250D01*
X32718375Y-9673750D01*
X32644875Y-9747250D01*
X32718375Y-9820750D01*
X32718375Y-11725750D02*
X32791875Y-11652250D01*
X32718375Y-11578750D01*
X32644875Y-11652250D01*
X32718375Y-11725750D01*
X32877125Y-13853000D02*
X32950625Y-13779500D01*
X32877125Y-13706000D01*
X32803625Y-13779500D01*
X32877125Y-13853000D01*
X33353375Y-2899250D02*
X33426875Y-2825750D01*
X33353375Y-2752250D01*
X33279875Y-2825750D01*
X33353375Y-2899250D01*
X33353375Y-5756750D02*
X33426875Y-5683250D01*
X33353375Y-5609750D01*
X33279875Y-5683250D01*
X33353375Y-5756750D01*
X33353375Y-7661750D02*
X33426875Y-7588250D01*
X33353375Y-7514750D01*
X33279875Y-7588250D01*
X33353375Y-7661750D01*
X33353375Y-9566750D02*
X33426875Y-9493250D01*
X33353375Y-9419750D01*
X33279875Y-9493250D01*
X33353375Y-9566750D01*
X33353375Y-11471750D02*
X33426875Y-11398250D01*
X33353375Y-11324750D01*
X33279875Y-11398250D01*
X33353375Y-11471750D01*
X35575875Y-6010750D02*
X35649375Y-5937250D01*
X35575875Y-5863750D01*
X35502375Y-5937250D01*
X35575875Y-6010750D01*
X35575875Y-7915750D02*
X35649375Y-7842250D01*
X35575875Y-7768750D01*
X35502375Y-7842250D01*
X35575875Y-7915750D01*
X35575875Y-9820750D02*
X35649375Y-9747250D01*
X35575875Y-9673750D01*
X35502375Y-9747250D01*
X35575875Y-9820750D01*
X35575875Y-11725750D02*
X35649375Y-11652250D01*
X35575875Y-11578750D01*
X35502375Y-11652250D01*
X35575875Y-11725750D01*
X36210875Y-5756750D02*
X36284375Y-5683250D01*
X36210875Y-5609750D01*
X36137375Y-5683250D01*
X36210875Y-5756750D01*
X36210875Y-7661750D02*
X36284375Y-7588250D01*
X36210875Y-7514750D01*
X36137375Y-7588250D01*
X36210875Y-7661750D01*
X36210875Y-9566750D02*
X36284375Y-9493250D01*
X36210875Y-9419750D01*
X36137375Y-9493250D01*
X36210875Y-9566750D01*
X36210875Y-11471750D02*
X36284375Y-11398250D01*
X36210875Y-11324750D01*
X36137375Y-11398250D01*
X36210875Y-11471750D01*
X36528375Y-13630750D02*
X36601875Y-13557250D01*
X36528375Y-13483750D01*
X36454875Y-13557250D01*
X36528375Y-13630750D01*
X37163375Y-13376750D02*
X37236875Y-13303250D01*
X37163375Y-13229750D01*
X37089875Y-13303250D01*
X37163375Y-13376750D01*
X37480875Y-6010750D02*
X37554375Y-5937250D01*
X37480875Y-5863750D01*
X37407375Y-5937250D01*
X37480875Y-6010750D01*
X37480875Y-7915750D02*
X37554375Y-7842250D01*
X37480875Y-7768750D01*
X37407375Y-7842250D01*
X37480875Y-7915750D01*
X37480875Y-9820750D02*
X37554375Y-9747250D01*
X37480875Y-9673750D01*
X37407375Y-9747250D01*
X37480875Y-9820750D01*
X37480875Y-11725750D02*
X37554375Y-11652250D01*
X37480875Y-11578750D01*
X37407375Y-11652250D01*
X37480875Y-11725750D01*
X38115875Y-5756750D02*
X38189375Y-5683250D01*
X38115875Y-5609750D01*
X38042375Y-5683250D01*
X38115875Y-5756750D01*
X38115875Y-7661750D02*
X38189375Y-7588250D01*
X38115875Y-7514750D01*
X38042375Y-7588250D01*
X38115875Y-7661750D01*
X38115875Y-9566750D02*
X38189375Y-9493250D01*
X38115875Y-9419750D01*
X38042375Y-9493250D01*
X38115875Y-9566750D01*
X38115875Y-11471750D02*
X38189375Y-11398250D01*
X38115875Y-11324750D01*
X38042375Y-11398250D01*
X38115875Y-11471750D01*
X39385875Y-6010750D02*
X39459375Y-5937250D01*
X39385875Y-5863750D01*
X39312375Y-5937250D01*
X39385875Y-6010750D01*
X39385875Y-7915750D02*
X39459375Y-7842250D01*
X39385875Y-7768750D01*
X39312375Y-7842250D01*
X39385875Y-7915750D01*
X39385875Y-9820750D02*
X39459375Y-9747250D01*
X39385875Y-9673750D01*
X39312375Y-9747250D01*
X39385875Y-9820750D01*
X39385875Y-11725750D02*
X39459375Y-11652250D01*
X39385875Y-11578750D01*
X39312375Y-11652250D01*
X39385875Y-11725750D01*
X39385875Y-13630750D02*
X39459375Y-13557250D01*
X39385875Y-13483750D01*
X39312375Y-13557250D01*
X39385875Y-13630750D01*
X40020875Y-5756750D02*
X40094375Y-5683250D01*
X40020875Y-5609750D01*
X39947375Y-5683250D01*
X40020875Y-5756750D01*
X40020875Y-7661750D02*
X40094375Y-7588250D01*
X40020875Y-7514750D01*
X39947375Y-7588250D01*
X40020875Y-7661750D01*
X40020875Y-9566750D02*
X40094375Y-9493250D01*
X40020875Y-9419750D01*
X39947375Y-9493250D01*
X40020875Y-9566750D01*
X40020875Y-11471750D02*
X40094375Y-11398250D01*
X40020875Y-11324750D01*
X39947375Y-11398250D01*
X40020875Y-11471750D01*
X40020875Y-13376750D02*
X40094375Y-13303250D01*
X40020875Y-13229750D01*
X39947375Y-13303250D01*
X40020875Y-13376750D01*
X41290875Y-6010750D02*
X41364375Y-5937250D01*
X41290875Y-5863750D01*
X41217375Y-5937250D01*
X41290875Y-6010750D01*
X41290875Y-8868250D02*
X41364375Y-8794750D01*
X41290875Y-8721250D01*
X41217375Y-8794750D01*
X41290875Y-8868250D01*
X41290875Y-12678250D02*
X41364375Y-12604750D01*
X41290875Y-12531250D01*
X41217375Y-12604750D01*
X41290875Y-12678250D01*
X41925875Y-5756750D02*
X41999375Y-5683250D01*
X41925875Y-5609750D01*
X41852375Y-5683250D01*
X41925875Y-5756750D01*
X41925875Y-8614250D02*
X41999375Y-8540750D01*
X41925875Y-8467250D01*
X41852375Y-8540750D01*
X41925875Y-8614250D01*
X41925875Y-12424250D02*
X41999375Y-12350750D01*
X41925875Y-12277250D01*
X41852375Y-12350750D01*
X41925875Y-12424250D01*
D11*
X35296875Y-3258750D02*
X35496875Y-3458750D01*
X35496875Y-3258750D02*
X35296875Y-3458750D01*
X35496875Y-3358750D02*
G75*
G03*
X35496875Y-3358750I-100000J0D01*
G01*
X35296875Y-3333750D02*
X35296875Y-3383750D01*
X35496875Y-3333750D02*
X35496875Y-3383750D01*
X35296875Y-3383750D02*
G75*
G03*
X35496875Y-3383750I100000J0D01*
G01*
X35496875Y-3333750D02*
G75*
G03*
X35296875Y-3333750I-100000J0D01*
G01*
X36416875Y-3258750D02*
X36616875Y-3458750D01*
X36616875Y-3258750D02*
X36416875Y-3458750D01*
X36616875Y-3358750D02*
G75*
G03*
X36616875Y-3358750I-100000J0D01*
G01*
X36416875Y-3333750D02*
X36416875Y-3383750D01*
X36616875Y-3333750D02*
X36616875Y-3383750D01*
X36416875Y-3383750D02*
G75*
G03*
X36616875Y-3383750I100000J0D01*
G01*
X36616875Y-3333750D02*
G75*
G03*
X36416875Y-3333750I-100000J0D01*
G01*
X2668119Y-15705376D02*
X2668119Y-15505376D01*
X2715738Y-15505376D01*
X2744310Y-15514900D01*
X2763357Y-15533948D01*
X2772881Y-15552995D01*
X2782405Y-15591090D01*
X2782405Y-15619662D01*
X2772881Y-15657757D01*
X2763357Y-15676805D01*
X2744310Y-15695852D01*
X2715738Y-15705376D01*
X2668119Y-15705376D01*
X2868119Y-15705376D02*
X2868119Y-15572043D01*
X2868119Y-15610138D02*
X2877643Y-15591090D01*
X2887167Y-15581567D01*
X2906214Y-15572043D01*
X2925262Y-15572043D01*
X2991928Y-15705376D02*
X2991928Y-15572043D01*
X2991928Y-15505376D02*
X2982405Y-15514900D01*
X2991928Y-15524424D01*
X3001452Y-15514900D01*
X2991928Y-15505376D01*
X2991928Y-15524424D01*
X3115738Y-15705376D02*
X3096690Y-15695852D01*
X3087167Y-15676805D01*
X3087167Y-15505376D01*
X3220500Y-15705376D02*
X3201452Y-15695852D01*
X3191928Y-15676805D01*
X3191928Y-15505376D01*
X3449071Y-15705376D02*
X3449071Y-15505376D01*
X3515738Y-15648233D01*
X3582405Y-15505376D01*
X3582405Y-15705376D01*
X3763357Y-15705376D02*
X3763357Y-15600614D01*
X3753833Y-15581567D01*
X3734786Y-15572043D01*
X3696690Y-15572043D01*
X3677643Y-15581567D01*
X3763357Y-15695852D02*
X3744309Y-15705376D01*
X3696690Y-15705376D01*
X3677643Y-15695852D01*
X3668119Y-15676805D01*
X3668119Y-15657757D01*
X3677643Y-15638709D01*
X3696690Y-15629186D01*
X3744309Y-15629186D01*
X3763357Y-15619662D01*
X3858595Y-15572043D02*
X3858595Y-15772043D01*
X3858595Y-15581567D02*
X3877643Y-15572043D01*
X3915738Y-15572043D01*
X3934786Y-15581567D01*
X3944309Y-15591090D01*
X3953833Y-15610138D01*
X3953833Y-15667281D01*
X3944309Y-15686328D01*
X3934786Y-15695852D01*
X3915738Y-15705376D01*
X3877643Y-15705376D01*
X3858595Y-15695852D01*
X4039548Y-15686328D02*
X4049071Y-15695852D01*
X4039548Y-15705376D01*
X4030024Y-15695852D01*
X4039548Y-15686328D01*
X4039548Y-15705376D01*
X4039548Y-15581567D02*
X4049071Y-15591090D01*
X4039548Y-15600614D01*
X4030024Y-15591090D01*
X4039548Y-15581567D01*
X4039548Y-15600614D01*
D12*
X2370500Y-16014900D02*
X2410500Y-16054900D01*
X2410500Y-16014900D02*
X2370500Y-16054900D01*
D11*
X2706214Y-15925376D02*
X2725262Y-15925376D01*
X2744310Y-15934900D01*
X2753833Y-15944424D01*
X2763357Y-15963471D01*
X2772881Y-16001567D01*
X2772881Y-16049186D01*
X2763357Y-16087281D01*
X2753833Y-16106328D01*
X2744310Y-16115852D01*
X2725262Y-16125376D01*
X2706214Y-16125376D01*
X2687167Y-16115852D01*
X2677643Y-16106328D01*
X2668119Y-16087281D01*
X2658595Y-16049186D01*
X2658595Y-16001567D01*
X2668119Y-15963471D01*
X2677643Y-15944424D01*
X2687167Y-15934900D01*
X2706214Y-15925376D01*
X2858595Y-16106328D02*
X2868119Y-16115852D01*
X2858595Y-16125376D01*
X2849071Y-16115852D01*
X2858595Y-16106328D01*
X2858595Y-16125376D01*
X3039548Y-15992043D02*
X3039548Y-16125376D01*
X2991928Y-15915852D02*
X2944309Y-16058709D01*
X3068119Y-16058709D01*
X3182405Y-15925376D02*
X3201452Y-15925376D01*
X3220500Y-15934900D01*
X3230024Y-15944424D01*
X3239548Y-15963471D01*
X3249071Y-16001567D01*
X3249071Y-16049186D01*
X3239548Y-16087281D01*
X3230024Y-16106328D01*
X3220500Y-16115852D01*
X3201452Y-16125376D01*
X3182405Y-16125376D01*
X3163357Y-16115852D01*
X3153833Y-16106328D01*
X3144309Y-16087281D01*
X3134786Y-16049186D01*
X3134786Y-16001567D01*
X3144309Y-15963471D01*
X3153833Y-15944424D01*
X3163357Y-15934900D01*
X3182405Y-15925376D01*
X3372881Y-15925376D02*
X3391928Y-15925376D01*
X3410976Y-15934900D01*
X3420500Y-15944424D01*
X3430024Y-15963471D01*
X3439548Y-16001567D01*
X3439548Y-16049186D01*
X3430024Y-16087281D01*
X3420500Y-16106328D01*
X3410976Y-16115852D01*
X3391928Y-16125376D01*
X3372881Y-16125376D01*
X3353833Y-16115852D01*
X3344309Y-16106328D01*
X3334786Y-16087281D01*
X3325262Y-16049186D01*
X3325262Y-16001567D01*
X3334786Y-15963471D01*
X3344309Y-15944424D01*
X3353833Y-15934900D01*
X3372881Y-15925376D01*
X3525262Y-16125376D02*
X3525262Y-15992043D01*
X3525262Y-16011090D02*
X3534786Y-16001567D01*
X3553833Y-15992043D01*
X3582405Y-15992043D01*
X3601452Y-16001567D01*
X3610976Y-16020614D01*
X3610976Y-16125376D01*
X3610976Y-16020614D02*
X3620500Y-16001567D01*
X3639548Y-15992043D01*
X3668119Y-15992043D01*
X3687167Y-16001567D01*
X3696690Y-16020614D01*
X3696690Y-16125376D01*
X3791928Y-16125376D02*
X3791928Y-15992043D01*
X3791928Y-16011090D02*
X3801452Y-16001567D01*
X3820500Y-15992043D01*
X3849071Y-15992043D01*
X3868119Y-16001567D01*
X3877643Y-16020614D01*
X3877643Y-16125376D01*
X3877643Y-16020614D02*
X3887167Y-16001567D01*
X3906214Y-15992043D01*
X3934786Y-15992043D01*
X3953833Y-16001567D01*
X3963357Y-16020614D01*
X3963357Y-16125376D01*
X4353833Y-15915852D02*
X4182405Y-16172995D01*
X4610976Y-15925376D02*
X4630024Y-15925376D01*
X4649071Y-15934900D01*
X4658595Y-15944424D01*
X4668119Y-15963471D01*
X4677643Y-16001567D01*
X4677643Y-16049186D01*
X4668119Y-16087281D01*
X4658595Y-16106328D01*
X4649071Y-16115852D01*
X4630024Y-16125376D01*
X4610976Y-16125376D01*
X4591929Y-16115852D01*
X4582405Y-16106328D01*
X4572881Y-16087281D01*
X4563357Y-16049186D01*
X4563357Y-16001567D01*
X4572881Y-15963471D01*
X4582405Y-15944424D01*
X4591929Y-15934900D01*
X4610976Y-15925376D01*
X4763357Y-16106328D02*
X4772881Y-16115852D01*
X4763357Y-16125376D01*
X4753833Y-16115852D01*
X4763357Y-16106328D01*
X4763357Y-16125376D01*
X4896690Y-15925376D02*
X4915738Y-15925376D01*
X4934786Y-15934900D01*
X4944310Y-15944424D01*
X4953833Y-15963471D01*
X4963357Y-16001567D01*
X4963357Y-16049186D01*
X4953833Y-16087281D01*
X4944310Y-16106328D01*
X4934786Y-16115852D01*
X4915738Y-16125376D01*
X4896690Y-16125376D01*
X4877643Y-16115852D01*
X4868119Y-16106328D01*
X4858595Y-16087281D01*
X4849071Y-16049186D01*
X4849071Y-16001567D01*
X4858595Y-15963471D01*
X4868119Y-15944424D01*
X4877643Y-15934900D01*
X4896690Y-15925376D01*
X5153833Y-16125376D02*
X5039548Y-16125376D01*
X5096690Y-16125376D02*
X5096690Y-15925376D01*
X5077643Y-15953948D01*
X5058595Y-15972995D01*
X5039548Y-15982519D01*
X5334786Y-15925376D02*
X5239548Y-15925376D01*
X5230024Y-16020614D01*
X5239548Y-16011090D01*
X5258595Y-16001567D01*
X5306214Y-16001567D01*
X5325262Y-16011090D01*
X5334786Y-16020614D01*
X5344310Y-16039662D01*
X5344310Y-16087281D01*
X5334786Y-16106328D01*
X5325262Y-16115852D01*
X5306214Y-16125376D01*
X5258595Y-16125376D01*
X5239548Y-16115852D01*
X5230024Y-16106328D01*
X5410976Y-15925376D02*
X5544310Y-15925376D01*
X5458595Y-16125376D01*
X5610976Y-15925376D02*
X5610976Y-15963471D01*
X5687167Y-15925376D02*
X5687167Y-15963471D01*
X5982405Y-16201567D02*
X5972881Y-16192043D01*
X5953833Y-16163471D01*
X5944309Y-16144424D01*
X5934786Y-16115852D01*
X5925262Y-16068233D01*
X5925262Y-16030138D01*
X5934786Y-15982519D01*
X5944309Y-15953948D01*
X5953833Y-15934900D01*
X5972881Y-15906328D01*
X5982405Y-15896805D01*
X6039548Y-15925376D02*
X6163357Y-15925376D01*
X6096690Y-16001567D01*
X6125262Y-16001567D01*
X6144309Y-16011090D01*
X6153833Y-16020614D01*
X6163357Y-16039662D01*
X6163357Y-16087281D01*
X6153833Y-16106328D01*
X6144309Y-16115852D01*
X6125262Y-16125376D01*
X6068119Y-16125376D01*
X6049071Y-16115852D01*
X6039548Y-16106328D01*
X6277643Y-16011090D02*
X6258595Y-16001567D01*
X6249071Y-15992043D01*
X6239548Y-15972995D01*
X6239548Y-15963471D01*
X6249071Y-15944424D01*
X6258595Y-15934900D01*
X6277643Y-15925376D01*
X6315738Y-15925376D01*
X6334786Y-15934900D01*
X6344309Y-15944424D01*
X6353833Y-15963471D01*
X6353833Y-15972995D01*
X6344309Y-15992043D01*
X6334786Y-16001567D01*
X6315738Y-16011090D01*
X6277643Y-16011090D01*
X6258595Y-16020614D01*
X6249071Y-16030138D01*
X6239548Y-16049186D01*
X6239548Y-16087281D01*
X6249071Y-16106328D01*
X6258595Y-16115852D01*
X6277643Y-16125376D01*
X6315738Y-16125376D01*
X6334786Y-16115852D01*
X6344309Y-16106328D01*
X6353833Y-16087281D01*
X6353833Y-16049186D01*
X6344309Y-16030138D01*
X6334786Y-16020614D01*
X6315738Y-16011090D01*
X6591928Y-16125376D02*
X6591928Y-15925376D01*
X6677643Y-16125376D02*
X6677643Y-16020614D01*
X6668119Y-16001567D01*
X6649071Y-15992043D01*
X6620500Y-15992043D01*
X6601452Y-16001567D01*
X6591928Y-16011090D01*
X6801452Y-16125376D02*
X6782405Y-16115852D01*
X6772881Y-16106328D01*
X6763357Y-16087281D01*
X6763357Y-16030138D01*
X6772881Y-16011090D01*
X6782405Y-16001567D01*
X6801452Y-15992043D01*
X6830024Y-15992043D01*
X6849071Y-16001567D01*
X6858595Y-16011090D01*
X6868119Y-16030138D01*
X6868119Y-16087281D01*
X6858595Y-16106328D01*
X6849071Y-16115852D01*
X6830024Y-16125376D01*
X6801452Y-16125376D01*
X6982405Y-16125376D02*
X6963357Y-16115852D01*
X6953833Y-16096805D01*
X6953833Y-15925376D01*
X7134786Y-16115852D02*
X7115738Y-16125376D01*
X7077643Y-16125376D01*
X7058595Y-16115852D01*
X7049071Y-16096805D01*
X7049071Y-16020614D01*
X7058595Y-16001567D01*
X7077643Y-15992043D01*
X7115738Y-15992043D01*
X7134786Y-16001567D01*
X7144309Y-16020614D01*
X7144309Y-16039662D01*
X7049071Y-16058709D01*
X7220500Y-16115852D02*
X7239548Y-16125376D01*
X7277643Y-16125376D01*
X7296690Y-16115852D01*
X7306214Y-16096805D01*
X7306214Y-16087281D01*
X7296690Y-16068233D01*
X7277643Y-16058709D01*
X7249071Y-16058709D01*
X7230024Y-16049186D01*
X7220500Y-16030138D01*
X7220500Y-16020614D01*
X7230024Y-16001567D01*
X7249071Y-15992043D01*
X7277643Y-15992043D01*
X7296690Y-16001567D01*
X7372881Y-16201567D02*
X7382405Y-16192043D01*
X7401452Y-16163471D01*
X7410976Y-16144424D01*
X7420500Y-16115852D01*
X7430024Y-16068233D01*
X7430024Y-16030138D01*
X7420500Y-15982519D01*
X7410976Y-15953948D01*
X7401452Y-15934900D01*
X7382405Y-15906328D01*
X7372881Y-15896805D01*
D12*
X2410500Y-16298900D02*
G75*
G03*
X2410500Y-16298900I-20000J0D01*
G01*
D11*
X2706214Y-16189376D02*
X2725262Y-16189376D01*
X2744310Y-16198900D01*
X2753833Y-16208424D01*
X2763357Y-16227471D01*
X2772881Y-16265567D01*
X2772881Y-16313186D01*
X2763357Y-16351281D01*
X2753833Y-16370328D01*
X2744310Y-16379852D01*
X2725262Y-16389376D01*
X2706214Y-16389376D01*
X2687167Y-16379852D01*
X2677643Y-16370328D01*
X2668119Y-16351281D01*
X2658595Y-16313186D01*
X2658595Y-16265567D01*
X2668119Y-16227471D01*
X2677643Y-16208424D01*
X2687167Y-16198900D01*
X2706214Y-16189376D01*
X2858595Y-16370328D02*
X2868119Y-16379852D01*
X2858595Y-16389376D01*
X2849071Y-16379852D01*
X2858595Y-16370328D01*
X2858595Y-16389376D01*
X3039548Y-16256043D02*
X3039548Y-16389376D01*
X2991928Y-16179852D02*
X2944309Y-16322709D01*
X3068119Y-16322709D01*
X3182405Y-16189376D02*
X3201452Y-16189376D01*
X3220500Y-16198900D01*
X3230024Y-16208424D01*
X3239548Y-16227471D01*
X3249071Y-16265567D01*
X3249071Y-16313186D01*
X3239548Y-16351281D01*
X3230024Y-16370328D01*
X3220500Y-16379852D01*
X3201452Y-16389376D01*
X3182405Y-16389376D01*
X3163357Y-16379852D01*
X3153833Y-16370328D01*
X3144309Y-16351281D01*
X3134786Y-16313186D01*
X3134786Y-16265567D01*
X3144309Y-16227471D01*
X3153833Y-16208424D01*
X3163357Y-16198900D01*
X3182405Y-16189376D01*
X3372881Y-16189376D02*
X3391928Y-16189376D01*
X3410976Y-16198900D01*
X3420500Y-16208424D01*
X3430024Y-16227471D01*
X3439548Y-16265567D01*
X3439548Y-16313186D01*
X3430024Y-16351281D01*
X3420500Y-16370328D01*
X3410976Y-16379852D01*
X3391928Y-16389376D01*
X3372881Y-16389376D01*
X3353833Y-16379852D01*
X3344309Y-16370328D01*
X3334786Y-16351281D01*
X3325262Y-16313186D01*
X3325262Y-16265567D01*
X3334786Y-16227471D01*
X3344309Y-16208424D01*
X3353833Y-16198900D01*
X3372881Y-16189376D01*
X3525262Y-16389376D02*
X3525262Y-16256043D01*
X3525262Y-16275090D02*
X3534786Y-16265567D01*
X3553833Y-16256043D01*
X3582405Y-16256043D01*
X3601452Y-16265567D01*
X3610976Y-16284614D01*
X3610976Y-16389376D01*
X3610976Y-16284614D02*
X3620500Y-16265567D01*
X3639548Y-16256043D01*
X3668119Y-16256043D01*
X3687167Y-16265567D01*
X3696690Y-16284614D01*
X3696690Y-16389376D01*
X3791928Y-16389376D02*
X3791928Y-16256043D01*
X3791928Y-16275090D02*
X3801452Y-16265567D01*
X3820500Y-16256043D01*
X3849071Y-16256043D01*
X3868119Y-16265567D01*
X3877643Y-16284614D01*
X3877643Y-16389376D01*
X3877643Y-16284614D02*
X3887167Y-16265567D01*
X3906214Y-16256043D01*
X3934786Y-16256043D01*
X3953833Y-16265567D01*
X3963357Y-16284614D01*
X3963357Y-16389376D01*
X4353833Y-16179852D02*
X4182405Y-16436995D01*
X4610976Y-16189376D02*
X4630024Y-16189376D01*
X4649071Y-16198900D01*
X4658595Y-16208424D01*
X4668119Y-16227471D01*
X4677643Y-16265567D01*
X4677643Y-16313186D01*
X4668119Y-16351281D01*
X4658595Y-16370328D01*
X4649071Y-16379852D01*
X4630024Y-16389376D01*
X4610976Y-16389376D01*
X4591929Y-16379852D01*
X4582405Y-16370328D01*
X4572881Y-16351281D01*
X4563357Y-16313186D01*
X4563357Y-16265567D01*
X4572881Y-16227471D01*
X4582405Y-16208424D01*
X4591929Y-16198900D01*
X4610976Y-16189376D01*
X4763357Y-16370328D02*
X4772881Y-16379852D01*
X4763357Y-16389376D01*
X4753833Y-16379852D01*
X4763357Y-16370328D01*
X4763357Y-16389376D01*
X4896690Y-16189376D02*
X4915738Y-16189376D01*
X4934786Y-16198900D01*
X4944310Y-16208424D01*
X4953833Y-16227471D01*
X4963357Y-16265567D01*
X4963357Y-16313186D01*
X4953833Y-16351281D01*
X4944310Y-16370328D01*
X4934786Y-16379852D01*
X4915738Y-16389376D01*
X4896690Y-16389376D01*
X4877643Y-16379852D01*
X4868119Y-16370328D01*
X4858595Y-16351281D01*
X4849071Y-16313186D01*
X4849071Y-16265567D01*
X4858595Y-16227471D01*
X4868119Y-16208424D01*
X4877643Y-16198900D01*
X4896690Y-16189376D01*
X5153833Y-16389376D02*
X5039548Y-16389376D01*
X5096690Y-16389376D02*
X5096690Y-16189376D01*
X5077643Y-16217948D01*
X5058595Y-16236995D01*
X5039548Y-16246519D01*
X5334786Y-16189376D02*
X5239548Y-16189376D01*
X5230024Y-16284614D01*
X5239548Y-16275090D01*
X5258595Y-16265567D01*
X5306214Y-16265567D01*
X5325262Y-16275090D01*
X5334786Y-16284614D01*
X5344310Y-16303662D01*
X5344310Y-16351281D01*
X5334786Y-16370328D01*
X5325262Y-16379852D01*
X5306214Y-16389376D01*
X5258595Y-16389376D01*
X5239548Y-16379852D01*
X5230024Y-16370328D01*
X5410976Y-16189376D02*
X5544310Y-16189376D01*
X5458595Y-16389376D01*
X5610976Y-16189376D02*
X5610976Y-16227471D01*
X5687167Y-16189376D02*
X5687167Y-16227471D01*
X5982405Y-16465567D02*
X5972881Y-16456043D01*
X5953833Y-16427471D01*
X5944309Y-16408424D01*
X5934786Y-16379852D01*
X5925262Y-16332233D01*
X5925262Y-16294138D01*
X5934786Y-16246519D01*
X5944309Y-16217948D01*
X5953833Y-16198900D01*
X5972881Y-16170328D01*
X5982405Y-16160805D01*
X6163357Y-16389376D02*
X6049071Y-16389376D01*
X6106214Y-16389376D02*
X6106214Y-16189376D01*
X6087167Y-16217948D01*
X6068119Y-16236995D01*
X6049071Y-16246519D01*
X6334786Y-16189376D02*
X6296690Y-16189376D01*
X6277643Y-16198900D01*
X6268119Y-16208424D01*
X6249071Y-16236995D01*
X6239548Y-16275090D01*
X6239548Y-16351281D01*
X6249071Y-16370328D01*
X6258595Y-16379852D01*
X6277643Y-16389376D01*
X6315738Y-16389376D01*
X6334786Y-16379852D01*
X6344309Y-16370328D01*
X6353833Y-16351281D01*
X6353833Y-16303662D01*
X6344309Y-16284614D01*
X6334786Y-16275090D01*
X6315738Y-16265567D01*
X6277643Y-16265567D01*
X6258595Y-16275090D01*
X6249071Y-16284614D01*
X6239548Y-16303662D01*
X6591928Y-16389376D02*
X6591928Y-16189376D01*
X6677643Y-16389376D02*
X6677643Y-16284614D01*
X6668119Y-16265567D01*
X6649071Y-16256043D01*
X6620500Y-16256043D01*
X6601452Y-16265567D01*
X6591928Y-16275090D01*
X6801452Y-16389376D02*
X6782405Y-16379852D01*
X6772881Y-16370328D01*
X6763357Y-16351281D01*
X6763357Y-16294138D01*
X6772881Y-16275090D01*
X6782405Y-16265567D01*
X6801452Y-16256043D01*
X6830024Y-16256043D01*
X6849071Y-16265567D01*
X6858595Y-16275090D01*
X6868119Y-16294138D01*
X6868119Y-16351281D01*
X6858595Y-16370328D01*
X6849071Y-16379852D01*
X6830024Y-16389376D01*
X6801452Y-16389376D01*
X6982405Y-16389376D02*
X6963357Y-16379852D01*
X6953833Y-16360805D01*
X6953833Y-16189376D01*
X7134786Y-16379852D02*
X7115738Y-16389376D01*
X7077643Y-16389376D01*
X7058595Y-16379852D01*
X7049071Y-16360805D01*
X7049071Y-16284614D01*
X7058595Y-16265567D01*
X7077643Y-16256043D01*
X7115738Y-16256043D01*
X7134786Y-16265567D01*
X7144309Y-16284614D01*
X7144309Y-16303662D01*
X7049071Y-16322709D01*
X7220500Y-16379852D02*
X7239548Y-16389376D01*
X7277643Y-16389376D01*
X7296690Y-16379852D01*
X7306214Y-16360805D01*
X7306214Y-16351281D01*
X7296690Y-16332233D01*
X7277643Y-16322709D01*
X7249071Y-16322709D01*
X7230024Y-16313186D01*
X7220500Y-16294138D01*
X7220500Y-16284614D01*
X7230024Y-16265567D01*
X7249071Y-16256043D01*
X7277643Y-16256043D01*
X7296690Y-16265567D01*
X7372881Y-16465567D02*
X7382405Y-16456043D01*
X7401452Y-16427471D01*
X7410976Y-16408424D01*
X7420500Y-16379852D01*
X7430024Y-16332233D01*
X7430024Y-16294138D01*
X7420500Y-16246519D01*
X7410976Y-16217948D01*
X7401452Y-16198900D01*
X7382405Y-16170328D01*
X7372881Y-16160805D01*
D13*
X2380500Y-16532900D02*
X2380500Y-16592900D01*
X2350500Y-16562900D02*
X2410500Y-16562900D01*
D11*
X2706214Y-16453376D02*
X2725262Y-16453376D01*
X2744310Y-16462900D01*
X2753833Y-16472424D01*
X2763357Y-16491471D01*
X2772881Y-16529567D01*
X2772881Y-16577186D01*
X2763357Y-16615281D01*
X2753833Y-16634328D01*
X2744310Y-16643852D01*
X2725262Y-16653376D01*
X2706214Y-16653376D01*
X2687167Y-16643852D01*
X2677643Y-16634328D01*
X2668119Y-16615281D01*
X2658595Y-16577186D01*
X2658595Y-16529567D01*
X2668119Y-16491471D01*
X2677643Y-16472424D01*
X2687167Y-16462900D01*
X2706214Y-16453376D01*
X2858595Y-16634328D02*
X2868119Y-16643852D01*
X2858595Y-16653376D01*
X2849071Y-16643852D01*
X2858595Y-16634328D01*
X2858595Y-16653376D01*
X3039548Y-16453376D02*
X3001452Y-16453376D01*
X2982405Y-16462900D01*
X2972881Y-16472424D01*
X2953833Y-16500995D01*
X2944309Y-16539090D01*
X2944309Y-16615281D01*
X2953833Y-16634328D01*
X2963357Y-16643852D01*
X2982405Y-16653376D01*
X3020500Y-16653376D01*
X3039548Y-16643852D01*
X3049071Y-16634328D01*
X3058595Y-16615281D01*
X3058595Y-16567662D01*
X3049071Y-16548614D01*
X3039548Y-16539090D01*
X3020500Y-16529567D01*
X2982405Y-16529567D01*
X2963357Y-16539090D01*
X2953833Y-16548614D01*
X2944309Y-16567662D01*
X3182405Y-16453376D02*
X3201452Y-16453376D01*
X3220500Y-16462900D01*
X3230024Y-16472424D01*
X3239548Y-16491471D01*
X3249071Y-16529567D01*
X3249071Y-16577186D01*
X3239548Y-16615281D01*
X3230024Y-16634328D01*
X3220500Y-16643852D01*
X3201452Y-16653376D01*
X3182405Y-16653376D01*
X3163357Y-16643852D01*
X3153833Y-16634328D01*
X3144309Y-16615281D01*
X3134786Y-16577186D01*
X3134786Y-16529567D01*
X3144309Y-16491471D01*
X3153833Y-16472424D01*
X3163357Y-16462900D01*
X3182405Y-16453376D01*
X3372881Y-16453376D02*
X3391928Y-16453376D01*
X3410976Y-16462900D01*
X3420500Y-16472424D01*
X3430024Y-16491471D01*
X3439548Y-16529567D01*
X3439548Y-16577186D01*
X3430024Y-16615281D01*
X3420500Y-16634328D01*
X3410976Y-16643852D01*
X3391928Y-16653376D01*
X3372881Y-16653376D01*
X3353833Y-16643852D01*
X3344309Y-16634328D01*
X3334786Y-16615281D01*
X3325262Y-16577186D01*
X3325262Y-16529567D01*
X3334786Y-16491471D01*
X3344309Y-16472424D01*
X3353833Y-16462900D01*
X3372881Y-16453376D01*
X3525262Y-16653376D02*
X3525262Y-16520043D01*
X3525262Y-16539090D02*
X3534786Y-16529567D01*
X3553833Y-16520043D01*
X3582405Y-16520043D01*
X3601452Y-16529567D01*
X3610976Y-16548614D01*
X3610976Y-16653376D01*
X3610976Y-16548614D02*
X3620500Y-16529567D01*
X3639548Y-16520043D01*
X3668119Y-16520043D01*
X3687167Y-16529567D01*
X3696690Y-16548614D01*
X3696690Y-16653376D01*
X3791928Y-16653376D02*
X3791928Y-16520043D01*
X3791928Y-16539090D02*
X3801452Y-16529567D01*
X3820500Y-16520043D01*
X3849071Y-16520043D01*
X3868119Y-16529567D01*
X3877643Y-16548614D01*
X3877643Y-16653376D01*
X3877643Y-16548614D02*
X3887167Y-16529567D01*
X3906214Y-16520043D01*
X3934786Y-16520043D01*
X3953833Y-16529567D01*
X3963357Y-16548614D01*
X3963357Y-16653376D01*
X4353833Y-16443852D02*
X4182405Y-16700995D01*
X4610976Y-16453376D02*
X4630024Y-16453376D01*
X4649071Y-16462900D01*
X4658595Y-16472424D01*
X4668119Y-16491471D01*
X4677643Y-16529567D01*
X4677643Y-16577186D01*
X4668119Y-16615281D01*
X4658595Y-16634328D01*
X4649071Y-16643852D01*
X4630024Y-16653376D01*
X4610976Y-16653376D01*
X4591929Y-16643852D01*
X4582405Y-16634328D01*
X4572881Y-16615281D01*
X4563357Y-16577186D01*
X4563357Y-16529567D01*
X4572881Y-16491471D01*
X4582405Y-16472424D01*
X4591929Y-16462900D01*
X4610976Y-16453376D01*
X4763357Y-16634328D02*
X4772881Y-16643852D01*
X4763357Y-16653376D01*
X4753833Y-16643852D01*
X4763357Y-16634328D01*
X4763357Y-16653376D01*
X4896690Y-16453376D02*
X4915738Y-16453376D01*
X4934786Y-16462900D01*
X4944310Y-16472424D01*
X4953833Y-16491471D01*
X4963357Y-16529567D01*
X4963357Y-16577186D01*
X4953833Y-16615281D01*
X4944310Y-16634328D01*
X4934786Y-16643852D01*
X4915738Y-16653376D01*
X4896690Y-16653376D01*
X4877643Y-16643852D01*
X4868119Y-16634328D01*
X4858595Y-16615281D01*
X4849071Y-16577186D01*
X4849071Y-16529567D01*
X4858595Y-16491471D01*
X4868119Y-16472424D01*
X4877643Y-16462900D01*
X4896690Y-16453376D01*
X5039548Y-16472424D02*
X5049071Y-16462900D01*
X5068119Y-16453376D01*
X5115738Y-16453376D01*
X5134786Y-16462900D01*
X5144310Y-16472424D01*
X5153833Y-16491471D01*
X5153833Y-16510519D01*
X5144310Y-16539090D01*
X5030024Y-16653376D01*
X5153833Y-16653376D01*
X5220500Y-16453376D02*
X5344310Y-16453376D01*
X5277643Y-16529567D01*
X5306214Y-16529567D01*
X5325262Y-16539090D01*
X5334786Y-16548614D01*
X5344310Y-16567662D01*
X5344310Y-16615281D01*
X5334786Y-16634328D01*
X5325262Y-16643852D01*
X5306214Y-16653376D01*
X5249071Y-16653376D01*
X5230024Y-16643852D01*
X5220500Y-16634328D01*
X5515738Y-16453376D02*
X5477643Y-16453376D01*
X5458595Y-16462900D01*
X5449071Y-16472424D01*
X5430024Y-16500995D01*
X5420500Y-16539090D01*
X5420500Y-16615281D01*
X5430024Y-16634328D01*
X5439548Y-16643852D01*
X5458595Y-16653376D01*
X5496690Y-16653376D01*
X5515738Y-16643852D01*
X5525262Y-16634328D01*
X5534786Y-16615281D01*
X5534786Y-16567662D01*
X5525262Y-16548614D01*
X5515738Y-16539090D01*
X5496690Y-16529567D01*
X5458595Y-16529567D01*
X5439548Y-16539090D01*
X5430024Y-16548614D01*
X5420500Y-16567662D01*
X5610976Y-16453376D02*
X5610976Y-16491471D01*
X5687167Y-16453376D02*
X5687167Y-16491471D01*
X5982405Y-16729567D02*
X5972881Y-16720043D01*
X5953833Y-16691471D01*
X5944309Y-16672424D01*
X5934786Y-16643852D01*
X5925262Y-16596233D01*
X5925262Y-16558138D01*
X5934786Y-16510519D01*
X5944309Y-16481948D01*
X5953833Y-16462900D01*
X5972881Y-16434328D01*
X5982405Y-16424805D01*
X6096690Y-16453376D02*
X6115738Y-16453376D01*
X6134786Y-16462900D01*
X6144309Y-16472424D01*
X6153833Y-16491471D01*
X6163357Y-16529567D01*
X6163357Y-16577186D01*
X6153833Y-16615281D01*
X6144309Y-16634328D01*
X6134786Y-16643852D01*
X6115738Y-16653376D01*
X6096690Y-16653376D01*
X6077643Y-16643852D01*
X6068119Y-16634328D01*
X6058595Y-16615281D01*
X6049071Y-16577186D01*
X6049071Y-16529567D01*
X6058595Y-16491471D01*
X6068119Y-16472424D01*
X6077643Y-16462900D01*
X6096690Y-16453376D01*
X6401452Y-16653376D02*
X6401452Y-16453376D01*
X6487167Y-16653376D02*
X6487167Y-16548614D01*
X6477643Y-16529567D01*
X6458595Y-16520043D01*
X6430024Y-16520043D01*
X6410976Y-16529567D01*
X6401452Y-16539090D01*
X6610976Y-16653376D02*
X6591928Y-16643852D01*
X6582405Y-16634328D01*
X6572881Y-16615281D01*
X6572881Y-16558138D01*
X6582405Y-16539090D01*
X6591928Y-16529567D01*
X6610976Y-16520043D01*
X6639548Y-16520043D01*
X6658595Y-16529567D01*
X6668119Y-16539090D01*
X6677643Y-16558138D01*
X6677643Y-16615281D01*
X6668119Y-16634328D01*
X6658595Y-16643852D01*
X6639548Y-16653376D01*
X6610976Y-16653376D01*
X6791928Y-16653376D02*
X6772881Y-16643852D01*
X6763357Y-16624805D01*
X6763357Y-16453376D01*
X6944309Y-16643852D02*
X6925262Y-16653376D01*
X6887167Y-16653376D01*
X6868119Y-16643852D01*
X6858595Y-16624805D01*
X6858595Y-16548614D01*
X6868119Y-16529567D01*
X6887167Y-16520043D01*
X6925262Y-16520043D01*
X6944309Y-16529567D01*
X6953833Y-16548614D01*
X6953833Y-16567662D01*
X6858595Y-16586709D01*
X7030024Y-16643852D02*
X7049071Y-16653376D01*
X7087167Y-16653376D01*
X7106214Y-16643852D01*
X7115738Y-16624805D01*
X7115738Y-16615281D01*
X7106214Y-16596233D01*
X7087167Y-16586709D01*
X7058595Y-16586709D01*
X7039548Y-16577186D01*
X7030024Y-16558138D01*
X7030024Y-16548614D01*
X7039548Y-16529567D01*
X7058595Y-16520043D01*
X7087167Y-16520043D01*
X7106214Y-16529567D01*
X7353833Y-16577186D02*
X7506214Y-16577186D01*
X7430024Y-16653376D02*
X7430024Y-16500995D01*
X7839548Y-16520043D02*
X7839548Y-16653376D01*
X7791928Y-16443852D02*
X7744309Y-16586709D01*
X7868119Y-16586709D01*
X8087167Y-16643852D02*
X8106214Y-16653376D01*
X8144309Y-16653376D01*
X8163357Y-16643852D01*
X8172881Y-16624805D01*
X8172881Y-16615281D01*
X8163357Y-16596233D01*
X8144309Y-16586709D01*
X8115738Y-16586709D01*
X8096690Y-16577186D01*
X8087167Y-16558138D01*
X8087167Y-16548614D01*
X8096690Y-16529567D01*
X8115738Y-16520043D01*
X8144309Y-16520043D01*
X8163357Y-16529567D01*
X8287167Y-16653376D02*
X8268119Y-16643852D01*
X8258595Y-16624805D01*
X8258595Y-16453376D01*
X8391929Y-16653376D02*
X8372881Y-16643852D01*
X8363357Y-16634328D01*
X8353833Y-16615281D01*
X8353833Y-16558138D01*
X8363357Y-16539090D01*
X8372881Y-16529567D01*
X8391929Y-16520043D01*
X8420500Y-16520043D01*
X8439548Y-16529567D01*
X8449071Y-16539090D01*
X8458595Y-16558138D01*
X8458595Y-16615281D01*
X8449071Y-16634328D01*
X8439548Y-16643852D01*
X8420500Y-16653376D01*
X8391929Y-16653376D01*
X8515738Y-16520043D02*
X8591929Y-16520043D01*
X8544310Y-16453376D02*
X8544310Y-16624805D01*
X8553833Y-16643852D01*
X8572881Y-16653376D01*
X8591929Y-16653376D01*
X8649071Y-16643852D02*
X8668119Y-16653376D01*
X8706214Y-16653376D01*
X8725262Y-16643852D01*
X8734786Y-16624805D01*
X8734786Y-16615281D01*
X8725262Y-16596233D01*
X8706214Y-16586709D01*
X8677643Y-16586709D01*
X8658595Y-16577186D01*
X8649071Y-16558138D01*
X8649071Y-16548614D01*
X8658595Y-16529567D01*
X8677643Y-16520043D01*
X8706214Y-16520043D01*
X8725262Y-16529567D01*
X8801452Y-16729567D02*
X8810976Y-16720043D01*
X8830024Y-16691471D01*
X8839548Y-16672424D01*
X8849071Y-16643852D01*
X8858595Y-16596233D01*
X8858595Y-16558138D01*
X8849071Y-16510519D01*
X8839548Y-16481948D01*
X8830024Y-16462900D01*
X8810976Y-16434328D01*
X8801452Y-16424805D01*
D14*
X2395856Y-16862256D02*
X2395856Y-16791544D01*
X2325144Y-16791544D01*
X2325144Y-16862256D01*
X2395856Y-16862256D01*
D11*
X2772881Y-16917376D02*
X2658595Y-16917376D01*
X2715738Y-16917376D02*
X2715738Y-16717376D01*
X2696690Y-16745948D01*
X2677643Y-16764995D01*
X2658595Y-16774519D01*
X2858595Y-16898329D02*
X2868119Y-16907852D01*
X2858595Y-16917376D01*
X2849071Y-16907852D01*
X2858595Y-16898329D01*
X2858595Y-16917376D01*
X2991928Y-16717376D02*
X3010976Y-16717376D01*
X3030024Y-16726900D01*
X3039548Y-16736424D01*
X3049071Y-16755471D01*
X3058595Y-16793567D01*
X3058595Y-16841186D01*
X3049071Y-16879281D01*
X3039548Y-16898329D01*
X3030024Y-16907852D01*
X3010976Y-16917376D01*
X2991928Y-16917376D01*
X2972881Y-16907852D01*
X2963357Y-16898329D01*
X2953833Y-16879281D01*
X2944309Y-16841186D01*
X2944309Y-16793567D01*
X2953833Y-16755471D01*
X2963357Y-16736424D01*
X2972881Y-16726900D01*
X2991928Y-16717376D01*
X3182405Y-16717376D02*
X3201452Y-16717376D01*
X3220500Y-16726900D01*
X3230024Y-16736424D01*
X3239548Y-16755471D01*
X3249071Y-16793567D01*
X3249071Y-16841186D01*
X3239548Y-16879281D01*
X3230024Y-16898329D01*
X3220500Y-16907852D01*
X3201452Y-16917376D01*
X3182405Y-16917376D01*
X3163357Y-16907852D01*
X3153833Y-16898329D01*
X3144309Y-16879281D01*
X3134786Y-16841186D01*
X3134786Y-16793567D01*
X3144309Y-16755471D01*
X3153833Y-16736424D01*
X3163357Y-16726900D01*
X3182405Y-16717376D01*
X3372881Y-16717376D02*
X3391928Y-16717376D01*
X3410976Y-16726900D01*
X3420500Y-16736424D01*
X3430024Y-16755471D01*
X3439548Y-16793567D01*
X3439548Y-16841186D01*
X3430024Y-16879281D01*
X3420500Y-16898329D01*
X3410976Y-16907852D01*
X3391928Y-16917376D01*
X3372881Y-16917376D01*
X3353833Y-16907852D01*
X3344309Y-16898329D01*
X3334786Y-16879281D01*
X3325262Y-16841186D01*
X3325262Y-16793567D01*
X3334786Y-16755471D01*
X3344309Y-16736424D01*
X3353833Y-16726900D01*
X3372881Y-16717376D01*
X3525262Y-16917376D02*
X3525262Y-16784043D01*
X3525262Y-16803090D02*
X3534786Y-16793567D01*
X3553833Y-16784043D01*
X3582405Y-16784043D01*
X3601452Y-16793567D01*
X3610976Y-16812614D01*
X3610976Y-16917376D01*
X3610976Y-16812614D02*
X3620500Y-16793567D01*
X3639548Y-16784043D01*
X3668119Y-16784043D01*
X3687167Y-16793567D01*
X3696690Y-16812614D01*
X3696690Y-16917376D01*
X3791928Y-16917376D02*
X3791928Y-16784043D01*
X3791928Y-16803090D02*
X3801452Y-16793567D01*
X3820500Y-16784043D01*
X3849071Y-16784043D01*
X3868119Y-16793567D01*
X3877643Y-16812614D01*
X3877643Y-16917376D01*
X3877643Y-16812614D02*
X3887167Y-16793567D01*
X3906214Y-16784043D01*
X3934786Y-16784043D01*
X3953833Y-16793567D01*
X3963357Y-16812614D01*
X3963357Y-16917376D01*
X4353833Y-16707852D02*
X4182405Y-16964995D01*
X4610976Y-16717376D02*
X4630024Y-16717376D01*
X4649071Y-16726900D01*
X4658595Y-16736424D01*
X4668119Y-16755471D01*
X4677643Y-16793567D01*
X4677643Y-16841186D01*
X4668119Y-16879281D01*
X4658595Y-16898329D01*
X4649071Y-16907852D01*
X4630024Y-16917376D01*
X4610976Y-16917376D01*
X4591929Y-16907852D01*
X4582405Y-16898329D01*
X4572881Y-16879281D01*
X4563357Y-16841186D01*
X4563357Y-16793567D01*
X4572881Y-16755471D01*
X4582405Y-16736424D01*
X4591929Y-16726900D01*
X4610976Y-16717376D01*
X4763357Y-16898329D02*
X4772881Y-16907852D01*
X4763357Y-16917376D01*
X4753833Y-16907852D01*
X4763357Y-16898329D01*
X4763357Y-16917376D01*
X4896690Y-16717376D02*
X4915738Y-16717376D01*
X4934786Y-16726900D01*
X4944310Y-16736424D01*
X4953833Y-16755471D01*
X4963357Y-16793567D01*
X4963357Y-16841186D01*
X4953833Y-16879281D01*
X4944310Y-16898329D01*
X4934786Y-16907852D01*
X4915738Y-16917376D01*
X4896690Y-16917376D01*
X4877643Y-16907852D01*
X4868119Y-16898329D01*
X4858595Y-16879281D01*
X4849071Y-16841186D01*
X4849071Y-16793567D01*
X4858595Y-16755471D01*
X4868119Y-16736424D01*
X4877643Y-16726900D01*
X4896690Y-16717376D01*
X5030024Y-16717376D02*
X5153833Y-16717376D01*
X5087167Y-16793567D01*
X5115738Y-16793567D01*
X5134786Y-16803090D01*
X5144310Y-16812614D01*
X5153833Y-16831662D01*
X5153833Y-16879281D01*
X5144310Y-16898329D01*
X5134786Y-16907852D01*
X5115738Y-16917376D01*
X5058595Y-16917376D01*
X5039548Y-16907852D01*
X5030024Y-16898329D01*
X5249071Y-16917376D02*
X5287167Y-16917376D01*
X5306214Y-16907852D01*
X5315738Y-16898329D01*
X5334786Y-16869757D01*
X5344310Y-16831662D01*
X5344310Y-16755471D01*
X5334786Y-16736424D01*
X5325262Y-16726900D01*
X5306214Y-16717376D01*
X5268119Y-16717376D01*
X5249071Y-16726900D01*
X5239548Y-16736424D01*
X5230024Y-16755471D01*
X5230024Y-16803090D01*
X5239548Y-16822138D01*
X5249071Y-16831662D01*
X5268119Y-16841186D01*
X5306214Y-16841186D01*
X5325262Y-16831662D01*
X5334786Y-16822138D01*
X5344310Y-16803090D01*
X5515738Y-16784043D02*
X5515738Y-16917376D01*
X5468119Y-16707852D02*
X5420500Y-16850710D01*
X5544310Y-16850710D01*
X5610976Y-16717376D02*
X5610976Y-16755471D01*
X5687167Y-16717376D02*
X5687167Y-16755471D01*
X5982405Y-16993567D02*
X5972881Y-16984043D01*
X5953833Y-16955471D01*
X5944309Y-16936424D01*
X5934786Y-16907852D01*
X5925262Y-16860233D01*
X5925262Y-16822138D01*
X5934786Y-16774519D01*
X5944309Y-16745948D01*
X5953833Y-16726900D01*
X5972881Y-16698328D01*
X5982405Y-16688805D01*
X6068119Y-16917376D02*
X6106214Y-16917376D01*
X6125262Y-16907852D01*
X6134786Y-16898329D01*
X6153833Y-16869757D01*
X6163357Y-16831662D01*
X6163357Y-16755471D01*
X6153833Y-16736424D01*
X6144309Y-16726900D01*
X6125262Y-16717376D01*
X6087167Y-16717376D01*
X6068119Y-16726900D01*
X6058595Y-16736424D01*
X6049071Y-16755471D01*
X6049071Y-16803090D01*
X6058595Y-16822138D01*
X6068119Y-16831662D01*
X6087167Y-16841186D01*
X6125262Y-16841186D01*
X6144309Y-16831662D01*
X6153833Y-16822138D01*
X6163357Y-16803090D01*
X6401452Y-16917376D02*
X6401452Y-16717376D01*
X6487167Y-16917376D02*
X6487167Y-16812614D01*
X6477643Y-16793567D01*
X6458595Y-16784043D01*
X6430024Y-16784043D01*
X6410976Y-16793567D01*
X6401452Y-16803090D01*
X6610976Y-16917376D02*
X6591928Y-16907852D01*
X6582405Y-16898329D01*
X6572881Y-16879281D01*
X6572881Y-16822138D01*
X6582405Y-16803090D01*
X6591928Y-16793567D01*
X6610976Y-16784043D01*
X6639548Y-16784043D01*
X6658595Y-16793567D01*
X6668119Y-16803090D01*
X6677643Y-16822138D01*
X6677643Y-16879281D01*
X6668119Y-16898329D01*
X6658595Y-16907852D01*
X6639548Y-16917376D01*
X6610976Y-16917376D01*
X6791928Y-16917376D02*
X6772881Y-16907852D01*
X6763357Y-16888805D01*
X6763357Y-16717376D01*
X6944309Y-16907852D02*
X6925262Y-16917376D01*
X6887167Y-16917376D01*
X6868119Y-16907852D01*
X6858595Y-16888805D01*
X6858595Y-16812614D01*
X6868119Y-16793567D01*
X6887167Y-16784043D01*
X6925262Y-16784043D01*
X6944309Y-16793567D01*
X6953833Y-16812614D01*
X6953833Y-16831662D01*
X6858595Y-16850710D01*
X7030024Y-16907852D02*
X7049071Y-16917376D01*
X7087167Y-16917376D01*
X7106214Y-16907852D01*
X7115738Y-16888805D01*
X7115738Y-16879281D01*
X7106214Y-16860233D01*
X7087167Y-16850710D01*
X7058595Y-16850710D01*
X7039548Y-16841186D01*
X7030024Y-16822138D01*
X7030024Y-16812614D01*
X7039548Y-16793567D01*
X7058595Y-16784043D01*
X7087167Y-16784043D01*
X7106214Y-16793567D01*
X7182405Y-16993567D02*
X7191928Y-16984043D01*
X7210976Y-16955471D01*
X7220500Y-16936424D01*
X7230024Y-16907852D01*
X7239548Y-16860233D01*
X7239548Y-16822138D01*
X7230024Y-16774519D01*
X7220500Y-16745948D01*
X7210976Y-16726900D01*
X7191928Y-16698328D01*
X7182405Y-16688805D01*
D15*
X2337000Y-17164400D02*
X2410500Y-17090900D01*
X2337000Y-17017400D01*
X2263500Y-17090900D01*
X2337000Y-17164400D01*
D11*
X2772881Y-17181376D02*
X2658595Y-17181376D01*
X2715738Y-17181376D02*
X2715738Y-16981376D01*
X2696690Y-17009948D01*
X2677643Y-17028995D01*
X2658595Y-17038519D01*
X2858595Y-17162329D02*
X2868119Y-17171852D01*
X2858595Y-17181376D01*
X2849071Y-17171852D01*
X2858595Y-17162329D01*
X2858595Y-17181376D01*
X3039548Y-17048043D02*
X3039548Y-17181376D01*
X2991928Y-16971852D02*
X2944309Y-17114710D01*
X3068119Y-17114710D01*
X3125262Y-16981376D02*
X3258595Y-16981376D01*
X3172881Y-17181376D01*
X3372881Y-16981376D02*
X3391928Y-16981376D01*
X3410976Y-16990900D01*
X3420500Y-17000424D01*
X3430024Y-17019471D01*
X3439548Y-17057567D01*
X3439548Y-17105186D01*
X3430024Y-17143281D01*
X3420500Y-17162329D01*
X3410976Y-17171852D01*
X3391928Y-17181376D01*
X3372881Y-17181376D01*
X3353833Y-17171852D01*
X3344309Y-17162329D01*
X3334786Y-17143281D01*
X3325262Y-17105186D01*
X3325262Y-17057567D01*
X3334786Y-17019471D01*
X3344309Y-17000424D01*
X3353833Y-16990900D01*
X3372881Y-16981376D01*
X3525262Y-17181376D02*
X3525262Y-17048043D01*
X3525262Y-17067090D02*
X3534786Y-17057567D01*
X3553833Y-17048043D01*
X3582405Y-17048043D01*
X3601452Y-17057567D01*
X3610976Y-17076614D01*
X3610976Y-17181376D01*
X3610976Y-17076614D02*
X3620500Y-17057567D01*
X3639548Y-17048043D01*
X3668119Y-17048043D01*
X3687167Y-17057567D01*
X3696690Y-17076614D01*
X3696690Y-17181376D01*
X3791928Y-17181376D02*
X3791928Y-17048043D01*
X3791928Y-17067090D02*
X3801452Y-17057567D01*
X3820500Y-17048043D01*
X3849071Y-17048043D01*
X3868119Y-17057567D01*
X3877643Y-17076614D01*
X3877643Y-17181376D01*
X3877643Y-17076614D02*
X3887167Y-17057567D01*
X3906214Y-17048043D01*
X3934786Y-17048043D01*
X3953833Y-17057567D01*
X3963357Y-17076614D01*
X3963357Y-17181376D01*
X4353833Y-16971852D02*
X4182405Y-17228995D01*
X4610976Y-16981376D02*
X4630024Y-16981376D01*
X4649071Y-16990900D01*
X4658595Y-17000424D01*
X4668119Y-17019471D01*
X4677643Y-17057567D01*
X4677643Y-17105186D01*
X4668119Y-17143281D01*
X4658595Y-17162329D01*
X4649071Y-17171852D01*
X4630024Y-17181376D01*
X4610976Y-17181376D01*
X4591929Y-17171852D01*
X4582405Y-17162329D01*
X4572881Y-17143281D01*
X4563357Y-17105186D01*
X4563357Y-17057567D01*
X4572881Y-17019471D01*
X4582405Y-17000424D01*
X4591929Y-16990900D01*
X4610976Y-16981376D01*
X4763357Y-17162329D02*
X4772881Y-17171852D01*
X4763357Y-17181376D01*
X4753833Y-17171852D01*
X4763357Y-17162329D01*
X4763357Y-17181376D01*
X4896690Y-16981376D02*
X4915738Y-16981376D01*
X4934786Y-16990900D01*
X4944310Y-17000424D01*
X4953833Y-17019471D01*
X4963357Y-17057567D01*
X4963357Y-17105186D01*
X4953833Y-17143281D01*
X4944310Y-17162329D01*
X4934786Y-17171852D01*
X4915738Y-17181376D01*
X4896690Y-17181376D01*
X4877643Y-17171852D01*
X4868119Y-17162329D01*
X4858595Y-17143281D01*
X4849071Y-17105186D01*
X4849071Y-17057567D01*
X4858595Y-17019471D01*
X4868119Y-17000424D01*
X4877643Y-16990900D01*
X4896690Y-16981376D01*
X5144310Y-16981376D02*
X5049071Y-16981376D01*
X5039548Y-17076614D01*
X5049071Y-17067090D01*
X5068119Y-17057567D01*
X5115738Y-17057567D01*
X5134786Y-17067090D01*
X5144310Y-17076614D01*
X5153833Y-17095662D01*
X5153833Y-17143281D01*
X5144310Y-17162329D01*
X5134786Y-17171852D01*
X5115738Y-17181376D01*
X5068119Y-17181376D01*
X5049071Y-17171852D01*
X5039548Y-17162329D01*
X5220500Y-16981376D02*
X5353833Y-16981376D01*
X5268119Y-17181376D01*
X5439548Y-17181376D02*
X5477643Y-17181376D01*
X5496690Y-17171852D01*
X5506214Y-17162329D01*
X5525262Y-17133757D01*
X5534786Y-17095662D01*
X5534786Y-17019471D01*
X5525262Y-17000424D01*
X5515738Y-16990900D01*
X5496690Y-16981376D01*
X5458595Y-16981376D01*
X5439548Y-16990900D01*
X5430024Y-17000424D01*
X5420500Y-17019471D01*
X5420500Y-17067090D01*
X5430024Y-17086138D01*
X5439548Y-17095662D01*
X5458595Y-17105186D01*
X5496690Y-17105186D01*
X5515738Y-17095662D01*
X5525262Y-17086138D01*
X5534786Y-17067090D01*
X5610976Y-16981376D02*
X5610976Y-17019471D01*
X5687167Y-16981376D02*
X5687167Y-17019471D01*
X5982405Y-17257567D02*
X5972881Y-17248043D01*
X5953833Y-17219471D01*
X5944309Y-17200424D01*
X5934786Y-17171852D01*
X5925262Y-17124233D01*
X5925262Y-17086138D01*
X5934786Y-17038519D01*
X5944309Y-17009948D01*
X5953833Y-16990900D01*
X5972881Y-16962329D01*
X5982405Y-16952805D01*
X6163357Y-17181376D02*
X6049071Y-17181376D01*
X6106214Y-17181376D02*
X6106214Y-16981376D01*
X6087167Y-17009948D01*
X6068119Y-17028995D01*
X6049071Y-17038519D01*
X6258595Y-17181376D02*
X6296690Y-17181376D01*
X6315738Y-17171852D01*
X6325262Y-17162329D01*
X6344309Y-17133757D01*
X6353833Y-17095662D01*
X6353833Y-17019471D01*
X6344309Y-17000424D01*
X6334786Y-16990900D01*
X6315738Y-16981376D01*
X6277643Y-16981376D01*
X6258595Y-16990900D01*
X6249071Y-17000424D01*
X6239548Y-17019471D01*
X6239548Y-17067090D01*
X6249071Y-17086138D01*
X6258595Y-17095662D01*
X6277643Y-17105186D01*
X6315738Y-17105186D01*
X6334786Y-17095662D01*
X6344309Y-17086138D01*
X6353833Y-17067090D01*
X6468119Y-17067090D02*
X6449071Y-17057567D01*
X6439548Y-17048043D01*
X6430024Y-17028995D01*
X6430024Y-17019471D01*
X6439548Y-17000424D01*
X6449071Y-16990900D01*
X6468119Y-16981376D01*
X6506214Y-16981376D01*
X6525262Y-16990900D01*
X6534786Y-17000424D01*
X6544309Y-17019471D01*
X6544309Y-17028995D01*
X6534786Y-17048043D01*
X6525262Y-17057567D01*
X6506214Y-17067090D01*
X6468119Y-17067090D01*
X6449071Y-17076614D01*
X6439548Y-17086138D01*
X6430024Y-17105186D01*
X6430024Y-17143281D01*
X6439548Y-17162329D01*
X6449071Y-17171852D01*
X6468119Y-17181376D01*
X6506214Y-17181376D01*
X6525262Y-17171852D01*
X6534786Y-17162329D01*
X6544309Y-17143281D01*
X6544309Y-17105186D01*
X6534786Y-17086138D01*
X6525262Y-17076614D01*
X6506214Y-17067090D01*
X6782405Y-17181376D02*
X6782405Y-16981376D01*
X6868119Y-17181376D02*
X6868119Y-17076614D01*
X6858595Y-17057567D01*
X6839548Y-17048043D01*
X6810976Y-17048043D01*
X6791928Y-17057567D01*
X6782405Y-17067090D01*
X6991928Y-17181376D02*
X6972881Y-17171852D01*
X6963357Y-17162329D01*
X6953833Y-17143281D01*
X6953833Y-17086138D01*
X6963357Y-17067090D01*
X6972881Y-17057567D01*
X6991928Y-17048043D01*
X7020500Y-17048043D01*
X7039548Y-17057567D01*
X7049071Y-17067090D01*
X7058595Y-17086138D01*
X7058595Y-17143281D01*
X7049071Y-17162329D01*
X7039548Y-17171852D01*
X7020500Y-17181376D01*
X6991928Y-17181376D01*
X7172881Y-17181376D02*
X7153833Y-17171852D01*
X7144309Y-17152805D01*
X7144309Y-16981376D01*
X7325262Y-17171852D02*
X7306214Y-17181376D01*
X7268119Y-17181376D01*
X7249071Y-17171852D01*
X7239548Y-17152805D01*
X7239548Y-17076614D01*
X7249071Y-17057567D01*
X7268119Y-17048043D01*
X7306214Y-17048043D01*
X7325262Y-17057567D01*
X7334786Y-17076614D01*
X7334786Y-17095662D01*
X7239548Y-17114710D01*
X7410976Y-17171852D02*
X7430024Y-17181376D01*
X7468119Y-17181376D01*
X7487167Y-17171852D01*
X7496690Y-17152805D01*
X7496690Y-17143281D01*
X7487167Y-17124233D01*
X7468119Y-17114710D01*
X7439548Y-17114710D01*
X7420500Y-17105186D01*
X7410976Y-17086138D01*
X7410976Y-17076614D01*
X7420500Y-17057567D01*
X7439548Y-17048043D01*
X7468119Y-17048043D01*
X7487167Y-17057567D01*
X7563357Y-17257567D02*
X7572881Y-17248043D01*
X7591928Y-17219471D01*
X7601452Y-17200424D01*
X7610976Y-17171852D01*
X7620500Y-17124233D01*
X7620500Y-17086138D01*
X7610976Y-17038519D01*
X7601452Y-17009948D01*
X7591928Y-16990900D01*
X7572881Y-16962329D01*
X7563357Y-16952805D01*
X2210500Y-17257900D02*
X2410500Y-17457900D01*
X2410500Y-17257900D02*
X2210500Y-17457900D01*
X2410500Y-17357900D02*
G75*
G03*
X2410500Y-17357900I-100000J0D01*
G01*
X2658595Y-17267424D02*
X2668119Y-17257900D01*
X2687167Y-17248376D01*
X2734786Y-17248376D01*
X2753833Y-17257900D01*
X2763357Y-17267424D01*
X2772881Y-17286471D01*
X2772881Y-17305519D01*
X2763357Y-17334090D01*
X2649071Y-17448376D01*
X2772881Y-17448376D01*
X2858595Y-17429329D02*
X2868119Y-17438852D01*
X2858595Y-17448376D01*
X2849071Y-17438852D01*
X2858595Y-17429329D01*
X2858595Y-17448376D01*
X2991928Y-17248376D02*
X3010976Y-17248376D01*
X3030024Y-17257900D01*
X3039548Y-17267424D01*
X3049071Y-17286471D01*
X3058595Y-17324567D01*
X3058595Y-17372186D01*
X3049071Y-17410281D01*
X3039548Y-17429329D01*
X3030024Y-17438852D01*
X3010976Y-17448376D01*
X2991928Y-17448376D01*
X2972881Y-17438852D01*
X2963357Y-17429329D01*
X2953833Y-17410281D01*
X2944309Y-17372186D01*
X2944309Y-17324567D01*
X2953833Y-17286471D01*
X2963357Y-17267424D01*
X2972881Y-17257900D01*
X2991928Y-17248376D01*
X3182405Y-17248376D02*
X3201452Y-17248376D01*
X3220500Y-17257900D01*
X3230024Y-17267424D01*
X3239548Y-17286471D01*
X3249071Y-17324567D01*
X3249071Y-17372186D01*
X3239548Y-17410281D01*
X3230024Y-17429329D01*
X3220500Y-17438852D01*
X3201452Y-17448376D01*
X3182405Y-17448376D01*
X3163357Y-17438852D01*
X3153833Y-17429329D01*
X3144309Y-17410281D01*
X3134786Y-17372186D01*
X3134786Y-17324567D01*
X3144309Y-17286471D01*
X3153833Y-17267424D01*
X3163357Y-17257900D01*
X3182405Y-17248376D01*
X3372881Y-17248376D02*
X3391928Y-17248376D01*
X3410976Y-17257900D01*
X3420500Y-17267424D01*
X3430024Y-17286471D01*
X3439548Y-17324567D01*
X3439548Y-17372186D01*
X3430024Y-17410281D01*
X3420500Y-17429329D01*
X3410976Y-17438852D01*
X3391928Y-17448376D01*
X3372881Y-17448376D01*
X3353833Y-17438852D01*
X3344309Y-17429329D01*
X3334786Y-17410281D01*
X3325262Y-17372186D01*
X3325262Y-17324567D01*
X3334786Y-17286471D01*
X3344309Y-17267424D01*
X3353833Y-17257900D01*
X3372881Y-17248376D01*
X3525262Y-17448376D02*
X3525262Y-17315043D01*
X3525262Y-17334090D02*
X3534786Y-17324567D01*
X3553833Y-17315043D01*
X3582405Y-17315043D01*
X3601452Y-17324567D01*
X3610976Y-17343614D01*
X3610976Y-17448376D01*
X3610976Y-17343614D02*
X3620500Y-17324567D01*
X3639548Y-17315043D01*
X3668119Y-17315043D01*
X3687167Y-17324567D01*
X3696690Y-17343614D01*
X3696690Y-17448376D01*
X3791928Y-17448376D02*
X3791928Y-17315043D01*
X3791928Y-17334090D02*
X3801452Y-17324567D01*
X3820500Y-17315043D01*
X3849071Y-17315043D01*
X3868119Y-17324567D01*
X3877643Y-17343614D01*
X3877643Y-17448376D01*
X3877643Y-17343614D02*
X3887167Y-17324567D01*
X3906214Y-17315043D01*
X3934786Y-17315043D01*
X3953833Y-17324567D01*
X3963357Y-17343614D01*
X3963357Y-17448376D01*
X4353833Y-17238852D02*
X4182405Y-17495995D01*
X4610976Y-17248376D02*
X4630024Y-17248376D01*
X4649071Y-17257900D01*
X4658595Y-17267424D01*
X4668119Y-17286471D01*
X4677643Y-17324567D01*
X4677643Y-17372186D01*
X4668119Y-17410281D01*
X4658595Y-17429329D01*
X4649071Y-17438852D01*
X4630024Y-17448376D01*
X4610976Y-17448376D01*
X4591929Y-17438852D01*
X4582405Y-17429329D01*
X4572881Y-17410281D01*
X4563357Y-17372186D01*
X4563357Y-17324567D01*
X4572881Y-17286471D01*
X4582405Y-17267424D01*
X4591929Y-17257900D01*
X4610976Y-17248376D01*
X4763357Y-17429329D02*
X4772881Y-17438852D01*
X4763357Y-17448376D01*
X4753833Y-17438852D01*
X4763357Y-17429329D01*
X4763357Y-17448376D01*
X4896690Y-17248376D02*
X4915738Y-17248376D01*
X4934786Y-17257900D01*
X4944310Y-17267424D01*
X4953833Y-17286471D01*
X4963357Y-17324567D01*
X4963357Y-17372186D01*
X4953833Y-17410281D01*
X4944310Y-17429329D01*
X4934786Y-17438852D01*
X4915738Y-17448376D01*
X4896690Y-17448376D01*
X4877643Y-17438852D01*
X4868119Y-17429329D01*
X4858595Y-17410281D01*
X4849071Y-17372186D01*
X4849071Y-17324567D01*
X4858595Y-17286471D01*
X4868119Y-17267424D01*
X4877643Y-17257900D01*
X4896690Y-17248376D01*
X5030024Y-17248376D02*
X5163357Y-17248376D01*
X5077643Y-17448376D01*
X5268119Y-17334090D02*
X5249071Y-17324567D01*
X5239548Y-17315043D01*
X5230024Y-17295995D01*
X5230024Y-17286471D01*
X5239548Y-17267424D01*
X5249071Y-17257900D01*
X5268119Y-17248376D01*
X5306214Y-17248376D01*
X5325262Y-17257900D01*
X5334786Y-17267424D01*
X5344310Y-17286471D01*
X5344310Y-17295995D01*
X5334786Y-17315043D01*
X5325262Y-17324567D01*
X5306214Y-17334090D01*
X5268119Y-17334090D01*
X5249071Y-17343614D01*
X5239548Y-17353138D01*
X5230024Y-17372186D01*
X5230024Y-17410281D01*
X5239548Y-17429329D01*
X5249071Y-17438852D01*
X5268119Y-17448376D01*
X5306214Y-17448376D01*
X5325262Y-17438852D01*
X5334786Y-17429329D01*
X5344310Y-17410281D01*
X5344310Y-17372186D01*
X5334786Y-17353138D01*
X5325262Y-17343614D01*
X5306214Y-17334090D01*
X5410976Y-17248376D02*
X5544310Y-17248376D01*
X5458595Y-17448376D01*
X5610976Y-17248376D02*
X5610976Y-17286471D01*
X5687167Y-17248376D02*
X5687167Y-17286471D01*
X5982405Y-17524567D02*
X5972881Y-17515043D01*
X5953833Y-17486471D01*
X5944309Y-17467424D01*
X5934786Y-17438852D01*
X5925262Y-17391233D01*
X5925262Y-17353138D01*
X5934786Y-17305519D01*
X5944309Y-17276948D01*
X5953833Y-17257900D01*
X5972881Y-17229329D01*
X5982405Y-17219805D01*
X6096690Y-17248376D02*
X6115738Y-17248376D01*
X6134786Y-17257900D01*
X6144309Y-17267424D01*
X6153833Y-17286471D01*
X6163357Y-17324567D01*
X6163357Y-17372186D01*
X6153833Y-17410281D01*
X6144309Y-17429329D01*
X6134786Y-17438852D01*
X6115738Y-17448376D01*
X6096690Y-17448376D01*
X6077643Y-17438852D01*
X6068119Y-17429329D01*
X6058595Y-17410281D01*
X6049071Y-17372186D01*
X6049071Y-17324567D01*
X6058595Y-17286471D01*
X6068119Y-17267424D01*
X6077643Y-17257900D01*
X6096690Y-17248376D01*
X6401452Y-17448376D02*
X6401452Y-17248376D01*
X6487167Y-17448376D02*
X6487167Y-17343614D01*
X6477643Y-17324567D01*
X6458595Y-17315043D01*
X6430024Y-17315043D01*
X6410976Y-17324567D01*
X6401452Y-17334090D01*
X6610976Y-17448376D02*
X6591928Y-17438852D01*
X6582405Y-17429329D01*
X6572881Y-17410281D01*
X6572881Y-17353138D01*
X6582405Y-17334090D01*
X6591928Y-17324567D01*
X6610976Y-17315043D01*
X6639548Y-17315043D01*
X6658595Y-17324567D01*
X6668119Y-17334090D01*
X6677643Y-17353138D01*
X6677643Y-17410281D01*
X6668119Y-17429329D01*
X6658595Y-17438852D01*
X6639548Y-17448376D01*
X6610976Y-17448376D01*
X6791928Y-17448376D02*
X6772881Y-17438852D01*
X6763357Y-17419805D01*
X6763357Y-17248376D01*
X6944309Y-17438852D02*
X6925262Y-17448376D01*
X6887167Y-17448376D01*
X6868119Y-17438852D01*
X6858595Y-17419805D01*
X6858595Y-17343614D01*
X6868119Y-17324567D01*
X6887167Y-17315043D01*
X6925262Y-17315043D01*
X6944309Y-17324567D01*
X6953833Y-17343614D01*
X6953833Y-17362662D01*
X6858595Y-17381710D01*
X7030024Y-17438852D02*
X7049071Y-17448376D01*
X7087167Y-17448376D01*
X7106214Y-17438852D01*
X7115738Y-17419805D01*
X7115738Y-17410281D01*
X7106214Y-17391233D01*
X7087167Y-17381710D01*
X7058595Y-17381710D01*
X7039548Y-17372186D01*
X7030024Y-17353138D01*
X7030024Y-17343614D01*
X7039548Y-17324567D01*
X7058595Y-17315043D01*
X7087167Y-17315043D01*
X7106214Y-17324567D01*
X7353833Y-17372186D02*
X7506214Y-17372186D01*
X7430024Y-17448376D02*
X7430024Y-17295995D01*
X7744309Y-17267424D02*
X7753833Y-17257900D01*
X7772881Y-17248376D01*
X7820500Y-17248376D01*
X7839548Y-17257900D01*
X7849071Y-17267424D01*
X7858595Y-17286471D01*
X7858595Y-17305519D01*
X7849071Y-17334090D01*
X7734786Y-17448376D01*
X7858595Y-17448376D01*
X8087167Y-17438852D02*
X8106214Y-17448376D01*
X8144309Y-17448376D01*
X8163357Y-17438852D01*
X8172881Y-17419805D01*
X8172881Y-17410281D01*
X8163357Y-17391233D01*
X8144309Y-17381710D01*
X8115738Y-17381710D01*
X8096690Y-17372186D01*
X8087167Y-17353138D01*
X8087167Y-17343614D01*
X8096690Y-17324567D01*
X8115738Y-17315043D01*
X8144309Y-17315043D01*
X8163357Y-17324567D01*
X8287167Y-17448376D02*
X8268119Y-17438852D01*
X8258595Y-17419805D01*
X8258595Y-17248376D01*
X8391929Y-17448376D02*
X8372881Y-17438852D01*
X8363357Y-17429329D01*
X8353833Y-17410281D01*
X8353833Y-17353138D01*
X8363357Y-17334090D01*
X8372881Y-17324567D01*
X8391929Y-17315043D01*
X8420500Y-17315043D01*
X8439548Y-17324567D01*
X8449071Y-17334090D01*
X8458595Y-17353138D01*
X8458595Y-17410281D01*
X8449071Y-17429329D01*
X8439548Y-17438852D01*
X8420500Y-17448376D01*
X8391929Y-17448376D01*
X8515738Y-17315043D02*
X8591929Y-17315043D01*
X8544310Y-17248376D02*
X8544310Y-17419805D01*
X8553833Y-17438852D01*
X8572881Y-17448376D01*
X8591929Y-17448376D01*
X8649071Y-17438852D02*
X8668119Y-17448376D01*
X8706214Y-17448376D01*
X8725262Y-17438852D01*
X8734786Y-17419805D01*
X8734786Y-17410281D01*
X8725262Y-17391233D01*
X8706214Y-17381710D01*
X8677643Y-17381710D01*
X8658595Y-17372186D01*
X8649071Y-17353138D01*
X8649071Y-17343614D01*
X8658595Y-17324567D01*
X8677643Y-17315043D01*
X8706214Y-17315043D01*
X8725262Y-17324567D01*
X8801452Y-17524567D02*
X8810976Y-17515043D01*
X8830024Y-17486471D01*
X8839548Y-17467424D01*
X8849071Y-17438852D01*
X8858595Y-17391233D01*
X8858595Y-17353138D01*
X8849071Y-17305519D01*
X8839548Y-17276948D01*
X8830024Y-17257900D01*
X8810976Y-17229329D01*
X8801452Y-17219805D01*
M02*
