M48
; DRILL file {KiCad 6.0.6} date Thu 18 Aug 2022 10:55:03 AM EDT
; FORMAT={-:-/ absolute / metric / decimal}
; #@! TF.CreationDate,2022-08-18T10:55:03-04:00
; #@! TF.GenerationSoftware,Kicad,Pcbnew,6.0.6
; #@! TF.FileFunction,MixedPlating,1,2
FMAT,2
METRIC
; #@! TA.AperFunction,Plated,PTH,ViaDrill
T1C0.400
; #@! TA.AperFunction,Plated,PTH,ComponentDrill
T2C0.400
; #@! TA.AperFunction,Plated,PTH,ComponentDrill
T3C0.600
; #@! TA.AperFunction,Plated,PTH,ComponentDrill
T4C1.000
; #@! TA.AperFunction,Plated,PTH,ComponentDrill
T5C1.470
; #@! TA.AperFunction,Plated,PTH,ComponentDrill
T6C2.000
; #@! TA.AperFunction,NonPlated,NPTH,ComponentDrill
T7C1.750
; #@! TA.AperFunction,NonPlated,NPTH,ComponentDrill
T8C3.048
; #@! TA.AperFunction,NonPlated,NPTH,ComponentDrill
T9C3.988
%
G90
G05
T1
X61.595Y-39.243
X62.865Y-36.592
X62.865Y-37.592
X63.5Y-35.179
X65.151Y-38.354
X67.437Y-39.243
X280.664Y-51.917
X344.424Y-36.83
X345.186Y-37.592
X345.948Y-38.354
X346.71Y-39.116
X370.586Y-41.529
X376.936Y-46.228
X379.222Y-44.958
X381.351Y-49.941
X382.24Y-50.83
X382.778Y-40.132
X384.048Y-53.086
X384.774Y-51.308
X385.354Y-39.116
X388.112Y-51.308
X389.114Y-52.18
X390.398Y-53.086
X391.414Y-51.562
X392.43Y-48.006
X393.446Y-45.502
X393.446Y-47.026
X393.7Y-43.767
X404.622Y-53.34
X404.655Y-143.731
X405.381Y-124.681
X405.384Y-51.308
X406.146Y-50.546
X406.908Y-49.784
X407.67Y-49.022
X407.67Y-105.664
X408.432Y-86.614
X408.465Y-67.531
T2
X51.794Y-27.281
X51.794Y-28.631
X52.644Y-27.281
X52.644Y-28.631
X53.494Y-27.281
X53.494Y-28.631
X54.344Y-27.281
X54.344Y-28.631
X55.194Y-27.281
X55.194Y-28.631
X56.044Y-27.281
X56.044Y-28.631
X56.894Y-27.281
X56.894Y-28.631
X57.744Y-27.281
X57.744Y-28.631
T4
X357.069Y-26.087
X357.069Y-40.587
X359.569Y-26.087
X362.069Y-26.087
X362.069Y-40.587
X403.944Y-42.994
X403.944Y-47.494
X410.444Y-42.994
X410.444Y-47.494
T5
X31.909Y-30.797
X31.909Y-59.372
X34.29Y-135.572
X36.671Y-78.422
X38.259Y-28.258
X38.259Y-56.832
X39.052Y-97.472
X40.64Y-133.032
X43.021Y-75.882
X43.815Y-116.522
X45.402Y-94.932
X50.165Y-113.983
X50.959Y-59.372
X57.309Y-56.832
X58.102Y-135.572
X60.484Y-78.422
X64.453Y-133.032
X65.246Y-97.472
X66.834Y-75.882
X70.009Y-30.797
X70.009Y-59.372
X71.596Y-94.932
X74.771Y-116.522
X76.359Y-28.258
X76.359Y-56.832
X79.534Y-78.422
X81.121Y-113.983
X81.915Y-135.572
X84.296Y-97.472
X85.884Y-75.882
X88.265Y-133.032
X89.059Y-30.797
X89.059Y-59.372
X90.646Y-94.932
X93.821Y-116.522
X95.409Y-28.258
X95.409Y-56.832
X98.584Y-78.422
X100.171Y-113.983
X103.346Y-97.472
X104.934Y-75.882
X108.109Y-30.797
X108.109Y-59.372
X109.696Y-94.932
X112.871Y-116.522
X114.459Y-28.258
X114.459Y-56.832
X117.634Y-78.422
X119.221Y-113.983
X122.396Y-97.472
X123.984Y-75.882
X127.159Y-30.797
X127.159Y-59.372
X128.746Y-94.932
X131.921Y-116.522
X133.509Y-28.258
X133.509Y-56.832
X136.684Y-78.422
X138.271Y-113.983
X141.446Y-97.472
X143.034Y-75.882
X146.209Y-59.372
X147.796Y-94.932
X150.971Y-116.522
X152.559Y-56.832
X153.352Y-135.572
X155.734Y-30.797
X155.734Y-78.422
X157.321Y-113.983
X159.702Y-133.032
X160.496Y-97.472
X162.084Y-28.258
X162.084Y-75.882
X165.259Y-59.372
X166.846Y-94.932
X170.021Y-116.522
X171.609Y-56.832
X174.784Y-30.797
X174.784Y-78.422
X176.371Y-113.983
X179.546Y-97.472
X181.134Y-28.258
X181.134Y-75.882
X184.309Y-59.372
X185.896Y-94.932
X189.071Y-116.522
X190.659Y-56.832
X193.834Y-30.797
X193.834Y-78.422
X195.421Y-113.983
X198.596Y-97.472
X200.184Y-28.258
X200.184Y-75.882
X203.359Y-59.372
X204.946Y-94.932
X208.121Y-116.522
X209.709Y-56.832
X212.884Y-30.797
X212.884Y-78.422
X214.471Y-113.983
X217.646Y-97.472
X219.234Y-28.258
X219.234Y-75.882
X222.409Y-59.372
X222.409Y-135.572
X223.996Y-94.932
X227.171Y-116.522
X228.759Y-56.832
X228.759Y-133.032
X231.934Y-78.422
X233.521Y-113.983
X236.696Y-97.472
X238.284Y-75.882
X241.459Y-30.797
X241.459Y-59.372
X241.459Y-135.572
X243.046Y-94.932
X246.221Y-116.522
X247.809Y-28.258
X247.809Y-56.832
X247.809Y-133.032
X250.984Y-78.422
X252.571Y-113.983
X255.746Y-97.472
X257.334Y-75.882
X260.509Y-30.797
X260.509Y-59.372
X260.509Y-135.572
X262.096Y-94.932
X266.859Y-28.258
X266.859Y-56.832
X266.859Y-133.032
X270.034Y-78.422
X272.415Y-116.522
X276.384Y-75.882
X278.765Y-113.983
X279.559Y-30.797
X284.321Y-140.335
X285.909Y-28.258
X286.702Y-97.472
X289.084Y-59.372
X290.671Y-137.795
X293.053Y-94.932
X293.846Y-78.422
X295.434Y-56.832
X298.609Y-30.797
X300.196Y-75.882
X303.371Y-121.285
X303.371Y-140.335
X304.959Y-28.258
X309.721Y-118.745
X309.721Y-137.795
X322.421Y-140.335
X327.184Y-30.797
X327.184Y-59.372
X327.184Y-78.422
X327.184Y-97.472
X327.184Y-116.522
X328.771Y-137.795
X333.534Y-28.258
X333.534Y-56.832
X333.534Y-75.882
X333.534Y-94.932
X333.534Y-113.983
X355.759Y-59.372
X355.759Y-78.422
X355.759Y-97.472
X355.759Y-116.522
X362.109Y-56.832
X362.109Y-75.882
X362.109Y-94.932
X362.109Y-113.983
X365.284Y-135.572
X371.634Y-133.032
X374.809Y-59.372
X374.809Y-78.422
X374.809Y-97.472
X374.809Y-116.522
X381.159Y-56.832
X381.159Y-75.882
X381.159Y-94.932
X381.159Y-113.983
X393.859Y-59.372
X393.859Y-78.422
X393.859Y-97.472
X393.859Y-116.522
X393.859Y-135.572
X400.209Y-56.832
X400.209Y-75.882
X400.209Y-94.932
X400.209Y-113.983
X400.209Y-133.032
X412.909Y-59.372
X412.909Y-87.947
X412.909Y-126.047
X419.259Y-56.832
X419.259Y-85.407
X419.259Y-123.507
T7
X30.639Y-33.337
X30.639Y-61.912
X33.02Y-138.112
X35.401Y-80.962
X37.782Y-100.012
X40.799Y-33.337
X40.799Y-61.912
X42.545Y-119.062
X43.18Y-138.112
X45.561Y-80.962
X47.942Y-100.012
X49.689Y-61.912
X52.705Y-119.062
X56.832Y-138.112
X59.214Y-80.962
X59.849Y-61.912
X63.976Y-100.012
X66.992Y-138.112
X68.739Y-33.337
X68.739Y-61.912
X69.374Y-80.962
X73.501Y-119.062
X74.136Y-100.012
X78.264Y-80.962
X78.899Y-33.337
X78.899Y-61.912
X80.645Y-138.112
X83.026Y-100.012
X83.661Y-119.062
X87.789Y-33.337
X87.789Y-61.912
X88.424Y-80.962
X90.805Y-138.112
X92.551Y-119.062
X93.186Y-100.012
X97.314Y-80.962
X97.949Y-33.337
X97.949Y-61.912
X102.076Y-100.012
X102.711Y-119.062
X106.839Y-33.337
X106.839Y-61.912
X107.474Y-80.962
X111.601Y-119.062
X112.236Y-100.012
X116.364Y-80.962
X116.999Y-33.337
X116.999Y-61.912
X121.126Y-100.012
X121.761Y-119.062
X125.889Y-33.337
X125.889Y-61.912
X126.524Y-80.962
X130.651Y-119.062
X131.286Y-100.012
X135.414Y-80.962
X136.049Y-33.337
X136.049Y-61.912
X140.176Y-100.012
X140.811Y-119.062
X144.939Y-61.912
X145.574Y-80.962
X149.701Y-119.062
X150.336Y-100.012
X152.082Y-138.112
X154.464Y-33.337
X154.464Y-80.962
X155.099Y-61.912
X159.226Y-100.012
X159.861Y-119.062
X162.243Y-138.112
X163.989Y-61.912
X164.624Y-33.337
X164.624Y-80.962
X168.751Y-119.062
X169.386Y-100.012
X173.514Y-33.337
X173.514Y-80.962
X174.149Y-61.912
X178.276Y-100.012
X178.911Y-119.062
X183.039Y-61.912
X183.674Y-33.337
X183.674Y-80.962
X187.801Y-119.062
X188.436Y-100.012
X192.564Y-33.337
X192.564Y-80.962
X193.199Y-61.912
X197.326Y-100.012
X197.961Y-119.062
X202.089Y-61.912
X202.724Y-33.337
X202.724Y-80.962
X206.851Y-119.062
X207.486Y-100.012
X211.614Y-33.337
X211.614Y-80.962
X212.249Y-61.912
X216.376Y-100.012
X217.011Y-119.062
X221.139Y-61.912
X221.139Y-138.112
X221.774Y-33.337
X221.774Y-80.962
X225.901Y-119.062
X226.536Y-100.012
X230.664Y-80.962
X231.299Y-61.912
X231.299Y-138.112
X235.426Y-100.012
X236.061Y-119.062
X240.189Y-33.337
X240.189Y-61.912
X240.189Y-138.112
X240.824Y-80.962
X244.951Y-119.062
X245.586Y-100.012
X249.714Y-80.962
X250.349Y-33.337
X250.349Y-61.912
X250.349Y-138.112
X254.476Y-100.012
X255.111Y-119.062
X259.239Y-33.337
X259.239Y-61.912
X259.239Y-138.112
X259.874Y-80.962
X264.636Y-100.012
X268.764Y-80.962
X269.399Y-33.337
X269.399Y-61.912
X269.399Y-138.112
X271.145Y-119.062
X278.289Y-33.337
X278.924Y-80.962
X281.305Y-119.062
X283.051Y-142.875
X285.433Y-100.012
X287.814Y-61.912
X288.449Y-33.337
X292.576Y-80.962
X293.211Y-142.875
X295.592Y-100.012
X297.339Y-33.337
X297.974Y-61.912
X302.101Y-123.825
X302.101Y-142.875
X302.736Y-80.962
X307.499Y-33.337
X312.261Y-123.825
X312.261Y-142.875
X321.151Y-142.875
X325.914Y-33.337
X325.914Y-61.912
X325.914Y-80.962
X325.914Y-100.012
X325.914Y-119.062
X331.311Y-142.875
X336.074Y-33.337
X336.074Y-61.912
X336.074Y-80.962
X336.074Y-100.012
X336.074Y-119.062
X354.489Y-61.912
X354.489Y-80.962
X354.489Y-100.012
X354.489Y-119.062
X364.014Y-138.112
X364.649Y-61.912
X364.649Y-80.962
X364.649Y-100.012
X364.649Y-119.062
X373.539Y-61.912
X373.539Y-80.962
X373.539Y-100.012
X373.539Y-119.062
X374.174Y-138.112
X383.699Y-61.912
X383.699Y-80.962
X383.699Y-100.012
X383.699Y-119.062
X392.589Y-61.912
X392.589Y-80.962
X392.589Y-100.012
X392.589Y-119.062
X392.589Y-138.112
X402.749Y-61.912
X402.749Y-80.962
X402.749Y-100.012
X402.749Y-119.062
X402.749Y-138.112
X411.639Y-61.912
X411.639Y-90.487
X411.639Y-128.588
X421.799Y-61.912
X421.799Y-90.487
X421.799Y-128.588
T8
X35.719Y-112.078
X59.531Y-112.078
X107.163Y-131.127
X207.162Y-131.127
X278.606Y-93.027
X280.988Y-54.927
X302.419Y-93.027
X304.8Y-54.927
X357.188Y-131.127
X381.0Y-131.127
X409.734Y-78.549
X409.734Y-102.425
X409.734Y-116.649
X409.734Y-140.525
T9
X35.719Y-33.337
X35.719Y-61.912
X35.719Y-127.317
X38.1Y-138.112
X40.481Y-80.962
X42.862Y-100.012
X47.625Y-119.062
X54.769Y-61.912
X59.531Y-127.317
X61.912Y-138.112
X64.294Y-80.962
X69.056Y-100.012
X73.819Y-33.337
X73.819Y-61.912
X78.581Y-119.062
X83.344Y-80.962
X85.725Y-138.112
X88.106Y-100.012
X92.869Y-33.337
X92.869Y-61.912
X97.631Y-119.062
X102.394Y-80.962
X107.156Y-100.012
X107.163Y-146.368
X111.919Y-33.337
X111.919Y-61.912
X116.681Y-119.062
X121.444Y-80.962
X126.206Y-100.012
X130.969Y-33.337
X130.969Y-61.912
X135.731Y-119.062
X140.494Y-80.962
X145.256Y-100.012
X150.019Y-61.912
X154.781Y-119.062
X157.162Y-138.112
X159.544Y-33.337
X159.544Y-80.962
X164.306Y-100.012
X169.069Y-61.912
X173.831Y-119.062
X178.594Y-33.337
X178.594Y-80.962
X183.356Y-100.012
X188.119Y-61.912
X192.881Y-119.062
X197.644Y-33.337
X197.644Y-80.962
X202.406Y-100.012
X207.162Y-146.368
X207.169Y-61.912
X211.931Y-119.062
X216.694Y-33.337
X216.694Y-80.962
X221.456Y-100.012
X226.219Y-61.912
X226.219Y-138.112
X230.981Y-119.062
X235.744Y-80.962
X240.506Y-100.012
X245.269Y-33.337
X245.269Y-61.912
X245.269Y-138.112
X250.031Y-119.062
X254.794Y-80.962
X259.556Y-100.012
X264.319Y-33.337
X264.319Y-61.912
X264.319Y-138.112
X273.844Y-80.962
X276.225Y-119.062
X278.606Y-108.267
X280.988Y-70.167
X283.369Y-33.337
X288.131Y-142.875
X290.512Y-100.012
X292.894Y-61.912
X297.656Y-80.962
X302.419Y-33.337
X302.419Y-108.267
X304.8Y-70.167
X307.181Y-123.825
X307.181Y-142.875
X326.231Y-142.875
X330.994Y-33.337
X330.994Y-61.912
X330.994Y-80.962
X330.994Y-100.012
X330.994Y-119.062
X357.188Y-146.368
X359.569Y-61.912
X359.569Y-80.962
X359.569Y-100.012
X359.569Y-119.062
X369.094Y-138.112
X378.619Y-61.912
X378.619Y-80.962
X378.619Y-100.012
X378.619Y-119.062
X381.0Y-146.368
X397.669Y-61.912
X397.669Y-80.962
X397.669Y-100.012
X397.669Y-119.062
X397.669Y-138.112
X416.719Y-61.912
X416.719Y-90.487
X416.719Y-128.588
X424.974Y-78.549
X424.974Y-102.425
X424.974Y-116.649
X424.974Y-140.525
T3
G00X50.444Y-23.871
M15
G01X50.444Y-24.671
M16
G05
G00X50.444Y-26.901
M15
G01X50.444Y-28.401
M16
G05
G00X59.094Y-23.871
M15
G01X59.094Y-24.671
M16
G05
G00X59.094Y-26.901
M15
G01X59.094Y-28.401
M16
G05
T6
G00X353.969Y-33.337
M15
G01X353.969Y-33.837
M16
G05
G00X365.169Y-33.337
M15
G01X365.169Y-33.837
M16
G05
T0
M30
