  0
SECTION
  2
HEADER
  9
$ANGBASE
  50
0.0
  9
$ANGDIR
  70
1
  9
$MEASUREMENT
  70
1
  0
ENDSEC
  0
SECTION
  2
TABLES
  0
TABLE
  2
LTYPE
  70
4
  0
LTYPE
  5
40F
  2
CONTINUOUS
  70
0
  3
Solid line
  72
65
  73
0
  40
0.0
  0
LTYPE
  5
410
  2
DASHDOT
 70
0
  3
Dash Dot ____ _ ____ _
 72
65
 73
4
 40
2.0
 49
1.25
 49
-0.25
 49
0.25
 49
-0.25
  0
LTYPE
  5
411
  2
DASHED
 70
0
  3
Dashed __ __ __ __ __
 72
65
 73
2
 40
0.75
 49
0.5
 49
-0.25
  0
LTYPE
  5
43B
  2
DOTTED
 70
0
  3
Dotted .  .  .  .
 72
65
 73
2
 40
0.2
 49
0.0
 49
-0.2
  0
ENDTAB
  0
TABLE
  2
STYLE
  70
4
  0
STYLE
  2
KICAD
  70
0
  40
0
  41
1
  42
1
  50
0
  71
0
  3
isocp.shx
  0
STYLE
  2
KICADB
  70
0
  40
0
  41
1
  42
1
  50
0
  71
0
  3
isocp.shx
  0
STYLE
  2
KICADI
  70
0
  40
0
  41
1
  42
1
  50
15
  71
0
  3
isocp.shx
  0
STYLE
  2
KICADBI
  70
0
  40
0
  41
1
  42
1
  50
15
  71
0
  3
isocp.shx
  0
ENDTAB
  0
TABLE
  2
LAYER
  70
1
  0
LAYER
  2
BLACK
  70
0
  62
7
  6
CONTINUOUS
  0
ENDTAB
  0
ENDSEC
  0
SECTION
  2
ENTITIES
0
LINE
8
BLACK
6
CONTINUOUS
10
392.654
20
-43.6447
11
392.699
21
-43.675
0
LINE
8
BLACK
6
CONTINUOUS
10
392.699
20
-43.675
11
392.729
21
-43.7204
0
LINE
8
BLACK
6
CONTINUOUS
10
392.729
20
-43.7204
11
392.74
21
-43.774
0
LINE
8
BLACK
6
CONTINUOUS
10
392.74
20
-43.774
11
392.74
21
-44.054
0
LINE
8
BLACK
6
CONTINUOUS
10
392.74
20
-44.054
11
392.729
21
-44.1076
0
LINE
8
BLACK
6
CONTINUOUS
10
392.729
20
-44.1076
11
392.699
21
-44.153
0
LINE
8
BLACK
6
CONTINUOUS
10
392.699
20
-44.153
11
392.654
21
-44.1833
0
LINE
8
BLACK
6
CONTINUOUS
10
392.654
20
-44.1833
11
392.6
21
-44.194
0
LINE
8
BLACK
6
CONTINUOUS
10
392.6
20
-44.194
11
392.26
21
-44.194
0
LINE
8
BLACK
6
CONTINUOUS
10
392.26
20
-44.194
11
392.206
21
-44.1833
0
LINE
8
BLACK
6
CONTINUOUS
10
392.206
20
-44.1833
11
392.161
21
-44.153
0
LINE
8
BLACK
6
CONTINUOUS
10
392.161
20
-44.153
11
392.131
21
-44.1076
0
LINE
8
BLACK
6
CONTINUOUS
10
392.131
20
-44.1076
11
392.12
21
-44.054
0
LINE
8
BLACK
6
CONTINUOUS
10
392.12
20
-44.054
11
392.12
21
-43.774
0
LINE
8
BLACK
6
CONTINUOUS
10
392.12
20
-43.774
11
392.131
21
-43.7204
0
LINE
8
BLACK
6
CONTINUOUS
10
392.131
20
-43.7204
11
392.161
21
-43.675
0
LINE
8
BLACK
6
CONTINUOUS
10
392.161
20
-43.675
11
392.206
21
-43.6447
0
LINE
8
BLACK
6
CONTINUOUS
10
392.206
20
-43.6447
11
392.26
21
-43.634
0
LINE
8
BLACK
6
CONTINUOUS
10
392.26
20
-43.634
11
392.6
21
-43.634
0
LINE
8
BLACK
6
CONTINUOUS
10
392.6
20
-43.634
11
392.654
21
-43.6447
0
LINE
8
BLACK
6
CONTINUOUS
10
392.654
20
-42.6847
11
392.699
21
-42.715
0
LINE
8
BLACK
6
CONTINUOUS
10
392.699
20
-42.715
11
392.729
21
-42.7604
0
LINE
8
BLACK
6
CONTINUOUS
10
392.729
20
-42.7604
11
392.74
21
-42.814
0
LINE
8
BLACK
6
CONTINUOUS
10
392.74
20
-42.814
11
392.74
21
-43.094
0
LINE
8
BLACK
6
CONTINUOUS
10
392.74
20
-43.094
11
392.729
21
-43.1476
0
LINE
8
BLACK
6
CONTINUOUS
10
392.729
20
-43.1476
11
392.699
21
-43.193
0
LINE
8
BLACK
6
CONTINUOUS
10
392.699
20
-43.193
11
392.654
21
-43.2233
0
LINE
8
BLACK
6
CONTINUOUS
10
392.654
20
-43.2233
11
392.6
21
-43.234
0
LINE
8
BLACK
6
CONTINUOUS
10
392.6
20
-43.234
11
392.26
21
-43.234
0
LINE
8
BLACK
6
CONTINUOUS
10
392.26
20
-43.234
11
392.206
21
-43.2233
0
LINE
8
BLACK
6
CONTINUOUS
10
392.206
20
-43.2233
11
392.161
21
-43.193
0
LINE
8
BLACK
6
CONTINUOUS
10
392.161
20
-43.193
11
392.131
21
-43.1476
0
LINE
8
BLACK
6
CONTINUOUS
10
392.131
20
-43.1476
11
392.12
21
-43.094
0
LINE
8
BLACK
6
CONTINUOUS
10
392.12
20
-43.094
11
392.12
21
-42.814
0
LINE
8
BLACK
6
CONTINUOUS
10
392.12
20
-42.814
11
392.131
21
-42.7604
0
LINE
8
BLACK
6
CONTINUOUS
10
392.131
20
-42.7604
11
392.161
21
-42.715
0
LINE
8
BLACK
6
CONTINUOUS
10
392.161
20
-42.715
11
392.206
21
-42.6847
0
LINE
8
BLACK
6
CONTINUOUS
10
392.206
20
-42.6847
11
392.26
21
-42.674
0
LINE
8
BLACK
6
CONTINUOUS
10
392.26
20
-42.674
11
392.6
21
-42.674
0
LINE
8
BLACK
6
CONTINUOUS
10
392.6
20
-42.674
11
392.654
21
-42.6847
0
LINE
8
BLACK
6
CONTINUOUS
10
413.513
20
-38.435
11
413.594
21
-38.4892
0
LINE
8
BLACK
6
CONTINUOUS
10
413.594
20
-38.4892
11
413.648
21
-38.5703
0
LINE
8
BLACK
6
CONTINUOUS
10
413.648
20
-38.5703
11
413.667
21
-38.666
0
LINE
8
BLACK
6
CONTINUOUS
10
413.667
20
-38.666
11
413.667
21
-39.566
0
LINE
8
BLACK
6
CONTINUOUS
10
413.667
20
-39.566
11
413.648
21
-39.6617
0
LINE
8
BLACK
6
CONTINUOUS
10
413.648
20
-39.6617
11
413.594
21
-39.7428
0
LINE
8
BLACK
6
CONTINUOUS
10
413.594
20
-39.7428
11
413.513
21
-39.797
0
LINE
8
BLACK
6
CONTINUOUS
10
413.513
20
-39.797
11
413.417
21
-39.816
0
LINE
8
BLACK
6
CONTINUOUS
10
413.417
20
-39.816
11
412.892
21
-39.816
0
LINE
8
BLACK
6
CONTINUOUS
10
412.892
20
-39.816
11
412.796
21
-39.797
0
LINE
8
BLACK
6
CONTINUOUS
10
412.796
20
-39.797
11
412.715
21
-39.7428
0
LINE
8
BLACK
6
CONTINUOUS
10
412.715
20
-39.7428
11
412.661
21
-39.6617
0
LINE
8
BLACK
6
CONTINUOUS
10
412.661
20
-39.6617
11
412.642
21
-39.566
0
LINE
8
BLACK
6
CONTINUOUS
10
412.642
20
-39.566
11
412.642
21
-38.666
0
LINE
8
BLACK
6
CONTINUOUS
10
412.642
20
-38.666
11
412.661
21
-38.5703
0
LINE
8
BLACK
6
CONTINUOUS
10
412.661
20
-38.5703
11
412.715
21
-38.4892
0
LINE
8
BLACK
6
CONTINUOUS
10
412.715
20
-38.4892
11
412.796
21
-38.435
0
LINE
8
BLACK
6
CONTINUOUS
10
412.796
20
-38.435
11
412.892
21
-38.416
0
LINE
8
BLACK
6
CONTINUOUS
10
412.892
20
-38.416
11
413.417
21
-38.416
0
LINE
8
BLACK
6
CONTINUOUS
10
413.417
20
-38.416
11
413.513
21
-38.435
0
LINE
8
BLACK
6
CONTINUOUS
10
411.688
20
-38.435
11
411.769
21
-38.4892
0
LINE
8
BLACK
6
CONTINUOUS
10
411.769
20
-38.4892
11
411.823
21
-38.5703
0
LINE
8
BLACK
6
CONTINUOUS
10
411.823
20
-38.5703
11
411.842
21
-38.666
0
LINE
8
BLACK
6
CONTINUOUS
10
411.842
20
-38.666
11
411.842
21
-39.566
0
LINE
8
BLACK
6
CONTINUOUS
10
411.842
20
-39.566
11
411.823
21
-39.6617
0
LINE
8
BLACK
6
CONTINUOUS
10
411.823
20
-39.6617
11
411.769
21
-39.7428
0
LINE
8
BLACK
6
CONTINUOUS
10
411.769
20
-39.7428
11
411.688
21
-39.797
0
LINE
8
BLACK
6
CONTINUOUS
10
411.688
20
-39.797
11
411.592
21
-39.816
0
LINE
8
BLACK
6
CONTINUOUS
10
411.592
20
-39.816
11
411.067
21
-39.816
0
LINE
8
BLACK
6
CONTINUOUS
10
411.067
20
-39.816
11
410.971
21
-39.797
0
LINE
8
BLACK
6
CONTINUOUS
10
410.971
20
-39.797
11
410.89
21
-39.7428
0
LINE
8
BLACK
6
CONTINUOUS
10
410.89
20
-39.7428
11
410.836
21
-39.6617
0
LINE
8
BLACK
6
CONTINUOUS
10
410.836
20
-39.6617
11
410.817
21
-39.566
0
LINE
8
BLACK
6
CONTINUOUS
10
410.817
20
-39.566
11
410.817
21
-38.666
0
LINE
8
BLACK
6
CONTINUOUS
10
410.817
20
-38.666
11
410.836
21
-38.5703
0
LINE
8
BLACK
6
CONTINUOUS
10
410.836
20
-38.5703
11
410.89
21
-38.4892
0
LINE
8
BLACK
6
CONTINUOUS
10
410.89
20
-38.4892
11
410.971
21
-38.435
0
LINE
8
BLACK
6
CONTINUOUS
10
410.971
20
-38.435
11
411.067
21
-38.416
0
LINE
8
BLACK
6
CONTINUOUS
10
411.067
20
-38.416
11
411.592
21
-38.416
0
LINE
8
BLACK
6
CONTINUOUS
10
411.592
20
-38.416
11
411.688
21
-38.435
0
LINE
8
BLACK
6
CONTINUOUS
10
385.032
20
-37.8007
11
385.077
21
-37.831
0
LINE
8
BLACK
6
CONTINUOUS
10
385.077
20
-37.831
11
385.107
21
-37.8764
0
LINE
8
BLACK
6
CONTINUOUS
10
385.107
20
-37.8764
11
385.118
21
-37.93
0
LINE
8
BLACK
6
CONTINUOUS
10
385.118
20
-37.93
11
385.118
21
-38.27
0
LINE
8
BLACK
6
CONTINUOUS
10
385.118
20
-38.27
11
385.107
21
-38.3236
0
LINE
8
BLACK
6
CONTINUOUS
10
385.107
20
-38.3236
11
385.077
21
-38.369
0
LINE
8
BLACK
6
CONTINUOUS
10
385.077
20
-38.369
11
385.032
21
-38.3993
0
LINE
8
BLACK
6
CONTINUOUS
10
385.032
20
-38.3993
11
384.978
21
-38.41
0
LINE
8
BLACK
6
CONTINUOUS
10
384.978
20
-38.41
11
384.698
21
-38.41
0
LINE
8
BLACK
6
CONTINUOUS
10
384.698
20
-38.41
11
384.644
21
-38.3993
0
LINE
8
BLACK
6
CONTINUOUS
10
384.644
20
-38.3993
11
384.599
21
-38.369
0
LINE
8
BLACK
6
CONTINUOUS
10
384.599
20
-38.369
11
384.569
21
-38.3236
0
LINE
8
BLACK
6
CONTINUOUS
10
384.569
20
-38.3236
11
384.558
21
-38.27
0
LINE
8
BLACK
6
CONTINUOUS
10
384.558
20
-38.27
11
384.558
21
-37.93
0
LINE
8
BLACK
6
CONTINUOUS
10
384.558
20
-37.93
11
384.569
21
-37.8764
0
LINE
8
BLACK
6
CONTINUOUS
10
384.569
20
-37.8764
11
384.599
21
-37.831
0
LINE
8
BLACK
6
CONTINUOUS
10
384.599
20
-37.831
11
384.644
21
-37.8007
0
LINE
8
BLACK
6
CONTINUOUS
10
384.644
20
-37.8007
11
384.698
21
-37.79
0
LINE
8
BLACK
6
CONTINUOUS
10
384.698
20
-37.79
11
384.978
21
-37.79
0
LINE
8
BLACK
6
CONTINUOUS
10
384.978
20
-37.79
11
385.032
21
-37.8007
0
LINE
8
BLACK
6
CONTINUOUS
10
385.992
20
-37.8007
11
386.037
21
-37.831
0
LINE
8
BLACK
6
CONTINUOUS
10
386.037
20
-37.831
11
386.067
21
-37.8764
0
LINE
8
BLACK
6
CONTINUOUS
10
386.067
20
-37.8764
11
386.078
21
-37.93
0
LINE
8
BLACK
6
CONTINUOUS
10
386.078
20
-37.93
11
386.078
21
-38.27
0
LINE
8
BLACK
6
CONTINUOUS
10
386.078
20
-38.27
11
386.067
21
-38.3236
0
LINE
8
BLACK
6
CONTINUOUS
10
386.067
20
-38.3236
11
386.037
21
-38.369
0
LINE
8
BLACK
6
CONTINUOUS
10
386.037
20
-38.369
11
385.992
21
-38.3993
0
LINE
8
BLACK
6
CONTINUOUS
10
385.992
20
-38.3993
11
385.938
21
-38.41
0
LINE
8
BLACK
6
CONTINUOUS
10
385.938
20
-38.41
11
385.658
21
-38.41
0
LINE
8
BLACK
6
CONTINUOUS
10
385.658
20
-38.41
11
385.604
21
-38.3993
0
LINE
8
BLACK
6
CONTINUOUS
10
385.604
20
-38.3993
11
385.559
21
-38.369
0
LINE
8
BLACK
6
CONTINUOUS
10
385.559
20
-38.369
11
385.529
21
-38.3236
0
LINE
8
BLACK
6
CONTINUOUS
10
385.529
20
-38.3236
11
385.518
21
-38.27
0
LINE
8
BLACK
6
CONTINUOUS
10
385.518
20
-38.27
11
385.518
21
-37.93
0
LINE
8
BLACK
6
CONTINUOUS
10
385.518
20
-37.93
11
385.529
21
-37.8764
0
LINE
8
BLACK
6
CONTINUOUS
10
385.529
20
-37.8764
11
385.559
21
-37.831
0
LINE
8
BLACK
6
CONTINUOUS
10
385.559
20
-37.831
11
385.604
21
-37.8007
0
LINE
8
BLACK
6
CONTINUOUS
10
385.604
20
-37.8007
11
385.658
21
-37.79
0
LINE
8
BLACK
6
CONTINUOUS
10
385.658
20
-37.79
11
385.938
21
-37.79
0
LINE
8
BLACK
6
CONTINUOUS
10
385.938
20
-37.79
11
385.992
21
-37.8007
0
LINE
8
BLACK
6
CONTINUOUS
10
380.784
20
-36.995
11
380.865
21
-37.0492
0
LINE
8
BLACK
6
CONTINUOUS
10
380.865
20
-37.0492
11
380.919
21
-37.1303
0
LINE
8
BLACK
6
CONTINUOUS
10
380.919
20
-37.1303
11
380.938
21
-37.226
0
LINE
8
BLACK
6
CONTINUOUS
10
380.938
20
-37.226
11
380.938
21
-37.751
0
LINE
8
BLACK
6
CONTINUOUS
10
380.938
20
-37.751
11
380.919
21
-37.8467
0
LINE
8
BLACK
6
CONTINUOUS
10
380.919
20
-37.8467
11
380.865
21
-37.9278
0
LINE
8
BLACK
6
CONTINUOUS
10
380.865
20
-37.9278
11
380.784
21
-37.982
0
LINE
8
BLACK
6
CONTINUOUS
10
380.784
20
-37.982
11
380.688
21
-38.001
0
LINE
8
BLACK
6
CONTINUOUS
10
380.688
20
-38.001
11
379.788
21
-38.001
0
LINE
8
BLACK
6
CONTINUOUS
10
379.788
20
-38.001
11
379.692
21
-37.982
0
LINE
8
BLACK
6
CONTINUOUS
10
379.692
20
-37.982
11
379.611
21
-37.9278
0
LINE
8
BLACK
6
CONTINUOUS
10
379.611
20
-37.9278
11
379.557
21
-37.8467
0
LINE
8
BLACK
6
CONTINUOUS
10
379.557
20
-37.8467
11
379.538
21
-37.751
0
LINE
8
BLACK
6
CONTINUOUS
10
379.538
20
-37.751
11
379.538
21
-37.226
0
LINE
8
BLACK
6
CONTINUOUS
10
379.538
20
-37.226
11
379.557
21
-37.1303
0
LINE
8
BLACK
6
CONTINUOUS
10
379.557
20
-37.1303
11
379.611
21
-37.0492
0
LINE
8
BLACK
6
CONTINUOUS
10
379.611
20
-37.0492
11
379.692
21
-36.995
0
LINE
8
BLACK
6
CONTINUOUS
10
379.692
20
-36.995
11
379.788
21
-36.976
0
LINE
8
BLACK
6
CONTINUOUS
10
379.788
20
-36.976
11
380.688
21
-36.976
0
LINE
8
BLACK
6
CONTINUOUS
10
380.688
20
-36.976
11
380.784
21
-36.995
0
LINE
8
BLACK
6
CONTINUOUS
10
396.786
20
-36.995
11
396.867
21
-37.0492
0
LINE
8
BLACK
6
CONTINUOUS
10
396.867
20
-37.0492
11
396.921
21
-37.1303
0
LINE
8
BLACK
6
CONTINUOUS
10
396.921
20
-37.1303
11
396.94
21
-37.226
0
LINE
8
BLACK
6
CONTINUOUS
10
396.94
20
-37.226
11
396.94
21
-37.751
0
LINE
8
BLACK
6
CONTINUOUS
10
396.94
20
-37.751
11
396.921
21
-37.8467
0
LINE
8
BLACK
6
CONTINUOUS
10
396.921
20
-37.8467
11
396.867
21
-37.9278
0
LINE
8
BLACK
6
CONTINUOUS
10
396.867
20
-37.9278
11
396.786
21
-37.982
0
LINE
8
BLACK
6
CONTINUOUS
10
396.786
20
-37.982
11
396.69
21
-38.001
0
LINE
8
BLACK
6
CONTINUOUS
10
396.69
20
-38.001
11
395.79
21
-38.001
0
LINE
8
BLACK
6
CONTINUOUS
10
395.79
20
-38.001
11
395.694
21
-37.982
0
LINE
8
BLACK
6
CONTINUOUS
10
395.694
20
-37.982
11
395.613
21
-37.9278
0
LINE
8
BLACK
6
CONTINUOUS
10
395.613
20
-37.9278
11
395.559
21
-37.8467
0
LINE
8
BLACK
6
CONTINUOUS
10
395.559
20
-37.8467
11
395.54
21
-37.751
0
LINE
8
BLACK
6
CONTINUOUS
10
395.54
20
-37.751
11
395.54
21
-37.226
0
LINE
8
BLACK
6
CONTINUOUS
10
395.54
20
-37.226
11
395.559
21
-37.1303
0
LINE
8
BLACK
6
CONTINUOUS
10
395.559
20
-37.1303
11
395.613
21
-37.0492
0
LINE
8
BLACK
6
CONTINUOUS
10
395.613
20
-37.0492
11
395.694
21
-36.995
0
LINE
8
BLACK
6
CONTINUOUS
10
395.694
20
-36.995
11
395.79
21
-36.976
0
LINE
8
BLACK
6
CONTINUOUS
10
395.79
20
-36.976
11
396.69
21
-36.976
0
LINE
8
BLACK
6
CONTINUOUS
10
396.69
20
-36.976
11
396.786
21
-36.995
0
LINE
8
BLACK
6
CONTINUOUS
10
385.992
20
-36.5307
11
386.037
21
-36.561
0
LINE
8
BLACK
6
CONTINUOUS
10
386.037
20
-36.561
11
386.067
21
-36.6064
0
LINE
8
BLACK
6
CONTINUOUS
10
386.067
20
-36.6064
11
386.078
21
-36.66
0
LINE
8
BLACK
6
CONTINUOUS
10
386.078
20
-36.66
11
386.078
21
-37
0
LINE
8
BLACK
6
CONTINUOUS
10
386.078
20
-37
11
386.067
21
-37.0536
0
LINE
8
BLACK
6
CONTINUOUS
10
386.067
20
-37.0536
11
386.037
21
-37.099
0
LINE
8
BLACK
6
CONTINUOUS
10
386.037
20
-37.099
11
385.992
21
-37.1293
0
LINE
8
BLACK
6
CONTINUOUS
10
385.992
20
-37.1293
11
385.938
21
-37.14
0
LINE
8
BLACK
6
CONTINUOUS
10
385.938
20
-37.14
11
385.658
21
-37.14
0
LINE
8
BLACK
6
CONTINUOUS
10
385.658
20
-37.14
11
385.604
21
-37.1293
0
LINE
8
BLACK
6
CONTINUOUS
10
385.604
20
-37.1293
11
385.559
21
-37.099
0
LINE
8
BLACK
6
CONTINUOUS
10
385.559
20
-37.099
11
385.529
21
-37.0536
0
LINE
8
BLACK
6
CONTINUOUS
10
385.529
20
-37.0536
11
385.518
21
-37
0
LINE
8
BLACK
6
CONTINUOUS
10
385.518
20
-37
11
385.518
21
-36.66
0
LINE
8
BLACK
6
CONTINUOUS
10
385.518
20
-36.66
11
385.529
21
-36.6064
0
LINE
8
BLACK
6
CONTINUOUS
10
385.529
20
-36.6064
11
385.559
21
-36.561
0
LINE
8
BLACK
6
CONTINUOUS
10
385.559
20
-36.561
11
385.604
21
-36.5307
0
LINE
8
BLACK
6
CONTINUOUS
10
385.604
20
-36.5307
11
385.658
21
-36.52
0
LINE
8
BLACK
6
CONTINUOUS
10
385.658
20
-36.52
11
385.938
21
-36.52
0
LINE
8
BLACK
6
CONTINUOUS
10
385.938
20
-36.52
11
385.992
21
-36.5307
0
LINE
8
BLACK
6
CONTINUOUS
10
385.032
20
-36.5307
11
385.077
21
-36.561
0
LINE
8
BLACK
6
CONTINUOUS
10
385.077
20
-36.561
11
385.107
21
-36.6064
0
LINE
8
BLACK
6
CONTINUOUS
10
385.107
20
-36.6064
11
385.118
21
-36.66
0
LINE
8
BLACK
6
CONTINUOUS
10
385.118
20
-36.66
11
385.118
21
-37
0
LINE
8
BLACK
6
CONTINUOUS
10
385.118
20
-37
11
385.107
21
-37.0536
0
LINE
8
BLACK
6
CONTINUOUS
10
385.107
20
-37.0536
11
385.077
21
-37.099
0
LINE
8
BLACK
6
CONTINUOUS
10
385.077
20
-37.099
11
385.032
21
-37.1293
0
LINE
8
BLACK
6
CONTINUOUS
10
385.032
20
-37.1293
11
384.978
21
-37.14
0
LINE
8
BLACK
6
CONTINUOUS
10
384.978
20
-37.14
11
384.698
21
-37.14
0
LINE
8
BLACK
6
CONTINUOUS
10
384.698
20
-37.14
11
384.644
21
-37.1293
0
LINE
8
BLACK
6
CONTINUOUS
10
384.644
20
-37.1293
11
384.599
21
-37.099
0
LINE
8
BLACK
6
CONTINUOUS
10
384.599
20
-37.099
11
384.569
21
-37.0536
0
LINE
8
BLACK
6
CONTINUOUS
10
384.569
20
-37.0536
11
384.558
21
-37
0
LINE
8
BLACK
6
CONTINUOUS
10
384.558
20
-37
11
384.558
21
-36.66
0
LINE
8
BLACK
6
CONTINUOUS
10
384.558
20
-36.66
11
384.569
21
-36.6064
0
LINE
8
BLACK
6
CONTINUOUS
10
384.569
20
-36.6064
11
384.599
21
-36.561
0
LINE
8
BLACK
6
CONTINUOUS
10
384.599
20
-36.561
11
384.644
21
-36.5307
0
LINE
8
BLACK
6
CONTINUOUS
10
384.644
20
-36.5307
11
384.698
21
-36.52
0
LINE
8
BLACK
6
CONTINUOUS
10
384.698
20
-36.52
11
384.978
21
-36.52
0
LINE
8
BLACK
6
CONTINUOUS
10
384.978
20
-36.52
11
385.032
21
-36.5307
0
LINE
8
BLACK
6
CONTINUOUS
10
396.786
20
-35.17
11
396.867
21
-35.2242
0
LINE
8
BLACK
6
CONTINUOUS
10
396.867
20
-35.2242
11
396.921
21
-35.3053
0
LINE
8
BLACK
6
CONTINUOUS
10
396.921
20
-35.3053
11
396.94
21
-35.401
0
LINE
8
BLACK
6
CONTINUOUS
10
396.94
20
-35.401
11
396.94
21
-35.926
0
LINE
8
BLACK
6
CONTINUOUS
10
396.94
20
-35.926
11
396.921
21
-36.0217
0
LINE
8
BLACK
6
CONTINUOUS
10
396.921
20
-36.0217
11
396.867
21
-36.1028
0
LINE
8
BLACK
6
CONTINUOUS
10
396.867
20
-36.1028
11
396.786
21
-36.157
0
LINE
8
BLACK
6
CONTINUOUS
10
396.786
20
-36.157
11
396.69
21
-36.176
0
LINE
8
BLACK
6
CONTINUOUS
10
396.69
20
-36.176
11
395.79
21
-36.176
0
LINE
8
BLACK
6
CONTINUOUS
10
395.79
20
-36.176
11
395.694
21
-36.157
0
LINE
8
BLACK
6
CONTINUOUS
10
395.694
20
-36.157
11
395.613
21
-36.1028
0
LINE
8
BLACK
6
CONTINUOUS
10
395.613
20
-36.1028
11
395.559
21
-36.0217
0
LINE
8
BLACK
6
CONTINUOUS
10
395.559
20
-36.0217
11
395.54
21
-35.926
0
LINE
8
BLACK
6
CONTINUOUS
10
395.54
20
-35.926
11
395.54
21
-35.401
0
LINE
8
BLACK
6
CONTINUOUS
10
395.54
20
-35.401
11
395.559
21
-35.3053
0
LINE
8
BLACK
6
CONTINUOUS
10
395.559
20
-35.3053
11
395.613
21
-35.2242
0
LINE
8
BLACK
6
CONTINUOUS
10
395.613
20
-35.2242
11
395.694
21
-35.17
0
LINE
8
BLACK
6
CONTINUOUS
10
395.694
20
-35.17
11
395.79
21
-35.151
0
LINE
8
BLACK
6
CONTINUOUS
10
395.79
20
-35.151
11
396.69
21
-35.151
0
LINE
8
BLACK
6
CONTINUOUS
10
396.69
20
-35.151
11
396.786
21
-35.17
0
LINE
8
BLACK
6
CONTINUOUS
10
380.784
20
-35.17
11
380.865
21
-35.2242
0
LINE
8
BLACK
6
CONTINUOUS
10
380.865
20
-35.2242
11
380.919
21
-35.3053
0
LINE
8
BLACK
6
CONTINUOUS
10
380.919
20
-35.3053
11
380.938
21
-35.401
0
LINE
8
BLACK
6
CONTINUOUS
10
380.938
20
-35.401
11
380.938
21
-35.926
0
LINE
8
BLACK
6
CONTINUOUS
10
380.938
20
-35.926
11
380.919
21
-36.0217
0
LINE
8
BLACK
6
CONTINUOUS
10
380.919
20
-36.0217
11
380.865
21
-36.1028
0
LINE
8
BLACK
6
CONTINUOUS
10
380.865
20
-36.1028
11
380.784
21
-36.157
0
LINE
8
BLACK
6
CONTINUOUS
10
380.784
20
-36.157
11
380.688
21
-36.176
0
LINE
8
BLACK
6
CONTINUOUS
10
380.688
20
-36.176
11
379.788
21
-36.176
0
LINE
8
BLACK
6
CONTINUOUS
10
379.788
20
-36.176
11
379.692
21
-36.157
0
LINE
8
BLACK
6
CONTINUOUS
10
379.692
20
-36.157
11
379.611
21
-36.1028
0
LINE
8
BLACK
6
CONTINUOUS
10
379.611
20
-36.1028
11
379.557
21
-36.0217
0
LINE
8
BLACK
6
CONTINUOUS
10
379.557
20
-36.0217
11
379.538
21
-35.926
0
LINE
8
BLACK
6
CONTINUOUS
10
379.538
20
-35.926
11
379.538
21
-35.401
0
LINE
8
BLACK
6
CONTINUOUS
10
379.538
20
-35.401
11
379.557
21
-35.3053
0
LINE
8
BLACK
6
CONTINUOUS
10
379.557
20
-35.3053
11
379.611
21
-35.2242
0
LINE
8
BLACK
6
CONTINUOUS
10
379.611
20
-35.2242
11
379.692
21
-35.17
0
LINE
8
BLACK
6
CONTINUOUS
10
379.692
20
-35.17
11
379.788
21
-35.151
0
LINE
8
BLACK
6
CONTINUOUS
10
379.788
20
-35.151
11
380.688
21
-35.151
0
LINE
8
BLACK
6
CONTINUOUS
10
380.688
20
-35.151
11
380.784
21
-35.17
0
LINE
8
BLACK
6
CONTINUOUS
10
419.919
20
-35.4375
11
418.419
21
-35.4375
0
LINE
8
BLACK
6
CONTINUOUS
10
418.419
20
-35.4375
11
418.419
21
-34.4375
0
LINE
8
BLACK
6
CONTINUOUS
10
418.419
20
-34.4375
11
419.919
21
-34.4375
0
LINE
8
BLACK
6
CONTINUOUS
10
419.919
20
-34.4375
11
419.919
21
-35.4375
0
LINE
8
BLACK
6
CONTINUOUS
10
415.019
20
-35.4375
11
413.519
21
-35.4375
0
LINE
8
BLACK
6
CONTINUOUS
10
413.519
20
-35.4375
11
413.519
21
-34.4375
0
LINE
8
BLACK
6
CONTINUOUS
10
413.519
20
-34.4375
11
415.019
21
-34.4375
0
LINE
8
BLACK
6
CONTINUOUS
10
415.019
20
-34.4375
11
415.019
21
-35.4375
0
LINE
8
BLACK
6
CONTINUOUS
10
377.689
20
-32.4815
11
377.771
21
-32.5357
0
LINE
8
BLACK
6
CONTINUOUS
10
377.771
20
-32.5357
11
377.825
21
-32.6168
0
LINE
8
BLACK
6
CONTINUOUS
10
377.825
20
-32.6168
11
377.844
21
-32.7125
0
LINE
8
BLACK
6
CONTINUOUS
10
377.844
20
-32.7125
11
377.844
21
-33.9625
0
LINE
8
BLACK
6
CONTINUOUS
10
377.844
20
-33.9625
11
377.825
21
-34.0582
0
LINE
8
BLACK
6
CONTINUOUS
10
377.825
20
-34.0582
11
377.771
21
-34.1393
0
LINE
8
BLACK
6
CONTINUOUS
10
377.771
20
-34.1393
11
377.689
21
-34.1935
0
LINE
8
BLACK
6
CONTINUOUS
10
377.689
20
-34.1935
11
377.594
21
-34.2125
0
LINE
8
BLACK
6
CONTINUOUS
10
377.594
20
-34.2125
11
376.669
21
-34.2125
0
LINE
8
BLACK
6
CONTINUOUS
10
376.669
20
-34.2125
11
376.573
21
-34.1935
0
LINE
8
BLACK
6
CONTINUOUS
10
376.573
20
-34.1935
11
376.492
21
-34.1393
0
LINE
8
BLACK
6
CONTINUOUS
10
376.492
20
-34.1393
11
376.438
21
-34.0582
0
LINE
8
BLACK
6
CONTINUOUS
10
376.438
20
-34.0582
11
376.419
21
-33.9625
0
LINE
8
BLACK
6
CONTINUOUS
10
376.419
20
-33.9625
11
376.419
21
-32.7125
0
LINE
8
BLACK
6
CONTINUOUS
10
376.419
20
-32.7125
11
376.438
21
-32.6168
0
LINE
8
BLACK
6
CONTINUOUS
10
376.438
20
-32.6168
11
376.492
21
-32.5357
0
LINE
8
BLACK
6
CONTINUOUS
10
376.492
20
-32.5357
11
376.573
21
-32.4815
0
LINE
8
BLACK
6
CONTINUOUS
10
376.573
20
-32.4815
11
376.669
21
-32.4625
0
LINE
8
BLACK
6
CONTINUOUS
10
376.669
20
-32.4625
11
377.594
21
-32.4625
0
LINE
8
BLACK
6
CONTINUOUS
10
377.594
20
-32.4625
11
377.689
21
-32.4815
0
LINE
8
BLACK
6
CONTINUOUS
10
380.664
20
-32.4815
11
380.746
21
-32.5357
0
LINE
8
BLACK
6
CONTINUOUS
10
380.746
20
-32.5357
11
380.8
21
-32.6168
0
LINE
8
BLACK
6
CONTINUOUS
10
380.8
20
-32.6168
11
380.819
21
-32.7125
0
LINE
8
BLACK
6
CONTINUOUS
10
380.819
20
-32.7125
11
380.819
21
-33.9625
0
LINE
8
BLACK
6
CONTINUOUS
10
380.819
20
-33.9625
11
380.8
21
-34.0582
0
LINE
8
BLACK
6
CONTINUOUS
10
380.8
20
-34.0582
11
380.746
21
-34.1393
0
LINE
8
BLACK
6
CONTINUOUS
10
380.746
20
-34.1393
11
380.664
21
-34.1935
0
LINE
8
BLACK
6
CONTINUOUS
10
380.664
20
-34.1935
11
380.569
21
-34.2125
0
LINE
8
BLACK
6
CONTINUOUS
10
380.569
20
-34.2125
11
379.644
21
-34.2125
0
LINE
8
BLACK
6
CONTINUOUS
10
379.644
20
-34.2125
11
379.548
21
-34.1935
0
LINE
8
BLACK
6
CONTINUOUS
10
379.548
20
-34.1935
11
379.467
21
-34.1393
0
LINE
8
BLACK
6
CONTINUOUS
10
379.467
20
-34.1393
11
379.413
21
-34.0582
0
LINE
8
BLACK
6
CONTINUOUS
10
379.413
20
-34.0582
11
379.394
21
-33.9625
0
LINE
8
BLACK
6
CONTINUOUS
10
379.394
20
-33.9625
11
379.394
21
-32.7125
0
LINE
8
BLACK
6
CONTINUOUS
10
379.394
20
-32.7125
11
379.413
21
-32.6168
0
LINE
8
BLACK
6
CONTINUOUS
10
379.413
20
-32.6168
11
379.467
21
-32.5357
0
LINE
8
BLACK
6
CONTINUOUS
10
379.467
20
-32.5357
11
379.548
21
-32.4815
0
LINE
8
BLACK
6
CONTINUOUS
10
379.548
20
-32.4815
11
379.644
21
-32.4625
0
LINE
8
BLACK
6
CONTINUOUS
10
379.644
20
-32.4625
11
380.569
21
-32.4625
0
LINE
8
BLACK
6
CONTINUOUS
10
380.569
20
-32.4625
11
380.664
21
-32.4815
0
LINE
8
BLACK
6
CONTINUOUS
10
399.714
20
-32.4815
11
399.796
21
-32.5357
0
LINE
8
BLACK
6
CONTINUOUS
10
399.796
20
-32.5357
11
399.85
21
-32.6168
0
LINE
8
BLACK
6
CONTINUOUS
10
399.85
20
-32.6168
11
399.869
21
-32.7125
0
LINE
8
BLACK
6
CONTINUOUS
10
399.869
20
-32.7125
11
399.869
21
-33.9625
0
LINE
8
BLACK
6
CONTINUOUS
10
399.869
20
-33.9625
11
399.85
21
-34.0582
0
LINE
8
BLACK
6
CONTINUOUS
10
399.85
20
-34.0582
11
399.796
21
-34.1393
0
LINE
8
BLACK
6
CONTINUOUS
10
399.796
20
-34.1393
11
399.714
21
-34.1935
0
LINE
8
BLACK
6
CONTINUOUS
10
399.714
20
-34.1935
11
399.619
21
-34.2125
0
LINE
8
BLACK
6
CONTINUOUS
10
399.619
20
-34.2125
11
398.694
21
-34.2125
0
LINE
8
BLACK
6
CONTINUOUS
10
398.694
20
-34.2125
11
398.598
21
-34.1935
0
LINE
8
BLACK
6
CONTINUOUS
10
398.598
20
-34.1935
11
398.517
21
-34.1393
0
LINE
8
BLACK
6
CONTINUOUS
10
398.517
20
-34.1393
11
398.463
21
-34.0582
0
LINE
8
BLACK
6
CONTINUOUS
10
398.463
20
-34.0582
11
398.444
21
-33.9625
0
LINE
8
BLACK
6
CONTINUOUS
10
398.444
20
-33.9625
11
398.444
21
-32.7125
0
LINE
8
BLACK
6
CONTINUOUS
10
398.444
20
-32.7125
11
398.463
21
-32.6168
0
LINE
8
BLACK
6
CONTINUOUS
10
398.463
20
-32.6168
11
398.517
21
-32.5357
0
LINE
8
BLACK
6
CONTINUOUS
10
398.517
20
-32.5357
11
398.598
21
-32.4815
0
LINE
8
BLACK
6
CONTINUOUS
10
398.598
20
-32.4815
11
398.694
21
-32.4625
0
LINE
8
BLACK
6
CONTINUOUS
10
398.694
20
-32.4625
11
399.619
21
-32.4625
0
LINE
8
BLACK
6
CONTINUOUS
10
399.619
20
-32.4625
11
399.714
21
-32.4815
0
LINE
8
BLACK
6
CONTINUOUS
10
396.739
20
-32.4815
11
396.821
21
-32.5357
0
LINE
8
BLACK
6
CONTINUOUS
10
396.821
20
-32.5357
11
396.875
21
-32.6168
0
LINE
8
BLACK
6
CONTINUOUS
10
396.875
20
-32.6168
11
396.894
21
-32.7125
0
LINE
8
BLACK
6
CONTINUOUS
10
396.894
20
-32.7125
11
396.894
21
-33.9625
0
LINE
8
BLACK
6
CONTINUOUS
10
396.894
20
-33.9625
11
396.875
21
-34.0582
0
LINE
8
BLACK
6
CONTINUOUS
10
396.875
20
-34.0582
11
396.821
21
-34.1393
0
LINE
8
BLACK
6
CONTINUOUS
10
396.821
20
-34.1393
11
396.739
21
-34.1935
0
LINE
8
BLACK
6
CONTINUOUS
10
396.739
20
-34.1935
11
396.644
21
-34.2125
0
LINE
8
BLACK
6
CONTINUOUS
10
396.644
20
-34.2125
11
395.719
21
-34.2125
0
LINE
8
BLACK
6
CONTINUOUS
10
395.719
20
-34.2125
11
395.623
21
-34.1935
0
LINE
8
BLACK
6
CONTINUOUS
10
395.623
20
-34.1935
11
395.542
21
-34.1393
0
LINE
8
BLACK
6
CONTINUOUS
10
395.542
20
-34.1393
11
395.488
21
-34.0582
0
LINE
8
BLACK
6
CONTINUOUS
10
395.488
20
-34.0582
11
395.469
21
-33.9625
0
LINE
8
BLACK
6
CONTINUOUS
10
395.469
20
-33.9625
11
395.469
21
-32.7125
0
LINE
8
BLACK
6
CONTINUOUS
10
395.469
20
-32.7125
11
395.488
21
-32.6168
0
LINE
8
BLACK
6
CONTINUOUS
10
395.488
20
-32.6168
11
395.542
21
-32.5357
0
LINE
8
BLACK
6
CONTINUOUS
10
395.542
20
-32.5357
11
395.623
21
-32.4815
0
LINE
8
BLACK
6
CONTINUOUS
10
395.623
20
-32.4815
11
395.719
21
-32.4625
0
LINE
8
BLACK
6
CONTINUOUS
10
395.719
20
-32.4625
11
396.644
21
-32.4625
0
LINE
8
BLACK
6
CONTINUOUS
10
396.644
20
-32.4625
11
396.739
21
-32.4815
0
LINE
8
BLACK
6
CONTINUOUS
10
415.019
20
-32.2375
11
413.519
21
-32.2375
0
LINE
8
BLACK
6
CONTINUOUS
10
413.519
20
-32.2375
11
413.519
21
-31.2375
0
LINE
8
BLACK
6
CONTINUOUS
10
413.519
20
-31.2375
11
415.019
21
-31.2375
0
LINE
8
BLACK
6
CONTINUOUS
10
415.019
20
-31.2375
11
415.019
21
-32.2375
0
LINE
8
BLACK
6
CONTINUOUS
10
419.919
20
-32.2375
11
418.419
21
-32.2375
0
LINE
8
BLACK
6
CONTINUOUS
10
418.419
20
-32.2375
11
418.419
21
-31.2375
0
LINE
8
BLACK
6
CONTINUOUS
10
418.419
20
-31.2375
11
419.919
21
-31.2375
0
LINE
8
BLACK
6
CONTINUOUS
10
419.919
20
-31.2375
11
419.919
21
-32.2375
  0
ENDSEC
  0
EOF
