  0
SECTION
  2
HEADER
  9
$ANGBASE
  50
0.0
  9
$ANGDIR
  70
1
  9
$MEASUREMENT
  70
1
  0
ENDSEC
  0
SECTION
  2
TABLES
  0
TABLE
  2
LTYPE
  70
4
  0
LTYPE
  5
40F
  2
CONTINUOUS
  70
0
  3
Solid line
  72
65
  73
0
  40
0.0
  0
LTYPE
  5
410
  2
DASHDOT
 70
0
  3
Dash Dot ____ _ ____ _
 72
65
 73
4
 40
2.0
 49
1.25
 49
-0.25
 49
0.25
 49
-0.25
  0
LTYPE
  5
411
  2
DASHED
 70
0
  3
Dashed __ __ __ __ __
 72
65
 73
2
 40
0.75
 49
0.5
 49
-0.25
  0
LTYPE
  5
43B
  2
DOTTED
 70
0
  3
Dotted .  .  .  .
 72
65
 73
2
 40
0.2
 49
0.0
 49
-0.2
  0
ENDTAB
  0
TABLE
  2
STYLE
  70
4
  0
STYLE
  2
KICAD
  70
0
  40
0
  41
1
  42
1
  50
0
  71
0
  3
isocp.shx
  0
STYLE
  2
KICADB
  70
0
  40
0
  41
1
  42
1
  50
0
  71
0
  3
isocp.shx
  0
STYLE
  2
KICADI
  70
0
  40
0
  41
1
  42
1
  50
15
  71
0
  3
isocp.shx
  0
STYLE
  2
KICADBI
  70
0
  40
0
  41
1
  42
1
  50
15
  71
0
  3
isocp.shx
  0
ENDTAB
  0
TABLE
  2
LAYER
  70
1
  0
LAYER
  2
BLACK
  70
0
  62
7
  6
CONTINUOUS
  0
ENDTAB
  0
ENDSEC
  0
SECTION
  2
ENTITIES
0
LINE
8
BLACK
6
CONTINUOUS
10
298.256
20
-148.944
11
297.056
21
-148.944
0
LINE
8
BLACK
6
CONTINUOUS
10
297.056
20
-148.944
11
297.056
21
-148.044
0
LINE
8
BLACK
6
CONTINUOUS
10
297.056
20
-148.044
11
298.256
21
-148.044
0
LINE
8
BLACK
6
CONTINUOUS
10
298.256
20
-148.044
11
298.256
21
-148.944
0
LINE
8
BLACK
6
CONTINUOUS
10
336.356
20
-148.944
11
335.156
21
-148.944
0
LINE
8
BLACK
6
CONTINUOUS
10
335.156
20
-148.944
11
335.156
21
-148.044
0
LINE
8
BLACK
6
CONTINUOUS
10
335.156
20
-148.044
11
336.356
21
-148.044
0
LINE
8
BLACK
6
CONTINUOUS
10
336.356
20
-148.044
11
336.356
21
-148.944
0
LINE
8
BLACK
6
CONTINUOUS
10
317.306
20
-148.944
11
316.106
21
-148.944
0
LINE
8
BLACK
6
CONTINUOUS
10
316.106
20
-148.944
11
316.106
21
-148.044
0
LINE
8
BLACK
6
CONTINUOUS
10
316.106
20
-148.044
11
317.306
21
-148.044
0
LINE
8
BLACK
6
CONTINUOUS
10
317.306
20
-148.044
11
317.306
21
-148.944
0
LINE
8
BLACK
6
CONTINUOUS
10
298.256
20
-145.644
11
297.056
21
-145.644
0
LINE
8
BLACK
6
CONTINUOUS
10
297.056
20
-145.644
11
297.056
21
-144.744
0
LINE
8
BLACK
6
CONTINUOUS
10
297.056
20
-144.744
11
298.256
21
-144.744
0
LINE
8
BLACK
6
CONTINUOUS
10
298.256
20
-144.744
11
298.256
21
-145.644
0
LINE
8
BLACK
6
CONTINUOUS
10
336.356
20
-145.644
11
335.156
21
-145.644
0
LINE
8
BLACK
6
CONTINUOUS
10
335.156
20
-145.644
11
335.156
21
-144.744
0
LINE
8
BLACK
6
CONTINUOUS
10
335.156
20
-144.744
11
336.356
21
-144.744
0
LINE
8
BLACK
6
CONTINUOUS
10
336.356
20
-144.744
11
336.356
21
-145.644
0
LINE
8
BLACK
6
CONTINUOUS
10
317.306
20
-145.644
11
316.106
21
-145.644
0
LINE
8
BLACK
6
CONTINUOUS
10
316.106
20
-145.644
11
316.106
21
-144.744
0
LINE
8
BLACK
6
CONTINUOUS
10
316.106
20
-144.744
11
317.306
21
-144.744
0
LINE
8
BLACK
6
CONTINUOUS
10
317.306
20
-144.744
11
317.306
21
-145.644
0
LINE
8
BLACK
6
CONTINUOUS
10
255.394
20
-144.181
11
254.194
21
-144.181
0
LINE
8
BLACK
6
CONTINUOUS
10
254.194
20
-144.181
11
254.194
21
-143.281
0
LINE
8
BLACK
6
CONTINUOUS
10
254.194
20
-143.281
11
255.394
21
-143.281
0
LINE
8
BLACK
6
CONTINUOUS
10
255.394
20
-143.281
11
255.394
21
-144.181
0
LINE
8
BLACK
6
CONTINUOUS
10
74.4188
20
-144.181
11
73.2188
21
-144.181
0
LINE
8
BLACK
6
CONTINUOUS
10
73.2188
20
-144.181
11
73.2188
21
-143.281
0
LINE
8
BLACK
6
CONTINUOUS
10
73.2188
20
-143.281
11
74.4188
21
-143.281
0
LINE
8
BLACK
6
CONTINUOUS
10
74.4188
20
-143.281
11
74.4188
21
-144.181
0
LINE
8
BLACK
6
CONTINUOUS
10
388.744
20
-144.181
11
387.544
21
-144.181
0
LINE
8
BLACK
6
CONTINUOUS
10
387.544
20
-144.181
11
387.544
21
-143.281
0
LINE
8
BLACK
6
CONTINUOUS
10
387.544
20
-143.281
11
388.744
21
-143.281
0
LINE
8
BLACK
6
CONTINUOUS
10
388.744
20
-143.281
11
388.744
21
-144.181
0
LINE
8
BLACK
6
CONTINUOUS
10
236.344
20
-144.181
11
235.144
21
-144.181
0
LINE
8
BLACK
6
CONTINUOUS
10
235.144
20
-144.181
11
235.144
21
-143.281
0
LINE
8
BLACK
6
CONTINUOUS
10
235.144
20
-143.281
11
236.344
21
-143.281
0
LINE
8
BLACK
6
CONTINUOUS
10
236.344
20
-143.281
11
236.344
21
-144.181
0
LINE
8
BLACK
6
CONTINUOUS
10
98.2312
20
-144.181
11
97.0312
21
-144.181
0
LINE
8
BLACK
6
CONTINUOUS
10
97.0312
20
-144.181
11
97.0312
21
-143.281
0
LINE
8
BLACK
6
CONTINUOUS
10
97.0312
20
-143.281
11
98.2312
21
-143.281
0
LINE
8
BLACK
6
CONTINUOUS
10
98.2312
20
-143.281
11
98.2312
21
-144.181
0
LINE
8
BLACK
6
CONTINUOUS
10
407
20
-144.181
11
405.8
21
-144.181
0
LINE
8
BLACK
6
CONTINUOUS
10
405.8
20
-144.181
11
405.8
21
-143.281
0
LINE
8
BLACK
6
CONTINUOUS
10
405.8
20
-143.281
11
407
21
-143.281
0
LINE
8
BLACK
6
CONTINUOUS
10
407
20
-143.281
11
407
21
-144.181
0
LINE
8
BLACK
6
CONTINUOUS
10
168.081
20
-144.181
11
166.881
21
-144.181
0
LINE
8
BLACK
6
CONTINUOUS
10
166.881
20
-144.181
11
166.881
21
-143.281
0
LINE
8
BLACK
6
CONTINUOUS
10
166.881
20
-143.281
11
168.081
21
-143.281
0
LINE
8
BLACK
6
CONTINUOUS
10
168.081
20
-143.281
11
168.081
21
-144.181
0
LINE
8
BLACK
6
CONTINUOUS
10
274.444
20
-144.181
11
273.244
21
-144.181
0
LINE
8
BLACK
6
CONTINUOUS
10
273.244
20
-144.181
11
273.244
21
-143.281
0
LINE
8
BLACK
6
CONTINUOUS
10
273.244
20
-143.281
11
274.444
21
-143.281
0
LINE
8
BLACK
6
CONTINUOUS
10
274.444
20
-143.281
11
274.444
21
-144.181
0
LINE
8
BLACK
6
CONTINUOUS
10
50.6062
20
-144.181
11
49.4062
21
-144.181
0
LINE
8
BLACK
6
CONTINUOUS
10
49.4062
20
-144.181
11
49.4062
21
-143.281
0
LINE
8
BLACK
6
CONTINUOUS
10
49.4062
20
-143.281
11
50.6062
21
-143.281
0
LINE
8
BLACK
6
CONTINUOUS
10
50.6062
20
-143.281
11
50.6062
21
-144.181
0
LINE
8
BLACK
6
CONTINUOUS
10
98.2312
20
-140.881
11
97.0312
21
-140.881
0
LINE
8
BLACK
6
CONTINUOUS
10
97.0312
20
-140.881
11
97.0312
21
-139.981
0
LINE
8
BLACK
6
CONTINUOUS
10
97.0312
20
-139.981
11
98.2312
21
-139.981
0
LINE
8
BLACK
6
CONTINUOUS
10
98.2312
20
-139.981
11
98.2312
21
-140.881
0
LINE
8
BLACK
6
CONTINUOUS
10
50.6062
20
-140.881
11
49.4062
21
-140.881
0
LINE
8
BLACK
6
CONTINUOUS
10
49.4062
20
-140.881
11
49.4062
21
-139.981
0
LINE
8
BLACK
6
CONTINUOUS
10
49.4062
20
-139.981
11
50.6062
21
-139.981
0
LINE
8
BLACK
6
CONTINUOUS
10
50.6062
20
-139.981
11
50.6062
21
-140.881
0
LINE
8
BLACK
6
CONTINUOUS
10
255.394
20
-140.881
11
254.194
21
-140.881
0
LINE
8
BLACK
6
CONTINUOUS
10
254.194
20
-140.881
11
254.194
21
-139.981
0
LINE
8
BLACK
6
CONTINUOUS
10
254.194
20
-139.981
11
255.394
21
-139.981
0
LINE
8
BLACK
6
CONTINUOUS
10
255.394
20
-139.981
11
255.394
21
-140.881
0
LINE
8
BLACK
6
CONTINUOUS
10
407
20
-140.881
11
405.8
21
-140.881
0
LINE
8
BLACK
6
CONTINUOUS
10
405.8
20
-140.881
11
405.8
21
-139.981
0
LINE
8
BLACK
6
CONTINUOUS
10
405.8
20
-139.981
11
407
21
-139.981
0
LINE
8
BLACK
6
CONTINUOUS
10
407
20
-139.981
11
407
21
-140.881
0
LINE
8
BLACK
6
CONTINUOUS
10
168.081
20
-140.881
11
166.881
21
-140.881
0
LINE
8
BLACK
6
CONTINUOUS
10
166.881
20
-140.881
11
166.881
21
-139.981
0
LINE
8
BLACK
6
CONTINUOUS
10
166.881
20
-139.981
11
168.081
21
-139.981
0
LINE
8
BLACK
6
CONTINUOUS
10
168.081
20
-139.981
11
168.081
21
-140.881
0
LINE
8
BLACK
6
CONTINUOUS
10
236.344
20
-140.881
11
235.144
21
-140.881
0
LINE
8
BLACK
6
CONTINUOUS
10
235.144
20
-140.881
11
235.144
21
-139.981
0
LINE
8
BLACK
6
CONTINUOUS
10
235.144
20
-139.981
11
236.344
21
-139.981
0
LINE
8
BLACK
6
CONTINUOUS
10
236.344
20
-139.981
11
236.344
21
-140.881
0
LINE
8
BLACK
6
CONTINUOUS
10
388.744
20
-140.881
11
387.544
21
-140.881
0
LINE
8
BLACK
6
CONTINUOUS
10
387.544
20
-140.881
11
387.544
21
-139.981
0
LINE
8
BLACK
6
CONTINUOUS
10
387.544
20
-139.981
11
388.744
21
-139.981
0
LINE
8
BLACK
6
CONTINUOUS
10
388.744
20
-139.981
11
388.744
21
-140.881
0
LINE
8
BLACK
6
CONTINUOUS
10
74.4188
20
-140.881
11
73.2188
21
-140.881
0
LINE
8
BLACK
6
CONTINUOUS
10
73.2188
20
-140.881
11
73.2188
21
-139.981
0
LINE
8
BLACK
6
CONTINUOUS
10
73.2188
20
-139.981
11
74.4188
21
-139.981
0
LINE
8
BLACK
6
CONTINUOUS
10
74.4188
20
-139.981
11
74.4188
21
-140.881
0
LINE
8
BLACK
6
CONTINUOUS
10
274.444
20
-140.881
11
273.244
21
-140.881
0
LINE
8
BLACK
6
CONTINUOUS
10
273.244
20
-140.881
11
273.244
21
-139.981
0
LINE
8
BLACK
6
CONTINUOUS
10
273.244
20
-139.981
11
274.444
21
-139.981
0
LINE
8
BLACK
6
CONTINUOUS
10
274.444
20
-139.981
11
274.444
21
-140.881
0
LINE
8
BLACK
6
CONTINUOUS
10
317.306
20
-129.894
11
316.106
21
-129.894
0
LINE
8
BLACK
6
CONTINUOUS
10
316.106
20
-129.894
11
316.106
21
-128.994
0
LINE
8
BLACK
6
CONTINUOUS
10
316.106
20
-128.994
11
317.306
21
-128.994
0
LINE
8
BLACK
6
CONTINUOUS
10
317.306
20
-128.994
11
317.306
21
-129.894
0
LINE
8
BLACK
6
CONTINUOUS
10
317.306
20
-126.594
11
316.106
21
-126.594
0
LINE
8
BLACK
6
CONTINUOUS
10
316.106
20
-126.594
11
316.106
21
-125.694
0
LINE
8
BLACK
6
CONTINUOUS
10
316.106
20
-125.694
11
317.306
21
-125.694
0
LINE
8
BLACK
6
CONTINUOUS
10
317.306
20
-125.694
11
317.306
21
-126.594
0
LINE
8
BLACK
6
CONTINUOUS
10
203.006
20
-125.131
11
201.806
21
-125.131
0
LINE
8
BLACK
6
CONTINUOUS
10
201.806
20
-125.131
11
201.806
21
-124.231
0
LINE
8
BLACK
6
CONTINUOUS
10
201.806
20
-124.231
11
203.006
21
-124.231
0
LINE
8
BLACK
6
CONTINUOUS
10
203.006
20
-124.231
11
203.006
21
-125.131
0
LINE
8
BLACK
6
CONTINUOUS
10
107.756
20
-125.131
11
106.556
21
-125.131
0
LINE
8
BLACK
6
CONTINUOUS
10
106.556
20
-125.131
11
106.556
21
-124.231
0
LINE
8
BLACK
6
CONTINUOUS
10
106.556
20
-124.231
11
107.756
21
-124.231
0
LINE
8
BLACK
6
CONTINUOUS
10
107.756
20
-124.231
11
107.756
21
-125.131
0
LINE
8
BLACK
6
CONTINUOUS
10
388.744
20
-125.131
11
387.544
21
-125.131
0
LINE
8
BLACK
6
CONTINUOUS
10
387.544
20
-125.131
11
387.544
21
-124.231
0
LINE
8
BLACK
6
CONTINUOUS
10
387.544
20
-124.231
11
388.744
21
-124.231
0
LINE
8
BLACK
6
CONTINUOUS
10
388.744
20
-124.231
11
388.744
21
-125.131
0
LINE
8
BLACK
6
CONTINUOUS
10
164.906
20
-125.131
11
163.706
21
-125.131
0
LINE
8
BLACK
6
CONTINUOUS
10
163.706
20
-125.131
11
163.706
21
-124.231
0
LINE
8
BLACK
6
CONTINUOUS
10
163.706
20
-124.231
11
164.906
21
-124.231
0
LINE
8
BLACK
6
CONTINUOUS
10
164.906
20
-124.231
11
164.906
21
-125.131
0
LINE
8
BLACK
6
CONTINUOUS
10
222.056
20
-125.131
11
220.856
21
-125.131
0
LINE
8
BLACK
6
CONTINUOUS
10
220.856
20
-125.131
11
220.856
21
-124.231
0
LINE
8
BLACK
6
CONTINUOUS
10
220.856
20
-124.231
11
222.056
21
-124.231
0
LINE
8
BLACK
6
CONTINUOUS
10
222.056
20
-124.231
11
222.056
21
-125.131
0
LINE
8
BLACK
6
CONTINUOUS
10
407.794
20
-125.131
11
406.594
21
-125.131
0
LINE
8
BLACK
6
CONTINUOUS
10
406.594
20
-125.131
11
406.594
21
-124.231
0
LINE
8
BLACK
6
CONTINUOUS
10
406.594
20
-124.231
11
407.794
21
-124.231
0
LINE
8
BLACK
6
CONTINUOUS
10
407.794
20
-124.231
11
407.794
21
-125.131
0
LINE
8
BLACK
6
CONTINUOUS
10
293.494
20
-125.131
11
292.294
21
-125.131
0
LINE
8
BLACK
6
CONTINUOUS
10
292.294
20
-125.131
11
292.294
21
-124.231
0
LINE
8
BLACK
6
CONTINUOUS
10
292.294
20
-124.231
11
293.494
21
-124.231
0
LINE
8
BLACK
6
CONTINUOUS
10
293.494
20
-124.231
11
293.494
21
-125.131
0
LINE
8
BLACK
6
CONTINUOUS
10
241.106
20
-125.131
11
239.906
21
-125.131
0
LINE
8
BLACK
6
CONTINUOUS
10
239.906
20
-125.131
11
239.906
21
-124.231
0
LINE
8
BLACK
6
CONTINUOUS
10
239.906
20
-124.231
11
241.106
21
-124.231
0
LINE
8
BLACK
6
CONTINUOUS
10
241.106
20
-124.231
11
241.106
21
-125.131
0
LINE
8
BLACK
6
CONTINUOUS
10
69.6562
20
-125.131
11
68.4562
21
-125.131
0
LINE
8
BLACK
6
CONTINUOUS
10
68.4562
20
-125.131
11
68.4562
21
-124.231
0
LINE
8
BLACK
6
CONTINUOUS
10
68.4562
20
-124.231
11
69.6562
21
-124.231
0
LINE
8
BLACK
6
CONTINUOUS
10
69.6562
20
-124.231
11
69.6562
21
-125.131
0
LINE
8
BLACK
6
CONTINUOUS
10
183.956
20
-125.131
11
182.756
21
-125.131
0
LINE
8
BLACK
6
CONTINUOUS
10
182.756
20
-125.131
11
182.756
21
-124.231
0
LINE
8
BLACK
6
CONTINUOUS
10
182.756
20
-124.231
11
183.956
21
-124.231
0
LINE
8
BLACK
6
CONTINUOUS
10
183.956
20
-124.231
11
183.956
21
-125.131
0
LINE
8
BLACK
6
CONTINUOUS
10
145.856
20
-125.131
11
144.656
21
-125.131
0
LINE
8
BLACK
6
CONTINUOUS
10
144.656
20
-125.131
11
144.656
21
-124.231
0
LINE
8
BLACK
6
CONTINUOUS
10
144.656
20
-124.231
11
145.856
21
-124.231
0
LINE
8
BLACK
6
CONTINUOUS
10
145.856
20
-124.231
11
145.856
21
-125.131
0
LINE
8
BLACK
6
CONTINUOUS
10
88.7062
20
-125.131
11
87.5062
21
-125.131
0
LINE
8
BLACK
6
CONTINUOUS
10
87.5062
20
-125.131
11
87.5062
21
-124.231
0
LINE
8
BLACK
6
CONTINUOUS
10
87.5062
20
-124.231
11
88.7062
21
-124.231
0
LINE
8
BLACK
6
CONTINUOUS
10
88.7062
20
-124.231
11
88.7062
21
-125.131
0
LINE
8
BLACK
6
CONTINUOUS
10
126.806
20
-125.131
11
125.606
21
-125.131
0
LINE
8
BLACK
6
CONTINUOUS
10
125.606
20
-125.131
11
125.606
21
-124.231
0
LINE
8
BLACK
6
CONTINUOUS
10
125.606
20
-124.231
11
126.806
21
-124.231
0
LINE
8
BLACK
6
CONTINUOUS
10
126.806
20
-124.231
11
126.806
21
-125.131
0
LINE
8
BLACK
6
CONTINUOUS
10
341.119
20
-125.131
11
339.919
21
-125.131
0
LINE
8
BLACK
6
CONTINUOUS
10
339.919
20
-125.131
11
339.919
21
-124.231
0
LINE
8
BLACK
6
CONTINUOUS
10
339.919
20
-124.231
11
341.119
21
-124.231
0
LINE
8
BLACK
6
CONTINUOUS
10
341.119
20
-124.231
11
341.119
21
-125.131
0
LINE
8
BLACK
6
CONTINUOUS
10
260.156
20
-125.131
11
258.956
21
-125.131
0
LINE
8
BLACK
6
CONTINUOUS
10
258.956
20
-125.131
11
258.956
21
-124.231
0
LINE
8
BLACK
6
CONTINUOUS
10
258.956
20
-124.231
11
260.156
21
-124.231
0
LINE
8
BLACK
6
CONTINUOUS
10
260.156
20
-124.231
11
260.156
21
-125.131
0
LINE
8
BLACK
6
CONTINUOUS
10
369.694
20
-125.131
11
368.494
21
-125.131
0
LINE
8
BLACK
6
CONTINUOUS
10
368.494
20
-125.131
11
368.494
21
-124.231
0
LINE
8
BLACK
6
CONTINUOUS
10
368.494
20
-124.231
11
369.694
21
-124.231
0
LINE
8
BLACK
6
CONTINUOUS
10
369.694
20
-124.231
11
369.694
21
-125.131
0
LINE
8
BLACK
6
CONTINUOUS
10
426.844
20
-123.957
11
425.644
21
-123.957
0
LINE
8
BLACK
6
CONTINUOUS
10
425.644
20
-123.957
11
425.644
21
-123.057
0
LINE
8
BLACK
6
CONTINUOUS
10
425.644
20
-123.057
11
426.844
21
-123.057
0
LINE
8
BLACK
6
CONTINUOUS
10
426.844
20
-123.057
11
426.844
21
-123.957
0
LINE
8
BLACK
6
CONTINUOUS
10
107.756
20
-121.831
11
106.556
21
-121.831
0
LINE
8
BLACK
6
CONTINUOUS
10
106.556
20
-121.831
11
106.556
21
-120.931
0
LINE
8
BLACK
6
CONTINUOUS
10
106.556
20
-120.931
11
107.756
21
-120.931
0
LINE
8
BLACK
6
CONTINUOUS
10
107.756
20
-120.931
11
107.756
21
-121.831
0
LINE
8
BLACK
6
CONTINUOUS
10
203.006
20
-121.831
11
201.806
21
-121.831
0
LINE
8
BLACK
6
CONTINUOUS
10
201.806
20
-121.831
11
201.806
21
-120.931
0
LINE
8
BLACK
6
CONTINUOUS
10
201.806
20
-120.931
11
203.006
21
-120.931
0
LINE
8
BLACK
6
CONTINUOUS
10
203.006
20
-120.931
11
203.006
21
-121.831
0
LINE
8
BLACK
6
CONTINUOUS
10
388.744
20
-121.831
11
387.544
21
-121.831
0
LINE
8
BLACK
6
CONTINUOUS
10
387.544
20
-121.831
11
387.544
21
-120.931
0
LINE
8
BLACK
6
CONTINUOUS
10
387.544
20
-120.931
11
388.744
21
-120.931
0
LINE
8
BLACK
6
CONTINUOUS
10
388.744
20
-120.931
11
388.744
21
-121.831
0
LINE
8
BLACK
6
CONTINUOUS
10
407.794
20
-121.831
11
406.594
21
-121.831
0
LINE
8
BLACK
6
CONTINUOUS
10
406.594
20
-121.831
11
406.594
21
-120.931
0
LINE
8
BLACK
6
CONTINUOUS
10
406.594
20
-120.931
11
407.794
21
-120.931
0
LINE
8
BLACK
6
CONTINUOUS
10
407.794
20
-120.931
11
407.794
21
-121.831
0
LINE
8
BLACK
6
CONTINUOUS
10
164.906
20
-121.831
11
163.706
21
-121.831
0
LINE
8
BLACK
6
CONTINUOUS
10
163.706
20
-121.831
11
163.706
21
-120.931
0
LINE
8
BLACK
6
CONTINUOUS
10
163.706
20
-120.931
11
164.906
21
-120.931
0
LINE
8
BLACK
6
CONTINUOUS
10
164.906
20
-120.931
11
164.906
21
-121.831
0
LINE
8
BLACK
6
CONTINUOUS
10
126.806
20
-121.831
11
125.606
21
-121.831
0
LINE
8
BLACK
6
CONTINUOUS
10
125.606
20
-121.831
11
125.606
21
-120.931
0
LINE
8
BLACK
6
CONTINUOUS
10
125.606
20
-120.931
11
126.806
21
-120.931
0
LINE
8
BLACK
6
CONTINUOUS
10
126.806
20
-120.931
11
126.806
21
-121.831
0
LINE
8
BLACK
6
CONTINUOUS
10
222.056
20
-121.831
11
220.856
21
-121.831
0
LINE
8
BLACK
6
CONTINUOUS
10
220.856
20
-121.831
11
220.856
21
-120.931
0
LINE
8
BLACK
6
CONTINUOUS
10
220.856
20
-120.931
11
222.056
21
-120.931
0
LINE
8
BLACK
6
CONTINUOUS
10
222.056
20
-120.931
11
222.056
21
-121.831
0
LINE
8
BLACK
6
CONTINUOUS
10
260.156
20
-121.831
11
258.956
21
-121.831
0
LINE
8
BLACK
6
CONTINUOUS
10
258.956
20
-121.831
11
258.956
21
-120.931
0
LINE
8
BLACK
6
CONTINUOUS
10
258.956
20
-120.931
11
260.156
21
-120.931
0
LINE
8
BLACK
6
CONTINUOUS
10
260.156
20
-120.931
11
260.156
21
-121.831
0
LINE
8
BLACK
6
CONTINUOUS
10
293.494
20
-121.831
11
292.294
21
-121.831
0
LINE
8
BLACK
6
CONTINUOUS
10
292.294
20
-121.831
11
292.294
21
-120.931
0
LINE
8
BLACK
6
CONTINUOUS
10
292.294
20
-120.931
11
293.494
21
-120.931
0
LINE
8
BLACK
6
CONTINUOUS
10
293.494
20
-120.931
11
293.494
21
-121.831
0
LINE
8
BLACK
6
CONTINUOUS
10
88.7062
20
-121.831
11
87.5062
21
-121.831
0
LINE
8
BLACK
6
CONTINUOUS
10
87.5062
20
-121.831
11
87.5062
21
-120.931
0
LINE
8
BLACK
6
CONTINUOUS
10
87.5062
20
-120.931
11
88.7062
21
-120.931
0
LINE
8
BLACK
6
CONTINUOUS
10
88.7062
20
-120.931
11
88.7062
21
-121.831
0
LINE
8
BLACK
6
CONTINUOUS
10
241.106
20
-121.831
11
239.906
21
-121.831
0
LINE
8
BLACK
6
CONTINUOUS
10
239.906
20
-121.831
11
239.906
21
-120.931
0
LINE
8
BLACK
6
CONTINUOUS
10
239.906
20
-120.931
11
241.106
21
-120.931
0
LINE
8
BLACK
6
CONTINUOUS
10
241.106
20
-120.931
11
241.106
21
-121.831
0
LINE
8
BLACK
6
CONTINUOUS
10
369.694
20
-121.831
11
368.494
21
-121.831
0
LINE
8
BLACK
6
CONTINUOUS
10
368.494
20
-121.831
11
368.494
21
-120.931
0
LINE
8
BLACK
6
CONTINUOUS
10
368.494
20
-120.931
11
369.694
21
-120.931
0
LINE
8
BLACK
6
CONTINUOUS
10
369.694
20
-120.931
11
369.694
21
-121.831
0
LINE
8
BLACK
6
CONTINUOUS
10
183.956
20
-121.831
11
182.756
21
-121.831
0
LINE
8
BLACK
6
CONTINUOUS
10
182.756
20
-121.831
11
182.756
21
-120.931
0
LINE
8
BLACK
6
CONTINUOUS
10
182.756
20
-120.931
11
183.956
21
-120.931
0
LINE
8
BLACK
6
CONTINUOUS
10
183.956
20
-120.931
11
183.956
21
-121.831
0
LINE
8
BLACK
6
CONTINUOUS
10
341.119
20
-121.831
11
339.919
21
-121.831
0
LINE
8
BLACK
6
CONTINUOUS
10
339.919
20
-121.831
11
339.919
21
-120.931
0
LINE
8
BLACK
6
CONTINUOUS
10
339.919
20
-120.931
11
341.119
21
-120.931
0
LINE
8
BLACK
6
CONTINUOUS
10
341.119
20
-120.931
11
341.119
21
-121.831
0
LINE
8
BLACK
6
CONTINUOUS
10
69.6562
20
-121.831
11
68.4562
21
-121.831
0
LINE
8
BLACK
6
CONTINUOUS
10
68.4562
20
-121.831
11
68.4562
21
-120.931
0
LINE
8
BLACK
6
CONTINUOUS
10
68.4562
20
-120.931
11
69.6562
21
-120.931
0
LINE
8
BLACK
6
CONTINUOUS
10
69.6562
20
-120.931
11
69.6562
21
-121.831
0
LINE
8
BLACK
6
CONTINUOUS
10
145.856
20
-121.831
11
144.656
21
-121.831
0
LINE
8
BLACK
6
CONTINUOUS
10
144.656
20
-121.831
11
144.656
21
-120.931
0
LINE
8
BLACK
6
CONTINUOUS
10
144.656
20
-120.931
11
145.856
21
-120.931
0
LINE
8
BLACK
6
CONTINUOUS
10
145.856
20
-120.931
11
145.856
21
-121.831
0
LINE
8
BLACK
6
CONTINUOUS
10
426.844
20
-120.657
11
425.644
21
-120.657
0
LINE
8
BLACK
6
CONTINUOUS
10
425.644
20
-120.657
11
425.644
21
-119.757
0
LINE
8
BLACK
6
CONTINUOUS
10
425.644
20
-119.757
11
426.844
21
-119.757
0
LINE
8
BLACK
6
CONTINUOUS
10
426.844
20
-119.757
11
426.844
21
-120.657
0
LINE
8
BLACK
6
CONTINUOUS
10
174.431
20
-106.081
11
173.231
21
-106.081
0
LINE
8
BLACK
6
CONTINUOUS
10
173.231
20
-106.081
11
173.231
21
-105.181
0
LINE
8
BLACK
6
CONTINUOUS
10
173.231
20
-105.181
11
174.431
21
-105.181
0
LINE
8
BLACK
6
CONTINUOUS
10
174.431
20
-105.181
11
174.431
21
-106.081
0
LINE
8
BLACK
6
CONTINUOUS
10
269.681
20
-106.081
11
268.481
21
-106.081
0
LINE
8
BLACK
6
CONTINUOUS
10
268.481
20
-106.081
11
268.481
21
-105.181
0
LINE
8
BLACK
6
CONTINUOUS
10
268.481
20
-105.181
11
269.681
21
-105.181
0
LINE
8
BLACK
6
CONTINUOUS
10
269.681
20
-105.181
11
269.681
21
-106.081
0
LINE
8
BLACK
6
CONTINUOUS
10
250.631
20
-106.081
11
249.431
21
-106.081
0
LINE
8
BLACK
6
CONTINUOUS
10
249.431
20
-106.081
11
249.431
21
-105.181
0
LINE
8
BLACK
6
CONTINUOUS
10
249.431
20
-105.181
11
250.631
21
-105.181
0
LINE
8
BLACK
6
CONTINUOUS
10
250.631
20
-105.181
11
250.631
21
-106.081
0
LINE
8
BLACK
6
CONTINUOUS
10
231.581
20
-106.081
11
230.381
21
-106.081
0
LINE
8
BLACK
6
CONTINUOUS
10
230.381
20
-106.081
11
230.381
21
-105.181
0
LINE
8
BLACK
6
CONTINUOUS
10
230.381
20
-105.181
11
231.581
21
-105.181
0
LINE
8
BLACK
6
CONTINUOUS
10
231.581
20
-105.181
11
231.581
21
-106.081
0
LINE
8
BLACK
6
CONTINUOUS
10
155.381
20
-106.081
11
154.181
21
-106.081
0
LINE
8
BLACK
6
CONTINUOUS
10
154.181
20
-106.081
11
154.181
21
-105.181
0
LINE
8
BLACK
6
CONTINUOUS
10
154.181
20
-105.181
11
155.381
21
-105.181
0
LINE
8
BLACK
6
CONTINUOUS
10
155.381
20
-105.181
11
155.381
21
-106.081
0
LINE
8
BLACK
6
CONTINUOUS
10
212.531
20
-106.081
11
211.331
21
-106.081
0
LINE
8
BLACK
6
CONTINUOUS
10
211.331
20
-106.081
11
211.331
21
-105.181
0
LINE
8
BLACK
6
CONTINUOUS
10
211.331
20
-105.181
11
212.531
21
-105.181
0
LINE
8
BLACK
6
CONTINUOUS
10
212.531
20
-105.181
11
212.531
21
-106.081
0
LINE
8
BLACK
6
CONTINUOUS
10
407
20
-106.081
11
405.8
21
-106.081
0
LINE
8
BLACK
6
CONTINUOUS
10
405.8
20
-106.081
11
405.8
21
-105.181
0
LINE
8
BLACK
6
CONTINUOUS
10
405.8
20
-105.181
11
407
21
-105.181
0
LINE
8
BLACK
6
CONTINUOUS
10
407
20
-105.181
11
407
21
-106.081
0
LINE
8
BLACK
6
CONTINUOUS
10
60.1312
20
-106.081
11
58.9312
21
-106.081
0
LINE
8
BLACK
6
CONTINUOUS
10
58.9312
20
-106.081
11
58.9312
21
-105.181
0
LINE
8
BLACK
6
CONTINUOUS
10
58.9312
20
-105.181
11
60.1312
21
-105.181
0
LINE
8
BLACK
6
CONTINUOUS
10
60.1312
20
-105.181
11
60.1312
21
-106.081
0
LINE
8
BLACK
6
CONTINUOUS
10
312.544
20
-106.081
11
311.344
21
-106.081
0
LINE
8
BLACK
6
CONTINUOUS
10
311.344
20
-106.081
11
311.344
21
-105.181
0
LINE
8
BLACK
6
CONTINUOUS
10
311.344
20
-105.181
11
312.544
21
-105.181
0
LINE
8
BLACK
6
CONTINUOUS
10
312.544
20
-105.181
11
312.544
21
-106.081
0
LINE
8
BLACK
6
CONTINUOUS
10
117.281
20
-106.081
11
116.081
21
-106.081
0
LINE
8
BLACK
6
CONTINUOUS
10
116.081
20
-106.081
11
116.081
21
-105.181
0
LINE
8
BLACK
6
CONTINUOUS
10
116.081
20
-105.181
11
117.281
21
-105.181
0
LINE
8
BLACK
6
CONTINUOUS
10
117.281
20
-105.181
11
117.281
21
-106.081
0
LINE
8
BLACK
6
CONTINUOUS
10
79.1812
20
-106.081
11
77.9813
21
-106.081
0
LINE
8
BLACK
6
CONTINUOUS
10
77.9813
20
-106.081
11
77.9813
21
-105.181
0
LINE
8
BLACK
6
CONTINUOUS
10
77.9813
20
-105.181
11
79.1812
21
-105.181
0
LINE
8
BLACK
6
CONTINUOUS
10
79.1812
20
-105.181
11
79.1812
21
-106.081
0
LINE
8
BLACK
6
CONTINUOUS
10
388.744
20
-106.081
11
387.544
21
-106.081
0
LINE
8
BLACK
6
CONTINUOUS
10
387.544
20
-106.081
11
387.544
21
-105.181
0
LINE
8
BLACK
6
CONTINUOUS
10
387.544
20
-105.181
11
388.744
21
-105.181
0
LINE
8
BLACK
6
CONTINUOUS
10
388.744
20
-105.181
11
388.744
21
-106.081
0
LINE
8
BLACK
6
CONTINUOUS
10
369.694
20
-106.081
11
368.494
21
-106.081
0
LINE
8
BLACK
6
CONTINUOUS
10
368.494
20
-106.081
11
368.494
21
-105.181
0
LINE
8
BLACK
6
CONTINUOUS
10
368.494
20
-105.181
11
369.694
21
-105.181
0
LINE
8
BLACK
6
CONTINUOUS
10
369.694
20
-105.181
11
369.694
21
-106.081
0
LINE
8
BLACK
6
CONTINUOUS
10
98.2312
20
-106.081
11
97.0312
21
-106.081
0
LINE
8
BLACK
6
CONTINUOUS
10
97.0312
20
-106.081
11
97.0312
21
-105.181
0
LINE
8
BLACK
6
CONTINUOUS
10
97.0312
20
-105.181
11
98.2312
21
-105.181
0
LINE
8
BLACK
6
CONTINUOUS
10
98.2312
20
-105.181
11
98.2312
21
-106.081
0
LINE
8
BLACK
6
CONTINUOUS
10
136.331
20
-106.081
11
135.131
21
-106.081
0
LINE
8
BLACK
6
CONTINUOUS
10
135.131
20
-106.081
11
135.131
21
-105.181
0
LINE
8
BLACK
6
CONTINUOUS
10
135.131
20
-105.181
11
136.331
21
-105.181
0
LINE
8
BLACK
6
CONTINUOUS
10
136.331
20
-105.181
11
136.331
21
-106.081
0
LINE
8
BLACK
6
CONTINUOUS
10
341.119
20
-106.081
11
339.919
21
-106.081
0
LINE
8
BLACK
6
CONTINUOUS
10
339.919
20
-106.081
11
339.919
21
-105.181
0
LINE
8
BLACK
6
CONTINUOUS
10
339.919
20
-105.181
11
341.119
21
-105.181
0
LINE
8
BLACK
6
CONTINUOUS
10
341.119
20
-105.181
11
341.119
21
-106.081
0
LINE
8
BLACK
6
CONTINUOUS
10
193.481
20
-106.081
11
192.281
21
-106.081
0
LINE
8
BLACK
6
CONTINUOUS
10
192.281
20
-106.081
11
192.281
21
-105.181
0
LINE
8
BLACK
6
CONTINUOUS
10
192.281
20
-105.181
11
193.481
21
-105.181
0
LINE
8
BLACK
6
CONTINUOUS
10
193.481
20
-105.181
11
193.481
21
-106.081
0
LINE
8
BLACK
6
CONTINUOUS
10
212.531
20
-102.781
11
211.331
21
-102.781
0
LINE
8
BLACK
6
CONTINUOUS
10
211.331
20
-102.781
11
211.331
21
-101.881
0
LINE
8
BLACK
6
CONTINUOUS
10
211.331
20
-101.881
11
212.531
21
-101.881
0
LINE
8
BLACK
6
CONTINUOUS
10
212.531
20
-101.881
11
212.531
21
-102.781
0
LINE
8
BLACK
6
CONTINUOUS
10
79.1812
20
-102.781
11
77.9813
21
-102.781
0
LINE
8
BLACK
6
CONTINUOUS
10
77.9813
20
-102.781
11
77.9813
21
-101.881
0
LINE
8
BLACK
6
CONTINUOUS
10
77.9813
20
-101.881
11
79.1812
21
-101.881
0
LINE
8
BLACK
6
CONTINUOUS
10
79.1812
20
-101.881
11
79.1812
21
-102.781
0
LINE
8
BLACK
6
CONTINUOUS
10
369.694
20
-102.781
11
368.494
21
-102.781
0
LINE
8
BLACK
6
CONTINUOUS
10
368.494
20
-102.781
11
368.494
21
-101.881
0
LINE
8
BLACK
6
CONTINUOUS
10
368.494
20
-101.881
11
369.694
21
-101.881
0
LINE
8
BLACK
6
CONTINUOUS
10
369.694
20
-101.881
11
369.694
21
-102.781
0
LINE
8
BLACK
6
CONTINUOUS
10
117.281
20
-102.781
11
116.081
21
-102.781
0
LINE
8
BLACK
6
CONTINUOUS
10
116.081
20
-102.781
11
116.081
21
-101.881
0
LINE
8
BLACK
6
CONTINUOUS
10
116.081
20
-101.881
11
117.281
21
-101.881
0
LINE
8
BLACK
6
CONTINUOUS
10
117.281
20
-101.881
11
117.281
21
-102.781
0
LINE
8
BLACK
6
CONTINUOUS
10
388.744
20
-102.781
11
387.544
21
-102.781
0
LINE
8
BLACK
6
CONTINUOUS
10
387.544
20
-102.781
11
387.544
21
-101.881
0
LINE
8
BLACK
6
CONTINUOUS
10
387.544
20
-101.881
11
388.744
21
-101.881
0
LINE
8
BLACK
6
CONTINUOUS
10
388.744
20
-101.881
11
388.744
21
-102.781
0
LINE
8
BLACK
6
CONTINUOUS
10
155.381
20
-102.781
11
154.181
21
-102.781
0
LINE
8
BLACK
6
CONTINUOUS
10
154.181
20
-102.781
11
154.181
21
-101.881
0
LINE
8
BLACK
6
CONTINUOUS
10
154.181
20
-101.881
11
155.381
21
-101.881
0
LINE
8
BLACK
6
CONTINUOUS
10
155.381
20
-101.881
11
155.381
21
-102.781
0
LINE
8
BLACK
6
CONTINUOUS
10
269.681
20
-102.781
11
268.481
21
-102.781
0
LINE
8
BLACK
6
CONTINUOUS
10
268.481
20
-102.781
11
268.481
21
-101.881
0
LINE
8
BLACK
6
CONTINUOUS
10
268.481
20
-101.881
11
269.681
21
-101.881
0
LINE
8
BLACK
6
CONTINUOUS
10
269.681
20
-101.881
11
269.681
21
-102.781
0
LINE
8
BLACK
6
CONTINUOUS
10
407
20
-102.781
11
405.8
21
-102.781
0
LINE
8
BLACK
6
CONTINUOUS
10
405.8
20
-102.781
11
405.8
21
-101.881
0
LINE
8
BLACK
6
CONTINUOUS
10
405.8
20
-101.881
11
407
21
-101.881
0
LINE
8
BLACK
6
CONTINUOUS
10
407
20
-101.881
11
407
21
-102.781
0
LINE
8
BLACK
6
CONTINUOUS
10
174.431
20
-102.781
11
173.231
21
-102.781
0
LINE
8
BLACK
6
CONTINUOUS
10
173.231
20
-102.781
11
173.231
21
-101.881
0
LINE
8
BLACK
6
CONTINUOUS
10
173.231
20
-101.881
11
174.431
21
-101.881
0
LINE
8
BLACK
6
CONTINUOUS
10
174.431
20
-101.881
11
174.431
21
-102.781
0
LINE
8
BLACK
6
CONTINUOUS
10
193.481
20
-102.781
11
192.281
21
-102.781
0
LINE
8
BLACK
6
CONTINUOUS
10
192.281
20
-102.781
11
192.281
21
-101.881
0
LINE
8
BLACK
6
CONTINUOUS
10
192.281
20
-101.881
11
193.481
21
-101.881
0
LINE
8
BLACK
6
CONTINUOUS
10
193.481
20
-101.881
11
193.481
21
-102.781
0
LINE
8
BLACK
6
CONTINUOUS
10
231.581
20
-102.781
11
230.381
21
-102.781
0
LINE
8
BLACK
6
CONTINUOUS
10
230.381
20
-102.781
11
230.381
21
-101.881
0
LINE
8
BLACK
6
CONTINUOUS
10
230.381
20
-101.881
11
231.581
21
-101.881
0
LINE
8
BLACK
6
CONTINUOUS
10
231.581
20
-101.881
11
231.581
21
-102.781
0
LINE
8
BLACK
6
CONTINUOUS
10
60.1312
20
-102.781
11
58.9312
21
-102.781
0
LINE
8
BLACK
6
CONTINUOUS
10
58.9312
20
-102.781
11
58.9312
21
-101.881
0
LINE
8
BLACK
6
CONTINUOUS
10
58.9312
20
-101.881
11
60.1312
21
-101.881
0
LINE
8
BLACK
6
CONTINUOUS
10
60.1312
20
-101.881
11
60.1312
21
-102.781
0
LINE
8
BLACK
6
CONTINUOUS
10
98.2312
20
-102.781
11
97.0312
21
-102.781
0
LINE
8
BLACK
6
CONTINUOUS
10
97.0312
20
-102.781
11
97.0312
21
-101.881
0
LINE
8
BLACK
6
CONTINUOUS
10
97.0312
20
-101.881
11
98.2312
21
-101.881
0
LINE
8
BLACK
6
CONTINUOUS
10
98.2312
20
-101.881
11
98.2312
21
-102.781
0
LINE
8
BLACK
6
CONTINUOUS
10
250.631
20
-102.781
11
249.431
21
-102.781
0
LINE
8
BLACK
6
CONTINUOUS
10
249.431
20
-102.781
11
249.431
21
-101.881
0
LINE
8
BLACK
6
CONTINUOUS
10
249.431
20
-101.881
11
250.631
21
-101.881
0
LINE
8
BLACK
6
CONTINUOUS
10
250.631
20
-101.881
11
250.631
21
-102.781
0
LINE
8
BLACK
6
CONTINUOUS
10
312.544
20
-102.781
11
311.344
21
-102.781
0
LINE
8
BLACK
6
CONTINUOUS
10
311.344
20
-102.781
11
311.344
21
-101.881
0
LINE
8
BLACK
6
CONTINUOUS
10
311.344
20
-101.881
11
312.544
21
-101.881
0
LINE
8
BLACK
6
CONTINUOUS
10
312.544
20
-101.881
11
312.544
21
-102.781
0
LINE
8
BLACK
6
CONTINUOUS
10
341.119
20
-102.781
11
339.919
21
-102.781
0
LINE
8
BLACK
6
CONTINUOUS
10
339.919
20
-102.781
11
339.919
21
-101.881
0
LINE
8
BLACK
6
CONTINUOUS
10
339.919
20
-101.881
11
341.119
21
-101.881
0
LINE
8
BLACK
6
CONTINUOUS
10
341.119
20
-101.881
11
341.119
21
-102.781
0
LINE
8
BLACK
6
CONTINUOUS
10
136.331
20
-102.781
11
135.131
21
-102.781
0
LINE
8
BLACK
6
CONTINUOUS
10
135.131
20
-102.781
11
135.131
21
-101.881
0
LINE
8
BLACK
6
CONTINUOUS
10
135.131
20
-101.881
11
136.331
21
-101.881
0
LINE
8
BLACK
6
CONTINUOUS
10
136.331
20
-101.881
11
136.331
21
-102.781
0
LINE
8
BLACK
6
CONTINUOUS
10
426.844
20
-96.5562
11
425.644
21
-96.5562
0
LINE
8
BLACK
6
CONTINUOUS
10
425.644
20
-96.5562
11
425.644
21
-95.6562
0
LINE
8
BLACK
6
CONTINUOUS
10
425.644
20
-95.6562
11
426.844
21
-95.6562
0
LINE
8
BLACK
6
CONTINUOUS
10
426.844
20
-95.6562
11
426.844
21
-96.5562
0
LINE
8
BLACK
6
CONTINUOUS
10
426.844
20
-93.2562
11
425.644
21
-93.2562
0
LINE
8
BLACK
6
CONTINUOUS
10
425.644
20
-93.2562
11
425.644
21
-92.3563
0
LINE
8
BLACK
6
CONTINUOUS
10
425.644
20
-92.3563
11
426.844
21
-92.3563
0
LINE
8
BLACK
6
CONTINUOUS
10
426.844
20
-92.3563
11
426.844
21
-93.2562
0
LINE
8
BLACK
6
CONTINUOUS
10
74.4188
20
-87.0312
11
73.2188
21
-87.0312
0
LINE
8
BLACK
6
CONTINUOUS
10
73.2188
20
-87.0312
11
73.2188
21
-86.1312
0
LINE
8
BLACK
6
CONTINUOUS
10
73.2188
20
-86.1312
11
74.4188
21
-86.1312
0
LINE
8
BLACK
6
CONTINUOUS
10
74.4188
20
-86.1312
11
74.4188
21
-87.0312
0
LINE
8
BLACK
6
CONTINUOUS
10
407.794
20
-87.0312
11
406.594
21
-87.0312
0
LINE
8
BLACK
6
CONTINUOUS
10
406.594
20
-87.0312
11
406.594
21
-86.1312
0
LINE
8
BLACK
6
CONTINUOUS
10
406.594
20
-86.1312
11
407.794
21
-86.1312
0
LINE
8
BLACK
6
CONTINUOUS
10
407.794
20
-86.1312
11
407.794
21
-87.0312
0
LINE
8
BLACK
6
CONTINUOUS
10
169.669
20
-87.0312
11
168.469
21
-87.0312
0
LINE
8
BLACK
6
CONTINUOUS
10
168.469
20
-87.0312
11
168.469
21
-86.1312
0
LINE
8
BLACK
6
CONTINUOUS
10
168.469
20
-86.1312
11
169.669
21
-86.1312
0
LINE
8
BLACK
6
CONTINUOUS
10
169.669
20
-86.1312
11
169.669
21
-87.0312
0
LINE
8
BLACK
6
CONTINUOUS
10
245.869
20
-87.0312
11
244.669
21
-87.0312
0
LINE
8
BLACK
6
CONTINUOUS
10
244.669
20
-87.0312
11
244.669
21
-86.1312
0
LINE
8
BLACK
6
CONTINUOUS
10
244.669
20
-86.1312
11
245.869
21
-86.1312
0
LINE
8
BLACK
6
CONTINUOUS
10
245.869
20
-86.1312
11
245.869
21
-87.0312
0
LINE
8
BLACK
6
CONTINUOUS
10
264.919
20
-87.0312
11
263.719
21
-87.0312
0
LINE
8
BLACK
6
CONTINUOUS
10
263.719
20
-87.0312
11
263.719
21
-86.1312
0
LINE
8
BLACK
6
CONTINUOUS
10
263.719
20
-86.1312
11
264.919
21
-86.1312
0
LINE
8
BLACK
6
CONTINUOUS
10
264.919
20
-86.1312
11
264.919
21
-87.0312
0
LINE
8
BLACK
6
CONTINUOUS
10
188.719
20
-87.0312
11
187.519
21
-87.0312
0
LINE
8
BLACK
6
CONTINUOUS
10
187.519
20
-87.0312
11
187.519
21
-86.1312
0
LINE
8
BLACK
6
CONTINUOUS
10
187.519
20
-86.1312
11
188.719
21
-86.1312
0
LINE
8
BLACK
6
CONTINUOUS
10
188.719
20
-86.1312
11
188.719
21
-87.0312
0
LINE
8
BLACK
6
CONTINUOUS
10
312.544
20
-87.0312
11
311.344
21
-87.0312
0
LINE
8
BLACK
6
CONTINUOUS
10
311.344
20
-87.0312
11
311.344
21
-86.1312
0
LINE
8
BLACK
6
CONTINUOUS
10
311.344
20
-86.1312
11
312.544
21
-86.1312
0
LINE
8
BLACK
6
CONTINUOUS
10
312.544
20
-86.1312
11
312.544
21
-87.0312
0
LINE
8
BLACK
6
CONTINUOUS
10
388.744
20
-87.0312
11
387.544
21
-87.0312
0
LINE
8
BLACK
6
CONTINUOUS
10
387.544
20
-87.0312
11
387.544
21
-86.1312
0
LINE
8
BLACK
6
CONTINUOUS
10
387.544
20
-86.1312
11
388.744
21
-86.1312
0
LINE
8
BLACK
6
CONTINUOUS
10
388.744
20
-86.1312
11
388.744
21
-87.0312
0
LINE
8
BLACK
6
CONTINUOUS
10
369.694
20
-87.0312
11
368.494
21
-87.0312
0
LINE
8
BLACK
6
CONTINUOUS
10
368.494
20
-87.0312
11
368.494
21
-86.1312
0
LINE
8
BLACK
6
CONTINUOUS
10
368.494
20
-86.1312
11
369.694
21
-86.1312
0
LINE
8
BLACK
6
CONTINUOUS
10
369.694
20
-86.1312
11
369.694
21
-87.0312
0
LINE
8
BLACK
6
CONTINUOUS
10
283.969
20
-87.0312
11
282.769
21
-87.0312
0
LINE
8
BLACK
6
CONTINUOUS
10
282.769
20
-87.0312
11
282.769
21
-86.1312
0
LINE
8
BLACK
6
CONTINUOUS
10
282.769
20
-86.1312
11
283.969
21
-86.1312
0
LINE
8
BLACK
6
CONTINUOUS
10
283.969
20
-86.1312
11
283.969
21
-87.0312
0
LINE
8
BLACK
6
CONTINUOUS
10
93.4688
20
-87.0312
11
92.2687
21
-87.0312
0
LINE
8
BLACK
6
CONTINUOUS
10
92.2687
20
-87.0312
11
92.2687
21
-86.1312
0
LINE
8
BLACK
6
CONTINUOUS
10
92.2687
20
-86.1312
11
93.4688
21
-86.1312
0
LINE
8
BLACK
6
CONTINUOUS
10
93.4688
20
-86.1312
11
93.4688
21
-87.0312
0
LINE
8
BLACK
6
CONTINUOUS
10
112.519
20
-87.0312
11
111.319
21
-87.0312
0
LINE
8
BLACK
6
CONTINUOUS
10
111.319
20
-87.0312
11
111.319
21
-86.1312
0
LINE
8
BLACK
6
CONTINUOUS
10
111.319
20
-86.1312
11
112.519
21
-86.1312
0
LINE
8
BLACK
6
CONTINUOUS
10
112.519
20
-86.1312
11
112.519
21
-87.0312
0
LINE
8
BLACK
6
CONTINUOUS
10
226.819
20
-87.0312
11
225.619
21
-87.0312
0
LINE
8
BLACK
6
CONTINUOUS
10
225.619
20
-87.0312
11
225.619
21
-86.1312
0
LINE
8
BLACK
6
CONTINUOUS
10
225.619
20
-86.1312
11
226.819
21
-86.1312
0
LINE
8
BLACK
6
CONTINUOUS
10
226.819
20
-86.1312
11
226.819
21
-87.0312
0
LINE
8
BLACK
6
CONTINUOUS
10
207.769
20
-87.0312
11
206.569
21
-87.0312
0
LINE
8
BLACK
6
CONTINUOUS
10
206.569
20
-87.0312
11
206.569
21
-86.1312
0
LINE
8
BLACK
6
CONTINUOUS
10
206.569
20
-86.1312
11
207.769
21
-86.1312
0
LINE
8
BLACK
6
CONTINUOUS
10
207.769
20
-86.1312
11
207.769
21
-87.0312
0
LINE
8
BLACK
6
CONTINUOUS
10
341.119
20
-87.0312
11
339.919
21
-87.0312
0
LINE
8
BLACK
6
CONTINUOUS
10
339.919
20
-87.0312
11
339.919
21
-86.1312
0
LINE
8
BLACK
6
CONTINUOUS
10
339.919
20
-86.1312
11
341.119
21
-86.1312
0
LINE
8
BLACK
6
CONTINUOUS
10
341.119
20
-86.1312
11
341.119
21
-87.0312
0
LINE
8
BLACK
6
CONTINUOUS
10
150.619
20
-87.0312
11
149.419
21
-87.0312
0
LINE
8
BLACK
6
CONTINUOUS
10
149.419
20
-87.0312
11
149.419
21
-86.1312
0
LINE
8
BLACK
6
CONTINUOUS
10
149.419
20
-86.1312
11
150.619
21
-86.1312
0
LINE
8
BLACK
6
CONTINUOUS
10
150.619
20
-86.1312
11
150.619
21
-87.0312
0
LINE
8
BLACK
6
CONTINUOUS
10
131.569
20
-87.0312
11
130.369
21
-87.0312
0
LINE
8
BLACK
6
CONTINUOUS
10
130.369
20
-87.0312
11
130.369
21
-86.1312
0
LINE
8
BLACK
6
CONTINUOUS
10
130.369
20
-86.1312
11
131.569
21
-86.1312
0
LINE
8
BLACK
6
CONTINUOUS
10
131.569
20
-86.1312
11
131.569
21
-87.0312
0
LINE
8
BLACK
6
CONTINUOUS
10
55.3687
20
-87.0312
11
54.1687
21
-87.0312
0
LINE
8
BLACK
6
CONTINUOUS
10
54.1687
20
-87.0312
11
54.1687
21
-86.1312
0
LINE
8
BLACK
6
CONTINUOUS
10
54.1687
20
-86.1312
11
55.3687
21
-86.1312
0
LINE
8
BLACK
6
CONTINUOUS
10
55.3687
20
-86.1312
11
55.3687
21
-87.0312
0
LINE
8
BLACK
6
CONTINUOUS
10
131.569
20
-83.7313
11
130.369
21
-83.7313
0
LINE
8
BLACK
6
CONTINUOUS
10
130.369
20
-83.7313
11
130.369
21
-82.8312
0
LINE
8
BLACK
6
CONTINUOUS
10
130.369
20
-82.8312
11
131.569
21
-82.8312
0
LINE
8
BLACK
6
CONTINUOUS
10
131.569
20
-82.8312
11
131.569
21
-83.7313
0
LINE
8
BLACK
6
CONTINUOUS
10
207.769
20
-83.7313
11
206.569
21
-83.7313
0
LINE
8
BLACK
6
CONTINUOUS
10
206.569
20
-83.7313
11
206.569
21
-82.8312
0
LINE
8
BLACK
6
CONTINUOUS
10
206.569
20
-82.8312
11
207.769
21
-82.8312
0
LINE
8
BLACK
6
CONTINUOUS
10
207.769
20
-82.8312
11
207.769
21
-83.7313
0
LINE
8
BLACK
6
CONTINUOUS
10
74.4188
20
-83.7313
11
73.2188
21
-83.7313
0
LINE
8
BLACK
6
CONTINUOUS
10
73.2188
20
-83.7313
11
73.2188
21
-82.8312
0
LINE
8
BLACK
6
CONTINUOUS
10
73.2188
20
-82.8312
11
74.4188
21
-82.8312
0
LINE
8
BLACK
6
CONTINUOUS
10
74.4188
20
-82.8312
11
74.4188
21
-83.7313
0
LINE
8
BLACK
6
CONTINUOUS
10
169.669
20
-83.7313
11
168.469
21
-83.7313
0
LINE
8
BLACK
6
CONTINUOUS
10
168.469
20
-83.7313
11
168.469
21
-82.8312
0
LINE
8
BLACK
6
CONTINUOUS
10
168.469
20
-82.8312
11
169.669
21
-82.8312
0
LINE
8
BLACK
6
CONTINUOUS
10
169.669
20
-82.8312
11
169.669
21
-83.7313
0
LINE
8
BLACK
6
CONTINUOUS
10
283.969
20
-83.7313
11
282.769
21
-83.7313
0
LINE
8
BLACK
6
CONTINUOUS
10
282.769
20
-83.7313
11
282.769
21
-82.8312
0
LINE
8
BLACK
6
CONTINUOUS
10
282.769
20
-82.8312
11
283.969
21
-82.8312
0
LINE
8
BLACK
6
CONTINUOUS
10
283.969
20
-82.8312
11
283.969
21
-83.7313
0
LINE
8
BLACK
6
CONTINUOUS
10
245.869
20
-83.7313
11
244.669
21
-83.7313
0
LINE
8
BLACK
6
CONTINUOUS
10
244.669
20
-83.7313
11
244.669
21
-82.8312
0
LINE
8
BLACK
6
CONTINUOUS
10
244.669
20
-82.8312
11
245.869
21
-82.8312
0
LINE
8
BLACK
6
CONTINUOUS
10
245.869
20
-82.8312
11
245.869
21
-83.7313
0
LINE
8
BLACK
6
CONTINUOUS
10
93.4688
20
-83.7313
11
92.2687
21
-83.7313
0
LINE
8
BLACK
6
CONTINUOUS
10
92.2687
20
-83.7313
11
92.2687
21
-82.8312
0
LINE
8
BLACK
6
CONTINUOUS
10
92.2687
20
-82.8312
11
93.4688
21
-82.8312
0
LINE
8
BLACK
6
CONTINUOUS
10
93.4688
20
-82.8312
11
93.4688
21
-83.7313
0
LINE
8
BLACK
6
CONTINUOUS
10
112.519
20
-83.7313
11
111.319
21
-83.7313
0
LINE
8
BLACK
6
CONTINUOUS
10
111.319
20
-83.7313
11
111.319
21
-82.8312
0
LINE
8
BLACK
6
CONTINUOUS
10
111.319
20
-82.8312
11
112.519
21
-82.8312
0
LINE
8
BLACK
6
CONTINUOUS
10
112.519
20
-82.8312
11
112.519
21
-83.7313
0
LINE
8
BLACK
6
CONTINUOUS
10
407.794
20
-83.7313
11
406.594
21
-83.7313
0
LINE
8
BLACK
6
CONTINUOUS
10
406.594
20
-83.7313
11
406.594
21
-82.8312
0
LINE
8
BLACK
6
CONTINUOUS
10
406.594
20
-82.8312
11
407.794
21
-82.8312
0
LINE
8
BLACK
6
CONTINUOUS
10
407.794
20
-82.8312
11
407.794
21
-83.7313
0
LINE
8
BLACK
6
CONTINUOUS
10
226.819
20
-83.7313
11
225.619
21
-83.7313
0
LINE
8
BLACK
6
CONTINUOUS
10
225.619
20
-83.7313
11
225.619
21
-82.8312
0
LINE
8
BLACK
6
CONTINUOUS
10
225.619
20
-82.8312
11
226.819
21
-82.8312
0
LINE
8
BLACK
6
CONTINUOUS
10
226.819
20
-82.8312
11
226.819
21
-83.7313
0
LINE
8
BLACK
6
CONTINUOUS
10
312.544
20
-83.7313
11
311.344
21
-83.7313
0
LINE
8
BLACK
6
CONTINUOUS
10
311.344
20
-83.7313
11
311.344
21
-82.8312
0
LINE
8
BLACK
6
CONTINUOUS
10
311.344
20
-82.8312
11
312.544
21
-82.8312
0
LINE
8
BLACK
6
CONTINUOUS
10
312.544
20
-82.8312
11
312.544
21
-83.7313
0
LINE
8
BLACK
6
CONTINUOUS
10
341.119
20
-83.7313
11
339.919
21
-83.7313
0
LINE
8
BLACK
6
CONTINUOUS
10
339.919
20
-83.7313
11
339.919
21
-82.8312
0
LINE
8
BLACK
6
CONTINUOUS
10
339.919
20
-82.8312
11
341.119
21
-82.8312
0
LINE
8
BLACK
6
CONTINUOUS
10
341.119
20
-82.8312
11
341.119
21
-83.7313
0
LINE
8
BLACK
6
CONTINUOUS
10
188.719
20
-83.7313
11
187.519
21
-83.7313
0
LINE
8
BLACK
6
CONTINUOUS
10
187.519
20
-83.7313
11
187.519
21
-82.8312
0
LINE
8
BLACK
6
CONTINUOUS
10
187.519
20
-82.8312
11
188.719
21
-82.8312
0
LINE
8
BLACK
6
CONTINUOUS
10
188.719
20
-82.8312
11
188.719
21
-83.7313
0
LINE
8
BLACK
6
CONTINUOUS
10
264.919
20
-83.7313
11
263.719
21
-83.7313
0
LINE
8
BLACK
6
CONTINUOUS
10
263.719
20
-83.7313
11
263.719
21
-82.8312
0
LINE
8
BLACK
6
CONTINUOUS
10
263.719
20
-82.8312
11
264.919
21
-82.8312
0
LINE
8
BLACK
6
CONTINUOUS
10
264.919
20
-82.8312
11
264.919
21
-83.7313
0
LINE
8
BLACK
6
CONTINUOUS
10
150.619
20
-83.7313
11
149.419
21
-83.7313
0
LINE
8
BLACK
6
CONTINUOUS
10
149.419
20
-83.7313
11
149.419
21
-82.8312
0
LINE
8
BLACK
6
CONTINUOUS
10
149.419
20
-82.8312
11
150.619
21
-82.8312
0
LINE
8
BLACK
6
CONTINUOUS
10
150.619
20
-82.8312
11
150.619
21
-83.7313
0
LINE
8
BLACK
6
CONTINUOUS
10
55.3687
20
-83.7313
11
54.1687
21
-83.7313
0
LINE
8
BLACK
6
CONTINUOUS
10
54.1687
20
-83.7313
11
54.1687
21
-82.8312
0
LINE
8
BLACK
6
CONTINUOUS
10
54.1687
20
-82.8312
11
55.3687
21
-82.8312
0
LINE
8
BLACK
6
CONTINUOUS
10
55.3687
20
-82.8312
11
55.3687
21
-83.7313
0
LINE
8
BLACK
6
CONTINUOUS
10
388.744
20
-83.7313
11
387.544
21
-83.7313
0
LINE
8
BLACK
6
CONTINUOUS
10
387.544
20
-83.7313
11
387.544
21
-82.8312
0
LINE
8
BLACK
6
CONTINUOUS
10
387.544
20
-82.8312
11
388.744
21
-82.8312
0
LINE
8
BLACK
6
CONTINUOUS
10
388.744
20
-82.8312
11
388.744
21
-83.7313
0
LINE
8
BLACK
6
CONTINUOUS
10
369.694
20
-83.7313
11
368.494
21
-83.7313
0
LINE
8
BLACK
6
CONTINUOUS
10
368.494
20
-83.7313
11
368.494
21
-82.8312
0
LINE
8
BLACK
6
CONTINUOUS
10
368.494
20
-82.8312
11
369.694
21
-82.8312
0
LINE
8
BLACK
6
CONTINUOUS
10
369.694
20
-82.8312
11
369.694
21
-83.7313
0
LINE
8
BLACK
6
CONTINUOUS
10
160.144
20
-67.9813
11
158.944
21
-67.9813
0
LINE
8
BLACK
6
CONTINUOUS
10
158.944
20
-67.9813
11
158.944
21
-67.0812
0
LINE
8
BLACK
6
CONTINUOUS
10
158.944
20
-67.0812
11
160.144
21
-67.0812
0
LINE
8
BLACK
6
CONTINUOUS
10
160.144
20
-67.0812
11
160.144
21
-67.9813
0
LINE
8
BLACK
6
CONTINUOUS
10
45.8438
20
-67.9813
11
44.6437
21
-67.9813
0
LINE
8
BLACK
6
CONTINUOUS
10
44.6437
20
-67.9813
11
44.6437
21
-67.0812
0
LINE
8
BLACK
6
CONTINUOUS
10
44.6437
20
-67.0812
11
45.8438
21
-67.0812
0
LINE
8
BLACK
6
CONTINUOUS
10
45.8438
20
-67.0812
11
45.8438
21
-67.9813
0
LINE
8
BLACK
6
CONTINUOUS
10
83.9437
20
-67.9813
11
82.7437
21
-67.9813
0
LINE
8
BLACK
6
CONTINUOUS
10
82.7437
20
-67.9813
11
82.7437
21
-67.0812
0
LINE
8
BLACK
6
CONTINUOUS
10
82.7437
20
-67.0812
11
83.9437
21
-67.0812
0
LINE
8
BLACK
6
CONTINUOUS
10
83.9437
20
-67.0812
11
83.9437
21
-67.9813
0
LINE
8
BLACK
6
CONTINUOUS
10
236.344
20
-67.9813
11
235.144
21
-67.9813
0
LINE
8
BLACK
6
CONTINUOUS
10
235.144
20
-67.9813
11
235.144
21
-67.0812
0
LINE
8
BLACK
6
CONTINUOUS
10
235.144
20
-67.0812
11
236.344
21
-67.0812
0
LINE
8
BLACK
6
CONTINUOUS
10
236.344
20
-67.0812
11
236.344
21
-67.9813
0
LINE
8
BLACK
6
CONTINUOUS
10
64.8937
20
-67.9813
11
63.6937
21
-67.9813
0
LINE
8
BLACK
6
CONTINUOUS
10
63.6937
20
-67.9813
11
63.6937
21
-67.0812
0
LINE
8
BLACK
6
CONTINUOUS
10
63.6937
20
-67.0812
11
64.8937
21
-67.0812
0
LINE
8
BLACK
6
CONTINUOUS
10
64.8937
20
-67.0812
11
64.8937
21
-67.9813
0
LINE
8
BLACK
6
CONTINUOUS
10
369.694
20
-67.9813
11
368.494
21
-67.9813
0
LINE
8
BLACK
6
CONTINUOUS
10
368.494
20
-67.9813
11
368.494
21
-67.0812
0
LINE
8
BLACK
6
CONTINUOUS
10
368.494
20
-67.0812
11
369.694
21
-67.0812
0
LINE
8
BLACK
6
CONTINUOUS
10
369.694
20
-67.0812
11
369.694
21
-67.9813
0
LINE
8
BLACK
6
CONTINUOUS
10
179.194
20
-67.9813
11
177.994
21
-67.9813
0
LINE
8
BLACK
6
CONTINUOUS
10
177.994
20
-67.9813
11
177.994
21
-67.0812
0
LINE
8
BLACK
6
CONTINUOUS
10
177.994
20
-67.0812
11
179.194
21
-67.0812
0
LINE
8
BLACK
6
CONTINUOUS
10
179.194
20
-67.0812
11
179.194
21
-67.9813
0
LINE
8
BLACK
6
CONTINUOUS
10
312.544
20
-67.9813
11
311.344
21
-67.9813
0
LINE
8
BLACK
6
CONTINUOUS
10
311.344
20
-67.9813
11
311.344
21
-67.0812
0
LINE
8
BLACK
6
CONTINUOUS
10
311.344
20
-67.0812
11
312.544
21
-67.0812
0
LINE
8
BLACK
6
CONTINUOUS
10
312.544
20
-67.0812
11
312.544
21
-67.9813
0
LINE
8
BLACK
6
CONTINUOUS
10
426.844
20
-67.9813
11
425.644
21
-67.9813
0
LINE
8
BLACK
6
CONTINUOUS
10
425.644
20
-67.9813
11
425.644
21
-67.0812
0
LINE
8
BLACK
6
CONTINUOUS
10
425.644
20
-67.0812
11
426.844
21
-67.0812
0
LINE
8
BLACK
6
CONTINUOUS
10
426.844
20
-67.0812
11
426.844
21
-67.9813
0
LINE
8
BLACK
6
CONTINUOUS
10
217.294
20
-67.9813
11
216.094
21
-67.9813
0
LINE
8
BLACK
6
CONTINUOUS
10
216.094
20
-67.9813
11
216.094
21
-67.0812
0
LINE
8
BLACK
6
CONTINUOUS
10
216.094
20
-67.0812
11
217.294
21
-67.0812
0
LINE
8
BLACK
6
CONTINUOUS
10
217.294
20
-67.0812
11
217.294
21
-67.9813
0
LINE
8
BLACK
6
CONTINUOUS
10
341.119
20
-67.9813
11
339.919
21
-67.9813
0
LINE
8
BLACK
6
CONTINUOUS
10
339.919
20
-67.9813
11
339.919
21
-67.0812
0
LINE
8
BLACK
6
CONTINUOUS
10
339.919
20
-67.0812
11
341.119
21
-67.0812
0
LINE
8
BLACK
6
CONTINUOUS
10
341.119
20
-67.0812
11
341.119
21
-67.9813
0
LINE
8
BLACK
6
CONTINUOUS
10
274.444
20
-67.9813
11
273.244
21
-67.9813
0
LINE
8
BLACK
6
CONTINUOUS
10
273.244
20
-67.9813
11
273.244
21
-67.0812
0
LINE
8
BLACK
6
CONTINUOUS
10
273.244
20
-67.0812
11
274.444
21
-67.0812
0
LINE
8
BLACK
6
CONTINUOUS
10
274.444
20
-67.0812
11
274.444
21
-67.9813
0
LINE
8
BLACK
6
CONTINUOUS
10
407.794
20
-67.9813
11
406.594
21
-67.9813
0
LINE
8
BLACK
6
CONTINUOUS
10
406.594
20
-67.9813
11
406.594
21
-67.0812
0
LINE
8
BLACK
6
CONTINUOUS
10
406.594
20
-67.0812
11
407.794
21
-67.0812
0
LINE
8
BLACK
6
CONTINUOUS
10
407.794
20
-67.0812
11
407.794
21
-67.9813
0
LINE
8
BLACK
6
CONTINUOUS
10
255.394
20
-67.9813
11
254.194
21
-67.9813
0
LINE
8
BLACK
6
CONTINUOUS
10
254.194
20
-67.9813
11
254.194
21
-67.0812
0
LINE
8
BLACK
6
CONTINUOUS
10
254.194
20
-67.0812
11
255.394
21
-67.0812
0
LINE
8
BLACK
6
CONTINUOUS
10
255.394
20
-67.0812
11
255.394
21
-67.9813
0
LINE
8
BLACK
6
CONTINUOUS
10
122.044
20
-67.9813
11
120.844
21
-67.9813
0
LINE
8
BLACK
6
CONTINUOUS
10
120.844
20
-67.9813
11
120.844
21
-67.0812
0
LINE
8
BLACK
6
CONTINUOUS
10
120.844
20
-67.0812
11
122.044
21
-67.0812
0
LINE
8
BLACK
6
CONTINUOUS
10
122.044
20
-67.0812
11
122.044
21
-67.9813
0
LINE
8
BLACK
6
CONTINUOUS
10
102.994
20
-67.9813
11
101.794
21
-67.9813
0
LINE
8
BLACK
6
CONTINUOUS
10
101.794
20
-67.9813
11
101.794
21
-67.0812
0
LINE
8
BLACK
6
CONTINUOUS
10
101.794
20
-67.0812
11
102.994
21
-67.0812
0
LINE
8
BLACK
6
CONTINUOUS
10
102.994
20
-67.0812
11
102.994
21
-67.9813
0
LINE
8
BLACK
6
CONTINUOUS
10
141.094
20
-67.9813
11
139.894
21
-67.9813
0
LINE
8
BLACK
6
CONTINUOUS
10
139.894
20
-67.9813
11
139.894
21
-67.0812
0
LINE
8
BLACK
6
CONTINUOUS
10
139.894
20
-67.0812
11
141.094
21
-67.0812
0
LINE
8
BLACK
6
CONTINUOUS
10
141.094
20
-67.0812
11
141.094
21
-67.9813
0
LINE
8
BLACK
6
CONTINUOUS
10
388.744
20
-67.9813
11
387.544
21
-67.9813
0
LINE
8
BLACK
6
CONTINUOUS
10
387.544
20
-67.9813
11
387.544
21
-67.0812
0
LINE
8
BLACK
6
CONTINUOUS
10
387.544
20
-67.0812
11
388.744
21
-67.0812
0
LINE
8
BLACK
6
CONTINUOUS
10
388.744
20
-67.0812
11
388.744
21
-67.9813
0
LINE
8
BLACK
6
CONTINUOUS
10
198.244
20
-67.9813
11
197.044
21
-67.9813
0
LINE
8
BLACK
6
CONTINUOUS
10
197.044
20
-67.9813
11
197.044
21
-67.0812
0
LINE
8
BLACK
6
CONTINUOUS
10
197.044
20
-67.0812
11
198.244
21
-67.0812
0
LINE
8
BLACK
6
CONTINUOUS
10
198.244
20
-67.0812
11
198.244
21
-67.9813
0
LINE
8
BLACK
6
CONTINUOUS
10
388.744
20
-64.6812
11
387.544
21
-64.6812
0
LINE
8
BLACK
6
CONTINUOUS
10
387.544
20
-64.6812
11
387.544
21
-63.7812
0
LINE
8
BLACK
6
CONTINUOUS
10
387.544
20
-63.7812
11
388.744
21
-63.7812
0
LINE
8
BLACK
6
CONTINUOUS
10
388.744
20
-63.7812
11
388.744
21
-64.6812
0
LINE
8
BLACK
6
CONTINUOUS
10
369.694
20
-64.6812
11
368.494
21
-64.6812
0
LINE
8
BLACK
6
CONTINUOUS
10
368.494
20
-64.6812
11
368.494
21
-63.7812
0
LINE
8
BLACK
6
CONTINUOUS
10
368.494
20
-63.7812
11
369.694
21
-63.7812
0
LINE
8
BLACK
6
CONTINUOUS
10
369.694
20
-63.7812
11
369.694
21
-64.6812
0
LINE
8
BLACK
6
CONTINUOUS
10
236.344
20
-64.6812
11
235.144
21
-64.6812
0
LINE
8
BLACK
6
CONTINUOUS
10
235.144
20
-64.6812
11
235.144
21
-63.7812
0
LINE
8
BLACK
6
CONTINUOUS
10
235.144
20
-63.7812
11
236.344
21
-63.7812
0
LINE
8
BLACK
6
CONTINUOUS
10
236.344
20
-63.7812
11
236.344
21
-64.6812
0
LINE
8
BLACK
6
CONTINUOUS
10
122.044
20
-64.6812
11
120.844
21
-64.6812
0
LINE
8
BLACK
6
CONTINUOUS
10
120.844
20
-64.6812
11
120.844
21
-63.7812
0
LINE
8
BLACK
6
CONTINUOUS
10
120.844
20
-63.7812
11
122.044
21
-63.7812
0
LINE
8
BLACK
6
CONTINUOUS
10
122.044
20
-63.7812
11
122.044
21
-64.6812
0
LINE
8
BLACK
6
CONTINUOUS
10
274.444
20
-64.6812
11
273.244
21
-64.6812
0
LINE
8
BLACK
6
CONTINUOUS
10
273.244
20
-64.6812
11
273.244
21
-63.7812
0
LINE
8
BLACK
6
CONTINUOUS
10
273.244
20
-63.7812
11
274.444
21
-63.7812
0
LINE
8
BLACK
6
CONTINUOUS
10
274.444
20
-63.7812
11
274.444
21
-64.6812
0
LINE
8
BLACK
6
CONTINUOUS
10
64.8937
20
-64.6812
11
63.6937
21
-64.6812
0
LINE
8
BLACK
6
CONTINUOUS
10
63.6937
20
-64.6812
11
63.6937
21
-63.7812
0
LINE
8
BLACK
6
CONTINUOUS
10
63.6937
20
-63.7812
11
64.8937
21
-63.7812
0
LINE
8
BLACK
6
CONTINUOUS
10
64.8937
20
-63.7812
11
64.8937
21
-64.6812
0
LINE
8
BLACK
6
CONTINUOUS
10
255.394
20
-64.6812
11
254.194
21
-64.6812
0
LINE
8
BLACK
6
CONTINUOUS
10
254.194
20
-64.6812
11
254.194
21
-63.7812
0
LINE
8
BLACK
6
CONTINUOUS
10
254.194
20
-63.7812
11
255.394
21
-63.7812
0
LINE
8
BLACK
6
CONTINUOUS
10
255.394
20
-63.7812
11
255.394
21
-64.6812
0
LINE
8
BLACK
6
CONTINUOUS
10
102.994
20
-64.6812
11
101.794
21
-64.6812
0
LINE
8
BLACK
6
CONTINUOUS
10
101.794
20
-64.6812
11
101.794
21
-63.7812
0
LINE
8
BLACK
6
CONTINUOUS
10
101.794
20
-63.7812
11
102.994
21
-63.7812
0
LINE
8
BLACK
6
CONTINUOUS
10
102.994
20
-63.7812
11
102.994
21
-64.6812
0
LINE
8
BLACK
6
CONTINUOUS
10
141.094
20
-64.6812
11
139.894
21
-64.6812
0
LINE
8
BLACK
6
CONTINUOUS
10
139.894
20
-64.6812
11
139.894
21
-63.7812
0
LINE
8
BLACK
6
CONTINUOUS
10
139.894
20
-63.7812
11
141.094
21
-63.7812
0
LINE
8
BLACK
6
CONTINUOUS
10
141.094
20
-63.7812
11
141.094
21
-64.6812
0
LINE
8
BLACK
6
CONTINUOUS
10
198.244
20
-64.6812
11
197.044
21
-64.6812
0
LINE
8
BLACK
6
CONTINUOUS
10
197.044
20
-64.6812
11
197.044
21
-63.7812
0
LINE
8
BLACK
6
CONTINUOUS
10
197.044
20
-63.7812
11
198.244
21
-63.7812
0
LINE
8
BLACK
6
CONTINUOUS
10
198.244
20
-63.7812
11
198.244
21
-64.6812
0
LINE
8
BLACK
6
CONTINUOUS
10
45.8438
20
-64.6812
11
44.6437
21
-64.6812
0
LINE
8
BLACK
6
CONTINUOUS
10
44.6437
20
-64.6812
11
44.6437
21
-63.7812
0
LINE
8
BLACK
6
CONTINUOUS
10
44.6437
20
-63.7812
11
45.8438
21
-63.7812
0
LINE
8
BLACK
6
CONTINUOUS
10
45.8438
20
-63.7812
11
45.8438
21
-64.6812
0
LINE
8
BLACK
6
CONTINUOUS
10
83.9437
20
-64.6812
11
82.7437
21
-64.6812
0
LINE
8
BLACK
6
CONTINUOUS
10
82.7437
20
-64.6812
11
82.7437
21
-63.7812
0
LINE
8
BLACK
6
CONTINUOUS
10
82.7437
20
-63.7812
11
83.9437
21
-63.7812
0
LINE
8
BLACK
6
CONTINUOUS
10
83.9437
20
-63.7812
11
83.9437
21
-64.6812
0
LINE
8
BLACK
6
CONTINUOUS
10
341.119
20
-64.6812
11
339.919
21
-64.6812
0
LINE
8
BLACK
6
CONTINUOUS
10
339.919
20
-64.6812
11
339.919
21
-63.7812
0
LINE
8
BLACK
6
CONTINUOUS
10
339.919
20
-63.7812
11
341.119
21
-63.7812
0
LINE
8
BLACK
6
CONTINUOUS
10
341.119
20
-63.7812
11
341.119
21
-64.6812
0
LINE
8
BLACK
6
CONTINUOUS
10
217.294
20
-64.6812
11
216.094
21
-64.6812
0
LINE
8
BLACK
6
CONTINUOUS
10
216.094
20
-64.6812
11
216.094
21
-63.7812
0
LINE
8
BLACK
6
CONTINUOUS
10
216.094
20
-63.7812
11
217.294
21
-63.7812
0
LINE
8
BLACK
6
CONTINUOUS
10
217.294
20
-63.7812
11
217.294
21
-64.6812
0
LINE
8
BLACK
6
CONTINUOUS
10
426.844
20
-64.6812
11
425.644
21
-64.6812
0
LINE
8
BLACK
6
CONTINUOUS
10
425.644
20
-64.6812
11
425.644
21
-63.7812
0
LINE
8
BLACK
6
CONTINUOUS
10
425.644
20
-63.7812
11
426.844
21
-63.7812
0
LINE
8
BLACK
6
CONTINUOUS
10
426.844
20
-63.7812
11
426.844
21
-64.6812
0
LINE
8
BLACK
6
CONTINUOUS
10
407.794
20
-64.6812
11
406.594
21
-64.6812
0
LINE
8
BLACK
6
CONTINUOUS
10
406.594
20
-64.6812
11
406.594
21
-63.7812
0
LINE
8
BLACK
6
CONTINUOUS
10
406.594
20
-63.7812
11
407.794
21
-63.7812
0
LINE
8
BLACK
6
CONTINUOUS
10
407.794
20
-63.7812
11
407.794
21
-64.6812
0
LINE
8
BLACK
6
CONTINUOUS
10
312.544
20
-64.6812
11
311.344
21
-64.6812
0
LINE
8
BLACK
6
CONTINUOUS
10
311.344
20
-64.6812
11
311.344
21
-63.7812
0
LINE
8
BLACK
6
CONTINUOUS
10
311.344
20
-63.7812
11
312.544
21
-63.7812
0
LINE
8
BLACK
6
CONTINUOUS
10
312.544
20
-63.7812
11
312.544
21
-64.6812
0
LINE
8
BLACK
6
CONTINUOUS
10
179.194
20
-64.6812
11
177.994
21
-64.6812
0
LINE
8
BLACK
6
CONTINUOUS
10
177.994
20
-64.6812
11
177.994
21
-63.7812
0
LINE
8
BLACK
6
CONTINUOUS
10
177.994
20
-63.7812
11
179.194
21
-63.7812
0
LINE
8
BLACK
6
CONTINUOUS
10
179.194
20
-63.7812
11
179.194
21
-64.6812
0
LINE
8
BLACK
6
CONTINUOUS
10
160.144
20
-64.6812
11
158.944
21
-64.6812
0
LINE
8
BLACK
6
CONTINUOUS
10
158.944
20
-64.6812
11
158.944
21
-63.7812
0
LINE
8
BLACK
6
CONTINUOUS
10
158.944
20
-63.7812
11
160.144
21
-63.7812
0
LINE
8
BLACK
6
CONTINUOUS
10
160.144
20
-63.7812
11
160.144
21
-64.6812
0
LINE
8
BLACK
6
CONTINUOUS
10
388.56
20
-54.9457
11
388.605
21
-54.976
0
LINE
8
BLACK
6
CONTINUOUS
10
388.605
20
-54.976
11
388.635
21
-55.0214
0
LINE
8
BLACK
6
CONTINUOUS
10
388.635
20
-55.0214
11
388.646
21
-55.075
0
LINE
8
BLACK
6
CONTINUOUS
10
388.646
20
-55.075
11
388.646
21
-55.415
0
LINE
8
BLACK
6
CONTINUOUS
10
388.646
20
-55.415
11
388.635
21
-55.4686
0
LINE
8
BLACK
6
CONTINUOUS
10
388.635
20
-55.4686
11
388.605
21
-55.514
0
LINE
8
BLACK
6
CONTINUOUS
10
388.605
20
-55.514
11
388.56
21
-55.5443
0
LINE
8
BLACK
6
CONTINUOUS
10
388.56
20
-55.5443
11
388.506
21
-55.555
0
LINE
8
BLACK
6
CONTINUOUS
10
388.506
20
-55.555
11
388.226
21
-55.555
0
LINE
8
BLACK
6
CONTINUOUS
10
388.226
20
-55.555
11
388.172
21
-55.5443
0
LINE
8
BLACK
6
CONTINUOUS
10
388.172
20
-55.5443
11
388.127
21
-55.514
0
LINE
8
BLACK
6
CONTINUOUS
10
388.127
20
-55.514
11
388.097
21
-55.4686
0
LINE
8
BLACK
6
CONTINUOUS
10
388.097
20
-55.4686
11
388.086
21
-55.415
0
LINE
8
BLACK
6
CONTINUOUS
10
388.086
20
-55.415
11
388.086
21
-55.075
0
LINE
8
BLACK
6
CONTINUOUS
10
388.086
20
-55.075
11
388.097
21
-55.0214
0
LINE
8
BLACK
6
CONTINUOUS
10
388.097
20
-55.0214
11
388.127
21
-54.976
0
LINE
8
BLACK
6
CONTINUOUS
10
388.127
20
-54.976
11
388.172
21
-54.9457
0
LINE
8
BLACK
6
CONTINUOUS
10
388.172
20
-54.9457
11
388.226
21
-54.935
0
LINE
8
BLACK
6
CONTINUOUS
10
388.226
20
-54.935
11
388.506
21
-54.935
0
LINE
8
BLACK
6
CONTINUOUS
10
388.506
20
-54.935
11
388.56
21
-54.9457
0
LINE
8
BLACK
6
CONTINUOUS
10
389.52
20
-54.9457
11
389.565
21
-54.976
0
LINE
8
BLACK
6
CONTINUOUS
10
389.565
20
-54.976
11
389.595
21
-55.0214
0
LINE
8
BLACK
6
CONTINUOUS
10
389.595
20
-55.0214
11
389.606
21
-55.075
0
LINE
8
BLACK
6
CONTINUOUS
10
389.606
20
-55.075
11
389.606
21
-55.415
0
LINE
8
BLACK
6
CONTINUOUS
10
389.606
20
-55.415
11
389.595
21
-55.4686
0
LINE
8
BLACK
6
CONTINUOUS
10
389.595
20
-55.4686
11
389.565
21
-55.514
0
LINE
8
BLACK
6
CONTINUOUS
10
389.565
20
-55.514
11
389.52
21
-55.5443
0
LINE
8
BLACK
6
CONTINUOUS
10
389.52
20
-55.5443
11
389.466
21
-55.555
0
LINE
8
BLACK
6
CONTINUOUS
10
389.466
20
-55.555
11
389.186
21
-55.555
0
LINE
8
BLACK
6
CONTINUOUS
10
389.186
20
-55.555
11
389.132
21
-55.5443
0
LINE
8
BLACK
6
CONTINUOUS
10
389.132
20
-55.5443
11
389.087
21
-55.514
0
LINE
8
BLACK
6
CONTINUOUS
10
389.087
20
-55.514
11
389.057
21
-55.4686
0
LINE
8
BLACK
6
CONTINUOUS
10
389.057
20
-55.4686
11
389.046
21
-55.415
0
LINE
8
BLACK
6
CONTINUOUS
10
389.046
20
-55.415
11
389.046
21
-55.075
0
LINE
8
BLACK
6
CONTINUOUS
10
389.046
20
-55.075
11
389.057
21
-55.0214
0
LINE
8
BLACK
6
CONTINUOUS
10
389.057
20
-55.0214
11
389.087
21
-54.976
0
LINE
8
BLACK
6
CONTINUOUS
10
389.087
20
-54.976
11
389.132
21
-54.9457
0
LINE
8
BLACK
6
CONTINUOUS
10
389.132
20
-54.9457
11
389.186
21
-54.935
0
LINE
8
BLACK
6
CONTINUOUS
10
389.186
20
-54.935
11
389.466
21
-54.935
0
LINE
8
BLACK
6
CONTINUOUS
10
389.466
20
-54.935
11
389.52
21
-54.9457
0
LINE
8
BLACK
6
CONTINUOUS
10
389.52
20
-53.8027
11
389.565
21
-53.833
0
LINE
8
BLACK
6
CONTINUOUS
10
389.565
20
-53.833
11
389.595
21
-53.8784
0
LINE
8
BLACK
6
CONTINUOUS
10
389.595
20
-53.8784
11
389.606
21
-53.932
0
LINE
8
BLACK
6
CONTINUOUS
10
389.606
20
-53.932
11
389.606
21
-54.272
0
LINE
8
BLACK
6
CONTINUOUS
10
389.606
20
-54.272
11
389.595
21
-54.3256
0
LINE
8
BLACK
6
CONTINUOUS
10
389.595
20
-54.3256
11
389.565
21
-54.371
0
LINE
8
BLACK
6
CONTINUOUS
10
389.565
20
-54.371
11
389.52
21
-54.4013
0
LINE
8
BLACK
6
CONTINUOUS
10
389.52
20
-54.4013
11
389.466
21
-54.412
0
LINE
8
BLACK
6
CONTINUOUS
10
389.466
20
-54.412
11
389.186
21
-54.412
0
LINE
8
BLACK
6
CONTINUOUS
10
389.186
20
-54.412
11
389.132
21
-54.4013
0
LINE
8
BLACK
6
CONTINUOUS
10
389.132
20
-54.4013
11
389.087
21
-54.371
0
LINE
8
BLACK
6
CONTINUOUS
10
389.087
20
-54.371
11
389.057
21
-54.3256
0
LINE
8
BLACK
6
CONTINUOUS
10
389.057
20
-54.3256
11
389.046
21
-54.272
0
LINE
8
BLACK
6
CONTINUOUS
10
389.046
20
-54.272
11
389.046
21
-53.932
0
LINE
8
BLACK
6
CONTINUOUS
10
389.046
20
-53.932
11
389.057
21
-53.8784
0
LINE
8
BLACK
6
CONTINUOUS
10
389.057
20
-53.8784
11
389.087
21
-53.833
0
LINE
8
BLACK
6
CONTINUOUS
10
389.087
20
-53.833
11
389.132
21
-53.8027
0
LINE
8
BLACK
6
CONTINUOUS
10
389.132
20
-53.8027
11
389.186
21
-53.792
0
LINE
8
BLACK
6
CONTINUOUS
10
389.186
20
-53.792
11
389.466
21
-53.792
0
LINE
8
BLACK
6
CONTINUOUS
10
389.466
20
-53.792
11
389.52
21
-53.8027
0
LINE
8
BLACK
6
CONTINUOUS
10
388.56
20
-53.8027
11
388.605
21
-53.833
0
LINE
8
BLACK
6
CONTINUOUS
10
388.605
20
-53.833
11
388.635
21
-53.8784
0
LINE
8
BLACK
6
CONTINUOUS
10
388.635
20
-53.8784
11
388.646
21
-53.932
0
LINE
8
BLACK
6
CONTINUOUS
10
388.646
20
-53.932
11
388.646
21
-54.272
0
LINE
8
BLACK
6
CONTINUOUS
10
388.646
20
-54.272
11
388.635
21
-54.3256
0
LINE
8
BLACK
6
CONTINUOUS
10
388.635
20
-54.3256
11
388.605
21
-54.371
0
LINE
8
BLACK
6
CONTINUOUS
10
388.605
20
-54.371
11
388.56
21
-54.4013
0
LINE
8
BLACK
6
CONTINUOUS
10
388.56
20
-54.4013
11
388.506
21
-54.412
0
LINE
8
BLACK
6
CONTINUOUS
10
388.506
20
-54.412
11
388.226
21
-54.412
0
LINE
8
BLACK
6
CONTINUOUS
10
388.226
20
-54.412
11
388.172
21
-54.4013
0
LINE
8
BLACK
6
CONTINUOUS
10
388.172
20
-54.4013
11
388.127
21
-54.371
0
LINE
8
BLACK
6
CONTINUOUS
10
388.127
20
-54.371
11
388.097
21
-54.3256
0
LINE
8
BLACK
6
CONTINUOUS
10
388.097
20
-54.3256
11
388.086
21
-54.272
0
LINE
8
BLACK
6
CONTINUOUS
10
388.086
20
-54.272
11
388.086
21
-53.932
0
LINE
8
BLACK
6
CONTINUOUS
10
388.086
20
-53.932
11
388.097
21
-53.8784
0
LINE
8
BLACK
6
CONTINUOUS
10
388.097
20
-53.8784
11
388.127
21
-53.833
0
LINE
8
BLACK
6
CONTINUOUS
10
388.127
20
-53.833
11
388.172
21
-53.8027
0
LINE
8
BLACK
6
CONTINUOUS
10
388.172
20
-53.8027
11
388.226
21
-53.792
0
LINE
8
BLACK
6
CONTINUOUS
10
388.226
20
-53.792
11
388.506
21
-53.792
0
LINE
8
BLACK
6
CONTINUOUS
10
388.506
20
-53.792
11
388.56
21
-53.8027
0
LINE
8
BLACK
6
CONTINUOUS
10
388.56
20
-52.7867
11
388.605
21
-52.817
0
LINE
8
BLACK
6
CONTINUOUS
10
388.605
20
-52.817
11
388.635
21
-52.8624
0
LINE
8
BLACK
6
CONTINUOUS
10
388.635
20
-52.8624
11
388.646
21
-52.916
0
LINE
8
BLACK
6
CONTINUOUS
10
388.646
20
-52.916
11
388.646
21
-53.256
0
LINE
8
BLACK
6
CONTINUOUS
10
388.646
20
-53.256
11
388.635
21
-53.3096
0
LINE
8
BLACK
6
CONTINUOUS
10
388.635
20
-53.3096
11
388.605
21
-53.355
0
LINE
8
BLACK
6
CONTINUOUS
10
388.605
20
-53.355
11
388.56
21
-53.3853
0
LINE
8
BLACK
6
CONTINUOUS
10
388.56
20
-53.3853
11
388.506
21
-53.396
0
LINE
8
BLACK
6
CONTINUOUS
10
388.506
20
-53.396
11
388.226
21
-53.396
0
LINE
8
BLACK
6
CONTINUOUS
10
388.226
20
-53.396
11
388.172
21
-53.3853
0
LINE
8
BLACK
6
CONTINUOUS
10
388.172
20
-53.3853
11
388.127
21
-53.355
0
LINE
8
BLACK
6
CONTINUOUS
10
388.127
20
-53.355
11
388.097
21
-53.3096
0
LINE
8
BLACK
6
CONTINUOUS
10
388.097
20
-53.3096
11
388.086
21
-53.256
0
LINE
8
BLACK
6
CONTINUOUS
10
388.086
20
-53.256
11
388.086
21
-52.916
0
LINE
8
BLACK
6
CONTINUOUS
10
388.086
20
-52.916
11
388.097
21
-52.8624
0
LINE
8
BLACK
6
CONTINUOUS
10
388.097
20
-52.8624
11
388.127
21
-52.817
0
LINE
8
BLACK
6
CONTINUOUS
10
388.127
20
-52.817
11
388.172
21
-52.7867
0
LINE
8
BLACK
6
CONTINUOUS
10
388.172
20
-52.7867
11
388.226
21
-52.776
0
LINE
8
BLACK
6
CONTINUOUS
10
388.226
20
-52.776
11
388.506
21
-52.776
0
LINE
8
BLACK
6
CONTINUOUS
10
388.506
20
-52.776
11
388.56
21
-52.7867
0
LINE
8
BLACK
6
CONTINUOUS
10
389.52
20
-52.7867
11
389.565
21
-52.817
0
LINE
8
BLACK
6
CONTINUOUS
10
389.565
20
-52.817
11
389.595
21
-52.8624
0
LINE
8
BLACK
6
CONTINUOUS
10
389.595
20
-52.8624
11
389.606
21
-52.916
0
LINE
8
BLACK
6
CONTINUOUS
10
389.606
20
-52.916
11
389.606
21
-53.256
0
LINE
8
BLACK
6
CONTINUOUS
10
389.606
20
-53.256
11
389.595
21
-53.3096
0
LINE
8
BLACK
6
CONTINUOUS
10
389.595
20
-53.3096
11
389.565
21
-53.355
0
LINE
8
BLACK
6
CONTINUOUS
10
389.565
20
-53.355
11
389.52
21
-53.3853
0
LINE
8
BLACK
6
CONTINUOUS
10
389.52
20
-53.3853
11
389.466
21
-53.396
0
LINE
8
BLACK
6
CONTINUOUS
10
389.466
20
-53.396
11
389.186
21
-53.396
0
LINE
8
BLACK
6
CONTINUOUS
10
389.186
20
-53.396
11
389.132
21
-53.3853
0
LINE
8
BLACK
6
CONTINUOUS
10
389.132
20
-53.3853
11
389.087
21
-53.355
0
LINE
8
BLACK
6
CONTINUOUS
10
389.087
20
-53.355
11
389.057
21
-53.3096
0
LINE
8
BLACK
6
CONTINUOUS
10
389.057
20
-53.3096
11
389.046
21
-53.256
0
LINE
8
BLACK
6
CONTINUOUS
10
389.046
20
-53.256
11
389.046
21
-52.916
0
LINE
8
BLACK
6
CONTINUOUS
10
389.046
20
-52.916
11
389.057
21
-52.8624
0
LINE
8
BLACK
6
CONTINUOUS
10
389.057
20
-52.8624
11
389.087
21
-52.817
0
LINE
8
BLACK
6
CONTINUOUS
10
389.087
20
-52.817
11
389.132
21
-52.7867
0
LINE
8
BLACK
6
CONTINUOUS
10
389.132
20
-52.7867
11
389.186
21
-52.776
0
LINE
8
BLACK
6
CONTINUOUS
10
389.186
20
-52.776
11
389.466
21
-52.776
0
LINE
8
BLACK
6
CONTINUOUS
10
389.466
20
-52.776
11
389.52
21
-52.7867
0
LINE
8
BLACK
6
CONTINUOUS
10
382.238
20
-52.7867
11
382.283
21
-52.817
0
LINE
8
BLACK
6
CONTINUOUS
10
382.283
20
-52.817
11
382.313
21
-52.8624
0
LINE
8
BLACK
6
CONTINUOUS
10
382.313
20
-52.8624
11
382.324
21
-52.916
0
LINE
8
BLACK
6
CONTINUOUS
10
382.324
20
-52.916
11
382.324
21
-53.256
0
LINE
8
BLACK
6
CONTINUOUS
10
382.324
20
-53.256
11
382.313
21
-53.3096
0
LINE
8
BLACK
6
CONTINUOUS
10
382.313
20
-53.3096
11
382.283
21
-53.355
0
LINE
8
BLACK
6
CONTINUOUS
10
382.283
20
-53.355
11
382.238
21
-53.3853
0
LINE
8
BLACK
6
CONTINUOUS
10
382.238
20
-53.3853
11
382.184
21
-53.396
0
LINE
8
BLACK
6
CONTINUOUS
10
382.184
20
-53.396
11
381.904
21
-53.396
0
LINE
8
BLACK
6
CONTINUOUS
10
381.904
20
-53.396
11
381.85
21
-53.3853
0
LINE
8
BLACK
6
CONTINUOUS
10
381.85
20
-53.3853
11
381.805
21
-53.355
0
LINE
8
BLACK
6
CONTINUOUS
10
381.805
20
-53.355
11
381.775
21
-53.3096
0
LINE
8
BLACK
6
CONTINUOUS
10
381.775
20
-53.3096
11
381.764
21
-53.256
0
LINE
8
BLACK
6
CONTINUOUS
10
381.764
20
-53.256
11
381.764
21
-52.916
0
LINE
8
BLACK
6
CONTINUOUS
10
381.764
20
-52.916
11
381.775
21
-52.8624
0
LINE
8
BLACK
6
CONTINUOUS
10
381.775
20
-52.8624
11
381.805
21
-52.817
0
LINE
8
BLACK
6
CONTINUOUS
10
381.805
20
-52.817
11
381.85
21
-52.7867
0
LINE
8
BLACK
6
CONTINUOUS
10
381.85
20
-52.7867
11
381.904
21
-52.776
0
LINE
8
BLACK
6
CONTINUOUS
10
381.904
20
-52.776
11
382.184
21
-52.776
0
LINE
8
BLACK
6
CONTINUOUS
10
382.184
20
-52.776
11
382.238
21
-52.7867
0
LINE
8
BLACK
6
CONTINUOUS
10
383.198
20
-52.7867
11
383.243
21
-52.817
0
LINE
8
BLACK
6
CONTINUOUS
10
383.243
20
-52.817
11
383.273
21
-52.8624
0
LINE
8
BLACK
6
CONTINUOUS
10
383.273
20
-52.8624
11
383.284
21
-52.916
0
LINE
8
BLACK
6
CONTINUOUS
10
383.284
20
-52.916
11
383.284
21
-53.256
0
LINE
8
BLACK
6
CONTINUOUS
10
383.284
20
-53.256
11
383.273
21
-53.3096
0
LINE
8
BLACK
6
CONTINUOUS
10
383.273
20
-53.3096
11
383.243
21
-53.355
0
LINE
8
BLACK
6
CONTINUOUS
10
383.243
20
-53.355
11
383.198
21
-53.3853
0
LINE
8
BLACK
6
CONTINUOUS
10
383.198
20
-53.3853
11
383.144
21
-53.396
0
LINE
8
BLACK
6
CONTINUOUS
10
383.144
20
-53.396
11
382.864
21
-53.396
0
LINE
8
BLACK
6
CONTINUOUS
10
382.864
20
-53.396
11
382.81
21
-53.3853
0
LINE
8
BLACK
6
CONTINUOUS
10
382.81
20
-53.3853
11
382.765
21
-53.355
0
LINE
8
BLACK
6
CONTINUOUS
10
382.765
20
-53.355
11
382.735
21
-53.3096
0
LINE
8
BLACK
6
CONTINUOUS
10
382.735
20
-53.3096
11
382.724
21
-53.256
0
LINE
8
BLACK
6
CONTINUOUS
10
382.724
20
-53.256
11
382.724
21
-52.916
0
LINE
8
BLACK
6
CONTINUOUS
10
382.724
20
-52.916
11
382.735
21
-52.8624
0
LINE
8
BLACK
6
CONTINUOUS
10
382.735
20
-52.8624
11
382.765
21
-52.817
0
LINE
8
BLACK
6
CONTINUOUS
10
382.765
20
-52.817
11
382.81
21
-52.7867
0
LINE
8
BLACK
6
CONTINUOUS
10
382.81
20
-52.7867
11
382.864
21
-52.776
0
LINE
8
BLACK
6
CONTINUOUS
10
382.864
20
-52.776
11
383.144
21
-52.776
0
LINE
8
BLACK
6
CONTINUOUS
10
383.144
20
-52.776
11
383.198
21
-52.7867
0
LINE
8
BLACK
6
CONTINUOUS
10
384.018
20
-51.7727
11
384.063
21
-51.803
0
LINE
8
BLACK
6
CONTINUOUS
10
384.063
20
-51.803
11
384.093
21
-51.8484
0
LINE
8
BLACK
6
CONTINUOUS
10
384.093
20
-51.8484
11
384.104
21
-51.902
0
LINE
8
BLACK
6
CONTINUOUS
10
384.104
20
-51.902
11
384.104
21
-52.182
0
LINE
8
BLACK
6
CONTINUOUS
10
384.104
20
-52.182
11
384.093
21
-52.2356
0
LINE
8
BLACK
6
CONTINUOUS
10
384.093
20
-52.2356
11
384.063
21
-52.281
0
LINE
8
BLACK
6
CONTINUOUS
10
384.063
20
-52.281
11
384.018
21
-52.3113
0
LINE
8
BLACK
6
CONTINUOUS
10
384.018
20
-52.3113
11
383.964
21
-52.322
0
LINE
8
BLACK
6
CONTINUOUS
10
383.964
20
-52.322
11
383.624
21
-52.322
0
LINE
8
BLACK
6
CONTINUOUS
10
383.624
20
-52.322
11
383.57
21
-52.3113
0
LINE
8
BLACK
6
CONTINUOUS
10
383.57
20
-52.3113
11
383.525
21
-52.281
0
LINE
8
BLACK
6
CONTINUOUS
10
383.525
20
-52.281
11
383.495
21
-52.2356
0
LINE
8
BLACK
6
CONTINUOUS
10
383.495
20
-52.2356
11
383.484
21
-52.182
0
LINE
8
BLACK
6
CONTINUOUS
10
383.484
20
-52.182
11
383.484
21
-51.902
0
LINE
8
BLACK
6
CONTINUOUS
10
383.484
20
-51.902
11
383.495
21
-51.8484
0
LINE
8
BLACK
6
CONTINUOUS
10
383.495
20
-51.8484
11
383.525
21
-51.803
0
LINE
8
BLACK
6
CONTINUOUS
10
383.525
20
-51.803
11
383.57
21
-51.7727
0
LINE
8
BLACK
6
CONTINUOUS
10
383.57
20
-51.7727
11
383.624
21
-51.762
0
LINE
8
BLACK
6
CONTINUOUS
10
383.624
20
-51.762
11
383.964
21
-51.762
0
LINE
8
BLACK
6
CONTINUOUS
10
383.964
20
-51.762
11
384.018
21
-51.7727
0
LINE
8
BLACK
6
CONTINUOUS
10
384.018
20
-50.8127
11
384.063
21
-50.843
0
LINE
8
BLACK
6
CONTINUOUS
10
384.063
20
-50.843
11
384.093
21
-50.8884
0
LINE
8
BLACK
6
CONTINUOUS
10
384.093
20
-50.8884
11
384.104
21
-50.942
0
LINE
8
BLACK
6
CONTINUOUS
10
384.104
20
-50.942
11
384.104
21
-51.222
0
LINE
8
BLACK
6
CONTINUOUS
10
384.104
20
-51.222
11
384.093
21
-51.2756
0
LINE
8
BLACK
6
CONTINUOUS
10
384.093
20
-51.2756
11
384.063
21
-51.321
0
LINE
8
BLACK
6
CONTINUOUS
10
384.063
20
-51.321
11
384.018
21
-51.3513
0
LINE
8
BLACK
6
CONTINUOUS
10
384.018
20
-51.3513
11
383.964
21
-51.362
0
LINE
8
BLACK
6
CONTINUOUS
10
383.964
20
-51.362
11
383.624
21
-51.362
0
LINE
8
BLACK
6
CONTINUOUS
10
383.624
20
-51.362
11
383.57
21
-51.3513
0
LINE
8
BLACK
6
CONTINUOUS
10
383.57
20
-51.3513
11
383.525
21
-51.321
0
LINE
8
BLACK
6
CONTINUOUS
10
383.525
20
-51.321
11
383.495
21
-51.2756
0
LINE
8
BLACK
6
CONTINUOUS
10
383.495
20
-51.2756
11
383.484
21
-51.222
0
LINE
8
BLACK
6
CONTINUOUS
10
383.484
20
-51.222
11
383.484
21
-50.942
0
LINE
8
BLACK
6
CONTINUOUS
10
383.484
20
-50.942
11
383.495
21
-50.8884
0
LINE
8
BLACK
6
CONTINUOUS
10
383.495
20
-50.8884
11
383.525
21
-50.843
0
LINE
8
BLACK
6
CONTINUOUS
10
383.525
20
-50.843
11
383.57
21
-50.8127
0
LINE
8
BLACK
6
CONTINUOUS
10
383.57
20
-50.8127
11
383.624
21
-50.802
0
LINE
8
BLACK
6
CONTINUOUS
10
383.624
20
-50.802
11
383.964
21
-50.802
0
LINE
8
BLACK
6
CONTINUOUS
10
383.964
20
-50.802
11
384.018
21
-50.8127
0
LINE
8
BLACK
6
CONTINUOUS
10
392.596
20
-49.7387
11
392.641
21
-49.769
0
LINE
8
BLACK
6
CONTINUOUS
10
392.641
20
-49.769
11
392.671
21
-49.8144
0
LINE
8
BLACK
6
CONTINUOUS
10
392.671
20
-49.8144
11
392.682
21
-49.868
0
LINE
8
BLACK
6
CONTINUOUS
10
392.682
20
-49.868
11
392.682
21
-50.208
0
LINE
8
BLACK
6
CONTINUOUS
10
392.682
20
-50.208
11
392.671
21
-50.2616
0
LINE
8
BLACK
6
CONTINUOUS
10
392.671
20
-50.2616
11
392.641
21
-50.307
0
LINE
8
BLACK
6
CONTINUOUS
10
392.641
20
-50.307
11
392.596
21
-50.3373
0
LINE
8
BLACK
6
CONTINUOUS
10
392.596
20
-50.3373
11
392.542
21
-50.348
0
LINE
8
BLACK
6
CONTINUOUS
10
392.542
20
-50.348
11
392.262
21
-50.348
0
LINE
8
BLACK
6
CONTINUOUS
10
392.262
20
-50.348
11
392.208
21
-50.3373
0
LINE
8
BLACK
6
CONTINUOUS
10
392.208
20
-50.3373
11
392.163
21
-50.307
0
LINE
8
BLACK
6
CONTINUOUS
10
392.163
20
-50.307
11
392.133
21
-50.2616
0
LINE
8
BLACK
6
CONTINUOUS
10
392.133
20
-50.2616
11
392.122
21
-50.208
0
LINE
8
BLACK
6
CONTINUOUS
10
392.122
20
-50.208
11
392.122
21
-49.868
0
LINE
8
BLACK
6
CONTINUOUS
10
392.122
20
-49.868
11
392.133
21
-49.8144
0
LINE
8
BLACK
6
CONTINUOUS
10
392.133
20
-49.8144
11
392.163
21
-49.769
0
LINE
8
BLACK
6
CONTINUOUS
10
392.163
20
-49.769
11
392.208
21
-49.7387
0
LINE
8
BLACK
6
CONTINUOUS
10
392.208
20
-49.7387
11
392.262
21
-49.728
0
LINE
8
BLACK
6
CONTINUOUS
10
392.262
20
-49.728
11
392.542
21
-49.728
0
LINE
8
BLACK
6
CONTINUOUS
10
392.542
20
-49.728
11
392.596
21
-49.7387
0
LINE
8
BLACK
6
CONTINUOUS
10
391.636
20
-49.7387
11
391.681
21
-49.769
0
LINE
8
BLACK
6
CONTINUOUS
10
391.681
20
-49.769
11
391.711
21
-49.8144
0
LINE
8
BLACK
6
CONTINUOUS
10
391.711
20
-49.8144
11
391.722
21
-49.868
0
LINE
8
BLACK
6
CONTINUOUS
10
391.722
20
-49.868
11
391.722
21
-50.208
0
LINE
8
BLACK
6
CONTINUOUS
10
391.722
20
-50.208
11
391.711
21
-50.2616
0
LINE
8
BLACK
6
CONTINUOUS
10
391.711
20
-50.2616
11
391.681
21
-50.307
0
LINE
8
BLACK
6
CONTINUOUS
10
391.681
20
-50.307
11
391.636
21
-50.3373
0
LINE
8
BLACK
6
CONTINUOUS
10
391.636
20
-50.3373
11
391.582
21
-50.348
0
LINE
8
BLACK
6
CONTINUOUS
10
391.582
20
-50.348
11
391.302
21
-50.348
0
LINE
8
BLACK
6
CONTINUOUS
10
391.302
20
-50.348
11
391.248
21
-50.3373
0
LINE
8
BLACK
6
CONTINUOUS
10
391.248
20
-50.3373
11
391.203
21
-50.307
0
LINE
8
BLACK
6
CONTINUOUS
10
391.203
20
-50.307
11
391.173
21
-50.2616
0
LINE
8
BLACK
6
CONTINUOUS
10
391.173
20
-50.2616
11
391.162
21
-50.208
0
LINE
8
BLACK
6
CONTINUOUS
10
391.162
20
-50.208
11
391.162
21
-49.868
0
LINE
8
BLACK
6
CONTINUOUS
10
391.162
20
-49.868
11
391.173
21
-49.8144
0
LINE
8
BLACK
6
CONTINUOUS
10
391.173
20
-49.8144
11
391.203
21
-49.769
0
LINE
8
BLACK
6
CONTINUOUS
10
391.203
20
-49.769
11
391.248
21
-49.7387
0
LINE
8
BLACK
6
CONTINUOUS
10
391.248
20
-49.7387
11
391.302
21
-49.728
0
LINE
8
BLACK
6
CONTINUOUS
10
391.302
20
-49.728
11
391.582
21
-49.728
0
LINE
8
BLACK
6
CONTINUOUS
10
391.582
20
-49.728
11
391.636
21
-49.7387
0
LINE
8
BLACK
6
CONTINUOUS
10
388.433
20
-50.0895
11
388.179
21
-50.0895
0
LINE
8
BLACK
6
CONTINUOUS
10
388.179
20
-50.0895
11
388.179
21
-48.6276
0
LINE
8
BLACK
6
CONTINUOUS
10
388.179
20
-48.6276
11
388.433
21
-48.6276
0
LINE
8
BLACK
6
CONTINUOUS
10
388.433
20
-48.6276
11
388.433
21
-50.0895
0
LINE
8
BLACK
6
CONTINUOUS
10
383.933
20
-50.0895
11
383.679
21
-50.0895
0
LINE
8
BLACK
6
CONTINUOUS
10
383.679
20
-50.0895
11
383.679
21
-48.6276
0
LINE
8
BLACK
6
CONTINUOUS
10
383.679
20
-48.6276
11
383.933
21
-48.6276
0
LINE
8
BLACK
6
CONTINUOUS
10
383.933
20
-48.6276
11
383.933
21
-50.0895
0
LINE
8
BLACK
6
CONTINUOUS
10
384.433
20
-50.0895
11
384.179
21
-50.0895
0
LINE
8
BLACK
6
CONTINUOUS
10
384.179
20
-50.0895
11
384.179
21
-48.6276
0
LINE
8
BLACK
6
CONTINUOUS
10
384.179
20
-48.6276
11
384.433
21
-48.6276
0
LINE
8
BLACK
6
CONTINUOUS
10
384.433
20
-48.6276
11
384.433
21
-50.0895
0
LINE
8
BLACK
6
CONTINUOUS
10
384.933
20
-50.0895
11
384.679
21
-50.0895
0
LINE
8
BLACK
6
CONTINUOUS
10
384.679
20
-50.0895
11
384.679
21
-48.6276
0
LINE
8
BLACK
6
CONTINUOUS
10
384.679
20
-48.6276
11
384.933
21
-48.6276
0
LINE
8
BLACK
6
CONTINUOUS
10
384.933
20
-48.6276
11
384.933
21
-50.0895
0
LINE
8
BLACK
6
CONTINUOUS
10
385.433
20
-50.0895
11
385.179
21
-50.0895
0
LINE
8
BLACK
6
CONTINUOUS
10
385.179
20
-50.0895
11
385.179
21
-48.6276
0
LINE
8
BLACK
6
CONTINUOUS
10
385.179
20
-48.6276
11
385.433
21
-48.6276
0
LINE
8
BLACK
6
CONTINUOUS
10
385.433
20
-48.6276
11
385.433
21
-50.0895
0
LINE
8
BLACK
6
CONTINUOUS
10
385.933
20
-50.0895
11
385.679
21
-50.0895
0
LINE
8
BLACK
6
CONTINUOUS
10
385.679
20
-50.0895
11
385.679
21
-48.6276
0
LINE
8
BLACK
6
CONTINUOUS
10
385.679
20
-48.6276
11
385.933
21
-48.6276
0
LINE
8
BLACK
6
CONTINUOUS
10
385.933
20
-48.6276
11
385.933
21
-50.0895
0
LINE
8
BLACK
6
CONTINUOUS
10
386.433
20
-50.0895
11
386.179
21
-50.0895
0
LINE
8
BLACK
6
CONTINUOUS
10
386.179
20
-50.0895
11
386.179
21
-48.6276
0
LINE
8
BLACK
6
CONTINUOUS
10
386.179
20
-48.6276
11
386.433
21
-48.6276
0
LINE
8
BLACK
6
CONTINUOUS
10
386.433
20
-48.6276
11
386.433
21
-50.0895
0
LINE
8
BLACK
6
CONTINUOUS
10
386.933
20
-50.0895
11
386.679
21
-50.0895
0
LINE
8
BLACK
6
CONTINUOUS
10
386.679
20
-50.0895
11
386.679
21
-48.6276
0
LINE
8
BLACK
6
CONTINUOUS
10
386.679
20
-48.6276
11
386.933
21
-48.6276
0
LINE
8
BLACK
6
CONTINUOUS
10
386.933
20
-48.6276
11
386.933
21
-50.0895
0
LINE
8
BLACK
6
CONTINUOUS
10
387.433
20
-50.0895
11
387.179
21
-50.0895
0
LINE
8
BLACK
6
CONTINUOUS
10
387.179
20
-50.0895
11
387.179
21
-48.6276
0
LINE
8
BLACK
6
CONTINUOUS
10
387.179
20
-48.6276
11
387.433
21
-48.6276
0
LINE
8
BLACK
6
CONTINUOUS
10
387.433
20
-48.6276
11
387.433
21
-50.0895
0
LINE
8
BLACK
6
CONTINUOUS
10
387.933
20
-50.0895
11
387.679
21
-50.0895
0
LINE
8
BLACK
6
CONTINUOUS
10
387.679
20
-50.0895
11
387.679
21
-48.6276
0
LINE
8
BLACK
6
CONTINUOUS
10
387.679
20
-48.6276
11
387.933
21
-48.6276
0
LINE
8
BLACK
6
CONTINUOUS
10
387.933
20
-48.6276
11
387.933
21
-50.0895
0
LINE
8
BLACK
6
CONTINUOUS
10
388.933
20
-50.0895
11
388.679
21
-50.0895
0
LINE
8
BLACK
6
CONTINUOUS
10
388.679
20
-50.0895
11
388.679
21
-48.6276
0
LINE
8
BLACK
6
CONTINUOUS
10
388.679
20
-48.6276
11
388.933
21
-48.6276
0
LINE
8
BLACK
6
CONTINUOUS
10
388.933
20
-48.6276
11
388.933
21
-50.0895
0
LINE
8
BLACK
6
CONTINUOUS
10
389.433
20
-50.0895
11
389.179
21
-50.0895
0
LINE
8
BLACK
6
CONTINUOUS
10
389.179
20
-50.0895
11
389.179
21
-48.6276
0
LINE
8
BLACK
6
CONTINUOUS
10
389.179
20
-48.6276
11
389.433
21
-48.6276
0
LINE
8
BLACK
6
CONTINUOUS
10
389.433
20
-48.6276
11
389.433
21
-50.0895
0
LINE
8
BLACK
6
CONTINUOUS
10
391.636
20
-48.7227
11
391.681
21
-48.753
0
LINE
8
BLACK
6
CONTINUOUS
10
391.681
20
-48.753
11
391.711
21
-48.7984
0
LINE
8
BLACK
6
CONTINUOUS
10
391.711
20
-48.7984
11
391.722
21
-48.852
0
LINE
8
BLACK
6
CONTINUOUS
10
391.722
20
-48.852
11
391.722
21
-49.192
0
LINE
8
BLACK
6
CONTINUOUS
10
391.722
20
-49.192
11
391.711
21
-49.2456
0
LINE
8
BLACK
6
CONTINUOUS
10
391.711
20
-49.2456
11
391.681
21
-49.291
0
LINE
8
BLACK
6
CONTINUOUS
10
391.681
20
-49.291
11
391.636
21
-49.3213
0
LINE
8
BLACK
6
CONTINUOUS
10
391.636
20
-49.3213
11
391.582
21
-49.332
0
LINE
8
BLACK
6
CONTINUOUS
10
391.582
20
-49.332
11
391.302
21
-49.332
0
LINE
8
BLACK
6
CONTINUOUS
10
391.302
20
-49.332
11
391.248
21
-49.3213
0
LINE
8
BLACK
6
CONTINUOUS
10
391.248
20
-49.3213
11
391.203
21
-49.291
0
LINE
8
BLACK
6
CONTINUOUS
10
391.203
20
-49.291
11
391.173
21
-49.2456
0
LINE
8
BLACK
6
CONTINUOUS
10
391.173
20
-49.2456
11
391.162
21
-49.192
0
LINE
8
BLACK
6
CONTINUOUS
10
391.162
20
-49.192
11
391.162
21
-48.852
0
LINE
8
BLACK
6
CONTINUOUS
10
391.162
20
-48.852
11
391.173
21
-48.7984
0
LINE
8
BLACK
6
CONTINUOUS
10
391.173
20
-48.7984
11
391.203
21
-48.753
0
LINE
8
BLACK
6
CONTINUOUS
10
391.203
20
-48.753
11
391.248
21
-48.7227
0
LINE
8
BLACK
6
CONTINUOUS
10
391.248
20
-48.7227
11
391.302
21
-48.712
0
LINE
8
BLACK
6
CONTINUOUS
10
391.302
20
-48.712
11
391.582
21
-48.712
0
LINE
8
BLACK
6
CONTINUOUS
10
391.582
20
-48.712
11
391.636
21
-48.7227
0
LINE
8
BLACK
6
CONTINUOUS
10
392.596
20
-48.7227
11
392.641
21
-48.753
0
LINE
8
BLACK
6
CONTINUOUS
10
392.641
20
-48.753
11
392.671
21
-48.7984
0
LINE
8
BLACK
6
CONTINUOUS
10
392.671
20
-48.7984
11
392.682
21
-48.852
0
LINE
8
BLACK
6
CONTINUOUS
10
392.682
20
-48.852
11
392.682
21
-49.192
0
LINE
8
BLACK
6
CONTINUOUS
10
392.682
20
-49.192
11
392.671
21
-49.2456
0
LINE
8
BLACK
6
CONTINUOUS
10
392.671
20
-49.2456
11
392.641
21
-49.291
0
LINE
8
BLACK
6
CONTINUOUS
10
392.641
20
-49.291
11
392.596
21
-49.3213
0
LINE
8
BLACK
6
CONTINUOUS
10
392.596
20
-49.3213
11
392.542
21
-49.332
0
LINE
8
BLACK
6
CONTINUOUS
10
392.542
20
-49.332
11
392.262
21
-49.332
0
LINE
8
BLACK
6
CONTINUOUS
10
392.262
20
-49.332
11
392.208
21
-49.3213
0
LINE
8
BLACK
6
CONTINUOUS
10
392.208
20
-49.3213
11
392.163
21
-49.291
0
LINE
8
BLACK
6
CONTINUOUS
10
392.163
20
-49.291
11
392.133
21
-49.2456
0
LINE
8
BLACK
6
CONTINUOUS
10
392.133
20
-49.2456
11
392.122
21
-49.192
0
LINE
8
BLACK
6
CONTINUOUS
10
392.122
20
-49.192
11
392.122
21
-48.852
0
LINE
8
BLACK
6
CONTINUOUS
10
392.122
20
-48.852
11
392.133
21
-48.7984
0
LINE
8
BLACK
6
CONTINUOUS
10
392.133
20
-48.7984
11
392.163
21
-48.753
0
LINE
8
BLACK
6
CONTINUOUS
10
392.163
20
-48.753
11
392.208
21
-48.7227
0
LINE
8
BLACK
6
CONTINUOUS
10
392.208
20
-48.7227
11
392.262
21
-48.712
0
LINE
8
BLACK
6
CONTINUOUS
10
392.262
20
-48.712
11
392.542
21
-48.712
0
LINE
8
BLACK
6
CONTINUOUS
10
392.542
20
-48.712
11
392.596
21
-48.7227
0
LINE
8
BLACK
6
CONTINUOUS
10
393.67
20
-48.7247
11
393.715
21
-48.755
0
LINE
8
BLACK
6
CONTINUOUS
10
393.715
20
-48.755
11
393.745
21
-48.8004
0
LINE
8
BLACK
6
CONTINUOUS
10
393.745
20
-48.8004
11
393.756
21
-48.854
0
LINE
8
BLACK
6
CONTINUOUS
10
393.756
20
-48.854
11
393.756
21
-49.134
0
LINE
8
BLACK
6
CONTINUOUS
10
393.756
20
-49.134
11
393.745
21
-49.1876
0
LINE
8
BLACK
6
CONTINUOUS
10
393.745
20
-49.1876
11
393.715
21
-49.233
0
LINE
8
BLACK
6
CONTINUOUS
10
393.715
20
-49.233
11
393.67
21
-49.2633
0
LINE
8
BLACK
6
CONTINUOUS
10
393.67
20
-49.2633
11
393.616
21
-49.274
0
LINE
8
BLACK
6
CONTINUOUS
10
393.616
20
-49.274
11
393.276
21
-49.274
0
LINE
8
BLACK
6
CONTINUOUS
10
393.276
20
-49.274
11
393.222
21
-49.2633
0
LINE
8
BLACK
6
CONTINUOUS
10
393.222
20
-49.2633
11
393.177
21
-49.233
0
LINE
8
BLACK
6
CONTINUOUS
10
393.177
20
-49.233
11
393.147
21
-49.1876
0
LINE
8
BLACK
6
CONTINUOUS
10
393.147
20
-49.1876
11
393.136
21
-49.134
0
LINE
8
BLACK
6
CONTINUOUS
10
393.136
20
-49.134
11
393.136
21
-48.854
0
LINE
8
BLACK
6
CONTINUOUS
10
393.136
20
-48.854
11
393.147
21
-48.8004
0
LINE
8
BLACK
6
CONTINUOUS
10
393.147
20
-48.8004
11
393.177
21
-48.755
0
LINE
8
BLACK
6
CONTINUOUS
10
393.177
20
-48.755
11
393.222
21
-48.7247
0
LINE
8
BLACK
6
CONTINUOUS
10
393.222
20
-48.7247
11
393.276
21
-48.714
0
LINE
8
BLACK
6
CONTINUOUS
10
393.276
20
-48.714
11
393.616
21
-48.714
0
LINE
8
BLACK
6
CONTINUOUS
10
393.616
20
-48.714
11
393.67
21
-48.7247
0
LINE
8
BLACK
6
CONTINUOUS
10
393.67
20
-47.7647
11
393.715
21
-47.795
0
LINE
8
BLACK
6
CONTINUOUS
10
393.715
20
-47.795
11
393.745
21
-47.8404
0
LINE
8
BLACK
6
CONTINUOUS
10
393.745
20
-47.8404
11
393.756
21
-47.894
0
LINE
8
BLACK
6
CONTINUOUS
10
393.756
20
-47.894
11
393.756
21
-48.174
0
LINE
8
BLACK
6
CONTINUOUS
10
393.756
20
-48.174
11
393.745
21
-48.2276
0
LINE
8
BLACK
6
CONTINUOUS
10
393.745
20
-48.2276
11
393.715
21
-48.273
0
LINE
8
BLACK
6
CONTINUOUS
10
393.715
20
-48.273
11
393.67
21
-48.3033
0
LINE
8
BLACK
6
CONTINUOUS
10
393.67
20
-48.3033
11
393.616
21
-48.314
0
LINE
8
BLACK
6
CONTINUOUS
10
393.616
20
-48.314
11
393.276
21
-48.314
0
LINE
8
BLACK
6
CONTINUOUS
10
393.276
20
-48.314
11
393.222
21
-48.3033
0
LINE
8
BLACK
6
CONTINUOUS
10
393.222
20
-48.3033
11
393.177
21
-48.273
0
LINE
8
BLACK
6
CONTINUOUS
10
393.177
20
-48.273
11
393.147
21
-48.2276
0
LINE
8
BLACK
6
CONTINUOUS
10
393.147
20
-48.2276
11
393.136
21
-48.174
0
LINE
8
BLACK
6
CONTINUOUS
10
393.136
20
-48.174
11
393.136
21
-47.894
0
LINE
8
BLACK
6
CONTINUOUS
10
393.136
20
-47.894
11
393.147
21
-47.8404
0
LINE
8
BLACK
6
CONTINUOUS
10
393.147
20
-47.8404
11
393.177
21
-47.795
0
LINE
8
BLACK
6
CONTINUOUS
10
393.177
20
-47.795
11
393.222
21
-47.7647
0
LINE
8
BLACK
6
CONTINUOUS
10
393.222
20
-47.7647
11
393.276
21
-47.754
0
LINE
8
BLACK
6
CONTINUOUS
10
393.276
20
-47.754
11
393.616
21
-47.754
0
LINE
8
BLACK
6
CONTINUOUS
10
393.616
20
-47.754
11
393.67
21
-47.7647
0
LINE
8
BLACK
6
CONTINUOUS
10
391.402
20
-48.1208
11
389.94
21
-48.1208
0
LINE
8
BLACK
6
CONTINUOUS
10
389.94
20
-48.1208
11
389.94
21
-47.8667
0
LINE
8
BLACK
6
CONTINUOUS
10
389.94
20
-47.8667
11
391.402
21
-47.8667
0
LINE
8
BLACK
6
CONTINUOUS
10
391.402
20
-47.8667
11
391.402
21
-48.1208
0
LINE
8
BLACK
6
CONTINUOUS
10
383.172
20
-48.1208
11
381.71
21
-48.1208
0
LINE
8
BLACK
6
CONTINUOUS
10
381.71
20
-48.1208
11
381.71
21
-47.8667
0
LINE
8
BLACK
6
CONTINUOUS
10
381.71
20
-47.8667
11
383.172
21
-47.8667
0
LINE
8
BLACK
6
CONTINUOUS
10
383.172
20
-47.8667
11
383.172
21
-48.1208
0
LINE
8
BLACK
6
CONTINUOUS
10
383.172
20
-47.6208
11
381.71
21
-47.6208
0
LINE
8
BLACK
6
CONTINUOUS
10
381.71
20
-47.6208
11
381.71
21
-47.3668
0
LINE
8
BLACK
6
CONTINUOUS
10
381.71
20
-47.3668
11
383.172
21
-47.3668
0
LINE
8
BLACK
6
CONTINUOUS
10
383.172
20
-47.3668
11
383.172
21
-47.6208
0
LINE
8
BLACK
6
CONTINUOUS
10
391.402
20
-47.6208
11
389.94
21
-47.6208
0
LINE
8
BLACK
6
CONTINUOUS
10
389.94
20
-47.6208
11
389.94
21
-47.3668
0
LINE
8
BLACK
6
CONTINUOUS
10
389.94
20
-47.3668
11
391.402
21
-47.3668
0
LINE
8
BLACK
6
CONTINUOUS
10
391.402
20
-47.3668
11
391.402
21
-47.6208
0
LINE
8
BLACK
6
CONTINUOUS
10
391.402
20
-47.1207
11
389.94
21
-47.1207
0
LINE
8
BLACK
6
CONTINUOUS
10
389.94
20
-47.1207
11
389.94
21
-46.8667
0
LINE
8
BLACK
6
CONTINUOUS
10
389.94
20
-46.8667
11
391.402
21
-46.8667
0
LINE
8
BLACK
6
CONTINUOUS
10
391.402
20
-46.8667
11
391.402
21
-47.1207
0
LINE
8
BLACK
6
CONTINUOUS
10
383.172
20
-47.1207
11
381.71
21
-47.1207
0
LINE
8
BLACK
6
CONTINUOUS
10
381.71
20
-47.1207
11
381.71
21
-46.8667
0
LINE
8
BLACK
6
CONTINUOUS
10
381.71
20
-46.8667
11
383.172
21
-46.8667
0
LINE
8
BLACK
6
CONTINUOUS
10
383.172
20
-46.8667
11
383.172
21
-47.1207
0
LINE
8
BLACK
6
CONTINUOUS
10
383.172
20
-46.6208
11
381.71
21
-46.6208
0
LINE
8
BLACK
6
CONTINUOUS
10
381.71
20
-46.6208
11
381.71
21
-46.3667
0
LINE
8
BLACK
6
CONTINUOUS
10
381.71
20
-46.3667
11
383.172
21
-46.3667
0
LINE
8
BLACK
6
CONTINUOUS
10
383.172
20
-46.3667
11
383.172
21
-46.6208
0
LINE
8
BLACK
6
CONTINUOUS
10
391.402
20
-46.6208
11
389.94
21
-46.6208
0
LINE
8
BLACK
6
CONTINUOUS
10
389.94
20
-46.6208
11
389.94
21
-46.3667
0
LINE
8
BLACK
6
CONTINUOUS
10
389.94
20
-46.3667
11
391.402
21
-46.3667
0
LINE
8
BLACK
6
CONTINUOUS
10
391.402
20
-46.3667
11
391.402
21
-46.6208
0
LINE
8
BLACK
6
CONTINUOUS
10
393.386
20
-45.9287
11
393.431
21
-45.959
0
LINE
8
BLACK
6
CONTINUOUS
10
393.431
20
-45.959
11
393.461
21
-46.0044
0
LINE
8
BLACK
6
CONTINUOUS
10
393.461
20
-46.0044
11
393.472
21
-46.058
0
LINE
8
BLACK
6
CONTINUOUS
10
393.472
20
-46.058
11
393.472
21
-46.398
0
LINE
8
BLACK
6
CONTINUOUS
10
393.472
20
-46.398
11
393.461
21
-46.4516
0
LINE
8
BLACK
6
CONTINUOUS
10
393.461
20
-46.4516
11
393.431
21
-46.497
0
LINE
8
BLACK
6
CONTINUOUS
10
393.431
20
-46.497
11
393.386
21
-46.5273
0
LINE
8
BLACK
6
CONTINUOUS
10
393.386
20
-46.5273
11
393.332
21
-46.538
0
LINE
8
BLACK
6
CONTINUOUS
10
393.332
20
-46.538
11
393.052
21
-46.538
0
LINE
8
BLACK
6
CONTINUOUS
10
393.052
20
-46.538
11
392.998
21
-46.5273
0
LINE
8
BLACK
6
CONTINUOUS
10
392.998
20
-46.5273
11
392.953
21
-46.497
0
LINE
8
BLACK
6
CONTINUOUS
10
392.953
20
-46.497
11
392.923
21
-46.4516
0
LINE
8
BLACK
6
CONTINUOUS
10
392.923
20
-46.4516
11
392.912
21
-46.398
0
LINE
8
BLACK
6
CONTINUOUS
10
392.912
20
-46.398
11
392.912
21
-46.058
0
LINE
8
BLACK
6
CONTINUOUS
10
392.912
20
-46.058
11
392.923
21
-46.0044
0
LINE
8
BLACK
6
CONTINUOUS
10
392.923
20
-46.0044
11
392.953
21
-45.959
0
LINE
8
BLACK
6
CONTINUOUS
10
392.953
20
-45.959
11
392.998
21
-45.9287
0
LINE
8
BLACK
6
CONTINUOUS
10
392.998
20
-45.9287
11
393.052
21
-45.918
0
LINE
8
BLACK
6
CONTINUOUS
10
393.052
20
-45.918
11
393.332
21
-45.918
0
LINE
8
BLACK
6
CONTINUOUS
10
393.332
20
-45.918
11
393.386
21
-45.9287
0
LINE
8
BLACK
6
CONTINUOUS
10
394.346
20
-45.9287
11
394.391
21
-45.959
0
LINE
8
BLACK
6
CONTINUOUS
10
394.391
20
-45.959
11
394.421
21
-46.0044
0
LINE
8
BLACK
6
CONTINUOUS
10
394.421
20
-46.0044
11
394.432
21
-46.058
0
LINE
8
BLACK
6
CONTINUOUS
10
394.432
20
-46.058
11
394.432
21
-46.398
0
LINE
8
BLACK
6
CONTINUOUS
10
394.432
20
-46.398
11
394.421
21
-46.4516
0
LINE
8
BLACK
6
CONTINUOUS
10
394.421
20
-46.4516
11
394.391
21
-46.497
0
LINE
8
BLACK
6
CONTINUOUS
10
394.391
20
-46.497
11
394.346
21
-46.5273
0
LINE
8
BLACK
6
CONTINUOUS
10
394.346
20
-46.5273
11
394.292
21
-46.538
0
LINE
8
BLACK
6
CONTINUOUS
10
394.292
20
-46.538
11
394.012
21
-46.538
0
LINE
8
BLACK
6
CONTINUOUS
10
394.012
20
-46.538
11
393.958
21
-46.5273
0
LINE
8
BLACK
6
CONTINUOUS
10
393.958
20
-46.5273
11
393.913
21
-46.497
0
LINE
8
BLACK
6
CONTINUOUS
10
393.913
20
-46.497
11
393.883
21
-46.4516
0
LINE
8
BLACK
6
CONTINUOUS
10
393.883
20
-46.4516
11
393.872
21
-46.398
0
LINE
8
BLACK
6
CONTINUOUS
10
393.872
20
-46.398
11
393.872
21
-46.058
0
LINE
8
BLACK
6
CONTINUOUS
10
393.872
20
-46.058
11
393.883
21
-46.0044
0
LINE
8
BLACK
6
CONTINUOUS
10
393.883
20
-46.0044
11
393.913
21
-45.959
0
LINE
8
BLACK
6
CONTINUOUS
10
393.913
20
-45.959
11
393.958
21
-45.9287
0
LINE
8
BLACK
6
CONTINUOUS
10
393.958
20
-45.9287
11
394.012
21
-45.918
0
LINE
8
BLACK
6
CONTINUOUS
10
394.012
20
-45.918
11
394.292
21
-45.918
0
LINE
8
BLACK
6
CONTINUOUS
10
394.292
20
-45.918
11
394.346
21
-45.9287
0
LINE
8
BLACK
6
CONTINUOUS
10
391.402
20
-46.1208
11
389.94
21
-46.1208
0
LINE
8
BLACK
6
CONTINUOUS
10
389.94
20
-46.1208
11
389.94
21
-45.8668
0
LINE
8
BLACK
6
CONTINUOUS
10
389.94
20
-45.8668
11
391.402
21
-45.8668
0
LINE
8
BLACK
6
CONTINUOUS
10
391.402
20
-45.8668
11
391.402
21
-46.1208
0
LINE
8
BLACK
6
CONTINUOUS
10
383.172
20
-46.1208
11
381.71
21
-46.1208
0
LINE
8
BLACK
6
CONTINUOUS
10
381.71
20
-46.1208
11
381.71
21
-45.8668
0
LINE
8
BLACK
6
CONTINUOUS
10
381.71
20
-45.8668
11
383.172
21
-45.8668
0
LINE
8
BLACK
6
CONTINUOUS
10
383.172
20
-45.8668
11
383.172
21
-46.1208
0
LINE
8
BLACK
6
CONTINUOUS
10
391.402
20
-45.6208
11
389.94
21
-45.6208
0
LINE
8
BLACK
6
CONTINUOUS
10
389.94
20
-45.6208
11
389.94
21
-45.3667
0
LINE
8
BLACK
6
CONTINUOUS
10
389.94
20
-45.3667
11
391.402
21
-45.3667
0
LINE
8
BLACK
6
CONTINUOUS
10
391.402
20
-45.3667
11
391.402
21
-45.6208
0
LINE
8
BLACK
6
CONTINUOUS
10
383.172
20
-45.6208
11
381.71
21
-45.6208
0
LINE
8
BLACK
6
CONTINUOUS
10
381.71
20
-45.6208
11
381.71
21
-45.3667
0
LINE
8
BLACK
6
CONTINUOUS
10
381.71
20
-45.3667
11
383.172
21
-45.3667
0
LINE
8
BLACK
6
CONTINUOUS
10
383.172
20
-45.3667
11
383.172
21
-45.6208
0
LINE
8
BLACK
6
CONTINUOUS
10
377.158
20
-44.6587
11
377.203
21
-44.689
0
LINE
8
BLACK
6
CONTINUOUS
10
377.203
20
-44.689
11
377.233
21
-44.7344
0
LINE
8
BLACK
6
CONTINUOUS
10
377.233
20
-44.7344
11
377.244
21
-44.788
0
LINE
8
BLACK
6
CONTINUOUS
10
377.244
20
-44.788
11
377.244
21
-45.128
0
LINE
8
BLACK
6
CONTINUOUS
10
377.244
20
-45.128
11
377.233
21
-45.1816
0
LINE
8
BLACK
6
CONTINUOUS
10
377.233
20
-45.1816
11
377.203
21
-45.227
0
LINE
8
BLACK
6
CONTINUOUS
10
377.203
20
-45.227
11
377.158
21
-45.2573
0
LINE
8
BLACK
6
CONTINUOUS
10
377.158
20
-45.2573
11
377.104
21
-45.268
0
LINE
8
BLACK
6
CONTINUOUS
10
377.104
20
-45.268
11
376.824
21
-45.268
0
LINE
8
BLACK
6
CONTINUOUS
10
376.824
20
-45.268
11
376.77
21
-45.2573
0
LINE
8
BLACK
6
CONTINUOUS
10
376.77
20
-45.2573
11
376.725
21
-45.227
0
LINE
8
BLACK
6
CONTINUOUS
10
376.725
20
-45.227
11
376.695
21
-45.1816
0
LINE
8
BLACK
6
CONTINUOUS
10
376.695
20
-45.1816
11
376.684
21
-45.128
0
LINE
8
BLACK
6
CONTINUOUS
10
376.684
20
-45.128
11
376.684
21
-44.788
0
LINE
8
BLACK
6
CONTINUOUS
10
376.684
20
-44.788
11
376.695
21
-44.7344
0
LINE
8
BLACK
6
CONTINUOUS
10
376.695
20
-44.7344
11
376.725
21
-44.689
0
LINE
8
BLACK
6
CONTINUOUS
10
376.725
20
-44.689
11
376.77
21
-44.6587
0
LINE
8
BLACK
6
CONTINUOUS
10
376.77
20
-44.6587
11
376.824
21
-44.648
0
LINE
8
BLACK
6
CONTINUOUS
10
376.824
20
-44.648
11
377.104
21
-44.648
0
LINE
8
BLACK
6
CONTINUOUS
10
377.104
20
-44.648
11
377.158
21
-44.6587
0
LINE
8
BLACK
6
CONTINUOUS
10
378.118
20
-44.6587
11
378.163
21
-44.689
0
LINE
8
BLACK
6
CONTINUOUS
10
378.163
20
-44.689
11
378.193
21
-44.7344
0
LINE
8
BLACK
6
CONTINUOUS
10
378.193
20
-44.7344
11
378.204
21
-44.788
0
LINE
8
BLACK
6
CONTINUOUS
10
378.204
20
-44.788
11
378.204
21
-45.128
0
LINE
8
BLACK
6
CONTINUOUS
10
378.204
20
-45.128
11
378.193
21
-45.1816
0
LINE
8
BLACK
6
CONTINUOUS
10
378.193
20
-45.1816
11
378.163
21
-45.227
0
LINE
8
BLACK
6
CONTINUOUS
10
378.163
20
-45.227
11
378.118
21
-45.2573
0
LINE
8
BLACK
6
CONTINUOUS
10
378.118
20
-45.2573
11
378.064
21
-45.268
0
LINE
8
BLACK
6
CONTINUOUS
10
378.064
20
-45.268
11
377.784
21
-45.268
0
LINE
8
BLACK
6
CONTINUOUS
10
377.784
20
-45.268
11
377.73
21
-45.2573
0
LINE
8
BLACK
6
CONTINUOUS
10
377.73
20
-45.2573
11
377.685
21
-45.227
0
LINE
8
BLACK
6
CONTINUOUS
10
377.685
20
-45.227
11
377.655
21
-45.1816
0
LINE
8
BLACK
6
CONTINUOUS
10
377.655
20
-45.1816
11
377.644
21
-45.128
0
LINE
8
BLACK
6
CONTINUOUS
10
377.644
20
-45.128
11
377.644
21
-44.788
0
LINE
8
BLACK
6
CONTINUOUS
10
377.644
20
-44.788
11
377.655
21
-44.7344
0
LINE
8
BLACK
6
CONTINUOUS
10
377.655
20
-44.7344
11
377.685
21
-44.689
0
LINE
8
BLACK
6
CONTINUOUS
10
377.685
20
-44.689
11
377.73
21
-44.6587
0
LINE
8
BLACK
6
CONTINUOUS
10
377.73
20
-44.6587
11
377.784
21
-44.648
0
LINE
8
BLACK
6
CONTINUOUS
10
377.784
20
-44.648
11
378.064
21
-44.648
0
LINE
8
BLACK
6
CONTINUOUS
10
378.064
20
-44.648
11
378.118
21
-44.6587
0
LINE
8
BLACK
6
CONTINUOUS
10
383.172
20
-45.1208
11
381.71
21
-45.1208
0
LINE
8
BLACK
6
CONTINUOUS
10
381.71
20
-45.1208
11
381.71
21
-44.8667
0
LINE
8
BLACK
6
CONTINUOUS
10
381.71
20
-44.8667
11
383.172
21
-44.8667
0
LINE
8
BLACK
6
CONTINUOUS
10
383.172
20
-44.8667
11
383.172
21
-45.1208
0
LINE
8
BLACK
6
CONTINUOUS
10
391.402
20
-45.1208
11
389.94
21
-45.1208
0
LINE
8
BLACK
6
CONTINUOUS
10
389.94
20
-45.1208
11
389.94
21
-44.8667
0
LINE
8
BLACK
6
CONTINUOUS
10
389.94
20
-44.8667
11
391.402
21
-44.8667
0
LINE
8
BLACK
6
CONTINUOUS
10
391.402
20
-44.8667
11
391.402
21
-45.1208
0
LINE
8
BLACK
6
CONTINUOUS
10
391.402
20
-44.6207
11
389.94
21
-44.6207
0
LINE
8
BLACK
6
CONTINUOUS
10
389.94
20
-44.6207
11
389.94
21
-44.3667
0
LINE
8
BLACK
6
CONTINUOUS
10
389.94
20
-44.3667
11
391.402
21
-44.3667
0
LINE
8
BLACK
6
CONTINUOUS
10
391.402
20
-44.3667
11
391.402
21
-44.6207
0
LINE
8
BLACK
6
CONTINUOUS
10
383.172
20
-44.6207
11
381.71
21
-44.6207
0
LINE
8
BLACK
6
CONTINUOUS
10
381.71
20
-44.6207
11
381.71
21
-44.3667
0
LINE
8
BLACK
6
CONTINUOUS
10
381.71
20
-44.3667
11
383.172
21
-44.3667
0
LINE
8
BLACK
6
CONTINUOUS
10
383.172
20
-44.3667
11
383.172
21
-44.6207
0
LINE
8
BLACK
6
CONTINUOUS
10
383.172
20
-44.1208
11
381.71
21
-44.1208
0
LINE
8
BLACK
6
CONTINUOUS
10
381.71
20
-44.1208
11
381.71
21
-43.8667
0
LINE
8
BLACK
6
CONTINUOUS
10
381.71
20
-43.8667
11
383.172
21
-43.8667
0
LINE
8
BLACK
6
CONTINUOUS
10
383.172
20
-43.8667
11
383.172
21
-44.1208
0
LINE
8
BLACK
6
CONTINUOUS
10
391.402
20
-44.1208
11
389.94
21
-44.1208
0
LINE
8
BLACK
6
CONTINUOUS
10
389.94
20
-44.1208
11
389.94
21
-43.8667
0
LINE
8
BLACK
6
CONTINUOUS
10
389.94
20
-43.8667
11
391.402
21
-43.8667
0
LINE
8
BLACK
6
CONTINUOUS
10
391.402
20
-43.8667
11
391.402
21
-44.1208
0
LINE
8
BLACK
6
CONTINUOUS
10
383.172
20
-43.6208
11
381.71
21
-43.6208
0
LINE
8
BLACK
6
CONTINUOUS
10
381.71
20
-43.6208
11
381.71
21
-43.3668
0
LINE
8
BLACK
6
CONTINUOUS
10
381.71
20
-43.3668
11
383.172
21
-43.3668
0
LINE
8
BLACK
6
CONTINUOUS
10
383.172
20
-43.3668
11
383.172
21
-43.6208
0
LINE
8
BLACK
6
CONTINUOUS
10
391.402
20
-43.6208
11
389.94
21
-43.6208
0
LINE
8
BLACK
6
CONTINUOUS
10
389.94
20
-43.6208
11
389.94
21
-43.3668
0
LINE
8
BLACK
6
CONTINUOUS
10
389.94
20
-43.3668
11
391.402
21
-43.3668
0
LINE
8
BLACK
6
CONTINUOUS
10
391.402
20
-43.3668
11
391.402
21
-43.6208
0
LINE
8
BLACK
6
CONTINUOUS
10
383.172
20
-43.1207
11
381.71
21
-43.1207
0
LINE
8
BLACK
6
CONTINUOUS
10
381.71
20
-43.1207
11
381.71
21
-42.8667
0
LINE
8
BLACK
6
CONTINUOUS
10
381.71
20
-42.8667
11
383.172
21
-42.8667
0
LINE
8
BLACK
6
CONTINUOUS
10
383.172
20
-42.8667
11
383.172
21
-43.1207
0
LINE
8
BLACK
6
CONTINUOUS
10
391.402
20
-43.1207
11
389.94
21
-43.1207
0
LINE
8
BLACK
6
CONTINUOUS
10
389.94
20
-43.1207
11
389.94
21
-42.8667
0
LINE
8
BLACK
6
CONTINUOUS
10
389.94
20
-42.8667
11
391.402
21
-42.8667
0
LINE
8
BLACK
6
CONTINUOUS
10
391.402
20
-42.8667
11
391.402
21
-43.1207
0
LINE
8
BLACK
6
CONTINUOUS
10
391.402
20
-42.6208
11
389.94
21
-42.6208
0
LINE
8
BLACK
6
CONTINUOUS
10
389.94
20
-42.6208
11
389.94
21
-42.3667
0
LINE
8
BLACK
6
CONTINUOUS
10
389.94
20
-42.3667
11
391.402
21
-42.3667
0
LINE
8
BLACK
6
CONTINUOUS
10
391.402
20
-42.3667
11
391.402
21
-42.6208
0
LINE
8
BLACK
6
CONTINUOUS
10
383.172
20
-42.6208
11
381.71
21
-42.6208
0
LINE
8
BLACK
6
CONTINUOUS
10
381.71
20
-42.6208
11
381.71
21
-42.3667
0
LINE
8
BLACK
6
CONTINUOUS
10
381.71
20
-42.3667
11
383.172
21
-42.3667
0
LINE
8
BLACK
6
CONTINUOUS
10
383.172
20
-42.3667
11
383.172
21
-42.6208
0
LINE
8
BLACK
6
CONTINUOUS
10
384.933
20
-41.8599
11
384.679
21
-41.8599
0
LINE
8
BLACK
6
CONTINUOUS
10
384.679
20
-41.8599
11
384.679
21
-40.398
0
LINE
8
BLACK
6
CONTINUOUS
10
384.679
20
-40.398
11
384.933
21
-40.398
0
LINE
8
BLACK
6
CONTINUOUS
10
384.933
20
-40.398
11
384.933
21
-41.8599
0
LINE
8
BLACK
6
CONTINUOUS
10
389.433
20
-41.8599
11
389.179
21
-41.8599
0
LINE
8
BLACK
6
CONTINUOUS
10
389.179
20
-41.8599
11
389.179
21
-40.398
0
LINE
8
BLACK
6
CONTINUOUS
10
389.179
20
-40.398
11
389.433
21
-40.398
0
LINE
8
BLACK
6
CONTINUOUS
10
389.433
20
-40.398
11
389.433
21
-41.8599
0
LINE
8
BLACK
6
CONTINUOUS
10
388.933
20
-41.8599
11
388.679
21
-41.8599
0
LINE
8
BLACK
6
CONTINUOUS
10
388.679
20
-41.8599
11
388.679
21
-40.398
0
LINE
8
BLACK
6
CONTINUOUS
10
388.679
20
-40.398
11
388.933
21
-40.398
0
LINE
8
BLACK
6
CONTINUOUS
10
388.933
20
-40.398
11
388.933
21
-41.8599
0
LINE
8
BLACK
6
CONTINUOUS
10
388.433
20
-41.8599
11
388.179
21
-41.8599
0
LINE
8
BLACK
6
CONTINUOUS
10
388.179
20
-41.8599
11
388.179
21
-40.398
0
LINE
8
BLACK
6
CONTINUOUS
10
388.179
20
-40.398
11
388.433
21
-40.398
0
LINE
8
BLACK
6
CONTINUOUS
10
388.433
20
-40.398
11
388.433
21
-41.8599
0
LINE
8
BLACK
6
CONTINUOUS
10
387.933
20
-41.8599
11
387.679
21
-41.8599
0
LINE
8
BLACK
6
CONTINUOUS
10
387.679
20
-41.8599
11
387.679
21
-40.398
0
LINE
8
BLACK
6
CONTINUOUS
10
387.679
20
-40.398
11
387.933
21
-40.398
0
LINE
8
BLACK
6
CONTINUOUS
10
387.933
20
-40.398
11
387.933
21
-41.8599
0
LINE
8
BLACK
6
CONTINUOUS
10
387.433
20
-41.8599
11
387.179
21
-41.8599
0
LINE
8
BLACK
6
CONTINUOUS
10
387.179
20
-41.8599
11
387.179
21
-40.398
0
LINE
8
BLACK
6
CONTINUOUS
10
387.179
20
-40.398
11
387.433
21
-40.398
0
LINE
8
BLACK
6
CONTINUOUS
10
387.433
20
-40.398
11
387.433
21
-41.8599
0
LINE
8
BLACK
6
CONTINUOUS
10
386.933
20
-41.8599
11
386.679
21
-41.8599
0
LINE
8
BLACK
6
CONTINUOUS
10
386.679
20
-41.8599
11
386.679
21
-40.398
0
LINE
8
BLACK
6
CONTINUOUS
10
386.679
20
-40.398
11
386.933
21
-40.398
0
LINE
8
BLACK
6
CONTINUOUS
10
386.933
20
-40.398
11
386.933
21
-41.8599
0
LINE
8
BLACK
6
CONTINUOUS
10
386.433
20
-41.8599
11
386.179
21
-41.8599
0
LINE
8
BLACK
6
CONTINUOUS
10
386.179
20
-41.8599
11
386.179
21
-40.398
0
LINE
8
BLACK
6
CONTINUOUS
10
386.179
20
-40.398
11
386.433
21
-40.398
0
LINE
8
BLACK
6
CONTINUOUS
10
386.433
20
-40.398
11
386.433
21
-41.8599
0
LINE
8
BLACK
6
CONTINUOUS
10
385.933
20
-41.8599
11
385.679
21
-41.8599
0
LINE
8
BLACK
6
CONTINUOUS
10
385.679
20
-41.8599
11
385.679
21
-40.398
0
LINE
8
BLACK
6
CONTINUOUS
10
385.679
20
-40.398
11
385.933
21
-40.398
0
LINE
8
BLACK
6
CONTINUOUS
10
385.933
20
-40.398
11
385.933
21
-41.8599
0
LINE
8
BLACK
6
CONTINUOUS
10
385.433
20
-41.8599
11
385.179
21
-41.8599
0
LINE
8
BLACK
6
CONTINUOUS
10
385.179
20
-41.8599
11
385.179
21
-40.398
0
LINE
8
BLACK
6
CONTINUOUS
10
385.179
20
-40.398
11
385.433
21
-40.398
0
LINE
8
BLACK
6
CONTINUOUS
10
385.433
20
-40.398
11
385.433
21
-41.8599
0
LINE
8
BLACK
6
CONTINUOUS
10
384.433
20
-41.8599
11
384.179
21
-41.8599
0
LINE
8
BLACK
6
CONTINUOUS
10
384.179
20
-41.8599
11
384.179
21
-40.398
0
LINE
8
BLACK
6
CONTINUOUS
10
384.179
20
-40.398
11
384.433
21
-40.398
0
LINE
8
BLACK
6
CONTINUOUS
10
384.433
20
-40.398
11
384.433
21
-41.8599
0
LINE
8
BLACK
6
CONTINUOUS
10
383.933
20
-41.8599
11
383.679
21
-41.8599
0
LINE
8
BLACK
6
CONTINUOUS
10
383.679
20
-41.8599
11
383.679
21
-40.398
0
LINE
8
BLACK
6
CONTINUOUS
10
383.679
20
-40.398
11
383.933
21
-40.398
0
LINE
8
BLACK
6
CONTINUOUS
10
383.933
20
-40.398
11
383.933
21
-41.8599
0
LINE
8
BLACK
6
CONTINUOUS
10
404.115
20
-39.959
11
404.196
21
-40.0132
0
LINE
8
BLACK
6
CONTINUOUS
10
404.196
20
-40.0132
11
404.25
21
-40.0943
0
LINE
8
BLACK
6
CONTINUOUS
10
404.25
20
-40.0943
11
404.269
21
-40.19
0
LINE
8
BLACK
6
CONTINUOUS
10
404.269
20
-40.19
11
404.269
21
-41.09
0
LINE
8
BLACK
6
CONTINUOUS
10
404.269
20
-41.09
11
404.25
21
-41.1857
0
LINE
8
BLACK
6
CONTINUOUS
10
404.25
20
-41.1857
11
404.196
21
-41.2668
0
LINE
8
BLACK
6
CONTINUOUS
10
404.196
20
-41.2668
11
404.115
21
-41.321
0
LINE
8
BLACK
6
CONTINUOUS
10
404.115
20
-41.321
11
404.019
21
-41.34
0
LINE
8
BLACK
6
CONTINUOUS
10
404.019
20
-41.34
11
403.494
21
-41.34
0
LINE
8
BLACK
6
CONTINUOUS
10
403.494
20
-41.34
11
403.398
21
-41.321
0
LINE
8
BLACK
6
CONTINUOUS
10
403.398
20
-41.321
11
403.317
21
-41.2668
0
LINE
8
BLACK
6
CONTINUOUS
10
403.317
20
-41.2668
11
403.263
21
-41.1857
0
LINE
8
BLACK
6
CONTINUOUS
10
403.263
20
-41.1857
11
403.244
21
-41.09
0
LINE
8
BLACK
6
CONTINUOUS
10
403.244
20
-41.09
11
403.244
21
-40.19
0
LINE
8
BLACK
6
CONTINUOUS
10
403.244
20
-40.19
11
403.263
21
-40.0943
0
LINE
8
BLACK
6
CONTINUOUS
10
403.263
20
-40.0943
11
403.317
21
-40.0132
0
LINE
8
BLACK
6
CONTINUOUS
10
403.317
20
-40.0132
11
403.398
21
-39.959
0
LINE
8
BLACK
6
CONTINUOUS
10
403.398
20
-39.959
11
403.494
21
-39.94
0
LINE
8
BLACK
6
CONTINUOUS
10
403.494
20
-39.94
11
404.019
21
-39.94
0
LINE
8
BLACK
6
CONTINUOUS
10
404.019
20
-39.94
11
404.115
21
-39.959
0
LINE
8
BLACK
6
CONTINUOUS
10
402.29
20
-39.959
11
402.371
21
-40.0132
0
LINE
8
BLACK
6
CONTINUOUS
10
402.371
20
-40.0132
11
402.425
21
-40.0943
0
LINE
8
BLACK
6
CONTINUOUS
10
402.425
20
-40.0943
11
402.444
21
-40.19
0
LINE
8
BLACK
6
CONTINUOUS
10
402.444
20
-40.19
11
402.444
21
-41.09
0
LINE
8
BLACK
6
CONTINUOUS
10
402.444
20
-41.09
11
402.425
21
-41.1857
0
LINE
8
BLACK
6
CONTINUOUS
10
402.425
20
-41.1857
11
402.371
21
-41.2668
0
LINE
8
BLACK
6
CONTINUOUS
10
402.371
20
-41.2668
11
402.29
21
-41.321
0
LINE
8
BLACK
6
CONTINUOUS
10
402.29
20
-41.321
11
402.194
21
-41.34
0
LINE
8
BLACK
6
CONTINUOUS
10
402.194
20
-41.34
11
401.669
21
-41.34
0
LINE
8
BLACK
6
CONTINUOUS
10
401.669
20
-41.34
11
401.573
21
-41.321
0
LINE
8
BLACK
6
CONTINUOUS
10
401.573
20
-41.321
11
401.492
21
-41.2668
0
LINE
8
BLACK
6
CONTINUOUS
10
401.492
20
-41.2668
11
401.438
21
-41.1857
0
LINE
8
BLACK
6
CONTINUOUS
10
401.438
20
-41.1857
11
401.419
21
-41.09
0
LINE
8
BLACK
6
CONTINUOUS
10
401.419
20
-41.09
11
401.419
21
-40.19
0
LINE
8
BLACK
6
CONTINUOUS
10
401.419
20
-40.19
11
401.438
21
-40.0943
0
LINE
8
BLACK
6
CONTINUOUS
10
401.438
20
-40.0943
11
401.492
21
-40.0132
0
LINE
8
BLACK
6
CONTINUOUS
10
401.492
20
-40.0132
11
401.573
21
-39.959
0
LINE
8
BLACK
6
CONTINUOUS
10
401.573
20
-39.959
11
401.669
21
-39.94
0
LINE
8
BLACK
6
CONTINUOUS
10
401.669
20
-39.94
11
402.194
21
-39.94
0
LINE
8
BLACK
6
CONTINUOUS
10
402.194
20
-39.94
11
402.29
21
-39.959
0
LINE
8
BLACK
6
CONTINUOUS
10
350.644
20
-41.1437
11
349.444
21
-41.1437
0
LINE
8
BLACK
6
CONTINUOUS
10
349.444
20
-41.1437
11
349.444
21
-40.2437
0
LINE
8
BLACK
6
CONTINUOUS
10
349.444
20
-40.2437
11
350.644
21
-40.2437
0
LINE
8
BLACK
6
CONTINUOUS
10
350.644
20
-40.2437
11
350.644
21
-41.1437
0
LINE
8
BLACK
6
CONTINUOUS
10
53.1237
20
-37.6535
11
53.2048
21
-37.7077
0
LINE
8
BLACK
6
CONTINUOUS
10
53.2048
20
-37.7077
11
53.259
21
-37.7888
0
LINE
8
BLACK
6
CONTINUOUS
10
53.259
20
-37.7888
11
53.278
21
-37.8845
0
LINE
8
BLACK
6
CONTINUOUS
10
53.278
20
-37.8845
11
53.278
21
-38.4095
0
LINE
8
BLACK
6
CONTINUOUS
10
53.278
20
-38.4095
11
53.259
21
-38.5052
0
LINE
8
BLACK
6
CONTINUOUS
10
53.259
20
-38.5052
11
53.2048
21
-38.5863
0
LINE
8
BLACK
6
CONTINUOUS
10
53.2048
20
-38.5863
11
53.1237
21
-38.6405
0
LINE
8
BLACK
6
CONTINUOUS
10
53.1237
20
-38.6405
11
53.028
21
-38.6595
0
LINE
8
BLACK
6
CONTINUOUS
10
53.028
20
-38.6595
11
52.128
21
-38.6595
0
LINE
8
BLACK
6
CONTINUOUS
10
52.128
20
-38.6595
11
52.0323
21
-38.6405
0
LINE
8
BLACK
6
CONTINUOUS
10
52.0323
20
-38.6405
11
51.9512
21
-38.5863
0
LINE
8
BLACK
6
CONTINUOUS
10
51.9512
20
-38.5863
11
51.897
21
-38.5052
0
LINE
8
BLACK
6
CONTINUOUS
10
51.897
20
-38.5052
11
51.878
21
-38.4095
0
LINE
8
BLACK
6
CONTINUOUS
10
51.878
20
-38.4095
11
51.878
21
-37.8845
0
LINE
8
BLACK
6
CONTINUOUS
10
51.878
20
-37.8845
11
51.897
21
-37.7888
0
LINE
8
BLACK
6
CONTINUOUS
10
51.897
20
-37.7888
11
51.9512
21
-37.7077
0
LINE
8
BLACK
6
CONTINUOUS
10
51.9512
20
-37.7077
11
52.0323
21
-37.6535
0
LINE
8
BLACK
6
CONTINUOUS
10
52.0323
20
-37.6535
11
52.128
21
-37.6345
0
LINE
8
BLACK
6
CONTINUOUS
10
52.128
20
-37.6345
11
53.028
21
-37.6345
0
LINE
8
BLACK
6
CONTINUOUS
10
53.028
20
-37.6345
11
53.1237
21
-37.6535
0
LINE
8
BLACK
6
CONTINUOUS
10
55.6637
20
-37.503
11
55.7448
21
-37.5572
0
LINE
8
BLACK
6
CONTINUOUS
10
55.7448
20
-37.5572
11
55.799
21
-37.6383
0
LINE
8
BLACK
6
CONTINUOUS
10
55.799
20
-37.6383
11
55.818
21
-37.734
0
LINE
8
BLACK
6
CONTINUOUS
10
55.818
20
-37.734
11
55.818
21
-38.259
0
LINE
8
BLACK
6
CONTINUOUS
10
55.818
20
-38.259
11
55.799
21
-38.3547
0
LINE
8
BLACK
6
CONTINUOUS
10
55.799
20
-38.3547
11
55.7448
21
-38.4358
0
LINE
8
BLACK
6
CONTINUOUS
10
55.7448
20
-38.4358
11
55.6637
21
-38.49
0
LINE
8
BLACK
6
CONTINUOUS
10
55.6637
20
-38.49
11
55.568
21
-38.509
0
LINE
8
BLACK
6
CONTINUOUS
10
55.568
20
-38.509
11
54.668
21
-38.509
0
LINE
8
BLACK
6
CONTINUOUS
10
54.668
20
-38.509
11
54.5723
21
-38.49
0
LINE
8
BLACK
6
CONTINUOUS
10
54.5723
20
-38.49
11
54.4912
21
-38.4358
0
LINE
8
BLACK
6
CONTINUOUS
10
54.4912
20
-38.4358
11
54.437
21
-38.3547
0
LINE
8
BLACK
6
CONTINUOUS
10
54.437
20
-38.3547
11
54.418
21
-38.259
0
LINE
8
BLACK
6
CONTINUOUS
10
54.418
20
-38.259
11
54.418
21
-37.734
0
LINE
8
BLACK
6
CONTINUOUS
10
54.418
20
-37.734
11
54.437
21
-37.6383
0
LINE
8
BLACK
6
CONTINUOUS
10
54.437
20
-37.6383
11
54.4912
21
-37.5572
0
LINE
8
BLACK
6
CONTINUOUS
10
54.4912
20
-37.5572
11
54.5723
21
-37.503
0
LINE
8
BLACK
6
CONTINUOUS
10
54.5723
20
-37.503
11
54.668
21
-37.484
0
LINE
8
BLACK
6
CONTINUOUS
10
54.668
20
-37.484
11
55.568
21
-37.484
0
LINE
8
BLACK
6
CONTINUOUS
10
55.568
20
-37.484
11
55.6637
21
-37.503
0
LINE
8
BLACK
6
CONTINUOUS
10
350.644
20
-37.8438
11
349.444
21
-37.8438
0
LINE
8
BLACK
6
CONTINUOUS
10
349.444
20
-37.8438
11
349.444
21
-36.9438
0
LINE
8
BLACK
6
CONTINUOUS
10
349.444
20
-36.9438
11
350.644
21
-36.9438
0
LINE
8
BLACK
6
CONTINUOUS
10
350.644
20
-36.9438
11
350.644
21
-37.8438
0
LINE
8
BLACK
6
CONTINUOUS
10
53.1237
20
-35.8285
11
53.2048
21
-35.8827
0
LINE
8
BLACK
6
CONTINUOUS
10
53.2048
20
-35.8827
11
53.259
21
-35.9638
0
LINE
8
BLACK
6
CONTINUOUS
10
53.259
20
-35.9638
11
53.278
21
-36.0595
0
LINE
8
BLACK
6
CONTINUOUS
10
53.278
20
-36.0595
11
53.278
21
-36.5845
0
LINE
8
BLACK
6
CONTINUOUS
10
53.278
20
-36.5845
11
53.259
21
-36.6802
0
LINE
8
BLACK
6
CONTINUOUS
10
53.259
20
-36.6802
11
53.2048
21
-36.7613
0
LINE
8
BLACK
6
CONTINUOUS
10
53.2048
20
-36.7613
11
53.1237
21
-36.8155
0
LINE
8
BLACK
6
CONTINUOUS
10
53.1237
20
-36.8155
11
53.028
21
-36.8345
0
LINE
8
BLACK
6
CONTINUOUS
10
53.028
20
-36.8345
11
52.128
21
-36.8345
0
LINE
8
BLACK
6
CONTINUOUS
10
52.128
20
-36.8345
11
52.0323
21
-36.8155
0
LINE
8
BLACK
6
CONTINUOUS
10
52.0323
20
-36.8155
11
51.9512
21
-36.7613
0
LINE
8
BLACK
6
CONTINUOUS
10
51.9512
20
-36.7613
11
51.897
21
-36.6802
0
LINE
8
BLACK
6
CONTINUOUS
10
51.897
20
-36.6802
11
51.878
21
-36.5845
0
LINE
8
BLACK
6
CONTINUOUS
10
51.878
20
-36.5845
11
51.878
21
-36.0595
0
LINE
8
BLACK
6
CONTINUOUS
10
51.878
20
-36.0595
11
51.897
21
-35.9638
0
LINE
8
BLACK
6
CONTINUOUS
10
51.897
20
-35.9638
11
51.9512
21
-35.8827
0
LINE
8
BLACK
6
CONTINUOUS
10
51.9512
20
-35.8827
11
52.0323
21
-35.8285
0
LINE
8
BLACK
6
CONTINUOUS
10
52.0323
20
-35.8285
11
52.128
21
-35.8095
0
LINE
8
BLACK
6
CONTINUOUS
10
52.128
20
-35.8095
11
53.028
21
-35.8095
0
LINE
8
BLACK
6
CONTINUOUS
10
53.028
20
-35.8095
11
53.1237
21
-35.8285
0
LINE
8
BLACK
6
CONTINUOUS
10
55.6637
20
-35.678
11
55.7448
21
-35.7322
0
LINE
8
BLACK
6
CONTINUOUS
10
55.7448
20
-35.7322
11
55.799
21
-35.8133
0
LINE
8
BLACK
6
CONTINUOUS
10
55.799
20
-35.8133
11
55.818
21
-35.909
0
LINE
8
BLACK
6
CONTINUOUS
10
55.818
20
-35.909
11
55.818
21
-36.434
0
LINE
8
BLACK
6
CONTINUOUS
10
55.818
20
-36.434
11
55.799
21
-36.5297
0
LINE
8
BLACK
6
CONTINUOUS
10
55.799
20
-36.5297
11
55.7448
21
-36.6108
0
LINE
8
BLACK
6
CONTINUOUS
10
55.7448
20
-36.6108
11
55.6637
21
-36.665
0
LINE
8
BLACK
6
CONTINUOUS
10
55.6637
20
-36.665
11
55.568
21
-36.684
0
LINE
8
BLACK
6
CONTINUOUS
10
55.568
20
-36.684
11
54.668
21
-36.684
0
LINE
8
BLACK
6
CONTINUOUS
10
54.668
20
-36.684
11
54.5723
21
-36.665
0
LINE
8
BLACK
6
CONTINUOUS
10
54.5723
20
-36.665
11
54.4912
21
-36.6108
0
LINE
8
BLACK
6
CONTINUOUS
10
54.4912
20
-36.6108
11
54.437
21
-36.5297
0
LINE
8
BLACK
6
CONTINUOUS
10
54.437
20
-36.5297
11
54.418
21
-36.434
0
LINE
8
BLACK
6
CONTINUOUS
10
54.418
20
-36.434
11
54.418
21
-35.909
0
LINE
8
BLACK
6
CONTINUOUS
10
54.418
20
-35.909
11
54.437
21
-35.8133
0
LINE
8
BLACK
6
CONTINUOUS
10
54.437
20
-35.8133
11
54.4912
21
-35.7322
0
LINE
8
BLACK
6
CONTINUOUS
10
54.4912
20
-35.7322
11
54.5723
21
-35.678
0
LINE
8
BLACK
6
CONTINUOUS
10
54.5723
20
-35.678
11
54.668
21
-35.659
0
LINE
8
BLACK
6
CONTINUOUS
10
54.668
20
-35.659
11
55.568
21
-35.659
0
LINE
8
BLACK
6
CONTINUOUS
10
55.568
20
-35.659
11
55.6637
21
-35.678
0
LINE
8
BLACK
6
CONTINUOUS
10
48.9522
20
-33.228
11
49.0333
21
-33.2822
0
LINE
8
BLACK
6
CONTINUOUS
10
49.0333
20
-33.2822
11
49.0875
21
-33.3633
0
LINE
8
BLACK
6
CONTINUOUS
10
49.0875
20
-33.3633
11
49.1065
21
-33.459
0
LINE
8
BLACK
6
CONTINUOUS
10
49.1065
20
-33.459
11
49.1065
21
-34.359
0
LINE
8
BLACK
6
CONTINUOUS
10
49.1065
20
-34.359
11
49.0875
21
-34.4547
0
LINE
8
BLACK
6
CONTINUOUS
10
49.0875
20
-34.4547
11
49.0333
21
-34.5358
0
LINE
8
BLACK
6
CONTINUOUS
10
49.0333
20
-34.5358
11
48.9522
21
-34.59
0
LINE
8
BLACK
6
CONTINUOUS
10
48.9522
20
-34.59
11
48.8565
21
-34.609
0
LINE
8
BLACK
6
CONTINUOUS
10
48.8565
20
-34.609
11
48.3315
21
-34.609
0
LINE
8
BLACK
6
CONTINUOUS
10
48.3315
20
-34.609
11
48.2358
21
-34.59
0
LINE
8
BLACK
6
CONTINUOUS
10
48.2358
20
-34.59
11
48.1547
21
-34.5358
0
LINE
8
BLACK
6
CONTINUOUS
10
48.1547
20
-34.5358
11
48.1005
21
-34.4547
0
LINE
8
BLACK
6
CONTINUOUS
10
48.1005
20
-34.4547
11
48.0815
21
-34.359
0
LINE
8
BLACK
6
CONTINUOUS
10
48.0815
20
-34.359
11
48.0815
21
-33.459
0
LINE
8
BLACK
6
CONTINUOUS
10
48.0815
20
-33.459
11
48.1005
21
-33.3633
0
LINE
8
BLACK
6
CONTINUOUS
10
48.1005
20
-33.3633
11
48.1547
21
-33.2822
0
LINE
8
BLACK
6
CONTINUOUS
10
48.1547
20
-33.2822
11
48.2358
21
-33.228
0
LINE
8
BLACK
6
CONTINUOUS
10
48.2358
20
-33.228
11
48.3315
21
-33.209
0
LINE
8
BLACK
6
CONTINUOUS
10
48.3315
20
-33.209
11
48.8565
21
-33.209
0
LINE
8
BLACK
6
CONTINUOUS
10
48.8565
20
-33.209
11
48.9522
21
-33.228
0
LINE
8
BLACK
6
CONTINUOUS
10
50.7772
20
-33.228
11
50.8583
21
-33.2822
0
LINE
8
BLACK
6
CONTINUOUS
10
50.8583
20
-33.2822
11
50.9125
21
-33.3633
0
LINE
8
BLACK
6
CONTINUOUS
10
50.9125
20
-33.3633
11
50.9315
21
-33.459
0
LINE
8
BLACK
6
CONTINUOUS
10
50.9315
20
-33.459
11
50.9315
21
-34.359
0
LINE
8
BLACK
6
CONTINUOUS
10
50.9315
20
-34.359
11
50.9125
21
-34.4547
0
LINE
8
BLACK
6
CONTINUOUS
10
50.9125
20
-34.4547
11
50.8583
21
-34.5358
0
LINE
8
BLACK
6
CONTINUOUS
10
50.8583
20
-34.5358
11
50.7772
21
-34.59
0
LINE
8
BLACK
6
CONTINUOUS
10
50.7772
20
-34.59
11
50.6815
21
-34.609
0
LINE
8
BLACK
6
CONTINUOUS
10
50.6815
20
-34.609
11
50.1565
21
-34.609
0
LINE
8
BLACK
6
CONTINUOUS
10
50.1565
20
-34.609
11
50.0608
21
-34.59
0
LINE
8
BLACK
6
CONTINUOUS
10
50.0608
20
-34.59
11
49.9797
21
-34.5358
0
LINE
8
BLACK
6
CONTINUOUS
10
49.9797
20
-34.5358
11
49.9255
21
-34.4547
0
LINE
8
BLACK
6
CONTINUOUS
10
49.9255
20
-34.4547
11
49.9065
21
-34.359
0
LINE
8
BLACK
6
CONTINUOUS
10
49.9065
20
-34.359
11
49.9065
21
-33.459
0
LINE
8
BLACK
6
CONTINUOUS
10
49.9065
20
-33.459
11
49.9255
21
-33.3633
0
LINE
8
BLACK
6
CONTINUOUS
10
49.9255
20
-33.3633
11
49.9797
21
-33.2822
0
LINE
8
BLACK
6
CONTINUOUS
10
49.9797
20
-33.2822
11
50.0608
21
-33.228
0
LINE
8
BLACK
6
CONTINUOUS
10
50.0608
20
-33.228
11
50.1565
21
-33.209
0
LINE
8
BLACK
6
CONTINUOUS
10
50.1565
20
-33.209
11
50.6815
21
-33.209
0
LINE
8
BLACK
6
CONTINUOUS
10
50.6815
20
-33.209
11
50.7772
21
-33.228
0
LINE
8
BLACK
6
CONTINUOUS
10
57.361
20
-32.1377
11
57.4319
21
-32.1851
0
LINE
8
BLACK
6
CONTINUOUS
10
57.4319
20
-32.1851
11
57.4793
21
-32.256
0
LINE
8
BLACK
6
CONTINUOUS
10
57.4793
20
-32.256
11
57.496
21
-32.3397
0
LINE
8
BLACK
6
CONTINUOUS
10
57.496
20
-32.3397
11
57.496
21
-32.7772
0
LINE
8
BLACK
6
CONTINUOUS
10
57.496
20
-32.7772
11
57.4793
21
-32.861
0
LINE
8
BLACK
6
CONTINUOUS
10
57.4793
20
-32.861
11
57.4319
21
-32.9319
0
LINE
8
BLACK
6
CONTINUOUS
10
57.4319
20
-32.9319
11
57.361
21
-32.9793
0
LINE
8
BLACK
6
CONTINUOUS
10
57.361
20
-32.9793
11
57.2772
21
-32.996
0
LINE
8
BLACK
6
CONTINUOUS
10
57.2772
20
-32.996
11
56.5147
21
-32.996
0
LINE
8
BLACK
6
CONTINUOUS
10
56.5147
20
-32.996
11
56.431
21
-32.9793
0
LINE
8
BLACK
6
CONTINUOUS
10
56.431
20
-32.9793
11
56.3601
21
-32.9319
0
LINE
8
BLACK
6
CONTINUOUS
10
56.3601
20
-32.9319
11
56.3127
21
-32.861
0
LINE
8
BLACK
6
CONTINUOUS
10
56.3127
20
-32.861
11
56.296
21
-32.7772
0
LINE
8
BLACK
6
CONTINUOUS
10
56.296
20
-32.7772
11
56.296
21
-32.3397
0
LINE
8
BLACK
6
CONTINUOUS
10
56.296
20
-32.3397
11
56.3127
21
-32.256
0
LINE
8
BLACK
6
CONTINUOUS
10
56.3127
20
-32.256
11
56.3601
21
-32.1851
0
LINE
8
BLACK
6
CONTINUOUS
10
56.3601
20
-32.1851
11
56.431
21
-32.1377
0
LINE
8
BLACK
6
CONTINUOUS
10
56.431
20
-32.1377
11
56.5147
21
-32.121
0
LINE
8
BLACK
6
CONTINUOUS
10
56.5147
20
-32.121
11
57.2772
21
-32.121
0
LINE
8
BLACK
6
CONTINUOUS
10
57.2772
20
-32.121
11
57.361
21
-32.1377
0
LINE
8
BLACK
6
CONTINUOUS
10
53.6317
20
-31.915
11
53.7128
21
-31.9692
0
LINE
8
BLACK
6
CONTINUOUS
10
53.7128
20
-31.9692
11
53.767
21
-32.0503
0
LINE
8
BLACK
6
CONTINUOUS
10
53.767
20
-32.0503
11
53.786
21
-32.146
0
LINE
8
BLACK
6
CONTINUOUS
10
53.786
20
-32.146
11
53.786
21
-32.671
0
LINE
8
BLACK
6
CONTINUOUS
10
53.786
20
-32.671
11
53.767
21
-32.7667
0
LINE
8
BLACK
6
CONTINUOUS
10
53.767
20
-32.7667
11
53.7128
21
-32.8478
0
LINE
8
BLACK
6
CONTINUOUS
10
53.7128
20
-32.8478
11
53.6317
21
-32.902
0
LINE
8
BLACK
6
CONTINUOUS
10
53.6317
20
-32.902
11
53.536
21
-32.921
0
LINE
8
BLACK
6
CONTINUOUS
10
53.536
20
-32.921
11
52.636
21
-32.921
0
LINE
8
BLACK
6
CONTINUOUS
10
52.636
20
-32.921
11
52.5403
21
-32.902
0
LINE
8
BLACK
6
CONTINUOUS
10
52.5403
20
-32.902
11
52.4592
21
-32.8478
0
LINE
8
BLACK
6
CONTINUOUS
10
52.4592
20
-32.8478
11
52.405
21
-32.7667
0
LINE
8
BLACK
6
CONTINUOUS
10
52.405
20
-32.7667
11
52.386
21
-32.671
0
LINE
8
BLACK
6
CONTINUOUS
10
52.386
20
-32.671
11
52.386
21
-32.146
0
LINE
8
BLACK
6
CONTINUOUS
10
52.386
20
-32.146
11
52.405
21
-32.0503
0
LINE
8
BLACK
6
CONTINUOUS
10
52.405
20
-32.0503
11
52.4592
21
-31.9692
0
LINE
8
BLACK
6
CONTINUOUS
10
52.4592
20
-31.9692
11
52.5403
21
-31.915
0
LINE
8
BLACK
6
CONTINUOUS
10
52.5403
20
-31.915
11
52.636
21
-31.896
0
LINE
8
BLACK
6
CONTINUOUS
10
52.636
20
-31.896
11
53.536
21
-31.896
0
LINE
8
BLACK
6
CONTINUOUS
10
53.536
20
-31.896
11
53.6317
21
-31.915
0
LINE
8
BLACK
6
CONTINUOUS
10
53.6317
20
-30.09
11
53.7128
21
-30.1442
0
LINE
8
BLACK
6
CONTINUOUS
10
53.7128
20
-30.1442
11
53.767
21
-30.2253
0
LINE
8
BLACK
6
CONTINUOUS
10
53.767
20
-30.2253
11
53.786
21
-30.321
0
LINE
8
BLACK
6
CONTINUOUS
10
53.786
20
-30.321
11
53.786
21
-30.846
0
LINE
8
BLACK
6
CONTINUOUS
10
53.786
20
-30.846
11
53.767
21
-30.9417
0
LINE
8
BLACK
6
CONTINUOUS
10
53.767
20
-30.9417
11
53.7128
21
-31.0228
0
LINE
8
BLACK
6
CONTINUOUS
10
53.7128
20
-31.0228
11
53.6317
21
-31.077
0
LINE
8
BLACK
6
CONTINUOUS
10
53.6317
20
-31.077
11
53.536
21
-31.096
0
LINE
8
BLACK
6
CONTINUOUS
10
53.536
20
-31.096
11
52.636
21
-31.096
0
LINE
8
BLACK
6
CONTINUOUS
10
52.636
20
-31.096
11
52.5403
21
-31.077
0
LINE
8
BLACK
6
CONTINUOUS
10
52.5403
20
-31.077
11
52.4592
21
-31.0228
0
LINE
8
BLACK
6
CONTINUOUS
10
52.4592
20
-31.0228
11
52.405
21
-30.9417
0
LINE
8
BLACK
6
CONTINUOUS
10
52.405
20
-30.9417
11
52.386
21
-30.846
0
LINE
8
BLACK
6
CONTINUOUS
10
52.386
20
-30.846
11
52.386
21
-30.321
0
LINE
8
BLACK
6
CONTINUOUS
10
52.386
20
-30.321
11
52.405
21
-30.2253
0
LINE
8
BLACK
6
CONTINUOUS
10
52.405
20
-30.2253
11
52.4592
21
-30.1442
0
LINE
8
BLACK
6
CONTINUOUS
10
52.4592
20
-30.1442
11
52.5403
21
-30.09
0
LINE
8
BLACK
6
CONTINUOUS
10
52.5403
20
-30.09
11
52.636
21
-30.071
0
LINE
8
BLACK
6
CONTINUOUS
10
52.636
20
-30.071
11
53.536
21
-30.071
0
LINE
8
BLACK
6
CONTINUOUS
10
53.536
20
-30.071
11
53.6317
21
-30.09
0
LINE
8
BLACK
6
CONTINUOUS
10
57.361
20
-30.0127
11
57.4319
21
-30.0601
0
LINE
8
BLACK
6
CONTINUOUS
10
57.4319
20
-30.0601
11
57.4793
21
-30.131
0
LINE
8
BLACK
6
CONTINUOUS
10
57.4793
20
-30.131
11
57.496
21
-30.2147
0
LINE
8
BLACK
6
CONTINUOUS
10
57.496
20
-30.2147
11
57.496
21
-30.6522
0
LINE
8
BLACK
6
CONTINUOUS
10
57.496
20
-30.6522
11
57.4793
21
-30.736
0
LINE
8
BLACK
6
CONTINUOUS
10
57.4793
20
-30.736
11
57.4319
21
-30.8069
0
LINE
8
BLACK
6
CONTINUOUS
10
57.4319
20
-30.8069
11
57.361
21
-30.8543
0
LINE
8
BLACK
6
CONTINUOUS
10
57.361
20
-30.8543
11
57.2772
21
-30.871
0
LINE
8
BLACK
6
CONTINUOUS
10
57.2772
20
-30.871
11
56.5147
21
-30.871
0
LINE
8
BLACK
6
CONTINUOUS
10
56.5147
20
-30.871
11
56.431
21
-30.8543
0
LINE
8
BLACK
6
CONTINUOUS
10
56.431
20
-30.8543
11
56.3601
21
-30.8069
0
LINE
8
BLACK
6
CONTINUOUS
10
56.3601
20
-30.8069
11
56.3127
21
-30.736
0
LINE
8
BLACK
6
CONTINUOUS
10
56.3127
20
-30.736
11
56.296
21
-30.6522
0
LINE
8
BLACK
6
CONTINUOUS
10
56.296
20
-30.6522
11
56.296
21
-30.2147
0
LINE
8
BLACK
6
CONTINUOUS
10
56.296
20
-30.2147
11
56.3127
21
-30.131
0
LINE
8
BLACK
6
CONTINUOUS
10
56.3127
20
-30.131
11
56.3601
21
-30.0601
0
LINE
8
BLACK
6
CONTINUOUS
10
56.3601
20
-30.0601
11
56.431
21
-30.0127
0
LINE
8
BLACK
6
CONTINUOUS
10
56.431
20
-30.0127
11
56.5147
21
-29.996
0
LINE
8
BLACK
6
CONTINUOUS
10
56.5147
20
-29.996
11
57.2772
21
-29.996
0
LINE
8
BLACK
6
CONTINUOUS
10
57.2772
20
-29.996
11
57.361
21
-30.0127
0
LINE
8
BLACK
6
CONTINUOUS
10
62.5217
20
-28.0015
11
62.6028
21
-28.0557
0
LINE
8
BLACK
6
CONTINUOUS
10
62.6028
20
-28.0557
11
62.657
21
-28.1368
0
LINE
8
BLACK
6
CONTINUOUS
10
62.657
20
-28.1368
11
62.676
21
-28.2325
0
LINE
8
BLACK
6
CONTINUOUS
10
62.676
20
-28.2325
11
62.676
21
-28.7575
0
LINE
8
BLACK
6
CONTINUOUS
10
62.676
20
-28.7575
11
62.657
21
-28.8532
0
LINE
8
BLACK
6
CONTINUOUS
10
62.657
20
-28.8532
11
62.6028
21
-28.9343
0
LINE
8
BLACK
6
CONTINUOUS
10
62.6028
20
-28.9343
11
62.5217
21
-28.9885
0
LINE
8
BLACK
6
CONTINUOUS
10
62.5217
20
-28.9885
11
62.426
21
-29.0075
0
LINE
8
BLACK
6
CONTINUOUS
10
62.426
20
-29.0075
11
61.526
21
-29.0075
0
LINE
8
BLACK
6
CONTINUOUS
10
61.526
20
-29.0075
11
61.4303
21
-28.9885
0
LINE
8
BLACK
6
CONTINUOUS
10
61.4303
20
-28.9885
11
61.3492
21
-28.9343
0
LINE
8
BLACK
6
CONTINUOUS
10
61.3492
20
-28.9343
11
61.295
21
-28.8532
0
LINE
8
BLACK
6
CONTINUOUS
10
61.295
20
-28.8532
11
61.276
21
-28.7575
0
LINE
8
BLACK
6
CONTINUOUS
10
61.276
20
-28.7575
11
61.276
21
-28.2325
0
LINE
8
BLACK
6
CONTINUOUS
10
61.276
20
-28.2325
11
61.295
21
-28.1368
0
LINE
8
BLACK
6
CONTINUOUS
10
61.295
20
-28.1368
11
61.3492
21
-28.0557
0
LINE
8
BLACK
6
CONTINUOUS
10
61.3492
20
-28.0557
11
61.4303
21
-28.0015
0
LINE
8
BLACK
6
CONTINUOUS
10
61.4303
20
-28.0015
11
61.526
21
-27.9825
0
LINE
8
BLACK
6
CONTINUOUS
10
61.526
20
-27.9825
11
62.426
21
-27.9825
0
LINE
8
BLACK
6
CONTINUOUS
10
62.426
20
-27.9825
11
62.5217
21
-28.0015
0
LINE
8
BLACK
6
CONTINUOUS
10
293.494
20
-28.7128
11
292.294
21
-28.7128
0
LINE
8
BLACK
6
CONTINUOUS
10
292.294
20
-28.7128
11
292.294
21
-27.8128
0
LINE
8
BLACK
6
CONTINUOUS
10
292.294
20
-27.8128
11
293.494
21
-27.8128
0
LINE
8
BLACK
6
CONTINUOUS
10
293.494
20
-27.8128
11
293.494
21
-28.7128
0
LINE
8
BLACK
6
CONTINUOUS
10
274.444
20
-28.7128
11
273.244
21
-28.7128
0
LINE
8
BLACK
6
CONTINUOUS
10
273.244
20
-28.7128
11
273.244
21
-27.8128
0
LINE
8
BLACK
6
CONTINUOUS
10
273.244
20
-27.8128
11
274.444
21
-27.8128
0
LINE
8
BLACK
6
CONTINUOUS
10
274.444
20
-27.8128
11
274.444
21
-28.7128
0
LINE
8
BLACK
6
CONTINUOUS
10
207.769
20
-28.7128
11
206.569
21
-28.7128
0
LINE
8
BLACK
6
CONTINUOUS
10
206.569
20
-28.7128
11
206.569
21
-27.8128
0
LINE
8
BLACK
6
CONTINUOUS
10
206.569
20
-27.8128
11
207.769
21
-27.8128
0
LINE
8
BLACK
6
CONTINUOUS
10
207.769
20
-27.8128
11
207.769
21
-28.7128
0
LINE
8
BLACK
6
CONTINUOUS
10
169.669
20
-28.7128
11
168.469
21
-28.7128
0
LINE
8
BLACK
6
CONTINUOUS
10
168.469
20
-28.7128
11
168.469
21
-27.8128
0
LINE
8
BLACK
6
CONTINUOUS
10
168.469
20
-27.8128
11
169.669
21
-27.8128
0
LINE
8
BLACK
6
CONTINUOUS
10
169.669
20
-27.8128
11
169.669
21
-28.7128
0
LINE
8
BLACK
6
CONTINUOUS
10
188.719
20
-28.7128
11
187.519
21
-28.7128
0
LINE
8
BLACK
6
CONTINUOUS
10
187.519
20
-28.7128
11
187.519
21
-27.8128
0
LINE
8
BLACK
6
CONTINUOUS
10
187.519
20
-27.8128
11
188.719
21
-27.8128
0
LINE
8
BLACK
6
CONTINUOUS
10
188.719
20
-27.8128
11
188.719
21
-28.7128
0
LINE
8
BLACK
6
CONTINUOUS
10
141.094
20
-28.7128
11
139.894
21
-28.7128
0
LINE
8
BLACK
6
CONTINUOUS
10
139.894
20
-28.7128
11
139.894
21
-27.8128
0
LINE
8
BLACK
6
CONTINUOUS
10
139.894
20
-27.8128
11
141.094
21
-27.8128
0
LINE
8
BLACK
6
CONTINUOUS
10
141.094
20
-27.8128
11
141.094
21
-28.7128
0
LINE
8
BLACK
6
CONTINUOUS
10
255.394
20
-28.7128
11
254.194
21
-28.7128
0
LINE
8
BLACK
6
CONTINUOUS
10
254.194
20
-28.7128
11
254.194
21
-27.8128
0
LINE
8
BLACK
6
CONTINUOUS
10
254.194
20
-27.8128
11
255.394
21
-27.8128
0
LINE
8
BLACK
6
CONTINUOUS
10
255.394
20
-27.8128
11
255.394
21
-28.7128
0
LINE
8
BLACK
6
CONTINUOUS
10
341.119
20
-28.7128
11
339.919
21
-28.7128
0
LINE
8
BLACK
6
CONTINUOUS
10
339.919
20
-28.7128
11
339.919
21
-27.8128
0
LINE
8
BLACK
6
CONTINUOUS
10
339.919
20
-27.8128
11
341.119
21
-27.8128
0
LINE
8
BLACK
6
CONTINUOUS
10
341.119
20
-27.8128
11
341.119
21
-28.7128
0
LINE
8
BLACK
6
CONTINUOUS
10
312.544
20
-28.7128
11
311.344
21
-28.7128
0
LINE
8
BLACK
6
CONTINUOUS
10
311.344
20
-28.7128
11
311.344
21
-27.8128
0
LINE
8
BLACK
6
CONTINUOUS
10
311.344
20
-27.8128
11
312.544
21
-27.8128
0
LINE
8
BLACK
6
CONTINUOUS
10
312.544
20
-27.8128
11
312.544
21
-28.7128
0
LINE
8
BLACK
6
CONTINUOUS
10
226.819
20
-28.7128
11
225.619
21
-28.7128
0
LINE
8
BLACK
6
CONTINUOUS
10
225.619
20
-28.7128
11
225.619
21
-27.8128
0
LINE
8
BLACK
6
CONTINUOUS
10
225.619
20
-27.8128
11
226.819
21
-27.8128
0
LINE
8
BLACK
6
CONTINUOUS
10
226.819
20
-27.8128
11
226.819
21
-28.7128
0
LINE
8
BLACK
6
CONTINUOUS
10
122.203
20
-28.7128
11
121.002
21
-28.7128
0
LINE
8
BLACK
6
CONTINUOUS
10
121.002
20
-28.7128
11
121.002
21
-27.8128
0
LINE
8
BLACK
6
CONTINUOUS
10
121.002
20
-27.8128
11
122.203
21
-27.8128
0
LINE
8
BLACK
6
CONTINUOUS
10
122.203
20
-27.8128
11
122.203
21
-28.7128
0
LINE
8
BLACK
6
CONTINUOUS
10
83.9437
20
-28.7075
11
82.7437
21
-28.7075
0
LINE
8
BLACK
6
CONTINUOUS
10
82.7437
20
-28.7075
11
82.7437
21
-27.8075
0
LINE
8
BLACK
6
CONTINUOUS
10
82.7437
20
-27.8075
11
83.9437
21
-27.8075
0
LINE
8
BLACK
6
CONTINUOUS
10
83.9437
20
-27.8075
11
83.9437
21
-28.7075
0
LINE
8
BLACK
6
CONTINUOUS
10
45.8438
20
-28.7075
11
44.6437
21
-28.7075
0
LINE
8
BLACK
6
CONTINUOUS
10
44.6437
20
-28.7075
11
44.6437
21
-27.8075
0
LINE
8
BLACK
6
CONTINUOUS
10
44.6437
20
-27.8075
11
45.8438
21
-27.8075
0
LINE
8
BLACK
6
CONTINUOUS
10
45.8438
20
-27.8075
11
45.8438
21
-28.7075
0
LINE
8
BLACK
6
CONTINUOUS
10
102.962
20
-28.7075
11
101.762
21
-28.7075
0
LINE
8
BLACK
6
CONTINUOUS
10
101.762
20
-28.7075
11
101.762
21
-27.8075
0
LINE
8
BLACK
6
CONTINUOUS
10
101.762
20
-27.8075
11
102.962
21
-27.8075
0
LINE
8
BLACK
6
CONTINUOUS
10
102.962
20
-27.8075
11
102.962
21
-28.7075
0
LINE
8
BLACK
6
CONTINUOUS
10
62.5217
20
-26.1765
11
62.6028
21
-26.2307
0
LINE
8
BLACK
6
CONTINUOUS
10
62.6028
20
-26.2307
11
62.657
21
-26.3118
0
LINE
8
BLACK
6
CONTINUOUS
10
62.657
20
-26.3118
11
62.676
21
-26.4075
0
LINE
8
BLACK
6
CONTINUOUS
10
62.676
20
-26.4075
11
62.676
21
-26.9325
0
LINE
8
BLACK
6
CONTINUOUS
10
62.676
20
-26.9325
11
62.657
21
-27.0282
0
LINE
8
BLACK
6
CONTINUOUS
10
62.657
20
-27.0282
11
62.6028
21
-27.1093
0
LINE
8
BLACK
6
CONTINUOUS
10
62.6028
20
-27.1093
11
62.5217
21
-27.1635
0
LINE
8
BLACK
6
CONTINUOUS
10
62.5217
20
-27.1635
11
62.426
21
-27.1825
0
LINE
8
BLACK
6
CONTINUOUS
10
62.426
20
-27.1825
11
61.526
21
-27.1825
0
LINE
8
BLACK
6
CONTINUOUS
10
61.526
20
-27.1825
11
61.4303
21
-27.1635
0
LINE
8
BLACK
6
CONTINUOUS
10
61.4303
20
-27.1635
11
61.3492
21
-27.1093
0
LINE
8
BLACK
6
CONTINUOUS
10
61.3492
20
-27.1093
11
61.295
21
-27.0282
0
LINE
8
BLACK
6
CONTINUOUS
10
61.295
20
-27.0282
11
61.276
21
-26.9325
0
LINE
8
BLACK
6
CONTINUOUS
10
61.276
20
-26.9325
11
61.276
21
-26.4075
0
LINE
8
BLACK
6
CONTINUOUS
10
61.276
20
-26.4075
11
61.295
21
-26.3118
0
LINE
8
BLACK
6
CONTINUOUS
10
61.295
20
-26.3118
11
61.3492
21
-26.2307
0
LINE
8
BLACK
6
CONTINUOUS
10
61.3492
20
-26.2307
11
61.4303
21
-26.1765
0
LINE
8
BLACK
6
CONTINUOUS
10
61.4303
20
-26.1765
11
61.526
21
-26.1575
0
LINE
8
BLACK
6
CONTINUOUS
10
61.526
20
-26.1575
11
62.426
21
-26.1575
0
LINE
8
BLACK
6
CONTINUOUS
10
62.426
20
-26.1575
11
62.5217
21
-26.1765
0
LINE
8
BLACK
6
CONTINUOUS
10
255.394
20
-25.4128
11
254.194
21
-25.4128
0
LINE
8
BLACK
6
CONTINUOUS
10
254.194
20
-25.4128
11
254.194
21
-24.5129
0
LINE
8
BLACK
6
CONTINUOUS
10
254.194
20
-24.5129
11
255.394
21
-24.5129
0
LINE
8
BLACK
6
CONTINUOUS
10
255.394
20
-24.5129
11
255.394
21
-25.4128
0
LINE
8
BLACK
6
CONTINUOUS
10
141.094
20
-25.4128
11
139.894
21
-25.4128
0
LINE
8
BLACK
6
CONTINUOUS
10
139.894
20
-25.4128
11
139.894
21
-24.5129
0
LINE
8
BLACK
6
CONTINUOUS
10
139.894
20
-24.5129
11
141.094
21
-24.5129
0
LINE
8
BLACK
6
CONTINUOUS
10
141.094
20
-24.5129
11
141.094
21
-25.4128
0
LINE
8
BLACK
6
CONTINUOUS
10
341.119
20
-25.4128
11
339.919
21
-25.4128
0
LINE
8
BLACK
6
CONTINUOUS
10
339.919
20
-25.4128
11
339.919
21
-24.5129
0
LINE
8
BLACK
6
CONTINUOUS
10
339.919
20
-24.5129
11
341.119
21
-24.5129
0
LINE
8
BLACK
6
CONTINUOUS
10
341.119
20
-24.5129
11
341.119
21
-25.4128
0
LINE
8
BLACK
6
CONTINUOUS
10
169.669
20
-25.4128
11
168.469
21
-25.4128
0
LINE
8
BLACK
6
CONTINUOUS
10
168.469
20
-25.4128
11
168.469
21
-24.5129
0
LINE
8
BLACK
6
CONTINUOUS
10
168.469
20
-24.5129
11
169.669
21
-24.5129
0
LINE
8
BLACK
6
CONTINUOUS
10
169.669
20
-24.5129
11
169.669
21
-25.4128
0
LINE
8
BLACK
6
CONTINUOUS
10
188.719
20
-25.4128
11
187.519
21
-25.4128
0
LINE
8
BLACK
6
CONTINUOUS
10
187.519
20
-25.4128
11
187.519
21
-24.5129
0
LINE
8
BLACK
6
CONTINUOUS
10
187.519
20
-24.5129
11
188.719
21
-24.5129
0
LINE
8
BLACK
6
CONTINUOUS
10
188.719
20
-24.5129
11
188.719
21
-25.4128
0
LINE
8
BLACK
6
CONTINUOUS
10
122.203
20
-25.4128
11
121.002
21
-25.4128
0
LINE
8
BLACK
6
CONTINUOUS
10
121.002
20
-25.4128
11
121.002
21
-24.5129
0
LINE
8
BLACK
6
CONTINUOUS
10
121.002
20
-24.5129
11
122.203
21
-24.5129
0
LINE
8
BLACK
6
CONTINUOUS
10
122.203
20
-24.5129
11
122.203
21
-25.4128
0
LINE
8
BLACK
6
CONTINUOUS
10
207.769
20
-25.4128
11
206.569
21
-25.4128
0
LINE
8
BLACK
6
CONTINUOUS
10
206.569
20
-25.4128
11
206.569
21
-24.5129
0
LINE
8
BLACK
6
CONTINUOUS
10
206.569
20
-24.5129
11
207.769
21
-24.5129
0
LINE
8
BLACK
6
CONTINUOUS
10
207.769
20
-24.5129
11
207.769
21
-25.4128
0
LINE
8
BLACK
6
CONTINUOUS
10
226.819
20
-25.4128
11
225.619
21
-25.4128
0
LINE
8
BLACK
6
CONTINUOUS
10
225.619
20
-25.4128
11
225.619
21
-24.5129
0
LINE
8
BLACK
6
CONTINUOUS
10
225.619
20
-24.5129
11
226.819
21
-24.5129
0
LINE
8
BLACK
6
CONTINUOUS
10
226.819
20
-24.5129
11
226.819
21
-25.4128
0
LINE
8
BLACK
6
CONTINUOUS
10
312.544
20
-25.4128
11
311.344
21
-25.4128
0
LINE
8
BLACK
6
CONTINUOUS
10
311.344
20
-25.4128
11
311.344
21
-24.5129
0
LINE
8
BLACK
6
CONTINUOUS
10
311.344
20
-24.5129
11
312.544
21
-24.5129
0
LINE
8
BLACK
6
CONTINUOUS
10
312.544
20
-24.5129
11
312.544
21
-25.4128
0
LINE
8
BLACK
6
CONTINUOUS
10
274.444
20
-25.4128
11
273.244
21
-25.4128
0
LINE
8
BLACK
6
CONTINUOUS
10
273.244
20
-25.4128
11
273.244
21
-24.5129
0
LINE
8
BLACK
6
CONTINUOUS
10
273.244
20
-24.5129
11
274.444
21
-24.5129
0
LINE
8
BLACK
6
CONTINUOUS
10
274.444
20
-24.5129
11
274.444
21
-25.4128
0
LINE
8
BLACK
6
CONTINUOUS
10
293.494
20
-25.4128
11
292.294
21
-25.4128
0
LINE
8
BLACK
6
CONTINUOUS
10
292.294
20
-25.4128
11
292.294
21
-24.5129
0
LINE
8
BLACK
6
CONTINUOUS
10
292.294
20
-24.5129
11
293.494
21
-24.5129
0
LINE
8
BLACK
6
CONTINUOUS
10
293.494
20
-24.5129
11
293.494
21
-25.4128
0
LINE
8
BLACK
6
CONTINUOUS
10
102.962
20
-25.4075
11
101.762
21
-25.4075
0
LINE
8
BLACK
6
CONTINUOUS
10
101.762
20
-25.4075
11
101.762
21
-24.5075
0
LINE
8
BLACK
6
CONTINUOUS
10
101.762
20
-24.5075
11
102.962
21
-24.5075
0
LINE
8
BLACK
6
CONTINUOUS
10
102.962
20
-24.5075
11
102.962
21
-25.4075
0
LINE
8
BLACK
6
CONTINUOUS
10
45.8438
20
-25.4075
11
44.6437
21
-25.4075
0
LINE
8
BLACK
6
CONTINUOUS
10
44.6437
20
-25.4075
11
44.6437
21
-24.5075
0
LINE
8
BLACK
6
CONTINUOUS
10
44.6437
20
-24.5075
11
45.8438
21
-24.5075
0
LINE
8
BLACK
6
CONTINUOUS
10
45.8438
20
-24.5075
11
45.8438
21
-25.4075
0
LINE
8
BLACK
6
CONTINUOUS
10
83.9437
20
-25.4075
11
82.7437
21
-25.4075
0
LINE
8
BLACK
6
CONTINUOUS
10
82.7437
20
-25.4075
11
82.7437
21
-24.5075
0
LINE
8
BLACK
6
CONTINUOUS
10
82.7437
20
-24.5075
11
83.9437
21
-24.5075
0
LINE
8
BLACK
6
CONTINUOUS
10
83.9437
20
-24.5075
11
83.9437
21
-25.4075
  0
ENDSEC
  0
EOF
